<?xml version="1.0" standalone="no"?>
  <!DOCTYPE svg PUBLIC "-//W3C//DTD SVG 1.1//EN" "http://www.w3.org/Graphics/SVG/1.1/DTD/svg11.dtd" >
  <svg>
  <metadata>
  Created by font-carrier
  </metadata>
  <defs>
  <font id="NanumBarunRobotoLight" horiz-adv-x="2130" vert-adv-y="2130" >
    <font-face
      
      font-family="NanumBarunRoboto Light"
      
      font-weight="400"
      
      font-stretch="normal"
      
      units-per-em="2048"
      
      ascent="2146"
      
      descent="-555"
      
    />
      <missing-glyph />

      
      <glyph glyph-name="x" unicode="&#x78;" horiz-adv-x="100"
        d="M20 20 L50 20 L50 -20 Z" />
      

      
      <glyph glyph-name="uniAC00" unicode="&#xAC00;" d="M482 1508Q784 1508 981 1515Q945 1086 739.50 777Q534 468 131 253L28 358Q398 537 592.50 810.50Q787 1084 822 1387Q654 1381 363 1381L110 1381L110 1508L482 1508M1739 931L1739 800L1420 800L1420-128L1282-128L1282 1666L1420 1666L1420 931L1739 931Z"  horiz-adv-x="1738" vert-adv-y="2048"  />

      
      <glyph glyph-name="uniAC01" unicode="&#xAC01;" d="M834 1460Q675 1454 352 1454L156 1454L156 1580L466 1580Q776 1580 999 1587Q916 875 132 634L45 750Q545 897 740 1222Q810 1337 834 1460M1725 1184L1725 1052L1431 1052L1431 613L1293 613L1293 1666L1431 1666L1431 1184L1725 1184M1431-133L1293-133L1293 399L305 399L305 527L1431 527L1431-133Z"  horiz-adv-x="1739" vert-adv-y="2048"  />

      
      <glyph glyph-name="uniAC04" unicode="&#xAC04;" d="M836 1447Q677 1443 348 1443L155 1443L155 1569L462 1569Q771 1569 995 1575Q919 834 140 563L49 672Q744 904 836 1447M1725 1113L1725 983L1431 983L1431 345L1293 345L1293 1666L1431 1666L1431 1113L1725 1113M1461 38L1461-92L374-92L374 461L514 461L514 38L1461 38Z"  horiz-adv-x="1739" vert-adv-y="2048"  />

      
      <glyph glyph-name="uniAC07" unicode="&#xAC07;" d="M833 1460Q675 1454 353 1454L156 1454L156 1580L468 1580Q778 1580 1001 1587Q915 887 130 653L45 769Q725 961 833 1460M1725 1189L1725 1058L1431 1058L1431 643L1293 643L1293 1666L1431 1666L1431 1189L1725 1189M1468-101L348-101L348 556L1435 556L1435 423L489 423L489 28L1468 28L1468-101Z"  horiz-adv-x="1739" vert-adv-y="2048"  />

      
      <glyph glyph-name="uniAC08" unicode="&#xAC08;" d="M834 1462Q676 1456 356 1456L155 1456L155 1580L471 1580Q779 1580 1005 1587Q956 1258 730 1045.50Q504 833 122 733L46 855Q713 1014 834 1462M1724 1251L1724 1122L1430 1122L1430 779L1292 779L1292 1666L1430 1666L1430 1251L1724 1251M1471 19L1471-109L329-109L329 360L1292 360L1292 568L329 568L329 693L1430 693L1430 237L468 237L468 19L1471 19Z"  horiz-adv-x="1739" vert-adv-y="2048"  />

      
      <glyph glyph-name="uniAC09" unicode="&#xAC09;" d="M834 1462Q676 1456 356 1456L155 1456L155 1580L471 1580Q779 1580 1005 1587Q956 1258 730 1041.50Q504 825 122 725L46 847Q710 1007 834 1462M1724 1256L1724 1128L1430 1128L1430 779L1292 779L1292 1666L1430 1666L1430 1256L1724 1256M1430-133L1292-133L1292 572L894 572L894 697L1430 697L1430-133M983-59Q860-109 629-109L283-109L283 360L714 360L714 572L283 572L283 697L853 697L853 237L421 237L421 19L684 19Q860 19 983 67L983-59Z"  horiz-adv-x="1739" vert-adv-y="2048"  />

      
      <glyph glyph-name="uniAC0A" unicode="&#xAC0A;" d="M834 1462Q676 1456 356 1456L155 1456L155 1580L471 1580Q779 1580 1005 1587Q956 1258 730 1041.50Q504 825 122 725L46 847Q710 1007 834 1462M1724 1256L1724 1128L1430 1128L1430 779L1292 779L1292 1666L1430 1666L1430 1256L1724 1256M889-101L889 697L1430 697L1430-101L889-101M1294 573L1022 573L1022 24L1294 24L1294 573M860-57Q735-105 500-105L266-105L266 360L681 360L681 572L266 572L266 697L816 697L816 237L404 237L404 23L559 23Q737 23 860 69L860-57Z"  horiz-adv-x="1739" vert-adv-y="2048"  />

      
      <glyph glyph-name="uniAC10" unicode="&#xAC10;" d="M835 1460Q677 1454 357 1454L156 1454L156 1580L472 1580Q780 1580 1005 1587Q962 1242 739 1013Q516 784 128 671L44 789Q727 982 835 1460M1725 1199L1725 1067L1431 1067L1431 662L1293 662L1293 1666L1431 1666L1431 1199L1725 1199M1431 575L1431-101L344-101L344 575L1431 575M1293 28L1293 447L485 447L485 28L1293 28Z"  horiz-adv-x="1739" vert-adv-y="2048"  />

      
      <glyph glyph-name="uniAC11" unicode="&#xAC11;" d="M830 1460Q671 1454 354 1454L155 1454L155 1580L469 1580Q777 1580 1001 1587Q954 1252 731 1030.50Q508 809 125 706L46 826Q711 994 830 1460M1724 1243L1724 1112L1430 1112L1430 732L1292 732L1292 1666L1430 1666L1430 1243L1724 1243M1430 649L1430-101L344-101L344 637L484 637L484 424L1292 424L1292 649L1430 649M482 28L1294 28L1294 297L482 297L482 28Z"  horiz-adv-x="1739" vert-adv-y="2048"  />

      
      <glyph glyph-name="uniAC12" unicode="&#xAC12;" d="M907 652L907-101L279-101L279 637L418 637L418 412L770 412L770 652L907 652M830 1460Q671 1454 354 1454L155 1454L155 1580L469 1580Q777 1580 1001 1587Q954 1252 731 1030.50Q508 809 125 706L46 826Q711 994 830 1460M871-32Q1230 201 1196 656L1340 656Q1340 509 1318 399Q1388 172 1659-14L1553-119Q1332 49 1264 212Q1199 40 985-127L871-32M1724 1243L1724 1112L1430 1112L1430 732L1292 732L1292 1666L1430 1666L1430 1243L1724 1243M418 28L770 28L770 288L418 288L418 28Z"  horiz-adv-x="1739" vert-adv-y="2048"  />

      
      <glyph glyph-name="uniAC13" unicode="&#xAC13;" d="M834 1460Q675 1454 349 1454L155 1454L155 1580L463 1580Q771 1580 996 1587Q917 853 139 587L44 698Q741 922 834 1460M192-11Q506 63 671 229Q835 396 835 626L981 626Q981 516 953 432Q1021 287 1185.50 164.50Q1350 42 1586-8L1503-126Q1189-54 981 171Q917 239 888 291Q816 160 655 44Q494-72 276-126L192-11M1724 1148L1724 1019L1430 1019L1430 455L1292 455L1292 1666L1430 1666L1430 1148L1724 1148Z"  horiz-adv-x="1739" vert-adv-y="2048"  />

      
      <glyph glyph-name="uniAC14" unicode="&#xAC14;" d="M1533-121Q1310-7 1209 200Q1129 3 908-129Q686-7 590 205Q502 5 237-129L136-23Q338 72 438 217.50Q538 363 523 584L662 584Q666 482 648 393Q674 299 742.50 200Q811 101 911 39Q1029 125 1094 263.50Q1159 402 1145 592L1281 592Q1285 484 1268 392Q1297 281 1385 174.50Q1473 68 1634-11L1533-121M833 1460Q675 1454 353 1454L155 1454L155 1580L468 1580Q777 1580 1000 1587Q914 900 127 671L46 789Q725 980 833 1460M1724 1195L1724 1064L1430 1064L1430 662L1292 662L1292 1666L1430 1666L1430 1195L1724 1195Z"  horiz-adv-x="1739" vert-adv-y="2048"  />

      
      <glyph glyph-name="uniAC15" unicode="&#xAC15;" d="M834 1460Q675 1454 352 1454L156 1454L156 1580L466 1580Q776 1580 999 1587Q917 884 132 644L45 758Q734 962 834 1460M1725 1193L1725 1060L1431 1060L1431 615L1293 615L1293 1666L1431 1666L1431 1193L1725 1193M876-140Q612-140 453-33Q294 68 294 232Q294 396 452 497.50Q610 599 876 599Q1142 599 1299.50 497.50Q1457 396 1457 232Q1457 68 1299-33Q1140-140 876-140M875.50 473Q875.50 473 768.75 473Q662 473 550.50 401.50Q439 330 439 228.50Q439 127 554.50 56.50Q670-14 875-14Q1080-14 1195.50 56.50Q1311 127 1311 228.50Q1311 330 1200 401.50Q1089 473 875.50 473Z"  horiz-adv-x="1739" vert-adv-y="2048"  />

      
      <glyph glyph-name="uniAC16" unicode="&#xAC16;" d="M1217 456Q1097 449 779 449L373 449L373 569Q373 579 786 579Q1199 579 1379 586Q1403 586 1415.50 565.50Q1428 545 1414 522Q1345 343 1063 176Q1310 67 1624-1L1547-126Q1244-52 929 104Q641-43 278-131L214-3Q568 69 859.50 210Q1151 351 1217 456M833 1460Q675 1454 353 1454L155 1454L155 1580L468 1580Q777 1580 1000 1587Q914 900 127 671L46 789Q725 980 833 1460M1724 1195L1724 1064L1430 1064L1430 662L1292 662L1292 1666L1430 1666L1430 1195L1724 1195Z"  horiz-adv-x="1739" vert-adv-y="2048"  />

      
      <glyph glyph-name="uniAC17" unicode="&#xAC17;" d="M1204 367Q1101 360 953 360L386 360L386 472Q386 482 790 482Q1194 482 1376 488Q1399 488 1412 468.50Q1425 449 1410 424Q1318 253 1098 137Q1325 47 1630 3L1561-122Q1257-79 952 65Q679-59 304-124L231-4Q778 84 1076 269Q1171 327 1204 367M833 1460Q675 1454 353 1454L155 1454L155 1580L468 1580Q777 1580 1000 1587Q914 900 127 671L46 789Q725 980 833 1460M1724 1227L1724 1097L1430 1097L1430 701L1292 701L1292 1666L1430 1666L1430 1227L1724 1227M596 606L596 732L1160 732L1160 606L596 606Z"  horiz-adv-x="1739" vert-adv-y="2048"  />

      
      <glyph glyph-name="uniAC19" unicode="&#xAC19;" d="M834 1462Q676 1456 356 1456L155 1456L155 1580L471 1580Q779 1580 1005 1587Q956 1258 730 1041.50Q504 825 122 725L46 847Q710 1007 834 1462M1724 1241L1724 1112L1430 1112L1430 771L1292 771L1292 1666L1430 1666L1430 1241L1724 1241M1430 235L482 235L482 26L1471 26L1471-101L344-101L344 686L1434 686L1434 560L482 560L482 358L1430 358L1430 235Z"  horiz-adv-x="1739" vert-adv-y="2048"  />

      
      <glyph glyph-name="uniAC1A" unicode="&#xAC1A;" d="M1724 1182L1724 1052L1430 1052L1430 667L1292 667L1292 1666L1430 1666L1430 1182L1724 1182M1510 28L1510-101L271-101L271 28L515 28L507 453L293 453L293 582L1481 582L1481 453L1268 453L1260 28L1510 28M652 28L1123 28L1131 453L645 453L652 28M833 1460Q675 1454 353 1454L155 1454L155 1580L468 1580Q777 1580 1000 1587Q914 900 127 671L46 789Q725 980 833 1460Z"  horiz-adv-x="1739" vert-adv-y="2048"  />

      
      <glyph glyph-name="uniAC1B" unicode="&#xAC1B;" d="M834 1462Q676 1456 356 1456L155 1456L155 1580L471 1580Q779 1580 1005 1587Q956 1258 730 1041.50Q504 825 122 725L46 847Q710 1007 834 1462M1724 1227L1724 1097L1430 1097L1430 705L1292 705L1292 1666L1430 1666L1430 1227L1724 1227M1499 406L244 406L244 527L1499 527L1499 406M1162 625L557 625L557 750L1162 750L1162 625M1394 93.50Q1394 93.50 1394 33.75Q1394-26 1250-87.50Q1106-149 870.50-149Q635-149 491-87.50Q347-26 347 93.50Q347 213 488.50 274.50Q630 336 871 336Q1112 336 1253 274.50Q1394 213 1394 93.50M497 93.50Q497 93.50 497 66.75Q497 40 595 4.50Q693-31 870.50-31Q1048-31 1146 4.50Q1244 40 1244 93.50Q1244 147 1152.50 182Q1061 217 870 217Q679 217 588 182Q497 147 497 93.50Z"  horiz-adv-x="1739" vert-adv-y="2048"  />

      
      <glyph glyph-name="uniAC1C" unicode="&#xAC1C;" d="M421 1502Q670 1502 842 1509Q826 1080 662.50 771.50Q499 463 158 247L52 350Q650 700 693 1383Q569 1377 331 1377L130 1377L130 1502L421 1502M1549 1666L1549-128L1412-128L1412 827L1139 827L1139-83L1005-83L1005 1647L1139 1647L1139 958L1412 958L1412 1666L1549 1666Z"  horiz-adv-x="1749" vert-adv-y="2048"  />

      
      <glyph glyph-name="uniAC1D" unicode="&#xAC1D;" d="M413 1577Q669 1577 865 1582Q849 1230 662 983Q477 733 141 601L52 715Q478 875 645 1215Q702 1332 715 1455Q596 1450 321 1450L156 1450L156 1577L413 1577M1564 1666L1564 604L1428 604L1428 1062L1162 1062L1162 604L1028 604L1028 1647L1162 1647L1162 1189L1428 1189L1428 1666L1564 1666M1564-133L1426-133L1426 384L388 384L388 516L1564 516L1564-133Z"  horiz-adv-x="1748" vert-adv-y="2048"  />

      
      <glyph glyph-name="uniAC20" unicode="&#xAC20;" d="M413 1565Q670 1565 865 1571Q850 1216 666.50 955Q483 694 145 559L54 671Q484 840 645 1192Q702 1314 716 1443Q596 1438 321 1438L156 1438L156 1565L413 1565M1564 1666L1564 345L1428 345L1428 987L1162 987L1162 384L1028 384L1028 1647L1162 1647L1162 1111L1428 1111L1428 1666L1564 1666M1594 38L1594-92L455-92L455 477L595 477L595 38L1594 38Z"  horiz-adv-x="1746" vert-adv-y="2048"  />

      
      <glyph glyph-name="uniAC24" unicode="&#xAC24;" d="M417 1577Q674 1577 868 1582Q857 1267 659 1034Q461 801 133 696L52 812Q331 893 510 1067Q689 1241 715 1455Q596 1450 324 1450L156 1450L156 1577L417 1577M1563 1666L1563 760L1428 760L1428 1112L1161 1112L1161 760L1028 760L1028 1647L1161 1647L1161 1237L1428 1237L1428 1666L1563 1666M1603 19L1603-109L418-109L418 352L1426 352L1426 548L418 548L418 674L1563 674L1563 230L556 230L556 19L1603 19Z"  horiz-adv-x="1745" vert-adv-y="2048"  />

      
      <glyph glyph-name="uniAC2C" unicode="&#xAC2C;" d="M413 1577Q669 1577 865 1582Q853 1244 662.50 999Q472 754 139 630L52 744Q334 839 511.50 1027Q689 1215 715 1455Q596 1450 321 1450L156 1450L156 1577L413 1577M1564 1666L1564 643L1428 643L1428 1089L1162 1089L1162 643L1028 643L1028 1647L1162 1647L1162 1216L1428 1216L1428 1666L1564 1666M1564 556L1564-101L428-101L428 556L1564 556M1426 26L1426 427L566 427L566 26L1426 26Z"  horiz-adv-x="1748" vert-adv-y="2048"  />

      
      <glyph glyph-name="uniAC2D" unicode="&#xAC2D;" d="M415 1577Q671 1577 866 1582Q855 1256 660.50 1015Q466 774 136 657L52 772Q331 863 510 1043.50Q689 1224 715 1455Q596 1450 323 1450L156 1450L156 1577L415 1577M1564 1666L1564 712L1428 712L1428 1112L1162 1112L1162 712L1028 712L1028 1647L1162 1647L1162 1237L1428 1237L1428 1666L1564 1666M1564 628L1564-101L428-101L428 617L566 617L566 410L1426 410L1426 628L1564 628M564 26L1428 26L1428 284L564 284L564 26Z"  horiz-adv-x="1748" vert-adv-y="2048"  />

      
      <glyph glyph-name="uniAC2F" unicode="&#xAC2F;" d="M1563 1666L1563 470L1428 470L1428 1065L1161 1065L1161 669L1028 669L1028 1647L1161 1647L1161 1193L1428 1193L1428 1666L1563 1666M413 1577Q669 1577 864 1582Q841 1053 445 754Q315 656 143 588L52 700Q482 870 645 1209Q702 1330 714 1455Q596 1450 320 1450L156 1450L156 1577L413 1577M237-10Q557 60 723 216.50Q889 373 889 593L1035 593Q1035 481 1006 402Q1069 269 1243 154Q1417 39 1649-7L1573-126Q1348-76 1181.50 34.50Q1015 145 939 270Q763-13 316-126L237-10Z"  horiz-adv-x="1743" vert-adv-y="2048"  />

      
      <glyph glyph-name="uniAC30" unicode="&#xAC30;" d="M1331 380Q1397 130 1698-11L1596-121Q1372-11 1272 194Q1193 3 970-128Q748-11 652 198Q564 7 298-129L198-23Q613 171 585 568L724 568Q728 467 710 382Q736 287 804.50 192.50Q873 98 974 37Q1089 119 1154.50 256Q1220 393 1208 575L1344 575Q1348 472 1331 380M1562 1666L1562 643L1427 643L1427 1101L1160 1101L1160 643L1027 643L1027 1647L1160 1647L1160 1227L1427 1227L1427 1666L1562 1666M412 1577Q668 1577 864 1582Q853 1244 662.50 999Q472 754 139 630L52 744Q332 839 509.50 1027Q687 1215 714 1455Q596 1450 319 1450L155 1450L155 1577L412 1577Z"  horiz-adv-x="1740" vert-adv-y="2048"  />

      
      <glyph glyph-name="uniAC31" unicode="&#xAC31;" d="M413 1577Q669 1577 865 1582Q849 1230 662 983Q477 733 141 601L52 715Q478 875 645 1215Q702 1332 715 1455Q596 1450 321 1450L156 1450L156 1577L413 1577M1564 1666L1564 579L1428 579L1428 1091L1162 1091L1162 671L1028 671L1028 1647L1162 1647L1162 1218L1428 1218L1428 1666L1564 1666M959-138Q687-138 523.50-35.50Q360 67 360 228Q360 389 522 489Q689 588 959 588Q1229 588 1395 489Q1558 389 1558 228Q1558 67 1394.50-35.50Q1231-138 959-138M957-13Q957-13 1062.50-13Q1168-13 1286 58Q1404 129 1404 226Q1404 323 1290 392.50Q1176 462 958.50 462Q741 462 627 392.50Q513 323 513 226Q513 129 629.50 58Q746-13 957-13Z"  horiz-adv-x="1748" vert-adv-y="2048"  />

      
      <glyph glyph-name="uniAC38" unicode="&#xAC38;" d="M1719 531L1419 531L1419-128L1282-128L1282 1666L1419 1666L1419 1208L1719 1208L1719 1080L1419 1080L1419 658L1719 658L1719 531M481 1508Q783 1508 981 1515Q944 1086 739 777Q534 468 131 253L27 358Q397 537 592 810.50Q787 1084 822 1387Q653 1381 363 1381L109 1381L109 1508L481 1508Z"  horiz-adv-x="1738" vert-adv-y="2048"  />

      
      <glyph glyph-name="uniAC39" unicode="&#xAC39;" d="M1432 1666L1432 1373L1717 1373L1717 1247L1432 1247L1432 1006L1717 1006L1717 880L1432 880L1432 615L1294 615L1294 1666L1432 1666M835 1460Q676 1454 352 1454L157 1454L157 1580L466 1580Q776 1580 999 1587Q916 875 132 634L45 750Q545 897 740 1222Q810 1337 835 1460M1432-133L1294-133L1294 399L306 399L306 527L1432 527L1432-133Z"  horiz-adv-x="1740" vert-adv-y="2048"  />

      
      <glyph glyph-name="uniAC3C" unicode="&#xAC3C;" d="M1430 1666L1430 1310L1715 1310L1715 1184L1430 1184L1430 914L1715 914L1715 788L1430 788L1430 345L1292 345L1292 1666L1430 1666M831 1447Q670 1443 346 1443L153 1443L153 1569L460 1569Q769 1569 993 1575Q917 834 138 563L43 672Q738 904 831 1447M1459 38L1459-92L372-92L372 465L512 465L512 38L1459 38Z"  horiz-adv-x="1739" vert-adv-y="2048"  />

      
      <glyph glyph-name="uniAC40" unicode="&#xAC40;" d="M1431 1666L1431 1407L1716 1407L1716 1284L1431 1284L1431 1091L1716 1091L1716 968L1431 968L1431 779L1293 779L1293 1666L1431 1666M834 1462Q677 1456 357 1456L156 1456L156 1580L472 1580Q779 1580 1005 1587Q956 1258 730 1045.50Q504 833 123 733L46 855Q713 1014 834 1462M1471 19L1471-109L329-109L329 360L1293 360L1293 568L329 568L329 693L1431 693L1431 237L468 237L468 19L1471 19Z"  horiz-adv-x="1740" vert-adv-y="2048"  />

      
      <glyph glyph-name="uniAC4B" unicode="&#xAC4B;" d="M833 1460Q674 1454 348 1454L155 1454L155 1580L462 1580Q771 1580 995 1587Q916 853 138 587L43 698Q740 922 833 1460M191-11Q505 63 671 229Q834 396 834 626L980 626Q980 516 953 432Q1020 287 1184.50 164.50Q1349 42 1586-8L1502-126Q1188-54 980 171Q917 239 887 291Q816 160 654.50 44Q493-72 276-126L191-11M1430 1666L1430 1356L1715 1356L1715 1229L1430 1229L1430 966L1715 966L1715 839L1430 839L1430 455L1292 455L1292 1666L1430 1666Z"  horiz-adv-x="1739" vert-adv-y="2048"  />

      
      <glyph glyph-name="uniAC4D" unicode="&#xAC4D;" d="M1432 1666L1432 1373L1717 1373L1717 1247L1432 1247L1432 993L1717 993L1717 866L1432 866L1432 611L1294 611L1294 1666L1432 1666M835 1460Q676 1454 352 1454L157 1454L157 1580L466 1580Q776 1580 999 1587Q917 884 132 644L45 759Q733 960 835 1460M876-140Q612-140 453-33Q294 68 294 232Q294 396 452 497.50Q610 599 876 599Q1142 599 1299.50 497.50Q1457 396 1457 232Q1457 68 1299-33Q1140-140 876-140M876 473Q876 473 769.50 473Q663 473 551.50 401.50Q440 330 440 228.50Q440 127 555 56.50Q670-14 875-14Q1080-14 1196 56.50Q1312 127 1312 228.50Q1312 330 1205 397Q1089 473 876 473Z"  horiz-adv-x="1740" vert-adv-y="2048"  />

      
      <glyph glyph-name="uniAC54" unicode="&#xAC54;" d="M1414 564L1130 564L1130-83L995-83L995 1647L1130 1647L1130 1212L1414 1212L1414 1666L1551 1666L1551-128L1414-128L1414 564M1414 693L1414 1082L1130 1082L1130 693L1414 693M421 1502Q670 1502 842 1509Q826 1080 662.50 771.50Q499 463 158 247L52 350Q650 700 693 1383Q569 1377 331 1377L130 1377L130 1502L421 1502Z"  horiz-adv-x="1749" vert-adv-y="2048"  />

      
      <glyph glyph-name="uniAC58" unicode="&#xAC58;" d="M413 1565Q670 1565 865 1571Q850 1216 666.50 955Q483 694 145 559L54 671Q484 840 645 1192Q702 1314 716 1443Q596 1438 321 1438L156 1438L156 1565L413 1565M1432 345L1432 771L1158 771L1158 384L1026 384L1026 1649L1158 1649L1158 1294L1432 1294L1432 1668L1565 1668L1565 345L1432 345M1432 890L1432 1175L1158 1175L1158 890L1432 890M1594 38L1594-92L455-92L455 484L595 484L595 38L1594 38Z"  horiz-adv-x="1746" vert-adv-y="2048"  />

      
      <glyph glyph-name="uniAC5C" unicode="&#xAC5C;" d="M1428 760L1428 979L1161 979L1161 760L1026 760L1026 1647L1161 1647L1161 1425L1428 1425L1428 1666L1564 1666L1564 760L1428 760M1428 1097L1428 1307L1161 1307L1161 1097L1428 1097M417 1577Q674 1577 868 1582Q857 1267 659 1034Q461 801 133 696L52 812Q331 893 510 1067Q689 1241 715 1455Q596 1450 324 1450L156 1450L156 1577L417 1577M1603 19L1603-109L418-109L418 352L1426 352L1426 548L418 548L418 674L1563 674L1563 230L556 230L556 19L1603 19Z"  horiz-adv-x="1745" vert-adv-y="2048"  />

      
      <glyph glyph-name="uniAC70" unicode="&#xAC70;" d="M513 1508Q809 1508 1005 1515Q976 1086 774.50 777Q573 468 170 253L71 358Q440 537 634.50 818.50Q829 1100 849 1387Q680 1381 395 1381L149 1381L149 1508L513 1508M1381 843L991 843L991 975L1381 975L1381 1666L1520 1666L1520-128L1381-128L1381 843Z"  horiz-adv-x="1751" vert-adv-y="2048"  />

      
      <glyph glyph-name="uniAC71" unicode="&#xAC71;" d="M494 1580Q806 1580 1027 1587Q958 865 163 630L76 746Q591 886 779 1222Q843 1336 863 1460Q702 1454 380 1454L189 1454L189 1580L494 1580M1382 1019L971 1019L971 1150L1382 1150L1382 1666L1521 1666L1521 623L1382 623L1382 1019M1521-133L1382-133L1382 408L376 408L376 536L1521 536L1521-133Z"  horiz-adv-x="1752" vert-adv-y="2048"  />

      
      <glyph glyph-name="uniAC74" unicode="&#xAC74;" d="M491 1569Q804 1569 1025 1575Q967 827 169 557L74 668Q603 837 785 1189Q846 1312 864 1447Q705 1443 377 1443L187 1443L187 1569L491 1569M1380 985L985 985L985 1115L1380 1115L1380 1666L1519 1666L1519 345L1380 345L1380 985M1549 38L1549-92L439-92L439 465L580 465L580 38L1549 38Z"  horiz-adv-x="1750" vert-adv-y="2048"  />

      
      <glyph glyph-name="uniAC77" unicode="&#xAC77;" d="M495 1580Q805 1580 1026 1587Q960 876 162 646L75 763Q413 852 616.50 1030.50Q820 1209 862 1460Q702 1454 381 1454L188 1454L188 1580L495 1580M1381 1034L980 1034L980 1167L1381 1167L1381 1666L1520 1666L1520 643L1381 643L1381 1034M1555-101L417-101L417 556L1524 556L1524 423L557 423L557 28L1555 28L1555-101Z"  horiz-adv-x="1749" vert-adv-y="2048"  />

      
      <glyph glyph-name="uniAC78" unicode="&#xAC78;" d="M860 1462Q702 1456 386 1456L189 1456L189 1580L500 1580Q808 1580 1030 1587Q940 912 156 726L78 849Q577 956 776 1257Q840 1359 860 1462M1382 1075L985 1075L985 1206L1382 1206L1382 1666L1521 1666L1521 779L1382 779L1382 1075M1562 19L1562-109L401-109L401 358L1382 358L1382 568L401 568L401 693L1521 693L1521 235L539 235L539 19L1562 19Z"  horiz-adv-x="1750" vert-adv-y="2048"  />

      
      <glyph glyph-name="uniAC7A" unicode="&#xAC7A;" d="M861 1462Q702 1456 386 1456L189 1456L189 1580L500 1580Q808 1580 1030 1587Q940 912 156 726L79 849Q577 956 776 1257Q841 1359 861 1462M965-101L965 697L1521 697L1521-101L965-101M1385 573L1098 573L1098 24L1385 24L1385 573M937-57Q817-105 578-105L337-105L337 360L758 360L758 572L337 572L337 697L892 697L892 237L474 237L474 23L637 23Q816 23 937 70L937-57M1382 1075L985 1075L985 1206L1382 1206L1382 1666L1521 1666L1521 779L1382 779L1382 1075Z"  horiz-adv-x="1752" vert-adv-y="2048"  />

      
      <glyph glyph-name="uniAC80" unicode="&#xAC80;" d="M865 1460Q706 1454 386 1454L189 1454L189 1580L496 1580Q806 1580 1027 1587Q957 883 161 665L80 783Q418 867 622 1042.50Q826 1218 865 1460M1382 1032L987 1032L987 1163L1382 1163L1382 1666L1521 1666L1521 658L1382 658L1382 1032M1521 572L1521-101L415-101L415 572L1521 572M1382 28L1382 443L554 443L554 28L1382 28Z"  horiz-adv-x="1752" vert-adv-y="2048"  />

      
      <glyph glyph-name="uniAC81" unicode="&#xAC81;" d="M862 1460Q702 1454 384 1454L189 1454L189 1580L498 1580Q806 1580 1028 1587Q948 892 157 689L77 808Q582 930 775 1244Q841 1349 862 1460M1382 1043L987 1043L987 1173L1382 1173L1382 1666L1521 1666L1521 732L1382 732L1382 1043M1521 649L1521-101L415-101L415 637L554 637L554 430L1382 430L1382 649L1521 649M552 28L1385 28L1385 303L552 303L552 28Z"  horiz-adv-x="1752" vert-adv-y="2048"  />

      
      <glyph glyph-name="uniAC83" unicode="&#xAC83;" d="M492 1580Q804 1580 1026 1587Q965 843 160 578L76 694Q787 913 862 1460Q702 1454 377 1454L188 1454L188 1580L492 1580M244-11Q556 61 719 233Q882 405 882 641L1029 641Q1031 524 998 425Q1059 281 1228.50 161Q1398 41 1634-8L1553-126Q1328-72 1164 43.50Q1000 159 930 288Q810 82 527-54Q436-97 327-126L244-11M1381 1027L1001 1027L1001 1158L1381 1158L1381 1666L1520 1666L1520 455L1381 455L1381 1027Z"  horiz-adv-x="1745" vert-adv-y="2048"  />

      
      <glyph glyph-name="uniAC84" unicode="&#xAC84;" d="M192-23Q608 171 579 584L718 584Q722 482 704 393Q730 299 799 200Q868 101 968 39Q1085 125 1150 263.50Q1215 402 1202 592L1336 592Q1342 484 1324 392Q1354 281 1442 174.50Q1530 68 1690-11L1589-121Q1366-7 1266 200Q1185 3 964-129Q743-7 646 206Q558 5 293-129L192-23M861 1460Q701 1454 381 1454L189 1454L189 1580L496 1580Q805 1580 1027 1587Q955 882 160 666L75 783Q413 867 616.50 1042.50Q820 1218 861 1460M1382 1037L992 1037L992 1167L1382 1167L1382 1666L1519 1666L1519 662L1382 662L1382 1037Z"  horiz-adv-x="1742" vert-adv-y="2048"  />

      
      <glyph glyph-name="uniAC85" unicode="&#xAC85;" d="M494 1580Q806 1580 1027 1587Q958 865 163 630L75 746Q591 886 779 1222Q843 1336 863 1460Q702 1454 380 1454L189 1454L189 1580L494 1580M1382 1021L994 1021L994 1152L1382 1152L1382 1666L1521 1666L1521 611L1382 611L1382 1021M1526 232Q1526 232 1526 150Q1526 68 1368-36Q1210-140 945-140Q680-140 522-36Q364 68 364 232Q364 396 521 497.50Q678 599 945 599Q1212 599 1369 497.50Q1526 396 1526 232M945 473Q945 473 838.50 473Q732 473 620.50 401.50Q509 330 509 228.50Q509 127 624.50 56.50Q740-14 945-14Q1150-14 1265 56.50Q1380 127 1380 228.50Q1380 330 1269 401.50Q1158 473 945 473Z"  horiz-adv-x="1752" vert-adv-y="2048"  />

      
      <glyph glyph-name="uniAC86" unicode="&#xAC86;" d="M1257 456Q1138 449 820 449L413 449L413 569Q413 579 825.50 579Q1238 579 1420 586Q1444 586 1456.50 565.50Q1469 545 1455 522Q1385 343 1105 176Q1351 67 1664-1L1587-126Q1285-52 970 104Q683-43 319-131L255-3Q608 69 900 210Q1192 351 1257 456M861 1460Q702 1454 381 1454L188 1454L188 1580L496 1580Q804 1580 1026 1587Q956 882 160 666L75 783Q413 867 616.50 1042.50Q820 1218 861 1460M1381 1027L986 1027L986 1158L1381 1158L1381 1666L1519 1666L1519 662L1381 662L1381 1027Z"  horiz-adv-x="1743" vert-adv-y="2048"  />

      
      <glyph glyph-name="uniAC89" unicode="&#xAC89;" d="M859 1462Q701 1456 385 1456L188 1456L188 1580L499 1580Q807 1580 1029 1587Q939 912 155 726L78 849Q576 956 775 1257Q839 1359 859 1462M1381 1060L977 1060L977 1191L1381 1191L1381 1666L1520 1666L1520 771L1381 771L1381 1060M1520 235L549 235L549 26L1559 26L1559-101L414-101L414 686L1524 686L1524 560L549 560L549 358L1520 358L1520 235Z"  horiz-adv-x="1750" vert-adv-y="2048"  />

      
      <glyph glyph-name="uniAC8A" unicode="&#xAC8A;" d="M861 1460Q702 1454 384 1454L189 1454L189 1580L498 1580Q806 1580 1028 1587Q948 892 157 689L76 808Q582 930 775 1244Q839 1349 861 1460M1382 1039L981 1039L981 1169L1382 1169L1382 1666L1521 1666L1521 701L1382 701L1382 1039M1567 28L1567-101L330-101L330 28L573 28L565 486L350 486L350 613L1541 613L1541 486L1320 486L1313 28L1567 28M711 28L1173 28L1180 486L704 486L711 28Z"  horiz-adv-x="1750" vert-adv-y="2048"  />

      
      <glyph glyph-name="uniAC8B" unicode="&#xAC8B;" d="M860 1462Q702 1456 386 1456L189 1456L189 1580L500 1580Q808 1580 1030 1587Q940 912 156 726L78 849Q577 956 776 1257Q840 1359 860 1462M1382 1104L1010 1104L1010 1236L1382 1236L1382 1666L1521 1666L1521 717L1382 717L1382 1104M1565 408L311 408L311 529L1565 529L1565 408M1237 635L632 635L632 760L1237 760L1237 635M1461 93.50Q1461 93.50 1461 33.75Q1461-26 1317.50-87.50Q1174-149 937.50-149Q701-149 558-87.50Q415-26 415 93.50Q415 213 555.50 274.50Q696 336 937.50 336Q1179 336 1320 274.50Q1461 213 1461 93.50M563 93.50Q563 93.50 563 66.75Q563 40 661 4.50Q759-31 937-31Q1115-31 1213 4.50Q1311 40 1311 93.50Q1311 147 1220 182Q1129 217 937.50 217Q746 217 654.50 182Q563 147 563 93.50Z"  horiz-adv-x="1750" vert-adv-y="2048"  />

      
      <glyph glyph-name="uniAC8C" unicode="&#xAC8C;" d="M426 1502Q665 1502 837 1509Q823 1192 738 966L1057 966L1057 1647L1191 1647L1191-83L1057-83L1057 838L686 838Q521 481 151 248L40 344Q361 529 512.50 799Q664 1069 684 1381Q560 1375 331 1375L138 1375L138 1502L426 1502M1548 1666L1548-128L1411-128L1411 1666L1548 1666Z"  horiz-adv-x="1748" vert-adv-y="2048"  />

      
      <glyph glyph-name="uniAC90" unicode="&#xAC90;" d="M450 1565Q703 1565 898 1571Q886 1298 793 1111L1094 1111L1094 1647L1228 1647L1228 384L1094 384L1094 983L723 983Q548 707 186 559L95 671Q372 780 546.50 980Q721 1180 749 1443Q628 1438 358 1438L197 1438L197 1565L450 1565M1597 38L1597-92L457-92L457 484L597 484L597 38L1597 38M1566 1666L1566 344L1430 344L1430 1666L1566 1666Z"  horiz-adv-x="1749" vert-adv-y="2048"  />

      
      <glyph glyph-name="uniAC94" unicode="&#xAC94;" d="M1605 19L1605-109L420-109L420 356L1428 356L1428 556L420 556L420 682L1566 682L1566 233L558 233L558 19L1605 19M904 1578Q896 1355 805 1191L1090 1191L1090 1647L1224 1647L1224 767L1090 767L1090 1064L724 1064Q535 803 176 692L93 812Q370 893 545 1066Q720 1239 749 1455Q628 1450 362 1450L197 1450L197 1577L454 1577Q828 1577 904 1578M1566 1666L1566 767L1430 767L1430 1666L1566 1666Z"  horiz-adv-x="1747" vert-adv-y="2048"  />

      
      <glyph glyph-name="uniAC9C" unicode="&#xAC9C;" d="M1566 556L1566-101L431-101L431 556L1566 556M1428 26L1428 427L568 427L568 26L1428 26M450 1577Q703 1577 898 1582Q890 1337 801 1165L1090 1165L1090 1647L1225 1647L1225 643L1090 643L1090 1039L728 1039Q539 758 179 630L93 744Q370 839 545.50 1026Q721 1213 749 1455Q628 1450 358 1450L197 1450L197 1577L450 1577M1566 1666L1566 643L1430 643L1430 1666L1566 1666Z"  horiz-adv-x="1750" vert-adv-y="2048"  />

      
      <glyph glyph-name="uniAC9D" unicode="&#xAC9D;" d="M1566 628L1566-101L431-101L431 617L568 617L568 410L1428 410L1428 628L1566 628M900 1580Q892 1351 805 1182L1090 1182L1090 1647L1225 1647L1225 712L1090 712L1090 1056L730 1056Q541 782 177 655L93 772Q372 863 546.50 1043.50Q721 1224 749 1455Q628 1450 360 1450L197 1450L197 1577L602 1577Q765 1577 900 1580M566 26L1430 26L1430 284L566 284L566 26M1566 1666L1566 712L1430 712L1430 1666L1566 1666Z"  horiz-adv-x="1750" vert-adv-y="2048"  />

      
      <glyph glyph-name="uniAC9F" unicode="&#xAC9F;" d="M450 1577Q702 1577 899 1582Q885 1325 801 1152L1089 1152L1089 1647L1223 1647L1223 671L1089 671L1089 1025L735 1025Q559 737 184 588L93 700Q522 870 679 1209Q735 1330 748 1455Q627 1450 358 1450L197 1450L197 1577L450 1577M228-11Q868 134 868 584L1014 584Q1014 481 988 399Q1052 262 1220.50 150.50Q1389 39 1622-8L1539-126Q1318-76 1156.50 33.50Q995 143 924 265Q850 143 690 35.50Q530-72 313-126L228-11M1565 1666L1565 468L1429 468L1429 1666L1565 1666Z"  horiz-adv-x="1746" vert-adv-y="2048"  />

      
      <glyph glyph-name="uniACA0" unicode="&#xACA0;" d="M450 1577Q703 1577 899 1582Q885 1323 795 1156L1090 1156L1090 1647L1224 1647L1224 643L1090 643L1090 1028L719 1028Q537 760 179 630L93 744Q369 839 544.50 1026Q720 1213 748 1455Q627 1450 357 1450L197 1450L197 1577L450 1577M1324 380Q1395 130 1690-11L1590-121Q1367-11 1267 194Q1187 3 965-128Q743-11 646 198Q559 7 294-129L193-23Q608 171 579 568L718 568Q722 467 706 382Q730 287 799 192Q868 97 968 37Q1085 119 1150 256Q1215 393 1203 575L1338 575Q1342 472 1324 380M1565 1666L1565 643L1430 643L1430 1666L1565 1666Z"  horiz-adv-x="1743" vert-adv-y="2048"  />

      
      <glyph glyph-name="uniACA1" unicode="&#xACA1;" d="M961-138Q689-138 525.50-35.50Q362 67 362 227Q362 387 524.50 485.50Q687 584 961 584Q1235 584 1397.50 485.50Q1560 387 1560 227Q1560 67 1396.50-35.50Q1233-138 961-138M959-13Q959-13 1066-13Q1173-13 1289.50 57Q1406 127 1406 224Q1406 321 1297 384Q1177 459 961 459Q745 459 630 391Q515 323 515 225Q515 127 630 57Q745-13 959-13M450 1577Q703 1577 899 1582Q886 1331 800 1154L1090 1154L1090 1647L1225 1647L1225 667L1090 667L1090 1027L730 1027Q548 743 182 601L93 715Q519 875 680 1215Q735 1332 749 1455Q628 1450 358 1450L197 1450L197 1577L450 1577M1566 1666L1566 575L1430 575L1430 1666L1566 1666Z"  horiz-adv-x="1750" vert-adv-y="2048"  />

      
      <glyph glyph-name="uniACA8" unicode="&#xACA8;" d="M522 1508Q817 1508 1013 1515Q985 1086 784 777Q583 468 180 253L72 358Q441 537 633.50 810.50Q826 1084 857 1387Q689 1381 404 1381L158 1381L158 1508L522 1508M1380-128L1380 593L973 593L973 719L1380 719L1380 1062L1011 1062L1011 1189L1380 1189L1380 1666L1519 1666L1519-128L1380-128Z"  horiz-adv-x="1751" vert-adv-y="2048"  />

      
      <glyph glyph-name="uniACA9" unicode="&#xACA9;" d="M494 1580Q806 1580 1027 1587Q958 865 163 630L76 746Q591 886 779 1222Q843 1336 863 1460Q702 1454 380 1454L189 1454L189 1580L494 1580M1028 1331L1382 1331L1382 1666L1521 1666L1521 623L1382 623L1382 864L976 864L976 990L1382 990L1382 1208L1028 1208L1028 1331M1521-133L1382-133L1382 408L376 408L376 536L1521 536L1521-133Z"  horiz-adv-x="1752" vert-adv-y="2048"  />

      
      <glyph glyph-name="uniACAA" unicode="&#xACAA;" d="M496 1580Q806 1580 1027 1587Q961 877 163 646L76 763Q414 852 618 1030.50Q822 1209 863 1460Q702 1454 382 1454L189 1454L189 1580L496 1580M1028 1331L1382 1331L1382 1666L1521 1666L1521 633L1382 633L1382 868L975 868L975 991L1382 991L1382 1208L1028 1208L1028 1331M1521-133L1382-133L1382 412L948 412L948 547L1521 547L1521-133M892-133L756-133L756 412L321 412L321 547L892 547L892-133Z"  horiz-adv-x="1752" vert-adv-y="2048"  />

      
      <glyph glyph-name="uniACAC" unicode="&#xACAC;" d="M491 1571Q804 1571 1025 1577Q967 829 169 559L74 670Q603 838 785 1191Q846 1314 864 1450Q705 1444 377 1444L187 1444L187 1571L491 1571M1380 1147L1034 1147L1034 1271L1380 1271L1380 1668L1519 1668L1519 347L1380 347L1380 756L983 756L983 878L1380 878L1380 1147M1549 40L1549-91L439-91L439 475L580 475L580 40L1549 40Z"  horiz-adv-x="1750" vert-adv-y="2048"  />

      
      <glyph glyph-name="uniACAF" unicode="&#xACAF;" d="M495 1580Q805 1580 1026 1587Q960 876 162 646L75 763Q413 852 616.50 1030.50Q820 1209 862 1460Q702 1454 381 1454L188 1454L188 1580L495 1580M1027 1342L1381 1342L1381 1666L1520 1666L1520 648L1381 648L1381 876L976 876L976 999L1381 999L1381 1219L1027 1219L1027 1342M1555-101L417-101L417 562L1524 562L1524 429L557 429L557 28L1555 28L1555-101Z"  horiz-adv-x="1749" vert-adv-y="2048"  />

      
      <glyph glyph-name="uniACB0" unicode="&#xACB0;" d="M860 1462Q702 1456 386 1456L189 1456L189 1580L500 1580Q808 1580 1030 1587Q940 912 156 726L78 849Q577 956 776 1257Q840 1359 860 1462M1047 1383L1382 1383L1382 1666L1521 1666L1521 779L1382 779L1382 960L996 960L996 1082L1382 1082L1382 1260L1047 1260L1047 1383M1562 19L1562-109L401-109L401 358L1382 358L1382 568L401 568L401 693L1521 693L1521 235L539 235L539 19L1562 19Z"  horiz-adv-x="1750" vert-adv-y="2048"  />

      
      <glyph glyph-name="uniACB8" unicode="&#xACB8;" d="M862 1460Q702 1454 382 1454L189 1454L189 1580L496 1580Q806 1580 1027 1587Q957 882 161 666L76 783Q414 867 618 1042.50Q822 1218 862 1460M1047 1364L1382 1364L1382 1666L1521 1666L1521 662L1382 662L1382 907L996 907L996 1031L1382 1031L1382 1239L1047 1239L1047 1364M1521 575L1521-101L415-101L415 575L1521 575M1382 28L1382 447L554 447L554 28L1382 28Z"  horiz-adv-x="1752" vert-adv-y="2048"  />

      
      <glyph glyph-name="uniACB9" unicode="&#xACB9;" d="M862 1460Q702 1454 384 1454L189 1454L189 1580L498 1580Q806 1580 1028 1587Q948 892 157 689L77 808Q582 930 775 1244Q841 1349 862 1460M1047 1362L1382 1362L1382 1666L1521 1666L1521 732L1382 732L1382 897L996 897L996 1023L1382 1023L1382 1239L1047 1239L1047 1362M1521 649L1521-101L415-101L415 637L554 637L554 410L1382 410L1382 649L1521 649M552 28L1385 28L1385 284L552 284L552 28Z"  horiz-adv-x="1752" vert-adv-y="2048"  />

      
      <glyph glyph-name="uniACBB" unicode="&#xACBB;" d="M491 1580Q804 1580 1026 1587Q965 845 166 583L74 694Q786 913 862 1460Q701 1454 376 1454L188 1454L188 1580L491 1580M1045 1332L1381 1332L1381 1666L1519 1666L1519 455L1381 455L1381 851L995 851L995 975L1381 975L1381 1210L1045 1210L1045 1332M222-11Q863 138 863 602L1009 602Q1009 498 983 414Q1049 271 1214.50 156.50Q1380 42 1617-8L1534-126Q1312-74 1151 38.50Q990 151 919 277Q846 151 685.50 39.50Q525-72 308-126L222-11Z"  horiz-adv-x="1746" vert-adv-y="2048"  />

      
      <glyph glyph-name="uniACBC" unicode="&#xACBC;" d="M1332 382Q1402 135 1697-11L1597-121Q1371-7 1274 196Q1192 3 972-129Q746-5 653 199Q568 7 300-129L200-23Q614 170 586 572L725 572Q728 463 714 386Q739 291 807 196Q875 101 975 39Q1232 227 1210 579L1345 579Q1349 474 1332 382M861 1460Q701 1454 381 1454L188 1454L188 1580L496 1580Q804 1580 1026 1587Q956 882 160 666L75 783Q413 867 616.50 1042.50Q820 1218 861 1460M1046 1356L1382 1356L1382 1666L1519 1666L1519 647L1382 647L1382 868L996 868L996 995L1382 995L1382 1233L1046 1233L1046 1356Z"  horiz-adv-x="1742" vert-adv-y="2048"  />

      
      <glyph glyph-name="uniACBD" unicode="&#xACBD;" d="M494 1580Q806 1580 1027 1587Q958 865 163 630L75 746Q591 886 779 1222Q843 1336 863 1460Q702 1454 380 1454L189 1454L189 1580L494 1580M1047 1358L1382 1358L1382 1666L1521 1666L1521 585L1382 585L1382 884L996 884L996 1008L1382 1008L1382 1235L1047 1235L1047 1358M1526 228Q1526 228 1526 147Q1526 66 1369.50-37Q1213-140 944.50-140Q676-140 520-37Q364 66 364 228Q364 390 520 491Q676 592 944.50 592Q1213 592 1369.50 491Q1526 390 1526 228M503 227Q503 227 503 176Q503 125 617.50 55.50Q732-14 943-14Q1154-14 1270.50 55.50Q1387 125 1387 226Q1387 327 1271.50 395.50Q1156 464 944 464Q732 464 608 392Q503 329 503 227Z"  horiz-adv-x="1752" vert-adv-y="2048"  />

      
      <glyph glyph-name="uniACC1" unicode="&#xACC1;" d="M859 1462Q701 1456 385 1456L188 1456L188 1580L499 1580Q807 1580 1029 1587Q939 912 155 726L78 849Q576 956 775 1257Q839 1359 859 1462M1046 1364L1381 1364L1381 1666L1520 1666L1520 771L1381 771L1381 925L995 925L995 1048L1381 1048L1381 1241L1046 1241L1046 1364M1520 235L549 235L549 26L1559 26L1559-101L414-101L414 686L1524 686L1524 560L549 560L549 358L1520 358L1520 235Z"  horiz-adv-x="1750" vert-adv-y="2048"  />

      
      <glyph glyph-name="uniACC4" unicode="&#xACC4;" d="M847 1509Q837 1330 810 1199L1073 1199L1073 1647L1206 1647L1206-83L1073-83L1073 601L757 601L757 725L1073 725L1073 1073L781 1073Q641 550 159 248L48 344Q508 609 643 1097Q684 1245 693 1381Q569 1375 334 1375L131 1375L131 1502L429 1502Q674 1502 847 1509M1549 1666L1549-128L1412-128L1412 1666L1549 1666Z"  horiz-adv-x="1749" vert-adv-y="2048"  />

      
      <glyph glyph-name="uniACC8" unicode="&#xACC8;" d="M892 1571Q882 1393 845 1271L1098 1271L1098 1647L1232 1647L1232 384L1098 384L1098 792L792 792L792 915L1098 915L1098 1145L803 1145Q641 746 186 559L95 671Q515 837 674 1192Q727 1314 741 1443Q619 1438 354 1438L197 1438L197 1565L446 1565Q695 1565 892 1571M1597 38L1597-92L457-92L457 484L597 484L597 38L1597 38M1566 1666L1566 345L1430 345L1430 1666L1566 1666Z"  horiz-adv-x="1749" vert-adv-y="2048"  />

      
      <glyph glyph-name="uniACCC" unicode="&#xACCC;" d="M1605 19L1605-109L420-109L420 352L1428 352L1428 548L420 548L420 674L1566 674L1566 230L558 230L558 19L1605 19M450 1577Q699 1577 895 1582Q887 1440 859 1352L1097 1352L1097 1647L1231 1647L1231 760L1097 760L1097 923L791 923L791 1047L1097 1047L1097 1227L811 1227Q731 1044 568 906Q405 768 174 696L93 812Q370 893 541.50 1066Q713 1239 741 1455Q619 1450 358 1450L197 1450L197 1577L450 1577M1566 1666L1566 760L1430 760L1430 1666L1566 1666Z"  horiz-adv-x="1747" vert-adv-y="2048"  />

      
      <glyph glyph-name="uniACD5" unicode="&#xACD5;" d="M1566 628L1566-101L431-101L431 617L568 617L568 414L1428 414L1428 628L1566 628M448 1577Q697 1577 893 1582Q886 1444 857 1348L1097 1348L1097 1647L1231 1647L1231 712L1097 712L1097 921L791 921L791 1045L1097 1045L1097 1223L816 1223Q736 1032 575 886Q414 740 177 657L93 772Q367 861 537 1036Q714 1223 741 1455Q619 1450 356 1450L197 1450L197 1577L448 1577M566 26L1430 26L1430 288L566 288L566 26M1566 1666L1566 712L1430 712L1430 1666L1566 1666Z"  horiz-adv-x="1750" vert-adv-y="2048"  />

      
      <glyph glyph-name="uniACD7" unicode="&#xACD7;" d="M446 1577Q695 1577 892 1582Q884 1425 854 1321L1098 1321L1098 1647L1232 1647L1232 650L1098 650L1098 866L791 866L791 991L1098 991L1098 1194L813 1194Q661 778 184 588L93 700Q519 868 674 1209Q727 1330 741 1455Q619 1450 354 1450L197 1450L197 1577L446 1577M245-11Q886 134 886 584L1032 584Q1032 481 1006 399Q1070 262 1239 150.50Q1408 39 1639-8L1557-126Q1335-76 1175 33.50Q1015 143 941 265Q869 143 708 35.50Q547-72 330-126L245-11M1565 1666L1565 451L1430 451L1430 1666L1565 1666Z"  horiz-adv-x="1746" vert-adv-y="2048"  />

      
      <glyph glyph-name="uniACE0" unicode="&#xACE0;" d="M1438 1511Q1430 919 1324 503L1184 503Q1293 925 1297 1381L280 1381L280 1511L1438 1511M1696 263L1696 137L28 137L28 263L687 263L687 925L834 925L834 263L1696 263Z"  horiz-adv-x="1740" vert-adv-y="2048"  />

      
      <glyph glyph-name="uniACE1" unicode="&#xACE1;" d="M1436 1616Q1430 1356 1377 948L1235 948Q1291 1294 1294 1485L260 1485L260 1616L1436 1616M683 1223L829 1223L829 830L1716 830L1716 703L8 703L8 830L683 830L683 1223M1432-133L1292-133L1292 360L260 360L260 486L1432 486L1432-133Z"  horiz-adv-x="1738" vert-adv-y="2048"  />

      
      <glyph glyph-name="uniACE4" unicode="&#xACE4;" d="M1436 1616Q1430 1306 1377 901L1235 901Q1292 1292 1294 1485L260 1485L260 1616L1436 1616M683 1200L829 1200L829 771L1716 771L1716 645L8 645L8 771L683 771L683 1200M1469 30L1469-101L291-101L291 482L433 482L433 30L1469 30Z"  horiz-adv-x="1738" vert-adv-y="2048"  />

      
      <glyph glyph-name="uniACE7" unicode="&#xACE7;" d="M1436 1616Q1430 1369 1377 987L1235 987Q1291 1307 1294 1485L260 1485L260 1616L1436 1616M683 1245L829 1245L829 871L1716 871L1716 743L8 743L8 871L683 871L683 1245M1471-101L291-101L291 541L1436 541L1436 414L429 414L429 28L1471 28L1471-101Z"  horiz-adv-x="1738" vert-adv-y="2048"  />

      
      <glyph glyph-name="uniACE8" unicode="&#xACE8;" d="M1438 1616Q1432 1349 1376 1050L1235 1050Q1291 1330 1294 1485L260 1485L260 1616L1438 1616M683 1284L829 1284L829 954L1716 954L1716 829L8 829L8 954L683 954L683 1284M1482-120L289-120L289 334L1296 334L1296 525L289 525L289 650L1434 650L1434 212L427 212L427 6L1482 6L1482-120Z"  horiz-adv-x="1738" vert-adv-y="2048"  />

      
      <glyph glyph-name="uniACEA" unicode="&#xACEA;" d="M260 1616L1438 1616Q1432 1386 1411 1261Q1390 1136 1376 1056L1235 1056Q1294 1344 1294 1485L260 1485L260 1616M683 1286L829 1286L829 958L1716 958L1716 833L8 833L8 958L683 958L683 1286M875-74Q755-122 516-122L273-122L273 339L693 339L693 533L273 533L273 658L831 658L831 215L412 215L412 5L576 5Q748 5 875 49L875-74M1312 535L1040 535L1040 6L1312 6L1312 535M905-118L905 658L1447 658L1447-118L905-118Z"  horiz-adv-x="1738" vert-adv-y="2048"  />

      
      <glyph glyph-name="uniACEC" unicode="&#xACEC;" d="M580 6Q768 6 886 53L886 13Q1107 149 1160 454Q1176 551 1167 668L1309 668Q1311 548 1297 454Q1316 314 1407.50 187Q1499 60 1639-11L1539-120Q1334-3 1235 232Q1150 9 930-131L886-83L886-73Q743-118 520-118L267-118L267 341L714 341L714 533L267 533L267 658L853 658L853 219L404 219L404 6L580 6M683 1286L829 1286L829 958L1716 958L1716 833L8 833L8 958L683 958L683 1286M260 1616L1438 1616Q1432 1386 1411 1261Q1390 1136 1376 1056L1235 1056Q1294 1344 1294 1485L260 1485L260 1616Z"  horiz-adv-x="1738" vert-adv-y="2048"  />

      
      <glyph glyph-name="uniACEF" unicode="&#xACEF;" d="M903-66Q763-110 537-110L275-110L275 336L693 336L693 533L275 533L275 658L831 658L831 217L412 217L412 10L598 10Q787 10 903 57L903-66M1558 369L864 369L864 488L1558 488L1558 369M1413 558L1003 558L1003 680L1413 680L1413 558M1212 327Q1346 327 1425 261Q1504 195 1504 90Q1504-15 1424-79.50Q1344-144 1212-144Q1080-144 1000-79.50Q920-15 920 90Q920 195 999 261Q1078 327 1212 327M1212 213Q1134 213 1092 177Q1050 141 1050 90Q1050 39 1091.50 2.50Q1133-34 1212.50-34Q1292-34 1333 2.50Q1374 39 1374 90Q1374 141 1332 177Q1290 213 1212 213M260 1616L1438 1616Q1432 1386 1411 1261Q1390 1136 1376 1056L1235 1056Q1294 1344 1294 1485L260 1485L260 1616M683 1286L829 1286L829 958L1716 958L1716 833L8 833L8 958L683 958L683 1286Z"  horiz-adv-x="1738" vert-adv-y="2048"  />

      
      <glyph glyph-name="uniACF0" unicode="&#xACF0;" d="M1436 1616Q1430 1369 1377 987L1235 987Q1291 1307 1294 1485L260 1485L260 1616L1436 1616M683 1245L829 1245L829 871L1716 871L1716 743L8 743L8 871L683 871L683 1245M1430-101L301-101L301 538L1430 538L1430-101M1291 28L1291 412L441 412L441 28L1291 28Z"  horiz-adv-x="1738" vert-adv-y="2048"  />

      
      <glyph glyph-name="uniACF1" unicode="&#xACF1;" d="M1436 1616Q1430 1351 1377 1015L1235 1015Q1292 1323 1294 1485L260 1485L260 1616L1436 1616M683 1255L829 1255L829 899L1716 899L1716 773L8 773L8 899L683 899L683 1255M1430-101L299-101L299 645L439 645L439 430L1291 430L1291 645L1430 645L1430-101M1292 28L1292 305L437 305L437 28L1292 28Z"  horiz-adv-x="1738" vert-adv-y="2048"  />

      
      <glyph glyph-name="uniACF3" unicode="&#xACF3;" d="M683 1225L829 1225L829 845L1716 845L1716 719L8 719L8 845L683 845L683 1225M149-11Q630 102 766 380Q809 471 809 593L955 593Q955 486 928 408Q991 269 1166 156.50Q1341 44 1583-8L1499-126Q1162-51 959 153Q894 217 863 271Q786 147 619 38Q452-71 234-126L149-11M1436 1616Q1430 1334 1377 964L1235 964Q1292 1311 1294 1485L260 1485L260 1616L1436 1616Z"  horiz-adv-x="1738" vert-adv-y="2048"  />

      
      <glyph glyph-name="uniACF5" unicode="&#xACF5;" d="M1436 1616Q1430 1369 1377 987L1235 987Q1291 1307 1294 1485L260 1485L260 1616L1436 1616M683 1245L829 1245L829 860L1716 860L1716 734L8 734L8 860L683 860L683 1245M857-140Q591-140 430-37.50Q269 65 269 228Q269 391 429 489.50Q589 588 855 588Q1121 588 1282 489.50Q1443 391 1443 228Q1443 65 1283-37.50Q1123-140 857-140M528.50 391.50Q528.50 391.50 472.25 357.25Q416 323 416 223Q416 123 532.50 54.50Q649-14 856.50-14Q1064-14 1189 58Q1298 123 1298 223Q1298 323 1184.50 391.50Q1071 460 856 460Q641 460 528.50 391.50Z"  horiz-adv-x="1738" vert-adv-y="2048"  />

      
      <glyph glyph-name="uniACF6" unicode="&#xACF6;" d="M1184 439Q1103 434 935 434L306 434L306 562L898 562Q1173 562 1360 568Q1386 568 1396 548Q1406 528 1395 504Q1311 323 1038 168Q1277 69 1601 1L1520-124Q1196-49 898 97Q630-35 246-130L170-3Q542 69 823 203.50Q1104 338 1184 439M683 1247L829 1247L829 880L1716 880L1716 754L8 754L8 880L683 880L683 1247M1436 1616Q1430 1369 1377 997L1235 997Q1291 1307 1294 1485L260 1485L260 1616L1436 1616Z"  horiz-adv-x="1738" vert-adv-y="2048"  />

      
      <glyph glyph-name="uniACFC" unicode="&#xACFC;" d="M1737 958L1737 831L1441 831L1441-128L1306-128L1306 1666L1441 1666L1441 958L1737 958M1256 347Q842 282 317 282L3 282L3 408L424 408L424 1019L565 1019L565 410Q979 424 1256 467L1256 347M1046 1502Q1035 914 961 615L821 615Q897 916 906 1377L140 1377L140 1502L1046 1502Z"  horiz-adv-x="1736" vert-adv-y="2048"  />

      
      <glyph glyph-name="uniACFD" unicode="&#xACFD;" d="M1452-133L1314-133L1314 344L307 344L307 473L1452 473L1452-133M1266 739Q876 671 325 671L18 671L18 801L462 801L462 1200L605 1200L605 802Q979 812 1266 858L1266 739M1452 564L1316 564L1316 1666L1452 1666L1452 1123L1722 1123L1722 992L1452 992L1452 564M1064 1595Q1060 1193 999 936L861 936Q914 1193 918 1471L179 1471L179 1595L1064 1595Z"  horiz-adv-x="1738" vert-adv-y="2048"  />

      
      <glyph glyph-name="uniAD00" unicode="&#xAD00;" d="M1452 309L1316 309L1316 1666L1452 1666L1452 1026L1722 1026L1722 895L1452 895L1452 309M1266 715Q876 648 325 648L18 648L18 775L464 775L464 1182L605 1182L605 780Q979 789 1266 835L1266 715M1483 36L1483-92L326-92L326 455L468 455L468 36L1483 36M1064 1586Q1060 1193 999 940L857 940Q914 1185 918 1463L179 1463L179 1586L1064 1586Z"  horiz-adv-x="1738" vert-adv-y="2048"  />

      
      <glyph glyph-name="uniAD04" unicode="&#xAD04;" d="M1493 19L1493-109L342-109L342 334L1314 334L1314 514L342 514L342 639L1452 639L1452 212L480 212L480 19L1493 19M1266 864Q841 800 325 800L18 800L18 927L462 927L462 1266L605 1266L605 931Q979 940 1266 986L1266 864M1064 1604Q1060 1267 999 1046L859 1046Q909 1242 918 1485L179 1485L179 1604L1064 1604M1452 724L1316 724L1316 1666L1452 1666L1452 1243L1722 1243L1722 1114L1452 1114L1452 724Z"  horiz-adv-x="1738" vert-adv-y="2048"  />

      
      <glyph glyph-name="uniAD06" unicode="&#xAD06;" d="M901-109L901 645L1452 645L1452-109L901-109M872-65Q751-112 512-112L275-112L275 332L693 332L693 519L275 519L275 645L827 645L827 210L414 210L414 14L572 14Q746 14 872 63L872-65M1316 521L1032 521L1032 17L1316 17L1316 521M1266 868Q841 804 325 804L18 804L18 931L462 931L462 1266L605 1266L605 934Q979 944 1266 990L1266 868M1064 1604Q1060 1269 999 1048L859 1048Q909 1244 918 1485L179 1485L179 1604L1064 1604M1452 730L1316 730L1316 1666L1452 1666L1452 1247L1722 1247L1722 1119L1452 1119L1452 730Z"  horiz-adv-x="1738" vert-adv-y="2048"  />

      
      <glyph glyph-name="uniAD0C" unicode="&#xAD0C;" d="M1451-101L345-101L355 533L1462 533L1451-101M486 406L486 26L1314 26L1314 406L486 406M1266 782Q876 715 325 715L18 715L18 841L462 841L462 1219L605 1219L605 845Q979 855 1266 900L1266 782M1064 1604Q1060 1215 999 966L861 966Q914 1214 918 1483L179 1483L179 1604L1064 1604M1452 619L1316 619L1316 1666L1452 1666L1452 1177L1722 1177L1722 1048L1452 1048L1452 619Z"  horiz-adv-x="1738" vert-adv-y="2048"  />

      
      <glyph glyph-name="uniAD0D" unicode="&#xAD0D;" d="M1452 604L1452-101L345-101L345 595L486 595L486 412L1314 412L1314 604L1452 604M484 26L1316 26L1316 288L484 288L484 26M1266 804Q876 738 325 738L18 738L18 865L462 865L462 1234L605 1234L605 869Q979 878 1266 924L1266 804M1064 1604Q1060 1223 999 977L861 977Q909 1201 918 1483L179 1483L179 1604L1064 1604M1452 680L1316 680L1316 1666L1452 1666L1452 1227L1722 1227L1722 1099L1452 1099L1452 680Z"  horiz-adv-x="1738" vert-adv-y="2048"  />

      
      <glyph glyph-name="uniAD0F" unicode="&#xAD0F;" d="M190-10Q506 56 668.50 199Q831 342 831 555L977 555Q977 455 952 377Q1016 248 1181 142Q1356 34 1585-7L1501-126Q1280-78 1119.50 25.50Q959 129 886 247Q811 129 651 26.50Q491-76 273-126L190-10M1266 758Q876 691 325 691L18 691L18 818L464 818L464 1186L605 1186L605 822Q979 832 1266 878L1266 758M1452 462L1316 462L1316 1666L1452 1666L1452 1158L1722 1158L1722 1028L1452 1028L1452 462M1064 1590Q1060 1193 999 936L861 936Q914 1189 918 1467L179 1467L179 1590L1064 1590Z"  horiz-adv-x="1738" vert-adv-y="2048"  />

      
      <glyph glyph-name="uniAD11" unicode="&#xAD11;" d="M1473 211Q1473 211 1473 134Q1473 57 1311-41.50Q1149-140 886-140Q623-140 461-41.50Q299 57 299 210Q299 363 459 460.50Q619 558 884 558Q1149 558 1311 461.50Q1473 365 1473 211M445 208Q445 208 445 162.50Q445 117 561 51.50Q677-14 886-14Q1095-14 1211.50 51.50Q1328 117 1328 208Q1328 299 1212.50 365.50Q1097 432 886 432Q675 432 560 365.50Q445 299 445 208M1266 756Q876 689 325 689L18 689L18 818L462 818L462 1206L605 1206L605 820Q979 830 1266 876L1266 756M1452 546L1316 546L1316 1666L1452 1666L1452 1189L1722 1189L1722 1058L1452 1058L1452 546M1064 1604Q1060 1207 999 950L861 950Q914 1203 918 1482L179 1482L179 1604L1064 1604Z"  horiz-adv-x="1738" vert-adv-y="2048"  />

      
      <glyph glyph-name="uniAD18" unicode="&#xAD18;" d="M1547 1666L1547-128L1412-128L1412 812L1166 812L1166-83L1034-83L1034 1647L1166 1647L1166 936L1412 936L1412 1666L1547 1666M851 1483Q841 971 787 629L653 629Q706 916 716 1357L123 1357L123 1483L851 1483M985 359Q681 301 239 301L16 301L16 426L347 426L347 940L478 940L478 430Q767 440 985 478L985 359Z"  horiz-adv-x="1748" vert-adv-y="2048"  />

      
      <glyph glyph-name="uniAD1C" unicode="&#xAD1C;" d="M1564 1666L1564 356L1431 356L1431 977L1201 977L1201 395L1070 395L1070 1647L1201 1647L1201 1101L1431 1101L1431 1666L1564 1666M1596 34L1596-92L398-92L398 436L538 436L538 34L1596 34M1024 680Q718 623 289 623L44 623L44 746L381 746L381 1158L513 1158L513 750Q811 760 1024 800L1024 680M879 1556Q876 1155 822 890L690 890Q741 1121 745 1432L152 1432L152 1556L879 1556Z"  horiz-adv-x="1746" vert-adv-y="2048"  />

      
      <glyph glyph-name="uniAD20" unicode="&#xAD20;" d="M1605 19L1605-109L419-109L419 336L1427 336L1427 514L419 514L419 639L1564 639L1564 213L557 213L557 19L1605 19M1564 1666L1564 724L1431 724L1431 1099L1201 1099L1201 724L1070 724L1070 1647L1201 1647L1201 1223L1431 1223L1431 1666L1564 1666M1024 850Q729 795 289 795L44 795L44 917L380 917L380 1266L513 1266L513 921Q811 931 1024 971L1024 850M881 1595Q877 1248 818 1030L685 1030Q735 1226 744 1475L152 1475L152 1595L881 1595Z"  horiz-adv-x="1745" vert-adv-y="2048"  />

      
      <glyph glyph-name="uniAD29" unicode="&#xAD29;" d="M1565 595L1565-101L420-101L420 586L559 586L559 404L1427 404L1427 595L1565 595M557 24L1429 24L1429 274L557 274L557 24M1201 1647L1201 1223L1431 1223L1431 1666L1565 1666L1565 669L1431 669L1431 1099L1201 1099L1201 669L1070 669L1070 1647L1201 1647M1024 780Q729 724 289 724L44 724L44 849L382 849L382 1249L513 1249L513 851Q811 860 1024 900L1024 780M881 1595Q877 1200 818 962L683 962Q734 1179 744 1473L152 1473L152 1595L881 1595Z"  horiz-adv-x="1748" vert-adv-y="2048"  />

      
      <glyph glyph-name="uniAD2C" unicode="&#xAD2C;" d="M1310 349Q1375 121 1671-15L1572-123Q1348-18 1251 176Q1164-12 947-130Q830-74 745 13Q660 100 622 176Q535-10 275-131L175-23Q584 151 556 533L694 533Q698 437 681 353Q707 263 779 170.50Q851 78 949 25Q1063 96 1133 236Q1203 376 1189 541L1325 541Q1327 433 1310 349M1564 1666L1564 597L1431 597L1431 1087L1201 1087L1201 597L1070 597L1070 1647L1201 1647L1201 1214L1431 1214L1431 1666L1564 1666M1023 768Q716 710 287 710L44 710L44 838L380 838L380 1219L512 1219L512 839Q822 849 1023 887L1023 768M881 1595Q877 1195 818 958L682 958Q739 1195 743 1473L151 1473L151 1595L881 1595Z"  horiz-adv-x="1741" vert-adv-y="2048"  />

      
      <glyph glyph-name="uniAD2D" unicode="&#xAD2D;" d="M961-140Q961-140 825.50-140Q690-140 526-44.50Q362 51 362 204.50Q362 358 524.50 452.50Q687 547 959.50 547Q1232 547 1399 454Q1563 358 1563 204.50Q1563 51 1397.50-44.50Q1232-140 961-140M509 203.50Q509 203.50 509 159.25Q509 115 626.50 48.50Q744-18 961-18Q1178-18 1296.50 48Q1415 114 1415 203Q1415 292 1297.50 356.50Q1180 421 962 421Q744 421 626.50 356.50Q509 292 509 203.50M1565 1666L1565 536L1431 536L1431 1058L1201 1058L1201 595L1070 595L1070 1647L1201 1647L1201 1184L1431 1184L1431 1666L1565 1666M1024 748Q717 691 289 691L44 691L44 816L382 816L382 1200L513 1200L513 819Q811 828 1024 868L1024 748M881 1595Q877 1191 818 946L683 946Q741 1191 744 1471L152 1471L152 1595L881 1595Z"  horiz-adv-x="1748" vert-adv-y="2048"  />

      
      <glyph glyph-name="uniAD34" unicode="&#xAD34;" d="M646 410Q1049 421 1374 466L1374 348Q989 282 438 282L57 282L57 408L505 408L505 1043L646 1043L646 410M1565 1666L1565-128L1430-128L1430 1666L1565 1666M1123 1511Q1113 914 1038 615L898 615Q973 916 983 1383L183 1383L183 1511L1123 1511Z"  horiz-adv-x="1748" vert-adv-y="2048"  />

      
      <glyph glyph-name="uniAD35" unicode="&#xAD35;" d="M63 804L541 804L541 1206L680 1206L680 806Q1087 816 1374 863L1374 745Q980 676 440 676L63 676L63 804M1566-133L1428-133L1428 347L398 347L398 477L1566 477L1566-133M1147 1604Q1143 1209 1081 952L943 952Q991 1181 1000 1477L234 1477L234 1604L1147 1604M1566 568L1430 568L1430 1666L1566 1666L1566 568Z"  horiz-adv-x="1748" vert-adv-y="2048"  />

      
      <glyph glyph-name="uniAD38" unicode="&#xAD38;" d="M63 763L541 763L541 1171L681 1171L681 765Q1087 775 1374 822L1374 702Q990 635 441 635L63 635L63 763M1596 36L1596-92L420-92L420 455L560 455L560 36L1596 36M1147 1586Q1143 1184 1081 931L940 931Q991 1151 1001 1460L234 1460L234 1586L1147 1586M1566 309L1430 309L1430 1666L1566 1666L1566 309Z"  horiz-adv-x="1746" vert-adv-y="2048"  />

      
      <glyph glyph-name="uniAD3C" unicode="&#xAD3C;" d="M1605 19L1605-109L435-109L435 336L1428 336L1428 527L435 527L435 652L1565 652L1565 213L574 213L574 19L1605 19M1374 866Q956 802 440 802L63 802L63 929L526 929L526 1266L667 1266L667 931Q1064 940 1374 988L1374 866M1147 1604Q1143 1267 1081 1046L941 1046Q991 1238 1000 1479L234 1479L234 1604L1147 1604M1430 738L1430 1666L1565 1666L1565 738L1430 738Z"  horiz-adv-x="1745" vert-adv-y="2048"  />

      
      <glyph glyph-name="uniAD44" unicode="&#xAD44;" d="M1566-101L429-101L429 519L1566 519L1566-101M570 393L570 26L1428 26L1428 393L570 393M1374 774Q980 705 440 705L63 705L63 834L541 834L541 1219L680 1219L680 836Q1094 849 1374 897L1374 774M1147 1604Q1143 1230 1081 979L943 979Q991 1203 1000 1479L234 1479L234 1604L1147 1604M1430 606L1430 1666L1566 1666L1566 606L1430 606Z"  horiz-adv-x="1748" vert-adv-y="2048"  />

      
      <glyph glyph-name="uniAD45" unicode="&#xAD45;" d="M1566 601L1566-101L429-101L429 588L570 588L570 404L1428 404L1428 601L1566 601M568 26L1430 26L1430 280L568 280L568 26M680 858Q1087 869 1374 917L1374 795Q990 728 440 728L63 728L63 857L541 857L541 1230L680 1230L680 858M1145 1604Q1141 1236 1079 989L940 989Q989 1210 998 1479L234 1479L234 1604L1145 1604M1430 676L1430 1666L1566 1666L1566 676L1430 676Z"  horiz-adv-x="1748" vert-adv-y="2048"  />

      
      <glyph glyph-name="uniAD47" unicode="&#xAD47;" d="M254-10Q571 56 733 199Q895 342 895 555L1041 555Q1041 455 1016 377Q1081 248 1245 142Q1421 34 1649-7L1566-126Q1344-78 1184 25.50Q1024 129 950 247Q876 129 715.50 26.50Q555-76 337-126L254-10M680 830Q1101 839 1374 885L1374 766Q989 699 440 699L63 699L63 828L541 828L541 1197L680 1197L680 830M1146 1604Q1142 1228 1081 971L943 971Q993 1203 1000 1479L234 1479L234 1604L1146 1604M1565 462L1430 462L1430 1666L1565 1666L1565 462Z"  horiz-adv-x="1743" vert-adv-y="2048"  />

      
      <glyph glyph-name="uniAD49" unicode="&#xAD49;" d="M527-37Q366 59 366 214Q366 369 528.50 465.50Q691 562 962 562Q1233 562 1396.50 465.50Q1560 369 1560 214Q1560 59 1397-38Q1231-140 958-140Q685-140 527-37M623 363Q513 301 513 209Q513 117 631.50 50.50Q750-16 962.50-16Q1175-16 1293.50 51.50Q1412 119 1412 210Q1412 301 1294 368.50Q1176 436 961 436Q746 436 623 363M680 830Q1102 839 1374 885L1374 766Q990 699 440 699L63 699L63 828L541 828L541 1197L680 1197L680 830M1147 1604Q1143 1228 1081 971L943 971Q993 1203 1000 1479L234 1479L234 1604L1147 1604M1566 550L1430 550L1430 1666L1566 1666L1566 550Z"  horiz-adv-x="1748" vert-adv-y="2048"  />

      
      <glyph glyph-name="uniAD50" unicode="&#xAD50;" d="M1445 1511Q1438 917 1334 509L1195 509Q1302 924 1306 1381L288 1381L288 1511L1445 1511M923 908L1059 908L1059 259L1696 259L1696 133L28 133L28 259L502 259L502 908L636 908L636 259L923 259L923 908Z"  horiz-adv-x="1740" vert-adv-y="2048"  />

      
      <glyph glyph-name="uniAD54" unicode="&#xAD54;" d="M931 1199L1071 1199L1071 767L1716 767L1716 641L8 641L8 767L492 767L492 1199L630 1199L630 767L931 767L931 1199M1436 1616Q1430 1306 1377 901L1235 901Q1292 1292 1294 1485L260 1485L260 1616L1436 1616M1469 30L1469-101L291-101L291 479L433 479L433 30L1469 30Z"  horiz-adv-x="1738" vert-adv-y="2048"  />

      
      <glyph glyph-name="uniAD58" unicode="&#xAD58;" d="M931 1269L1071 1269L1071 944L1716 944L1716 819L8 819L8 944L492 944L492 1269L630 1269L630 944L931 944L931 1269M1438 1616Q1432 1349 1376 1050L1235 1050Q1291 1330 1294 1485L260 1485L260 1616L1438 1616M1482-120L289-120L289 332L1296 332L1296 521L289 521L289 647L1434 647L1434 210L427 210L427 6L1482 6L1482-120Z"  horiz-adv-x="1738" vert-adv-y="2048"  />

      
      <glyph glyph-name="uniAD61" unicode="&#xAD61;" d="M931 1239L1071 1239L1071 892L1716 892L1716 765L8 765L8 892L492 892L492 1239L630 1239L630 892L931 892L931 1239M1436 1616Q1430 1351 1377 1015L1235 1015Q1292 1323 1294 1485L260 1485L260 1616L1436 1616M1430-101L299-101L299 645L439 645L439 430L1291 430L1291 645L1430 645L1430-101M1292 28L1292 305L437 305L437 28L1292 28Z"  horiz-adv-x="1738" vert-adv-y="2048"  />

      
      <glyph glyph-name="uniAD63" unicode="&#xAD63;" d="M931 1210L1071 1210L1071 836L1716 836L1716 708L8 708L8 836L492 836L492 1210L630 1210L630 836L931 836L931 1210M149-11Q630 102 766 380Q809 471 809 593L955 593Q955 486 928 408Q991 269 1166 156.50Q1341 44 1583-8L1499-126Q1162-51 959 153Q894 217 863 271Q786 147 619 38Q452-71 234-126L149-11M1436 1616Q1430 1334 1377 964L1235 964Q1292 1311 1294 1485L260 1485L260 1616L1436 1616Z"  horiz-adv-x="1738" vert-adv-y="2048"  />

      
      <glyph glyph-name="uniAD6C" unicode="&#xAD6C;" d="M28 662L28 789L1250 789Q1315 1183 1315 1462L290 1462L290 1590L1455 1590Q1455 1299 1413 965Q1401 863 1387 789L1696 789L1696 662L945 662L945-118L802-118L802 662L28 662Z"  horiz-adv-x="1740" vert-adv-y="2048"  />

      
      <glyph glyph-name="uniAD6D" unicode="&#xAD6D;" d="M1436 1616Q1428 1262 1389 991L1716 991L1716 864L940 864L940 496L1432 496L1432-133L1292-133L1292 369L260 369L260 496L796 496L796 864L8 864L8 991L1250 991Q1292 1286 1292 1487L271 1487L271 1616L1436 1616Z"  horiz-adv-x="1738" vert-adv-y="2048"  />

      
      <glyph glyph-name="uniAD70" unicode="&#xAD70;" d="M1436 1616Q1428 1241 1385 894L1716 894L1716 767L977 767L977 295L833 295L833 767L8 767L8 894L1244 894Q1294 1229 1294 1487L271 1487L271 1616L1436 1616M1469 30L1469-101L291-101L291 482L433 482L433 30L1469 30Z"  horiz-adv-x="1738" vert-adv-y="2048"  />

      
      <glyph glyph-name="uniAD73" unicode="&#xAD73;" d="M1436 1616Q1428 1282 1388 983L1716 983L1716 857L940 857L940 547L1436 547L1436 420L429 420L429 28L1471 28L1471-101L291-101L291 547L796 547L796 857L8 857L8 983L1248 983Q1292 1257 1292 1487L271 1487L271 1616L1436 1616Z"  horiz-adv-x="1738" vert-adv-y="2048"  />

      
      <glyph glyph-name="uniAD74" unicode="&#xAD74;" d="M1436 1616Q1428 1304 1391 1050L1716 1050L1716 927L940 927L940 676L1434 676L1434 223L427 223L427 6L1482 6L1482-120L289-120L289 346L1296 346L1296 550L289 550L289 676L796 676L796 927L8 927L8 1050L1251 1050Q1289 1285 1292 1485L271 1485L271 1616L1436 1616Z"  horiz-adv-x="1738" vert-adv-y="2048"  />

      
      <glyph glyph-name="uniAD75" unicode="&#xAD75;" d="M1436 1616Q1428 1322 1389 1058L1716 1058L1716 934L940 934L940 684L1450 684L1450-133L1312-133L1312 558L901 558L901 597L856 597L856 227L396 227L396 6L682 6Q870 6 981 51L981-74Q867-120 626-120L258-120L258 350L718 350L718 558L258 558L258 684L796 684L796 934L8 934L8 1058L1251 1058Q1289 1288 1292 1485L271 1485L271 1616L1436 1616Z"  horiz-adv-x="1738" vert-adv-y="2048"  />

      
      <glyph glyph-name="uniAD76" unicode="&#xAD76;" d="M875-74Q755-122 516-122L279-122L279 348L693 348L693 558L279 558L279 684L796 684L796 934L8 934L8 1058L1251 1058Q1289 1288 1292 1485L271 1485L271 1616L1436 1616Q1428 1322 1389 1058L1716 1058L1716 934L940 934L940 684L1454 684L1454-118L905-118L905 597L831 597L831 225L418 225L418 5L576 5Q748 5 875 49L875-74M1318 560L1040 560L1040 6L1318 6L1318 560Z"  horiz-adv-x="1738" vert-adv-y="2048"  />

      
      <glyph glyph-name="uniAD7B" unicode="&#xAD7B;" d="M903-66Q763-110 537-110L275-110L275 348L693 348L693 554L275 554L275 680L796 680L796 934L8 934L8 1058L1251 1058Q1289 1288 1292 1485L271 1485L271 1616L1436 1616Q1428 1322 1389 1058L1716 1058L1716 934L940 934L940 597L831 597L831 230L412 230L412 10L598 10Q787 10 903 57L903-66M1212 334Q1346 334 1425 267Q1504 200 1504 94.50Q1504-11 1424-77.50Q1344-144 1212-144Q1080-144 1000-77.50Q920-11 920 94.50Q920 200 999 267Q1078 334 1212 334M1212 221Q1134 221 1092 183Q1050 145 1050 94Q1050 43 1091.50 4.50Q1133-34 1212.50-34Q1292-34 1333 4.50Q1374 43 1374 94Q1374 145 1332 183Q1290 221 1212 221M1558 381L864 381L864 499L1558 499L1558 381M1413 575L1003 575L1003 697L1413 697L1413 575Z"  horiz-adv-x="1738" vert-adv-y="2048"  />

      
      <glyph glyph-name="uniAD7C" unicode="&#xAD7C;" d="M1436 1616Q1428 1285 1388 991L1716 991L1716 864L940 864L940 555L1432 555L1432-101L291-101L291 555L796 555L796 864L8 864L8 991L1250 991Q1292 1276 1292 1487L271 1487L271 1616L1436 1616M1292 28L1292 427L431 427L431 28L1292 28Z"  horiz-adv-x="1738" vert-adv-y="2048"  />

      
      <glyph glyph-name="uniAD7D" unicode="&#xAD7D;" d="M1432-101L291-101L291 665L431 665L431 445L1292 445L1292 665L1432 665L1432-101M1436 1616Q1428 1295 1389 1008L1716 1008L1716 882L940 882L940 581L796 581L796 882L8 882L8 1008L1250 1008Q1289 1257 1292 1485L271 1485L271 1616L1436 1616M1294 28L1294 321L429 321L429 28L1294 28Z"  horiz-adv-x="1738" vert-adv-y="2048"  />

      
      <glyph glyph-name="uniAD7F" unicode="&#xAD7F;" d="M1436 1616Q1428 1268 1388 958L1716 958L1716 831L944 831L944 577L799 577L799 831L8 831L8 958L1250 958Q1292 1261 1292 1487L271 1487L271 1616L1436 1616M163-10Q643 91 778 348Q823 432 823 543L970 543Q970 437 939 365Q1004 243 1181 139.50Q1358 36 1594-7L1514-126Q1180-56 973 135Q908 195 877 243Q801 129 635 27.50Q469-74 245-126L163-10Z"  horiz-adv-x="1738" vert-adv-y="2048"  />

      
      <glyph glyph-name="uniAD81" unicode="&#xAD81;" d="M1436 1616Q1428 1285 1388 991L1716 991L1716 864L940 864L940 569Q1164 558 1308 462Q1452 366 1452 215.50Q1452 65 1291.50-37.50Q1131-140 864.50-140Q598-140 437.50-37.50Q277 65 277 216.50Q277 368 422.50 463Q568 558 796 570L796 864L8 864L8 991L1250 991Q1292 1276 1292 1487L271 1487L271 1616L1436 1616M533 58Q658-16 864.50-16Q1071-16 1197 58Q1307 119 1307 213.50Q1307 308 1199 373Q1075 445 864 445Q653 445 538 376.50Q423 308 423 213.50Q423 119 533 58Z"  horiz-adv-x="1738" vert-adv-y="2048"  />

      
      <glyph glyph-name="uniAD82" unicode="&#xAD82;" d="M1436 1616Q1428 1272 1391 999L1716 999L1716 872L940 872L940 570Q1191 570 1376 575Q1402 575 1412 555.50Q1422 536 1409 512Q1325 325 1048 172Q1283 69 1604 1L1524-124Q1311-75 1045 39Q970 70 909 100Q630-37 253-130L178-3Q552 73 834 206.50Q1116 340 1199 445Q1076 440 744 440L318 440L318 570L796 570L796 872L8 872L8 999L1250 999Q1289 1255 1292 1485L271 1485L271 1616L1436 1616Z"  horiz-adv-x="1738" vert-adv-y="2048"  />

      
      <glyph glyph-name="uniAD88" unicode="&#xAD88;" d="M1359 762Q1079 715 723 701L723-89L587-89L587 696Q557 695 511 695L63 695L63 824L417 824Q703 824 877 835Q932 1062 940 1428L222 1428L222 1559L1078 1559Q1069 1096 1015 842Q1187 853 1359 883L1359 762M1566 1666L1566-128L1430-128L1430 345L993 345L993 473L1430 473L1430 1666L1566 1666Z"  horiz-adv-x="1748" vert-adv-y="2048"  />

      
      <glyph glyph-name="uniAD89" unicode="&#xAD89;" d="M1360 975Q1069 931 737 914L737 521L595 521L595 909L65 909L65 1033L417 1033Q721 1033 929 1047Q969 1234 973 1475L234 1475L234 1602L1117 1602Q1114 1264 1072 1058Q1259 1076 1360 1094L1360 975M1566-133L1428-133L1428 305L390 305L390 434L1566 434L1566-133M1566 525L1430 525L1430 680L1000 680L1000 802L1430 802L1430 1666L1566 1666L1566 525Z"  horiz-adv-x="1748" vert-adv-y="2048"  />

      
      <glyph glyph-name="uniAD8C" unicode="&#xAD8C;" d="M1360 904Q1070 855 747 843L747 393L605 393L605 838Q605 838 65 838L65 964L417 964Q746 964 924 976Q964 1146 973 1460L234 1460L234 1586L1118 1586Q1114 1217 1066 987Q1229 999 1360 1020L1360 904M1566 288L1430 288L1430 581L1001 581L1001 706L1430 706L1430 1666L1566 1666L1566 288M1596 36L1596-92L364-92L364 445L504 445L504 36L1596 36Z"  horiz-adv-x="1746" vert-adv-y="2048"  />

      
      <glyph glyph-name="uniAD90" unicode="&#xAD90;" d="M1605 19L1605-109L426-109L426 321L1428 321L1428 486L426 486L426 611L1565 611L1565 199L564 199L564 19L1605 19M1359 1046Q1075 1000 737 987L737 660L595 660L595 983Q561 981 515 981L65 981L65 1101L417 1101Q726 1101 937 1115Q969 1268 973 1477L234 1477L234 1602L1117 1602Q1113 1299 1077 1125Q1184 1134 1359 1161L1359 1046M1565 678L1430 678L1430 786L1000 786L1000 906L1430 906L1430 1666L1565 1666L1565 678Z"  horiz-adv-x="1745" vert-adv-y="2048"  />

      
      <glyph glyph-name="uniAD9C" unicode="&#xAD9C;" d="M595 933Q513 929 419 929L65 929L65 1052L417 1052Q720 1052 932 1066Q970 1253 973 1475L234 1475L234 1602L1117 1602Q1113 1285 1073 1077Q1265 1097 1360 1114L1360 995Q1088 948 737 934L737 533L595 533L595 933M1339 316Q1408 108 1704-14L1606-123Q1380-26 1283 152Q1203-16 979-130Q758-28 660 153Q576-12 307-131L208-23Q412 59 510.50 177Q609 295 594 480L731 480Q737 402 722 321Q747 236 817 156Q887 76 982 29Q1096 94 1163 211.50Q1230 329 1217 488L1352 488Q1356 394 1339 316M1565 556L1430 556L1430 695L1001 695L1001 821L1430 821L1430 1666L1565 1666L1565 556Z"  horiz-adv-x="1741" vert-adv-y="2048"  />

      
      <glyph glyph-name="uniAD9D" unicode="&#xAD9D;" d="M964.50-140Q964.50-140 828.25-140Q692-140 531-46.50Q370 47 370 194Q370 341 530.50 432Q691 523 965 523Q1239 523 1401.50 432Q1564 341 1564 193.50Q1564 46 1400.50-47Q1237-140 964.50-140M1416 191Q1416 191 1416 232.50Q1416 274 1299.50 336.50Q1183 399 965.50 399Q748 399 632.50 336.50Q517 274 517 190Q517 106 634 44Q751-18 966-18Q1181-18 1298.50 45Q1416 108 1416 191M1360 990Q1073 942 737 929L737 542L595 542L595 925Q561 923 515 923L65 923L65 1047L417 1047Q721 1047 931 1061Q969 1253 973 1479L234 1479L234 1602L1117 1602Q1114 1283 1074 1071Q1264 1091 1360 1107L1360 990M1566 501L1430 501L1430 697L1000 697L1000 824L1430 824L1430 1666L1566 1666L1566 501Z"  horiz-adv-x="1748" vert-adv-y="2048"  />

      
      <glyph glyph-name="uniADA4" unicode="&#xADA4;" d="M1053 799Q809 754 568 745L568-79L433-79L433 742L16 742L16 869L330 869Q548 869 660 876Q709 1076 717 1430L121 1430L121 1556L857 1556Q847 1130 795 885Q899 892 1053 917L1053 799M1109 365L783 365L783 492L1109 492L1109 1647L1240 1647L1240-99L1109-99L1109 365M1429-128L1429 1666L1562 1666L1562-128L1429-128Z"  horiz-adv-x="1745" vert-adv-y="2048"  />

      
      <glyph glyph-name="uniADB7" unicode="&#xADB7;" d="M465 901L332 899L30 899L30 1019L332 1019Q560 1019 699 1029Q737 1224 741 1458L171 1458L171 1580L883 1580Q879 1254 839 1041Q982 1056 1052 1068L1052 956Q833 913 599 905L599 480L465 480L465 901M232-9Q871 109 871 506L1017 506Q1017 414 992 342Q1092 159 1397 48Q1494 14 1623-9L1546-126Q1324-82 1160.50 14Q997 110 925 220Q851 110 690 16Q529-78 311-126L232-9M1105 691L817 691L817 812L1105 812L1105 1647L1236 1647L1236 538L1105 538L1105 691M1430 427L1430 1666L1563 1666L1563 427L1430 427Z"  horiz-adv-x="1743" vert-adv-y="2048"  />

      
      <glyph glyph-name="uniADC0" unicode="&#xADC0;" d="M1359 760Q1088 713 743 699L743-89L600-89L600 695Q565 693 518 693L63 693L63 824L417 824Q712 824 894 836Q948 1069 956 1428L238 1428L238 1559L1094 1559Q1084 1106 1031 844Q1214 857 1359 883L1359 760M1567 1666L1567-128L1432-128L1432 1666L1567 1666Z"  horiz-adv-x="1748" vert-adv-y="2048"  />

      
      <glyph glyph-name="uniADC1" unicode="&#xADC1;" d="M1363 953Q1103 905 733 892L733 542L591 542L591 888Q557 886 511 886L61 886L61 1013L417 1013Q751 1013 935 1026Q969 1209 973 1475L234 1475L234 1602L1117 1602Q1113 1272 1076 1038Q1216 1048 1363 1075L1363 953M1566-133L1428-133L1428 325L390 325L390 455L1566 455L1566-133M1566 546L1428 546L1428 1666L1566 1666L1566 546Z"  horiz-adv-x="1748" vert-adv-y="2048"  />

      
      <glyph glyph-name="uniADC4" unicode="&#xADC4;" d="M1363 883Q1110 843 762 826L762 393L621 393L621 819Q578 818 524 818L61 818L61 947L417 947Q695 947 924 960Q963 1146 973 1460L234 1460L234 1586L1117 1586Q1114 1223 1064 970Q1268 990 1363 1005L1363 883M1596 36L1596-92L379-92L379 445L519 445L519 36L1596 36M1566 299L1428 299L1428 1666L1566 1666L1566 299Z"  horiz-adv-x="1746" vert-adv-y="2048"  />

      
      <glyph glyph-name="uniADC8" unicode="&#xADC8;" d="M1605 19L1605-109L426-109L426 325L1428 325L1428 494L426 494L426 619L1565 619L1565 202L564 202L564 19L1605 19M1363 1009Q1110 970 761 952L761 667L620 667L620 946Q578 944 524 944L61 944L61 1070L417 1070Q726 1070 937 1084Q969 1234 973 1475L234 1475L234 1602L1117 1602Q1113 1293 1077 1095Q1190 1103 1363 1129L1363 1009M1565 686L1428 686L1428 1666L1565 1666L1565 686Z"  horiz-adv-x="1745" vert-adv-y="2048"  />

      
      <glyph glyph-name="uniADD0" unicode="&#xADD0;" d="M1566-101L429-101L429 499L1566 499L1566-101M570 375L570 24L1428 24L1428 375L570 375M1363 966Q1122 923 762 905L762 564L620 564L620 901Q578 899 524 899L61 899L61 1028L417 1028Q724 1028 935 1042Q969 1218 973 1475L234 1475L234 1602L1117 1602Q1113 1258 1076 1052Q1189 1060 1363 1087L1363 966M1566 587L1428 587L1428 1666L1566 1666L1566 587Z"  horiz-adv-x="1748" vert-adv-y="2048"  />

      
      <glyph glyph-name="uniADD1" unicode="&#xADD1;" d="M1566 575L1566-101L429-101L429 566L570 566L570 401L1428 401L1428 575L1566 575M1363 980Q1110 938 762 921L762 611L620 611L620 914Q578 913 524 913L61 913L61 1041L417 1041Q723 1041 933 1055Q969 1236 973 1475L234 1475L234 1602L1117 1602Q1113 1287 1076 1066Q1271 1085 1363 1102L1363 980M568 24L1430 24L1430 278L568 278L568 24M1566 650L1428 650L1428 1666L1566 1666L1566 650Z"  horiz-adv-x="1748" vert-adv-y="2048"  />

      
      <glyph glyph-name="uniADD3" unicode="&#xADD3;" d="M1363 918Q1110 878 761 860L761 470L620 470L620 855Q578 853 524 853L61 853L61 983L416 983Q701 983 933 997Q971 1187 975 1462L234 1462L234 1588L1118 1588Q1114 1225 1073 1005Q1182 1013 1363 1040L1363 918M261-10Q580 52 740.50 187.50Q901 323 901 525L1047 525Q1047 429 1021 356Q1122 167 1428 50Q1523 14 1653-9L1575-126Q1353-80 1190.50 19Q1028 118 955 231Q881 118 720 20Q559-78 340-126L261-10M1564 492L1428 492L1428 1666L1564 1666L1564 492Z"  horiz-adv-x="1743" vert-adv-y="2048"  />

      
      <glyph glyph-name="uniADDC" unicode="&#xADDC;" d="M1261-114L1122-114L1122 662L644 662L644-114L504-114L504 662L28 662L28 789L1250 789Q1315 1183 1315 1462L290 1462L290 1590L1455 1590Q1455 1299 1413 965Q1401 863 1387 789L1696 789L1696 662L1261 662L1261-114Z"  horiz-adv-x="1740" vert-adv-y="2048"  />

      
      <glyph glyph-name="uniADE0" unicode="&#xADE0;" d="M1436 1616Q1428 1254 1387 894L1716 894L1716 767L1216 767L1216 291L1073 291L1073 767L757 767L757 291L619 291L619 767L8 767L8 894L1246 894Q1294 1244 1294 1487L271 1487L271 1616L1436 1616M1469 30L1469-101L291-101L291 482L433 482L433 30L1469 30Z"  horiz-adv-x="1738" vert-adv-y="2048"  />

      
      <glyph glyph-name="uniADE4" unicode="&#xADE4;" d="M1436 1616Q1428 1308 1391 1054L1716 1054L1716 931L1223 931L1223 676L1434 676L1434 223L427 223L427 6L1482 6L1482-120L289-120L289 346L1296 346L1296 550L289 550L289 676L499 676L499 931L8 931L8 1054L1251 1054Q1289 1288 1292 1485L271 1485L271 1616L1436 1616M1082 931L638 931L638 676L1082 676L1082 931Z"  horiz-adv-x="1738" vert-adv-y="2048"  />

      
      <glyph glyph-name="uniADF8" unicode="&#xADF8;" d="M28 282L1162 282Q1253 749 1271 1375L284 1375L284 1504L1419 1504Q1407 1036 1345 547Q1325 393 1305 282L1696 282L1696 155L28 155L28 282Z"  horiz-adv-x="1740" vert-adv-y="2048"  />

      
      <glyph glyph-name="uniADF9" unicode="&#xADF9;" d="M1436 1616Q1430 1282 1387 940L1716 940L1716 814L8 814L8 940L1246 940Q1292 1249 1292 1485L271 1485L271 1616L1436 1616M1432-133L1292-133L1292 388L260 388L260 516L1432 516L1432-133Z"  horiz-adv-x="1738" vert-adv-y="2048"  />

      
      <glyph glyph-name="uniADFC" unicode="&#xADFC;" d="M1436 1616Q1428 1246 1382 875L1716 875L1716 747L8 747L8 875L1242 875Q1294 1228 1294 1485L271 1485L271 1616L1436 1616M1469 30L1469-101L291-101L291 482L433 482L433 30L1469 30Z"  horiz-adv-x="1738" vert-adv-y="2048"  />

      
      <glyph glyph-name="uniADFF" unicode="&#xADFF;" d="M1436 1616Q1428 1272 1385 953L1716 953L1716 825L8 825L8 953L1244 953Q1292 1268 1292 1483L271 1483L271 1616L1436 1616M1471-103L291-103L291 564L1436 564L1436 438L429 438L429 26L1471 26L1471-103Z"  horiz-adv-x="1738" vert-adv-y="2048"  />

      
      <glyph glyph-name="uniAE00" unicode="&#xAE00;" d="M1482-120L289-120L289 352L1296 352L1296 562L289 562L289 687L1434 687L1434 230L427 230L427 6L1482 6L1482-120M1436 1616Q1428 1297 1388 1031L1716 1031L1716 907L8 907L8 1031L1248 1031Q1289 1286 1292 1485L271 1485L271 1616L1436 1616Z"  horiz-adv-x="1738" vert-adv-y="2048"  />

      
      <glyph glyph-name="uniAE01" unicode="&#xAE01;" d="M1436 1616Q1428 1313 1389 1037L1716 1037L1716 913L8 913L8 1037L1249 1037Q1289 1261 1292 1485L271 1485L271 1616L1436 1616M981-74Q867-120 626-120L258-120L258 358L718 358L718 570L258 570L258 695L856 695L856 235L396 235L396 6L682 6Q870 6 981 51L981-74M1450-133L1312-133L1312 570L901 570L901 695L1450 695L1450-133Z"  horiz-adv-x="1738" vert-adv-y="2048"  />

      
      <glyph glyph-name="uniAE08" unicode="&#xAE08;" d="M1432-101L291-101L291 566L1432 566L1432-101M1292 28L1292 440L431 440L431 28L1292 28M1436 1616Q1430 1297 1387 968L1716 968L1716 841L8 841L8 968L1246 968Q1292 1263 1292 1485L271 1485L271 1616L1436 1616Z"  horiz-adv-x="1738" vert-adv-y="2048"  />

      
      <glyph glyph-name="uniAE09" unicode="&#xAE09;" d="M1432-101L291-101L291 670L431 670L431 440L1292 440L1292 670L1432 670L1432-101M1436 1616Q1428 1280 1386 973L1716 973L1716 847L8 847L8 973L1244 973Q1289 1255 1292 1485L271 1485L271 1616L1436 1616M1294 28L1294 315L429 315L429 28L1294 28Z"  horiz-adv-x="1738" vert-adv-y="2048"  />

      
      <glyph glyph-name="uniAE0B" unicode="&#xAE0B;" d="M1436 1616Q1428 1254 1385 925L1716 925L1716 799L8 799L8 925L1244 925Q1292 1255 1292 1485L271 1485L271 1616L1436 1616M183-11Q500 63 672 217Q842 375 842 602L989 602Q989 496 961 416Q1024 280 1203 157Q1374 44 1616-8L1532-126Q1310-74 1141.50 39.50Q973 153 896 280Q778 80 475-54Q380-97 267-126L183-11Z"  horiz-adv-x="1738" vert-adv-y="2048"  />

      
      <glyph glyph-name="uniAE0D" unicode="&#xAE0D;" d="M863-140Q597-140 436-33Q277 68 277 230.50Q277 393 437.50 494Q598 595 862.50 595Q1127 595 1287 494Q1447 393 1447 230.50Q1447 68 1289-33Q1129-140 863-140M423 226Q423 226 423 175.50Q423 125 537 55.50Q651-14 862-14Q1073-14 1188 55.50Q1303 125 1303 226Q1303 327 1189 397.50Q1075 468 862 468Q649 468 536 397.50Q423 327 423 226M1436 1616Q1430 1283 1383 940L1716 940L1716 814L8 814L8 940L1242 940Q1292 1274 1292 1485L271 1485L271 1616L1436 1616Z"  horiz-adv-x="1738" vert-adv-y="2048"  />

      
      <glyph glyph-name="uniAE14" unicode="&#xAE14;" d="M1377 368Q993 301 442 301L59 301L59 428L440 428Q708 428 876 439Q952 900 959 1383L202 1383L202 1506L1102 1506Q1094 984 1013 447Q1253 467 1377 489L1377 368M1566 1666L1566-128L1430-128L1430 1666L1566 1666Z"  horiz-adv-x="1748" vert-adv-y="2048"  />

      
      <glyph glyph-name="uniAE30" unicode="&#xAE30;" d="M515 1508Q820 1508 1016 1515Q980 1086 771 777Q562 468 158 253L54 358Q425 534 624 806.50Q823 1079 857 1387Q632 1381 397 1381L139 1381L139 1508L515 1508M1379-128L1379 1666L1521 1666L1521-128L1379-128Z"  horiz-adv-x="1750" vert-adv-y="2048"  />

      
      <glyph glyph-name="uniAE31" unicode="&#xAE31;" d="M875 1460Q717 1454 389 1454L189 1454L189 1580L502 1580Q817 1580 1039 1587Q957 887 165 644L78 758Q584 909 780 1224Q851 1337 875 1460M1380 623L1380 1666L1521 1666L1521 623L1380 623M1521-133L1382-133L1382 408L376 408L376 536L1521 536L1521-133Z"  horiz-adv-x="1752" vert-adv-y="2048"  />

      
      <glyph glyph-name="uniAE34" unicode="&#xAE34;" d="M873 1447Q715 1443 385 1443L187 1443L187 1569L498 1569Q814 1569 1036 1575Q961 837 173 563L78 672Q783 908 873 1447M1379 345L1379 1666L1519 1666L1519 345L1379 345M1549 38L1549-92L439-92L439 461L580 461L580 38L1549 38Z"  horiz-adv-x="1750" vert-adv-y="2048"  />

      
      <glyph glyph-name="uniAE37" unicode="&#xAE37;" d="M873 1460Q716 1454 390 1454L188 1454L188 1580L503 1580Q817 1580 1040 1587Q956 901 162 664L77 778Q768 972 873 1460M1379 652L1379 1666L1520 1666L1520 652L1379 652M1555-101L418-101L418 566L1524 566L1524 434L557 434L557 28L1555 28L1555-101Z"  horiz-adv-x="1750" vert-adv-y="2048"  />

      
      <glyph glyph-name="uniAE38" unicode="&#xAE38;" d="M875 1462Q717 1456 395 1456L189 1456L189 1580L508 1580Q823 1580 1046 1587Q997 1258 766.50 1045.50Q536 833 157 733L78 855Q579 976 780 1260Q848 1359 875 1462M1380 786L1380 1666L1521 1666L1521 786L1380 786M1562 19L1562-109L401-109L401 362L1382 362L1382 575L401 575L401 701L1521 701L1521 239L539 239L539 19L1562 19Z"  horiz-adv-x="1750" vert-adv-y="2048"  />

      
      <glyph glyph-name="uniAE3A" unicode="&#xAE3A;" d="M875 1462Q717 1456 395 1456L189 1456L189 1580L508 1580Q823 1580 1046 1587Q997 1258 766.50 1046.50Q536 835 156 735L79 857Q577 978 780 1260Q849 1359 875 1462M1380 786L1380 1666L1521 1666L1521 786L1380 786M965-101L965 706L1521 706L1521-101L965-101M1385 581L1098 581L1098 24L1385 24L1385 581M937-57Q817-105 578-105L337-105L337 364L758 364L758 579L337 579L337 706L892 706L892 241L474 241L474 23L637 23Q816 23 937 70L937-57Z"  horiz-adv-x="1752" vert-adv-y="2048"  />

      
      <glyph glyph-name="uniAE40" unicode="&#xAE40;" d="M874 1460Q717 1454 391 1454L189 1454L189 1580L504 1580Q817 1580 1041 1587Q997 1242 773 1013Q549 784 161 671L79 789Q581 931 780 1236Q849 1344 874 1460M1380 666L1380 1666L1521 1666L1521 666L1380 666M1521 579L1521-101L415-101L415 579L1521 579M1382 28L1382 451L554 451L554 28L1382 28Z"  horiz-adv-x="1752" vert-adv-y="2048"  />

      
      <glyph glyph-name="uniAE41" unicode="&#xAE41;" d="M873 1460Q717 1454 393 1454L189 1454L189 1580L506 1580Q819 1580 1044 1587Q997 1254 768 1028.50Q539 803 159 704L79 822Q579 949 778 1249Q847 1353 873 1460M1380 738L1380 1666L1521 1666L1521 738L1380 738M1521 654L1521-101L415-101L415 643L554 643L554 434L1382 434L1382 654L1521 654M552 28L1385 28L1385 307L552 307L552 28Z"  horiz-adv-x="1752" vert-adv-y="2048"  />

      
      <glyph glyph-name="uniAE43" unicode="&#xAE43;" d="M491 1580Q803 1580 1025 1587Q964 845 166 583L74 694Q786 913 861 1460Q701 1454 376 1454L187 1454L187 1580L491 1580M241-11Q553 61 717 230Q881 399 881 633L1028 633Q1028 518 997 425Q1056 283 1225.50 162.50Q1395 42 1635-8L1552-126Q1327-74 1163 41.50Q999 157 929 288Q803 74 528-54Q435-97 326-126L241-11M1378 455L1378 1666L1519 1666L1519 455L1378 455Z"  horiz-adv-x="1744" vert-adv-y="2048"  />

      
      <glyph glyph-name="uniAE45" unicode="&#xAE45;" d="M875 1460Q717 1454 389 1454L189 1454L189 1580L502 1580Q817 1580 1039 1587Q957 887 164 644L77 758Q584 910 780 1224Q851 1337 875 1460M1380 615L1380 1666L1521 1666L1521 615L1380 615M1526 235Q1526 235 1526 153.50Q1526 72 1369-34Q1212-140 945-140Q678-140 521-34Q364 72 364 235Q364 398 520.50 500Q677 602 945.50 602Q1214 602 1370 500Q1526 398 1526 235M509 231.50Q509 231.50 509 180.25Q509 129 623.50 57.50Q738-14 945-14Q1152-14 1266 57.50Q1380 129 1380 231.50Q1380 334 1267 405.50Q1154 477 945 477Q736 477 622.50 405.50Q509 334 509 231.50Z"  horiz-adv-x="1752" vert-adv-y="2048"  />

      
      <glyph glyph-name="uniAE46" unicode="&#xAE46;" d="M1257 463Q1138 457 820 457L413 457L413 578Q413 588 825.50 588Q1238 588 1420 593Q1444 593 1456.50 573Q1469 553 1455 530Q1385 348 1104 181Q1362 62 1665-1L1587-126Q1298-56 970 108Q684-43 319-131L255-3Q608 69 900 215Q1192 361 1257 463M873 1460Q715 1454 389 1454L188 1454L188 1580L503 1580Q816 1580 1041 1587Q997 1242 772.50 1013Q548 784 160 671L78 789Q580 931 778 1236Q848 1344 873 1460M1380 669L1380 1666L1519 1666L1519 669L1380 669Z"  horiz-adv-x="1743" vert-adv-y="2048"  />

      
      <glyph glyph-name="uniAE4A" unicode="&#xAE4A;" d="M873 1460Q717 1454 393 1454L189 1454L189 1580L506 1580Q819 1580 1044 1587Q997 1256 769 1033.50Q541 811 159 709L78 828Q755 1000 873 1460M1380 676L1380 1666L1521 1666L1521 676L1380 676M1567 28L1567-101L330-101L330 28L573 28L565 460L350 460L350 590L1541 590L1541 460L1320 460L1313 28L1567 28M711 28L1173 28L1181 460L704 460L711 28Z"  horiz-adv-x="1750" vert-adv-y="2048"  />

      
      <glyph glyph-name="uniAE4C" unicode="&#xAE4C;" d="M406 1386Q332 1381 178 1381L73 1381L73 1494Q73 1504 263.50 1504Q454 1504 543 1510L543 1420Q543 937 317 617Q238 504 120 391L-1 459Q225 659 319 888.50Q413 1118 406 1386M914 1386Q841 1381 674 1381L577 1381L577 1504L852 1504Q964 1504 1051 1510L1051 1420Q1051 1062 955.50 766Q860 470 628 210L503 273Q842 656 897 1101Q914 1246 914 1386M1737 947L1737 816L1439 816L1439-128L1304-128L1304 1666L1439 1666L1439 947L1737 947Z"  horiz-adv-x="1736" vert-adv-y="2048"  />

      
      <glyph glyph-name="uniAE4D" unicode="&#xAE4D;" d="M458 1461Q388 1456 228 1456L127 1456L127 1570Q127 1580 318 1580Q509 1580 598 1586Q587 1041 116 748L9 843Q427 1072 458 1461M966 1461Q894 1456 734 1456L636 1456L636 1580L905 1580Q1014 1580 1103 1586Q1103 959 645 640L530 725Q765 870 873 1090Q957 1267 966 1461M1722 1197L1722 1064L1447 1064L1447 615L1312 615L1312 1666L1447 1666L1447 1197L1722 1197M1447-133L1311-133L1311 401L303 401L303 529L1447 529L1447-133Z"  horiz-adv-x="1737" vert-adv-y="2048"  />

      
      <glyph glyph-name="uniAE4E" unicode="&#xAE4E;" d="M456 1461Q386 1456 228 1456L127 1456L127 1570Q127 1580 318 1580Q509 1580 598 1586Q587 1045 112 759L5 852Q425 1081 456 1461M966 1461Q894 1456 734 1456L636 1456L636 1580L905 1580Q1014 1580 1102 1586Q1102 971 645 653L530 738Q763 880 871 1097Q957 1268 966 1461M1722 1204L1722 1073L1447 1073L1447 623L1312 623L1312 1666L1447 1666L1447 1204L1722 1204M1447-133L1310-133L1310 408L891 408L891 536L1447 536L1447-133M835-133L697-133L697 408L250 408L250 536L835 536L835-133Z"  horiz-adv-x="1737" vert-adv-y="2048"  />

      
      <glyph glyph-name="uniAE50" unicode="&#xAE50;" d="M458 1448Q388 1444 228 1444L127 1444L127 1559Q127 1569 318 1569Q509 1569 598 1574Q592 1283 484 1060.50Q376 838 123 665L10 756Q227 882 338 1065.50Q449 1249 458 1448M971 1448Q898 1444 738 1444L636 1444L636 1559Q636 1569 827 1569Q1018 1569 1106 1574Q1106 899 641 554L523 638Q767 801 879 1045Q967 1243 971 1448M1722 1113L1722 983L1447 983L1447 345L1312 345L1312 1666L1447 1666L1447 1113L1722 1113M1479 38L1479-92L349-92L349 447L488 447L488 38L1479 38Z"  horiz-adv-x="1737" vert-adv-y="2048"  />

      
      <glyph glyph-name="uniAE54" unicode="&#xAE54;" d="M456 1461Q386 1456 228 1456L127 1456L127 1570Q127 1580 318 1580Q509 1580 598 1586Q589 1094 107 832L3 929Q227 1042 332.50 1174.50Q438 1307 456 1461M958 1461Q886 1456 729 1456L636 1456L636 1580L901 1580Q1008 1580 1097 1586Q1097 1039 648 762L538 850Q938 1068 958 1461M1722 1253L1722 1124L1447 1124L1447 786L1312 786L1312 1666L1447 1666L1447 1253L1722 1253M1488 19L1488-109L327-109L327 364L1310 364L1310 575L327 575L327 701L1447 701L1447 241L466 241L466 19L1488 19Z"  horiz-adv-x="1737" vert-adv-y="2048"  />

      
      <glyph glyph-name="uniAE56" unicode="&#xAE56;" d="M456 1461Q386 1456 228 1456L127 1456L127 1570Q127 1580 318 1580Q509 1580 598 1586Q589 1100 107 836L3 934Q227 1045 332.50 1176Q438 1307 456 1461M958 1461Q886 1456 729 1456L636 1456L636 1570Q636 1580 822 1580Q1008 1580 1097 1586Q1097 1043 648 766L538 854Q940 1072 958 1461M1722 1256L1722 1128L1447 1128L1447 786L1312 786L1312 1666L1447 1666L1447 1256L1722 1256M897-101L897 706L1447 706L1447-101L897-101M1312 581L1028 581L1028 24L1312 24L1312 581M868-57Q747-105 508-105L265-105L265 365L688 365L688 579L265 579L265 706L823 706L823 243L404 243L404 23L566 23Q742 23 868 69L868-57Z"  horiz-adv-x="1737" vert-adv-y="2048"  />

      
      <glyph glyph-name="uniAE5C" unicode="&#xAE5C;" d="M456 1461Q386 1456 228 1456L127 1456L127 1570Q127 1580 318 1580Q509 1580 598 1586Q587 1056 112 768L5 863Q425 1089 456 1461M963 1461Q890 1456 731 1456L636 1456L636 1580L903 1580Q1010 1580 1099 1586Q1099 993 645 684L530 770Q942 1013 963 1461M1722 1210L1722 1080L1447 1080L1447 662L1312 662L1312 1666L1447 1666L1447 1210L1722 1210M1447 575L1447-101L342-101L342 575L1447 575M1310 28L1310 447L482 447L482 28L1310 28Z"  horiz-adv-x="1737" vert-adv-y="2048"  />

      
      <glyph glyph-name="uniAE5D" unicode="&#xAE5D;" d="M456 1461Q386 1456 228 1456L127 1456L127 1570Q127 1580 318 1580Q509 1580 598 1586Q586 1066 112 787L5 882Q427 1105 456 1461M962 1461Q890 1456 731 1456L636 1456L636 1570Q636 1580 823 1580Q1010 1580 1099 1586Q1099 1009 645 709L532 795Q762 929 869 1127Q953 1283 962 1461M1722 1218L1722 1087L1447 1087L1447 732L1312 732L1312 1666L1447 1666L1447 1218L1722 1218M1447 649L1447-101L342-101L342 637L482 637L482 422L1310 422L1310 649L1447 649M480 28L1312 28L1312 295L480 295L480 28Z"  horiz-adv-x="1737" vert-adv-y="2048"  />

      
      <glyph glyph-name="uniAE5F" unicode="&#xAE5F;" d="M208-11Q850 138 850 602L995 602Q995 499 971 414Q1035 271 1201.50 156.50Q1368 42 1604-8L1521-126Q1299-74 1138.50 38.50Q978 151 905 277Q834 151 673 39.50Q512-72 293-126L208-11M1722 1163L1722 1034L1447 1034L1447 455L1312 455L1312 1666L1447 1666L1447 1163L1722 1163M969 1461Q896 1456 736 1456L636 1456L636 1570Q636 1580 826 1580Q1016 1580 1104 1586Q1104 943 641 603L525 687Q765 843 875 1073Q965 1261 969 1461M458 1461Q388 1456 228 1456L127 1456L127 1580L399 1580Q509 1580 598 1586Q592 1300 481 1085.50Q370 871 119 705L9 798Q234 925 340.50 1100Q447 1275 458 1461Z"  horiz-adv-x="1737" vert-adv-y="2048"  />

      
      <glyph glyph-name="uniAE60" unicode="&#xAE60;" d="M1531-121Q1306-3 1207 202Q1125 1 905-129Q684-3 588 208Q500 7 235-129L134-23Q336 72 436 219.50Q536 367 521 588L660 588Q664 487 646 395Q672 299 740.50 201Q809 103 909 39Q1026 125 1091.50 265.50Q1157 406 1143 595L1279 595Q1283 489 1266 393Q1295 283 1382 176.50Q1469 70 1632-11L1531-121M1722 1195L1722 1064L1447 1064L1447 662L1312 662L1312 1666L1447 1666L1447 1195L1722 1195M962 1461Q890 1456 731 1456L636 1456L636 1570Q636 1580 823 1580Q1010 1580 1099 1586Q1099 974 645 665L530 751Q940 993 962 1461M456 1461Q386 1456 228 1456L127 1456L127 1580L399 1580Q509 1580 598 1586Q587 1056 112 768L5 863Q425 1089 456 1461Z"  horiz-adv-x="1737" vert-adv-y="2048"  />

      
      <glyph glyph-name="uniAE61" unicode="&#xAE61;" d="M458 1461Q388 1456 228 1456L127 1456L127 1570Q127 1580 318 1580Q509 1580 598 1586Q587 1050 116 758L9 852Q429 1081 458 1461M966 1461Q894 1456 734 1456L636 1456L636 1580L905 1580Q1014 1580 1103 1586Q1103 1147 848 841Q759 734 625 642L510 727Q748 872 863 1092Q957 1273 966 1461M1722 1193L1722 1060L1447 1060L1447 613L1312 613L1312 1666L1447 1666L1447 1193L1722 1193M1479 224Q1479 224 1479 143.50Q1479 63 1322.50-38.50Q1166-140 897.50-140Q629-140 472.50-38.50Q316 63 316 224Q316 385 471.50 482Q627 579 897.50 579Q1168 579 1323.50 482Q1479 385 1479 224M462 222.50Q462 222.50 462 173.25Q462 124 570.50 55Q679-14 897.50-14Q1116-14 1224.50 55Q1333 124 1333 222.50Q1333 321 1221 387Q1109 453 897.50 453Q686 453 574 387Q462 321 462 222.50Z"  horiz-adv-x="1737" vert-adv-y="2048"  />

      
      <glyph glyph-name="uniAE65" unicode="&#xAE65;" d="M456 1461Q386 1456 228 1456L127 1456L127 1570Q127 1580 318 1580Q509 1580 598 1586Q589 1094 107 832L3 929Q227 1042 332.50 1174.50Q438 1307 456 1461M958 1461Q886 1456 729 1456L636 1456L636 1580L901 1580Q1008 1580 1097 1586Q1097 1026 648 748L538 837Q762 960 865 1146Q949 1299 958 1461M1722 1239L1722 1110L1447 1110L1447 760L1312 760L1312 1666L1447 1666L1447 1239L1722 1239M1447 231L480 231L480 26L1488 26L1488-101L341-101L341 674L1452 674L1452 548L480 548L480 354L1447 354L1447 231Z"  horiz-adv-x="1737" vert-adv-y="2048"  />

      
      <glyph glyph-name="uniAE68" unicode="&#xAE68;" d="M397 1384Q351 1379 210 1379L121 1379L121 1492Q121 1502 284.50 1502Q448 1502 531 1508L531 1418Q531 1099 450 840Q369 581 170 360L50 425Q409 807 397 1384M811 1384Q764 1379 625 1379L543 1379L543 1502L771 1502Q863 1502 946 1508L946 1418Q946 682 591 196L464 257Q745 643 795 1097Q811 1244 811 1384M1558 1666L1558-128L1424-128L1424 795L1204 795L1204-83L1073-83L1073 1647L1204 1647L1204 923L1424 923L1424 1666L1558 1666Z"  horiz-adv-x="1749" vert-adv-y="2048"  />

      
      <glyph glyph-name="uniAE69" unicode="&#xAE69;" d="M404 1456Q358 1452 224 1452L144 1452L144 1567Q144 1577 301.50 1577Q459 1577 542 1582Q527 1027 131 728L17 816Q214 948 305 1116Q396 1284 404 1456M817 1456Q772 1452 635 1452L563 1452L563 1577L781 1577Q870 1577 954 1582Q954 956 551 619L435 704Q727 923 796 1278Q816 1380 817 1456M1570 1666L1570 604L1437 604L1437 1069L1214 1069L1214 604L1082 604L1082 1647L1214 1647L1214 1195L1437 1195L1437 1666L1570 1666M1561-133L1424-133L1424 384L365 384L365 516L1561 516L1561-133Z"  horiz-adv-x="1745" vert-adv-y="2048"  />

      
      <glyph glyph-name="uniAE6C" unicode="&#xAE6C;" d="M406 1444Q359 1440 224 1440L145 1440L145 1555Q145 1565 302.50 1565Q460 1565 543 1570Q533 1276 441 1064.50Q349 853 139 679L21 765Q218 901 309 1082.50Q400 1264 406 1444M820 1444Q774 1440 635 1440L564 1440L564 1565L782 1565Q871 1565 954 1570Q954 920 549 566L429 647Q639 806 738 1047Q820 1245 820 1444M1571 1666L1571 345L1438 345L1438 1019L1214 1019L1214 384L1082 384L1082 1647L1214 1647L1214 1143L1438 1143L1438 1666L1571 1666M1592 38L1592-92L434-92L434 484L574 484L574 38L1592 38Z"  horiz-adv-x="1744" vert-adv-y="2048"  />

      
      <glyph glyph-name="uniAE70" unicode="&#xAE70;" d="M405 1456Q359 1452 224 1452L144 1452L144 1567Q144 1577 302.50 1577Q461 1577 544 1582Q537 1319 440 1143.50Q343 968 123 823L16 916Q215 1037 303.50 1169Q392 1301 405 1456M816 1456Q772 1452 635 1452L563 1452L563 1567Q563 1577 717 1577Q871 1577 954 1582Q954 1020 565 729L452 813Q644 946 725.50 1116.50Q807 1287 816 1456M1570 1666L1570 756L1437 756L1437 1126L1214 1126L1214 756L1082 756L1082 1647L1214 1647L1214 1251L1437 1251L1437 1666L1570 1666M1602 19L1602-109L396-109L396 350L1424 350L1424 544L396 544L396 670L1561 670L1561 227L535 227L535 19L1602 19Z"  horiz-adv-x="1743" vert-adv-y="2048"  />

      
      <glyph glyph-name="uniAE78" unicode="&#xAE78;" d="M404 1456Q358 1452 223 1452L143 1452L143 1567Q143 1577 300.50 1577Q458 1577 541 1582Q534 1309 440.50 1114Q347 919 129 757L17 848Q386 1087 404 1456M816 1456Q771 1452 634 1452L562 1452L562 1577L780 1577Q870 1577 953 1582Q953 977 554 652L439 737Q635 875 724 1072.50Q813 1270 816 1456M1569 1666L1569 643L1436 643L1436 1101L1213 1101L1213 643L1081 643L1081 1647L1213 1647L1213 1227L1436 1227L1436 1666L1569 1666M1560 556L1560-101L405-101L405 556L1560 556M1423 26L1423 425L541 425L541 26L1423 26Z"  horiz-adv-x="1745" vert-adv-y="2048"  />

      
      <glyph glyph-name="uniAE79" unicode="&#xAE79;" d="M404 1456Q358 1452 224 1452L144 1452L144 1567Q144 1577 301.50 1577Q459 1577 542 1582Q535 1314 439.50 1131.50Q344 949 123 797L16 890Q215 1015 303.50 1155Q392 1295 404 1456M817 1456Q772 1452 635 1452L563 1452L563 1567Q563 1577 716.50 1577Q870 1577 954 1582Q954 1008 559 701L446 786Q719 973 792 1286Q814 1380 817 1456M1570 1666L1570 712L1437 712L1437 1112L1214 1112L1214 712L1082 712L1082 1647L1214 1647L1214 1237L1437 1237L1437 1666L1570 1666M1561 628L1561-101L405-101L405 617L542 617L542 422L1424 422L1424 628L1561 628M540 26L1426 26L1426 293L540 293L540 26Z"  horiz-adv-x="1745" vert-adv-y="2048"  />

      
      <glyph glyph-name="uniAE7B" unicode="&#xAE7B;" d="M1571 1666L1571 470L1438 470L1438 1080L1214 1080L1214 669L1082 669L1082 1647L1214 1647L1214 1206L1438 1206L1438 1666L1571 1666M243-11Q884 134 884 584L1030 584Q1030 481 1004 399Q1068 262 1237 150.50Q1406 39 1637-8L1554-126Q1333-76 1173 33.50Q1013 143 939 265Q867 143 706 35.50Q545-72 327-126L243-11M818 1454Q772 1450 635 1450L564 1450L564 1575L782 1575Q871 1575 954 1578Q954 944 551 592L431 677Q637 828 736 1063Q818 1257 818 1454M406 1454Q359 1450 224 1450L145 1450L145 1575L368 1575Q460 1575 543 1578Q531 1276 436 1072Q341 868 136 704L19 791Q214 925 306 1101Q398 1277 406 1454Z"  horiz-adv-x="1742" vert-adv-y="2048"  />

      
      <glyph glyph-name="uniAE7C" unicode="&#xAE7C;" d="M1321 380Q1392 130 1687-11L1587-121Q1364-11 1264 194Q1184 3 962-128Q740-11 643 198Q556 7 290-129L190-23Q605 171 576 568L715 568Q719 467 702 382Q728 287 796.50 192.50Q865 98 966 37Q1081 119 1146.50 256Q1212 393 1200 575L1335 575Q1339 472 1321 380M1569 1666L1569 643L1435 643L1435 1097L1213 1097L1213 643L1080 643L1080 1647L1213 1647L1213 1223L1435 1223L1435 1666L1569 1666M816 1456Q771 1452 633 1452L562 1452L562 1577L780 1577Q870 1577 953 1582Q953 977 554 652L439 737Q635 875 724 1072.50Q813 1270 816 1456M404 1456Q358 1452 223 1452L143 1452L143 1577L367 1577Q458 1577 541 1582Q534 1309 440 1114Q346 919 129 757L17 848Q386 1087 404 1456Z"  horiz-adv-x="1739" vert-adv-y="2048"  />

      
      <glyph glyph-name="uniAE7D" unicode="&#xAE7D;" d="M404 1456Q358 1452 224 1452L144 1452L144 1567Q144 1577 301.50 1577Q459 1577 542 1582Q527 1027 131 728L17 816Q214 948 305 1116Q396 1284 404 1456M817 1456Q772 1452 635 1452L563 1452L563 1577L781 1577Q870 1577 954 1582Q954 956 551 619L435 704Q727 923 796 1278Q816 1380 817 1456M1570 1666L1570 579L1437 579L1437 1097L1214 1097L1214 671L1082 671L1082 1647L1214 1647L1214 1223L1437 1223L1437 1666L1570 1666M1401 489Q1564 389 1564 228Q1564 67 1398.50-35.50Q1233-138 962-138Q691-138 525-35.50Q359 67 359 228Q359 389 524 489Q693 588 963 588Q1233 588 1401 489M1301 63Q1411 129 1411 226Q1411 323 1295 392.50Q1179 462 962.50 462Q746 462 629.50 392.50Q513 323 513 227Q513 131 632 59Q751-13 959.50-13Q1168-13 1301 63Z"  horiz-adv-x="1745" vert-adv-y="2048"  />

      
      <glyph glyph-name="uniAE84" unicode="&#xAE84;" d="M1717 573L1439 573L1439-128L1304-128L1304 1666L1439 1666L1439 1247L1717 1247L1717 1119L1439 1119L1439 701L1717 701L1717 573M405 1386Q331 1381 179 1381L73 1381L73 1494Q73 1504 263.50 1504Q454 1504 543 1510L543 1420Q543 937 317 617Q238 504 120 391L-2 459Q225 659 319 888.50Q413 1118 405 1386M913 1386Q841 1381 673 1381L578 1381L578 1504L851 1504Q963 1504 1051 1510L1051 1420Q1051 1062 955 766Q859 470 628 210L503 273Q841 656 896 1101Q913 1246 913 1386Z"  horiz-adv-x="1736" vert-adv-y="2048"  />

      
      <glyph glyph-name="uniAE85" unicode="&#xAE85;" d="M1448 1666L1448 1373L1714 1373L1714 1247L1448 1247L1448 1021L1714 1021L1714 895L1448 895L1448 615L1313 615L1313 1666L1448 1666M459 1461Q388 1456 228 1456L127 1456L127 1570Q127 1580 318.50 1580Q510 1580 599 1586Q587 1041 116 748L9 843Q427 1072 459 1461M966 1461Q894 1456 735 1456L636 1456L636 1580L906 1580Q1014 1580 1103 1586Q1103 959 645 640L530 725Q766 870 873 1090Q957 1267 966 1461M1448-133L1311-133L1311 401L303 401L303 529L1448 529L1448-133Z"  horiz-adv-x="1738" vert-adv-y="2048"  />

      
      <glyph glyph-name="uniAE8C" unicode="&#xAE8C;" d="M1446 1666L1446 1428L1713 1428L1713 1303L1446 1303L1446 1119L1713 1119L1713 992L1446 992L1446 786L1311 786L1311 1666L1446 1666M456 1461Q385 1456 227 1456L126 1456L126 1570Q126 1580 317 1580Q508 1580 597 1586Q588 1094 106 832L2 929Q226 1042 332 1174.50Q438 1307 456 1461M957 1461Q885 1456 728 1456L635 1456L635 1580L901 1580Q1007 1580 1096 1586Q1096 1039 647 762L537 850Q937 1068 957 1461M1487 19L1487-109L326-109L326 364L1310 364L1310 575L326 575L326 701L1446 701L1446 241L465 241L465 19L1487 19Z"  horiz-adv-x="1737" vert-adv-y="2048"  />

      
      <glyph glyph-name="uniAEBC" unicode="&#xAEBC;" d="M448 1386Q375 1381 210 1381L108 1381L108 1494Q108 1504 302.50 1504Q497 1504 586 1510L586 1420Q586 1101 490.50 841Q395 581 159 361L42 439Q463 810 448 1386M945 1386Q872 1381 719 1381L621 1381L621 1504L886 1504Q994 1504 1082 1510L1082 1420Q1082 655 665 179L542 245Q874 623 927 1095Q945 1246 945 1386M1402 847L1092 847L1092 977L1402 977L1402 1666L1539 1666L1539-128L1402-128L1402 847Z"  horiz-adv-x="1749" vert-adv-y="2048"  />

      
      <glyph glyph-name="uniAEBD" unicode="&#xAEBD;" d="M490 1461Q420 1456 256 1456L150 1456L150 1570Q150 1580 345.50 1580Q541 1580 630 1586Q619 1047 140 748L33 843Q258 967 367 1126.50Q476 1286 490 1461M992 1461Q920 1456 758 1456L669 1456L669 1580L933 1580Q1041 1580 1130 1586Q1130 966 660 640L544 725Q783 872 893 1091Q983 1273 992 1461M1400 1039L1086 1039L1086 1169L1400 1169L1400 1666L1537 1666L1537 623L1400 623L1400 1039M1537-133L1398-133L1398 408L373 408L373 536L1537 536L1537-133Z"  horiz-adv-x="1749" vert-adv-y="2048"  />

      
      <glyph glyph-name="uniAEBE" unicode="&#xAEBE;" d="M488 1461Q417 1456 256 1456L150 1456L150 1570Q150 1580 345.50 1580Q541 1580 630 1586Q619 1050 136 759L29 852Q459 1087 488 1461M988 1461Q916 1456 754 1456L669 1456L669 1580L930 1580Q1037 1580 1125 1586Q1125 977 660 653L544 738Q777 880 891 1098Q979 1269 988 1461M1400 1043L1093 1043L1093 1173L1400 1173L1400 1666L1537 1666L1537 633L1400 633L1400 1043M1537-133L1398-133L1398 416L944 416L944 545L1537 545L1537-133M888-133L752-133L752 416L317 416L317 545L888 545L888-133Z"  horiz-adv-x="1749" vert-adv-y="2048"  />

      
      <glyph glyph-name="uniAEC0" unicode="&#xAEC0;" d="M491 1448Q420 1444 257 1444L151 1444L151 1559Q151 1569 346.50 1569Q542 1569 630 1574Q625 1283 512 1060.50Q399 838 146 665L34 756Q254 882 367 1068Q480 1254 491 1448M997 1448Q924 1444 762 1444L669 1444L669 1559Q669 1569 857 1569Q1045 1569 1134 1574Q1134 905 656 554L537 638Q782 801 899 1045Q993 1243 997 1448M1401 1004L1086 1004L1086 1134L1401 1134L1401 1666L1538 1666L1538 352L1401 352L1401 1004M1566 38L1566-92L428-92L428 457L569 457L569 38L1566 38Z"  horiz-adv-x="1748" vert-adv-y="2048"  />

      
      <glyph glyph-name="uniAEC4" unicode="&#xAEC4;" d="M490 1461Q419 1456 258 1456L152 1456L152 1570Q152 1580 347.50 1580Q543 1580 632 1586Q624 1097 133 832L29 929Q455 1143 490 1461M985 1461Q914 1456 754 1456L671 1456L671 1570Q671 1580 854 1580Q1037 1580 1125 1586Q1125 1054 665 768L553 856Q781 980 887 1154Q978 1301 985 1461M1400 1103L1093 1103L1093 1230L1400 1230L1400 1666L1537 1666L1537 786L1400 786L1400 1103M1577 19L1577-109L396-109L396 362L1398 362L1398 575L396 575L396 701L1537 701L1537 239L535 239L535 19L1577 19Z"  horiz-adv-x="1746" vert-adv-y="2048"  />

      
      <glyph glyph-name="uniAECC" unicode="&#xAECC;" d="M488 1461Q417 1456 256 1456L150 1456L150 1570Q150 1580 345.50 1580Q541 1580 630 1586Q619 1060 136 768L29 863Q459 1093 488 1461M988 1461Q916 1456 754 1456L669 1456L669 1580L930 1580Q1037 1580 1125 1586Q1125 997 660 684L544 770Q778 907 891 1113Q979 1275 988 1461M1400 1071L1093 1071L1093 1202L1400 1202L1400 1666L1537 1666L1537 662L1400 662L1400 1071M1537 575L1537-101L410-101L410 575L1537 575M1398 28L1398 447L550 447L550 28L1398 28Z"  horiz-adv-x="1749" vert-adv-y="2048"  />

      
      <glyph glyph-name="uniAECD" unicode="&#xAECD;" d="M488 1461Q417 1456 256 1456L150 1456L150 1570Q150 1580 345.50 1580Q541 1580 630 1586Q619 1070 136 787L29 882Q459 1109 488 1461M988 1461Q916 1456 754 1456L669 1456L669 1570Q669 1580 853 1580Q1037 1580 1125 1586Q1125 1016 660 709L546 795Q780 929 889 1127Q979 1287 988 1461M1400 1069L1090 1069L1090 1200L1400 1200L1400 1666L1537 1666L1537 724L1400 724L1400 1069M1537 649L1537-101L410-101L410 637L550 637L550 414L1398 414L1398 649L1537 649M548 28L1400 28L1400 288L548 288L548 28Z"  horiz-adv-x="1749" vert-adv-y="2048"  />

      
      <glyph glyph-name="uniAECF" unicode="&#xAECF;" d="M244-11Q885 138 885 602L1031 602Q1031 499 1006 414Q1071 271 1237 156.50Q1403 42 1639-8L1556-126Q1335-74 1174 38.50Q1013 151 941 277Q869 149 707 36.50Q545-76 327-131L244-11M1400 1030L1102 1030L1102 1161L1400 1161L1400 1666L1536 1666L1536 501L1400 501L1400 1030M992 1461Q920 1456 756 1456L667 1456L667 1570Q667 1580 853.50 1580Q1040 1580 1128 1586Q1128 949 654 603L536 688Q776 841 893 1073Q989 1263 992 1461M488 1461Q416 1456 254 1456L148 1456L148 1580L427 1580Q539 1580 628 1586Q616 1018 140 705L31 798Q257 925 366.50 1100.50Q476 1276 488 1461Z"  horiz-adv-x="1742" vert-adv-y="2048"  />

      
      </font>
</defs>
</svg>
