<?xml version="1.0" standalone="no"?>
  <!DOCTYPE svg PUBLIC "-//W3C//DTD SVG 1.1//EN" "http://www.w3.org/Graphics/SVG/1.1/DTD/svg11.dtd" >
  <svg>
  <metadata>
  Created by font-carrier
  </metadata>
  <defs>
  <font id="NanumBarunRobotoLight" horiz-adv-x="2130" vert-adv-y="2130" >
    <font-face
      
      font-family="NanumBarunRoboto Light"
      
      font-weight="400"
      
      font-stretch="normal"
      
      units-per-em="2048"
      
      ascent="2146"
      
      descent="-555"
      
    />
      <missing-glyph />

      
      <glyph glyph-name="x" unicode="&#x78;" horiz-adv-x="100"
        d="M20 20 L50 20 L50 -20 Z" />
      

      
      <glyph glyph-name="uniAC02" unicode="&#xAC02;" d="M132 653L42 769Q363 861 568.50 1029.50Q774 1198 831 1459Q731 1454 603 1454L157 1454L157 1570Q157 1580 502 1580Q847 1580 1002 1588Q959 1240 739 1004Q519 768 132 653M1724 1189L1724 1058L1430 1058L1430 643L1292 643L1292 1666L1430 1666L1430 1189L1724 1189M1430-133L1292-133L1292 425L885 425L885 555L1430 555L1430-133M829-133L690-133L690 425L252 425L252 555L829 555L829-133Z"  horiz-adv-x="1739" vert-adv-y="2048"  />

      
      <glyph glyph-name="uniAC03" unicode="&#xAC03;" d="M132 653L42 769Q363 861 568.50 1029.50Q774 1198 831 1459Q731 1454 603 1454L157 1454L157 1570Q157 1580 502 1580Q847 1580 1002 1588Q959 1240 739 1004Q519 768 132 653M1724 1189L1724 1058L1430 1058L1430 643L1292 643L1292 1666L1430 1666L1430 1189L1724 1189M1524-134Q1321-32 1220 182Q1181 94 1099.50 5Q1018-84 913-143L855-85L855-126L716-126L716 425L246 425L246 555L855 555L855-14Q1008 67 1090 216.50Q1172 366 1159 574L1301 574Q1301 458 1285 374Q1313 251 1404 141Q1495 31 1629-29L1524-134Z"  horiz-adv-x="1739" vert-adv-y="2048"  />

      
      <glyph glyph-name="uniAC05" unicode="&#xAC05;" d="M132 653L42 769Q363 861 568.50 1029.50Q774 1198 831 1459Q731 1454 603 1454L157 1454L157 1570Q157 1580 502 1580Q847 1580 1002 1588Q959 1240 739 1004Q519 768 132 653M1724 1189L1724 1058L1430 1058L1430 643L1292 643L1292 1666L1430 1666L1430 1189L1724 1189M1469 560Q1461 374 1313 208Q1441 88 1633 4L1528-104Q1357-18 1224 119Q1080-13 868-106L823-54Q664-101 395-101L269-101L269 570L412 570L412 26L479 26Q692 26 844 77L844 33Q1012 99 1142 220.50Q1272 342 1303 430Q1224 425 1041 425L889 425L889 555L1115 555Q1321 555 1469 560Z"  horiz-adv-x="1739" vert-adv-y="2048"  />

      
      <glyph glyph-name="uniAC06" unicode="&#xAC06;" d="M128 707L43 826Q367 906 569 1065.50Q771 1225 829 1459Q730 1454 604 1454L158 1454L158 1570Q158 1580 503 1580Q848 1580 1004 1588Q957 1252 733 1030.50Q509 809 128 707M1725 1230L1725 1099L1431 1099L1431 760L1293 760L1293 1666L1431 1666L1431 1230L1725 1230M848-48Q669-101 398-101L272-101L272 611L413 611L413 26L482 26Q695 26 848 77L848-48M1537 360L798 360L798 480L1537 480L1537 360M853 89.50Q853 89.50 853 140.75Q853 192 940 252.50Q1027 313 1167 313Q1307 313 1395 252.50Q1483 192 1483 89.50Q1483-13 1392.50-76.50Q1302-140 1168.50-140Q1035-140 944-76.50Q853-13 853 89.50M1343 92.50Q1343 92.50 1343 115.75Q1343 139 1300.50 169Q1258 199 1168.50 199Q1079 199 1036 168.50Q993 138 993 92Q993 46 1039 13Q1085-20 1168-20Q1251-20 1297 13Q1343 46 1343 92.50M1378 554L956 554L956 676L1378 676L1378 554Z"  horiz-adv-x="1739" vert-adv-y="2048"  />

      
      <glyph glyph-name="uniAC0B" unicode="&#xAC0B;" d="M126 726L44 847Q368 924 569.50 1079.50Q771 1235 832 1461Q733 1456 608 1456L158 1456L158 1570Q158 1580 505 1580Q852 1580 1008 1588Q959 1258 732 1040.50Q505 823 126 726M1725 1256L1725 1128L1431 1128L1431 786L1293 786L1293 1666L1431 1666L1431 1256L1725 1256M869-101L869 706L1003 706L1003 441L1295 441L1295 715L1431 715L1431-101L869-101M1295 321L1003 321L1003 23L1295 23L1295 321M843-57Q719-105 485-105L253-105L253 364L657 364L657 579L253 579L253 706L791 706L791 241L391 241L391 23L545 23Q725 23 843 70L843-57Z"  horiz-adv-x="1739" vert-adv-y="2048"  />

      
      <glyph glyph-name="uniAC0C" unicode="&#xAC0C;" d="M126 726L44 847Q368 924 569.50 1079.50Q771 1235 832 1461Q733 1456 608 1456L158 1456L158 1570Q158 1580 505 1580Q852 1580 1008 1588Q959 1258 732 1040.50Q505 823 126 726M1725 1256L1725 1128L1431 1128L1431 786L1293 786L1293 1666L1431 1666L1431 1256L1725 1256M893-63Q748-109 526-109L274-109L274 362L721 362L721 579L274 579L274 706L859 706L859 241L411 241L411 17L586 17Q775 17 893 63L893 18Q1034 111 1112.50 296.50Q1191 482 1174 713L1315 713Q1319 587 1304 491Q1323 341 1415.50 203.50Q1508 66 1646-3L1544-114Q1431-49 1353 58Q1275 165 1241 254Q1156 26 940-125L893-76L893-63Z"  horiz-adv-x="1739" vert-adv-y="2048"  />

      
      <glyph glyph-name="uniAC0D" unicode="&#xAC0D;" d="M126 726L44 847Q368 924 569.50 1079.50Q771 1235 832 1461Q733 1456 608 1456L158 1456L158 1570Q158 1580 505 1580Q852 1580 1008 1588Q959 1258 732 1040.50Q505 823 126 726M1725 1256L1725 1128L1431 1128L1431 786L1293 786L1293 1666L1431 1666L1431 1256L1725 1256M902-101L902 706L1435 706L1435 579L1039 579L1039 364L1431 364L1431 241L1039 241L1039 26L1459 26L1459-101L902-101M867-59Q752-105 506-105L259-105L259 364L687 364L687 579L259 579L259 706L826 706L826 241L397 241L397 23L565 23Q758 23 867 68L867-59Z"  horiz-adv-x="1739" vert-adv-y="2048"  />

      
      <glyph glyph-name="uniAC0E" unicode="&#xAC0E;" d="M126 726L44 847Q368 924 569.50 1079.50Q771 1235 832 1461Q733 1456 608 1456L158 1456L158 1570Q158 1580 505 1580Q852 1580 1008 1588Q959 1258 732 1040.50Q505 823 126 726M1725 1256L1725 1128L1431 1128L1431 786L1293 786L1293 1666L1431 1666L1431 1256L1725 1256M847 706L1476 706L1476 581L1371 581L1364 24L1489 24L1489-101L847-101L847 24L964 24L960 581L847 581L847 706M1096 24L1232 24L1239 581L1092 581L1096 24M836-57Q711-105 484-105L261-105L261 364L685 364L685 579L261 579L261 706L820 706L820 241L399 241L399 23L543 23Q715 23 836 70L836-57Z"  horiz-adv-x="1739" vert-adv-y="2048"  />

      
      <glyph glyph-name="uniAC0F" unicode="&#xAC0F;" d="M126 726L44 847Q368 924 569.50 1079.50Q771 1235 832 1461Q733 1456 608 1456L158 1456L158 1570Q158 1580 505 1580Q852 1580 1008 1588Q959 1258 732 1040.50Q505 823 126 726M1725 1256L1725 1128L1431 1128L1431 786L1293 786L1293 1666L1431 1666L1431 1256L1725 1256M882-66Q737-110 517-110L274-110L274 360L687 360L687 575L274 575L274 701L826 701L826 239L411 239L411 14L577 14Q766 14 882 61L882-66M1544 401L853 401L853 519L1544 519L1544 401M1399 597L989 597L989 721L1399 721L1399 597M906 101Q906 101 906 155.50Q906 210 985 279Q1064 348 1197 348Q1330 348 1409.50 279Q1489 210 1489 101Q1489-8 1408-76Q1327-144 1196.50-144Q1066-144 986-76Q906-8 906 101M1360 102Q1360 102 1360 129.50Q1360 157 1317 195Q1274 233 1196.50 233Q1119 233 1077 195Q1035 157 1035 102Q1035 47 1076 9Q1117-29 1196.50-29Q1276-29 1318 9Q1360 47 1360 102Z"  horiz-adv-x="1739" vert-adv-y="2048"  />

      
      <glyph glyph-name="uniAC18" unicode="&#xAC18;" d="M132 653L42 769Q363 861 568.50 1029.50Q774 1198 831 1459Q731 1454 603 1454L157 1454L157 1570Q157 1580 502 1580Q847 1580 1002 1588Q959 1240 739 1004Q519 768 132 653M1724 1189L1724 1058L1430 1058L1430 643L1292 643L1292 1666L1430 1666L1430 1189L1724 1189M775 226Q1100 226 1294 255L1294 427L308 427L308 556L1432 556L1432-128L1294-128L1294 135Q1103 99 740 99L295 99L295 226L775 226Z"  horiz-adv-x="1739" vert-adv-y="2048"  />

      
      <glyph glyph-name="uniAC1E" unicode="&#xAC1E;" d="M140 616L47 731Q330 828 505.50 1016.50Q681 1205 712 1455Q638 1450 529 1450L157 1450L157 1567Q157 1577 444 1577Q731 1577 865 1584Q852 1236 661.50 988.50Q471 741 140 616M1564 1666L1564 623L1429 623L1429 1095L1163 1095L1163 623L1029 623L1029 1647L1163 1647L1163 1221L1429 1221L1429 1666L1564 1666M1564-133L1427-133L1427 406L962 406L962 535L1564 535L1564-133M906-133L768-133L768 406L336 406L336 535L906 535L906-133Z"  horiz-adv-x="1748" vert-adv-y="2048"  />

      
      <glyph glyph-name="uniAC1F" unicode="&#xAC1F;" d="M140 616L47 731Q329 828 504.50 1016.50Q680 1205 711 1455Q637 1450 529 1450L157 1450L157 1567Q157 1577 443.50 1577Q730 1577 865 1584Q852 1236 661.50 988.50Q471 741 140 616M1563 1666L1563 623L1428 623L1428 1095L1162 1095L1162 623L1029 623L1029 1647L1162 1647L1162 1221L1428 1221L1428 1666L1563 1666M782-126L782 406L302 406L302 535L919 535L919-126L782-126M1390 555Q1390 450 1378 374Q1402 246 1492 143Q1585 31 1725-31L1618-134Q1507-80 1428 9Q1349 98 1312 179Q1221-22 1001-143L897-39Q1092 60 1176 207Q1260 354 1248 555L1390 555Z"  horiz-adv-x="1739" vert-adv-y="2048"  />

      
      <glyph glyph-name="uniAC21" unicode="&#xAC21;" d="M139 616L47 731Q328 828 504 1016.50Q680 1205 711 1455Q637 1450 528 1450L156 1450L156 1567Q156 1577 442.50 1577Q729 1577 865 1584Q852 1236 661 988.50Q470 741 139 616M1563 1666L1563 623L1428 623L1428 1095L1161 1095L1161 623L1028 623L1028 1647L1161 1647L1161 1221L1428 1221L1428 1666L1563 1666M1539 541Q1530 361 1384 202Q1507 87 1702 5L1596-104Q1424-20 1293 112Q1149-17 937-106L884-46L884-54Q726-101 454-101L319-101L319 551L461 551L461 26L538 26Q752 26 904 77L904 28Q1071 89 1204.50 206Q1338 323 1369 411Q1291 406 1109 406L958 406L958 535L1184 535Q1390 535 1539 541Z"  horiz-adv-x="1740" vert-adv-y="2048"  />

      
      <glyph glyph-name="uniAC22" unicode="&#xAC22;" d="M138 657L47 772Q331 863 505.50 1042.50Q680 1222 711 1455Q637 1450 530 1450L156 1450L156 1577L566 1577Q731 1577 868 1584Q852 1248 656.50 1008.50Q461 769 138 657M1563 1666L1563 743L1428 743L1428 1112L1161 1112L1161 743L1028 743L1028 1647L1161 1647L1161 1237L1428 1237L1428 1666L1563 1666M915-48Q737-101 465-101L322-101L322 577L461 577L461 24L550 24Q764 24 915 75L915-48M1246 181Q1157 181 1114 152.50Q1071 124 1071 82Q1071 40 1117 9Q1163-22 1246-22Q1329-22 1374.50 9Q1420 40 1420 82Q1420 124 1377.50 152.50Q1335 181 1246 181M1618 334L867 334L867 455L1618 455L1618 334M1449 521L1034 521L1034 641L1449 641L1449 521M930 79Q930 79 930 128.50Q930 178 1017.50 235.50Q1105 293 1245 293Q1385 293 1473 235.50Q1561 178 1561 79Q1561-20 1469.50-80Q1378-140 1246-140Q1114-140 1022-80Q930-20 930 79Z"  horiz-adv-x="1744" vert-adv-y="2048"  />

      
      <glyph glyph-name="uniAC23" unicode="&#xAC23;" d="M140 616L47 731Q330 828 505.50 1016.50Q681 1205 712 1455Q638 1450 529 1450L157 1450L157 1567Q157 1577 444 1577Q731 1577 865 1584Q852 1236 661.50 988.50Q471 741 140 616M1564 1666L1564 623L1429 623L1429 1095L1162 1095L1162 623L1029 623L1029 1647L1162 1647L1162 1221L1429 1221L1429 1666L1564 1666M1601-101L432-101L432 535L1567 535L1567 406L571 406L571 26L1601 26L1601-101Z"  horiz-adv-x="1745" vert-adv-y="2048"  />

      
      <glyph glyph-name="uniAC25" unicode="&#xAC25;" d="M135 696L47 811Q332 895 506 1065Q680 1235 711 1454Q638 1450 530 1450L157 1450L157 1577L568 1577Q735 1577 870 1584Q854 1258 654 1026Q454 794 135 696M1564 1666L1564 767L1429 767L1429 1151L1163 1151L1163 767L1029 767L1029 1647L1163 1647L1163 1276L1429 1276L1429 1666L1564 1666M1564-133L1427-133L1427 560L997 560L997 686L1564 686L1564-133M1093-59Q968-109 740-109L370-109L370 358L816 358L816 560L370 560L370 686L955 686L955 235L508 235L508 19L798 19Q974 19 1093 67L1093-59Z"  horiz-adv-x="1748" vert-adv-y="2048"  />

      
      <glyph glyph-name="uniAC26" unicode="&#xAC26;" d="M135 696L47 811Q332 895 506 1065Q680 1235 711 1454Q638 1450 530 1450L157 1450L157 1577L568 1577Q735 1577 870 1584Q854 1258 654 1026Q454 794 135 696M1564 1666L1564 767L1429 767L1429 1151L1163 1151L1163 767L1029 767L1029 1647L1163 1647L1163 1276L1429 1276L1429 1666L1564 1666M995-101L995 686L1564 686L1564-101L995-101M1429 562L1128 562L1128 24L1429 24L1429 562M966-57Q846-105 608-105L353-105L353 358L787 358L787 560L353 560L353 686L921 686L921 235L491 235L491 23L666 23Q848 23 966 70L966-57Z"  horiz-adv-x="1748" vert-adv-y="2048"  />

      
      <glyph glyph-name="uniAC27" unicode="&#xAC27;" d="M135 696L47 811Q332 895 506 1065Q680 1235 711 1454Q638 1450 530 1450L157 1450L157 1577L568 1577Q735 1577 870 1584Q854 1258 654 1026Q454 794 135 696M1564 1666L1564 767L1429 767L1429 1151L1163 1151L1163 767L1029 767L1029 1647L1163 1647L1163 1276L1429 1276L1429 1666L1564 1666M975-101L975 686L1110 686L1110 430L1429 430L1429 695L1564 695L1564-101L975-101M1429 309L1110 309L1110 26L1429 26L1429 309M951-57Q830-105 595-105L342-105L342 358L765 358L765 560L342 560L342 686L899 686L899 235L479 235L479 23L655 23Q832 23 951 70L951-57Z"  horiz-adv-x="1748" vert-adv-y="2048"  />

      
      <glyph glyph-name="uniAC28" unicode="&#xAC28;" d="M135 696L47 811Q331 895 505 1065Q679 1235 710 1454Q638 1450 530 1450L157 1450L157 1577L568 1577Q734 1577 870 1584Q854 1258 654 1026Q454 794 135 696M1563 1666L1563 767L1428 767L1428 1151L1162 1151L1162 767L1029 767L1029 1647L1162 1647L1162 1276L1428 1276L1428 1666L1563 1666M934-63Q789-109 567-109L315-109L315 352L762 352L762 560L315 560L315 686L900 686L900 231L452 231L452 17L627 17Q816 17 934 63L934 18Q1075 107 1153.50 288Q1232 469 1215 693L1356 693Q1360 584 1347 477Q1362 333 1454.50 200.50Q1547 68 1687-3L1587-114Q1380 7 1283 246Q1248 150 1167.50 47Q1087-56 980-124L934-76L934-63Z"  horiz-adv-x="1741" vert-adv-y="2048"  />

      
      <glyph glyph-name="uniAC29" unicode="&#xAC29;" d="M135 696L47 811Q332 895 506 1065Q680 1235 712 1454Q638 1450 531 1450L157 1450L157 1577L569 1577Q735 1577 870 1584Q854 1258 654 1026Q454 794 135 696M1564 1666L1564 767L1429 767L1429 1151L1162 1151L1162 767L1029 767L1029 1647L1162 1647L1162 1276L1429 1276L1429 1666L1564 1666M1007-101L1007 686L1568 686L1568 560L1146 560L1146 358L1564 358L1564 235L1146 235L1146 26L1593 26L1593-101L1007-101M973-59Q858-105 614-105L344-105L344 358L793 358L793 560L344 560L344 686L932 686L932 235L481 235L481 23L675 23Q867 23 973 68L973-59Z"  horiz-adv-x="1746" vert-adv-y="2048"  />

      
      <glyph glyph-name="uniAC2A" unicode="&#xAC2A;" d="M135 696L47 811Q331 895 505.50 1065Q680 1235 711 1454Q637 1450 530 1450L156 1450L156 1577L568 1577Q733 1577 870 1584Q853 1258 653 1026Q453 794 135 696M1563 1666L1563 767L1428 767L1428 1151L1161 1151L1161 767L1028 767L1028 1647L1161 1647L1161 1276L1428 1276L1428 1666L1563 1666M945 686L1606 686L1606 562L1502 562L1495 24L1620 24L1620-101L945-101L945 24L1059 24L1055 562L945 562L945 686M1191 24L1362 24L1369 562L1187 562L1191 24M933-57Q812-105 584-105L329-105L329 358L783 358L783 560L329 560L329 686L917 686L917 235L467 235L467 23L643 23Q814 23 933 70L933-57Z"  horiz-adv-x="1744" vert-adv-y="2048"  />

      
      <glyph glyph-name="uniAC2B" unicode="&#xAC2B;" d="M135 696L47 811Q332 895 506 1065Q680 1235 711 1454Q638 1450 530 1450L157 1450L157 1577L568 1577Q735 1577 870 1584Q854 1258 654 1026Q454 794 135 696M1563 1666L1563 767L1428 767L1428 1151L1162 1151L1162 767L1029 767L1029 1647L1162 1647L1162 1276L1428 1276L1428 1666L1563 1666M947-66Q801-110 581-110L320-110L320 350L744 350L744 556L320 556L320 682L880 682L880 230L456 230L456 14L641 14Q830 14 947 61L947-66M1608 386L908 386L908 506L1608 506L1608 386M1464 579L1053 579L1053 701L1464 701L1464 579M970 96Q970 96 970 149.50Q970 203 1049.50 271Q1129 339 1261.50 339Q1394 339 1474 271Q1554 203 1554 96Q1554-11 1473-77.50Q1392-144 1261-144Q1130-144 1050-77.50Q970-11 970 96M1425 97Q1425 97 1425 123.50Q1425 150 1381.50 187.50Q1338 225 1261 225Q1184 225 1142.50 188Q1101 151 1101 97Q1101 43 1141.50 6Q1182-31 1260.50-31Q1339-31 1382 6.50Q1425 44 1425 97Z"  horiz-adv-x="1745" vert-adv-y="2048"  />

      
      <glyph glyph-name="uniAC2E" unicode="&#xAC2E;" d="M137 657L46 772Q330 863 504.50 1042.50Q679 1222 710 1455Q637 1450 530 1450L156 1450L156 1577L566 1577Q731 1577 868 1584Q851 1248 656 1008.50Q461 769 137 657M1563 1666L1563 712L1428 712L1428 1112L1161 1112L1161 712L1028 712L1028 1647L1161 1647L1161 1237L1428 1237L1428 1666L1563 1666M945 619L945-101L307-101L307 611L446 611L446 391L808 391L808 619L945 619M446 26L808 26L808 266L446 266L446 26M918-32Q1272 186 1244 622L1387 622Q1387 478 1368 379Q1436 153 1707-13L1600-118Q1385 36 1313 199Q1245 29 1029-126L918-32Z"  horiz-adv-x="1739" vert-adv-y="2048"  />

      
      <glyph glyph-name="uniAC32" unicode="&#xAC32;" d="M139 630L47 744Q326 841 498 1019Q679 1213 711 1455Q637 1450 528 1450L156 1450L156 1567Q156 1577 442.50 1577Q729 1577 866 1584Q841 1073 437 783Q308 690 139 630M1563 1666L1563 643L1428 643L1428 1101L1161 1101L1161 643L1028 643L1028 1647L1161 1647L1161 1227L1428 1227L1428 1666L1563 1666M1219 436Q1100 429 782 429L453 429L453 560L1040 560Q1263 560 1384 566Q1409 566 1419 546Q1429 526 1419 503Q1342 325 1092 176Q1322 71 1666-1L1588-126Q1267-51 961 102Q704-35 326-131L256-3Q615 75 880.50 205Q1146 335 1219 436Z"  horiz-adv-x="1741" vert-adv-y="2048"  />

      
      <glyph glyph-name="uniAC33" unicode="&#xAC33;" d="M135 696L47 811Q331 895 505.50 1065Q680 1235 712 1454Q638 1450 531 1450L157 1450L157 1577L569 1577Q734 1577 870 1584Q854 1258 654 1026Q454 794 135 696M1564 1666L1564 656L1429 656L1429 1122L1162 1122L1162 808L1029 808L1029 1647L1162 1647L1162 1247L1429 1247L1429 1666L1564 1666M623 587L623 713L1188 713L1188 587L623 587M1182 355Q1083 347 931 347L413 347L413 471L1015 471Q1243 471 1364 477Q1388 477 1398.50 457Q1409 437 1398 412Q1298 250 1090 140Q1319 49 1637 3L1568-122Q1260-79 946 69Q681-55 312-124L239-4Q546 45 821.50 152.50Q1097 260 1182 355Z"  horiz-adv-x="1744" vert-adv-y="2048"  />

      
      <glyph glyph-name="uniAC34" unicode="&#xAC34;" d="M140 616L47 731Q330 828 505.50 1016.50Q681 1205 712 1455Q638 1450 529 1450L157 1450L157 1567Q157 1577 444 1577Q731 1577 865 1584Q852 1236 661.50 988.50Q471 741 140 616M1564 1666L1564 623L1429 623L1429 1095L1163 1095L1163 623L1029 623L1029 1647L1163 1647L1163 1221L1429 1221L1429 1666L1564 1666M907 215Q1231 215 1427 246L1427 408L401 408L401 536L1564 536L1564-128L1427-128L1427 126Q1234 90 872 90L388 90L388 215L907 215Z"  horiz-adv-x="1748" vert-adv-y="2048"  />

      
      <glyph glyph-name="uniAC35" unicode="&#xAC35;" d="M135 696L47 811Q332 895 506 1065Q680 1235 711 1454Q638 1450 530 1450L157 1450L157 1577L568 1577Q735 1577 870 1584Q854 1258 654 1026Q454 794 135 696M1563 1666L1563 767L1429 767L1429 1151L1162 1151L1162 767L1029 767L1029 1647L1162 1647L1162 1276L1429 1276L1429 1666L1563 1666M1563 237L569 237L569 26L1604 26L1604-101L432-101L432 682L1567 682L1567 556L569 556L569 360L1563 360L1563 237Z"  horiz-adv-x="1745" vert-adv-y="2048"  />

      
      <glyph glyph-name="uniAC36" unicode="&#xAC36;" d="M138 657L47 772Q331 863 505.50 1042.50Q680 1222 711 1455Q638 1450 530 1450L156 1450L156 1577L566 1577Q733 1577 868 1584Q852 1248 656.50 1008.50Q461 769 138 657M1563 1666L1563 682L1428 682L1428 1101L1161 1101L1161 682L1028 682L1028 1647L1161 1647L1161 1227L1428 1227L1428 1666L1563 1666M1612 26L1612-101L344-101L344 26L578 26L570 466L365 466L365 595L1583 595L1583 466L1373 466L1362 26L1612 26M716 26L1224 26L1235 466L708 466L716 26Z"  horiz-adv-x="1744" vert-adv-y="2048"  />

      
      <glyph glyph-name="uniAC37" unicode="&#xAC37;" d="M135 696L47 811Q331 895 505.50 1065Q680 1235 711 1454Q637 1450 530 1450L156 1450L156 1577L568 1577Q734 1577 870 1584Q853 1258 653 1026Q453 794 135 696M1564 1666L1564 656L1428 656L1428 1122L1162 1122L1162 808L1028 808L1028 1647L1162 1647L1162 1247L1428 1247L1428 1666L1564 1666M1583 386L329 386L329 508L1583 508L1583 386M1247 591L642 591L642 715L1247 715L1247 591M1478 87Q1478 87 1478 28.50Q1478-30 1334-89.50Q1190-149 955-149Q720-149 576-89.50Q432-30 432 87Q432 204 573 264.50Q714 325 954 325Q1194 325 1336 264.50Q1478 204 1478 87M582 90Q582 36 679.50 2.50Q777-31 954-31Q1131-31 1229.50 2.50Q1328 36 1328 90Q1328 138 1236 172Q1144 206 955.50 206Q767 206 674.50 172Q582 138 582 90Z"  horiz-adv-x="1746" vert-adv-y="2048"  />

      
      <glyph glyph-name="uniAC3A" unicode="&#xAC3A;" d="M131 653L41 769Q362 861 567.50 1029.50Q773 1198 830 1459Q730 1454 602 1454L156 1454L156 1570Q156 1580 501.50 1580Q847 1580 1001 1588Q958 1240 738 1004Q518 768 131 653M1429 1666L1429 1383L1715 1383L1715 1256L1429 1256L1429 1011L1715 1011L1715 886L1429 886L1429 643L1292 643L1292 1666L1429 1666M1429-133L1292-133L1292 425L884 425L884 555L1429 555L1429-133M828-133L689-133L689 425L251 425L251 555L828 555L828-133Z"  horiz-adv-x="1739" vert-adv-y="2048"  />

      
      <glyph glyph-name="uniAC3B" unicode="&#xAC3B;" d="M131 653L41 769Q362 861 567.50 1029.50Q773 1198 830 1459Q730 1454 602 1454L156 1454L156 1570Q156 1580 501.50 1580Q847 1580 1001 1588Q958 1240 738 1004Q518 768 131 653M1429 1666L1429 1383L1715 1383L1715 1256L1429 1256L1429 1011L1715 1011L1715 886L1429 886L1429 643L1292 643L1292 1666L1429 1666M1523-134Q1320-32 1219 182Q1180 94 1098.50 5Q1017-84 912-143L854-85L854-126L715-126L715 425L245 425L245 555L854 555L854-14Q1007 67 1089 216.50Q1171 366 1159 574L1300 574Q1300 458 1284 374Q1312 251 1403 141Q1494 31 1628-29L1523-134Z"  horiz-adv-x="1739" vert-adv-y="2048"  />

      
      <glyph glyph-name="uniAC3D" unicode="&#xAC3D;" d="M131 653L41 769Q362 861 567.50 1029.50Q773 1198 830 1459Q730 1454 602 1454L156 1454L156 1570Q156 1580 501.50 1580Q847 1580 1001 1588Q958 1240 738 1004Q518 768 131 653M1429 1666L1429 1383L1715 1383L1715 1256L1429 1256L1429 1011L1715 1011L1715 886L1429 886L1429 643L1292 643L1292 1666L1429 1666M1468 560Q1461 374 1312 208Q1441 88 1632 4L1527-104Q1356-18 1223 119Q1080-13 867-106L823-54Q663-101 394-101L269-101L269 570L411 570L411 26L478 26Q692 26 843 77L843 33Q1012 99 1142 220.50Q1272 342 1302 430Q1223 425 1040 425L888 425L888 555L1114 555Q1321 555 1468 560Z"  horiz-adv-x="1739" vert-adv-y="2048"  />

      
      <glyph glyph-name="uniAC3E" unicode="&#xAC3E;" d="M127 707L42 826Q366 906 568 1065.50Q770 1225 828 1459Q729 1454 603 1454L157 1454L157 1570Q157 1580 502.50 1580Q848 1580 1003 1588Q956 1252 732 1030.50Q508 809 127 707M1430 1666L1430 1397L1716 1397L1716 1270L1430 1270L1430 1072L1716 1072L1716 946L1430 946L1430 760L1293 760L1293 1666L1430 1666M847-48Q668-101 397-101L271-101L271 611L412 611L412 26L481 26Q694 26 847 77L847-48M1536 360L798 360L798 480L1536 480L1536 360M852 89.50Q852 89.50 852 140.75Q852 192 939 252.50Q1026 313 1166 313Q1306 313 1394.50 252.50Q1483 192 1483 89.50Q1483-13 1392-76.50Q1301-140 1167.50-140Q1034-140 943-76.50Q852-13 852 89.50M1342 92.50Q1342 92.50 1342 115.75Q1342 139 1299.50 169Q1257 199 1167.50 199Q1078 199 1035 168.50Q992 138 992 92Q992 46 1038 13Q1084-20 1167-20Q1250-20 1296 13Q1342 46 1342 92.50M1377 554L955 554L955 676L1377 676L1377 554Z"  horiz-adv-x="1739" vert-adv-y="2048"  />

      
      <glyph glyph-name="uniAC3F" unicode="&#xAC3F;" d="M131 653L41 769Q362 861 567.50 1029.50Q773 1198 830 1459Q730 1454 602 1454L156 1454L156 1570Q156 1580 501.50 1580Q847 1580 1001 1588Q958 1240 738 1004Q518 768 131 653M1429 1666L1429 1383L1715 1383L1715 1256L1429 1256L1429 1011L1715 1011L1715 886L1429 886L1429 643L1292 643L1292 1666L1429 1666M1466-101L346-101L346 556L1433 556L1433 423L487 423L487 28L1466 28L1466-101Z"  horiz-adv-x="1739" vert-adv-y="2048"  />

      
      <glyph glyph-name="uniAC41" unicode="&#xAC41;" d="M126 726L44 847Q369 924 570 1079.50Q771 1235 833 1461Q734 1456 608 1456L158 1456L158 1570Q158 1580 505 1580Q852 1580 1008 1588Q959 1258 732 1040.50Q505 823 126 726M1432 1666L1432 1423L1717 1423L1717 1295L1432 1295L1432 1107L1717 1107L1717 983L1432 983L1432 786L1294 786L1294 1666L1432 1666M1432-133L1294-133L1294 579L892 579L892 706L1432 706L1432-133M988-59Q863-109 634-109L284-109L284 364L711 364L711 579L284 579L284 706L850 706L850 241L423 241L423 19L689 19Q869 19 988 67L988-59Z"  horiz-adv-x="1740" vert-adv-y="2048"  />

      
      <glyph glyph-name="uniAC42" unicode="&#xAC42;" d="M126 726L44 847Q369 924 570 1079.50Q771 1235 833 1461Q734 1456 608 1456L158 1456L158 1570Q158 1580 505 1580Q852 1580 1008 1588Q959 1258 732 1040.50Q505 823 126 726M1432 1666L1432 1423L1717 1423L1717 1295L1432 1295L1432 1107L1717 1107L1717 983L1432 983L1432 786L1294 786L1294 1666L1432 1666M888-101L888 706L1432 706L1432-101L888-101M1295 581L1021 581L1021 24L1295 24L1295 581M859-57Q735-105 499-105L265-105L265 364L680 364L680 579L265 579L265 706L815 706L815 241L404 241L404 23L558 23Q740 23 859 70L859-57Z"  horiz-adv-x="1740" vert-adv-y="2048"  />

      
      <glyph glyph-name="uniAC43" unicode="&#xAC43;" d="M126 726L44 847Q369 924 570 1079.50Q771 1235 833 1461Q734 1456 608 1456L158 1456L158 1570Q158 1580 505 1580Q852 1580 1008 1588Q959 1258 732 1040.50Q505 823 126 726M1432 1666L1432 1423L1717 1423L1717 1295L1432 1295L1432 1107L1717 1107L1717 983L1432 983L1432 786L1294 786L1294 1666L1432 1666M869-101L869 706L1003 706L1003 441L1295 441L1295 715L1432 715L1432-101L869-101M1295 321L1003 321L1003 23L1295 23L1295 321M843-57Q719-105 486-105L253-105L253 364L657 364L657 579L253 579L253 706L791 706L791 241L391 241L391 23L546 23Q725 23 843 70L843-57Z"  horiz-adv-x="1740" vert-adv-y="2048"  />

      
      <glyph glyph-name="uniAC44" unicode="&#xAC44;" d="M126 726L44 847Q369 924 570 1079.50Q771 1235 833 1461Q734 1456 608 1456L158 1456L158 1570Q158 1580 505 1580Q852 1580 1008 1588Q959 1258 732 1040.50Q505 823 126 726M1432 1666L1432 1423L1717 1423L1717 1295L1432 1295L1432 1107L1717 1107L1717 983L1432 983L1432 786L1294 786L1294 1666L1432 1666M893-63Q748-109 527-109L274-109L274 362L721 362L721 579L274 579L274 706L859 706L859 241L411 241L411 17L586 17Q775 17 893 63L893 18Q1035 111 1113 296.50Q1191 482 1174 713L1315 713Q1319 587 1304 491Q1323 341 1415.50 203.50Q1508 66 1646-3L1544-114Q1432-49 1354 58Q1276 165 1241 255Q1157 26 941-125L893-76L893-63Z"  horiz-adv-x="1740" vert-adv-y="2048"  />

      
      <glyph glyph-name="uniAC45" unicode="&#xAC45;" d="M126 726L44 847Q369 924 570 1079.50Q771 1235 833 1461Q734 1456 608 1456L158 1456L158 1570Q158 1580 505 1580Q852 1580 1008 1588Q959 1258 732 1040.50Q505 823 126 726M1432 1666L1432 1423L1717 1423L1717 1295L1432 1295L1432 1107L1717 1107L1717 983L1432 983L1432 786L1294 786L1294 1666L1432 1666M902-101L902 706L1436 706L1436 579L1040 579L1040 364L1432 364L1432 241L1040 241L1040 26L1459 26L1459-101L902-101M867-59Q752-105 507-105L259-105L259 364L687 364L687 579L259 579L259 706L826 706L826 241L397 241L397 23L565 23Q758 23 867 68L867-59Z"  horiz-adv-x="1740" vert-adv-y="2048"  />

      
      <glyph glyph-name="uniAC46" unicode="&#xAC46;" d="M126 726L44 847Q369 924 570 1079.50Q771 1235 833 1461Q734 1456 608 1456L158 1456L158 1570Q158 1580 505 1580Q852 1580 1008 1588Q959 1258 732 1040.50Q505 823 126 726M1432 1666L1432 1423L1717 1423L1717 1295L1432 1295L1432 1107L1717 1107L1717 983L1432 983L1432 786L1294 786L1294 1666L1432 1666M847 706L1476 706L1476 581L1371 581L1364 24L1489 24L1489-101L847-101L847 24L964 24L960 581L847 581L847 706M1096 24L1232 24L1239 581L1092 581L1096 24M836-57Q711-105 484-105L261-105L261 364L686 364L686 579L261 579L261 706L821 706L821 241L399 241L399 23L544 23Q715 23 836 70L836-57Z"  horiz-adv-x="1740" vert-adv-y="2048"  />

      
      <glyph glyph-name="uniAC47" unicode="&#xAC47;" d="M126 726L44 847Q369 924 570 1079.50Q771 1235 833 1461Q734 1456 608 1456L158 1456L158 1570Q158 1580 505 1580Q852 1580 1008 1588Q959 1258 732 1040.50Q505 823 126 726M1432 1666L1432 1423L1717 1423L1717 1295L1432 1295L1432 1107L1717 1107L1717 983L1432 983L1432 786L1294 786L1294 1666L1432 1666M882-66Q737-110 517-110L274-110L274 360L687 360L687 575L274 575L274 701L826 701L826 239L411 239L411 14L577 14Q766 14 882 61L882-66M1544 401L853 401L853 519L1544 519L1544 401M1399 597L990 597L990 721L1399 721L1399 597M906 101Q906 101 906 155.50Q906 210 985 279Q1064 348 1197 348Q1330 348 1409.50 279Q1489 210 1489 101Q1489-8 1408-76Q1327-144 1196.50-144Q1066-144 986-76Q906-8 906 101M1360 102Q1360 102 1360 129.50Q1360 157 1317 195Q1274 233 1196.50 233Q1119 233 1077.50 195Q1036 157 1036 102Q1036 47 1077 9Q1118-29 1197-29Q1276-29 1318 9Q1360 47 1360 102Z"  horiz-adv-x="1740" vert-adv-y="2048"  />

      
      <glyph glyph-name="uniAC48" unicode="&#xAC48;" d="M129 671L42 789Q363 876 567.50 1042Q772 1208 831 1459Q731 1454 603 1454L157 1454L157 1570Q157 1580 502.50 1580Q848 1580 1002 1588Q959 1244 737 1013Q515 782 129 671M1430 1666L1430 1383L1716 1383L1716 1256L1430 1256L1430 1023L1716 1023L1716 895L1430 895L1430 662L1293 662L1293 1666L1430 1666M1430 575L1430-101L344-101L344 575L1430 575M1293 28L1293 447L484 447L484 28L1293 28Z"  horiz-adv-x="1739" vert-adv-y="2048"  />

      
      <glyph glyph-name="uniAC49" unicode="&#xAC49;" d="M127 707L42 826Q366 906 568 1065.50Q770 1225 828 1459Q729 1454 603 1454L157 1454L157 1570Q157 1580 502.50 1580Q848 1580 1003 1588Q956 1252 732 1030.50Q508 809 127 707M1430 1666L1430 1385L1716 1385L1716 1258L1430 1258L1430 1060L1716 1060L1716 934L1430 934L1430 732L1293 732L1293 1666L1430 1666M1430 649L1430-101L344-101L344 637L484 637L484 406L1293 406L1293 649L1430 649M482 28L1294 28L1294 280L482 280L482 28Z"  horiz-adv-x="1739" vert-adv-y="2048"  />

      
      <glyph glyph-name="uniAC4A" unicode="&#xAC4A;" d="M127 707L42 826Q366 906 568 1065.50Q770 1225 828 1459Q729 1454 603 1454L157 1454L157 1570Q157 1580 502.50 1580Q848 1580 1003 1588Q956 1252 732 1030.50Q508 809 127 707M1430 1666L1430 1385L1716 1385L1716 1258L1430 1258L1430 1060L1716 1060L1716 934L1430 934L1430 732L1293 732L1293 1666L1430 1666M905 649L905-101L277-101L277 641L416 641L416 408L768 408L768 649L905 649M416 28L768 28L768 284L416 284L416 28M869-32Q1223 198 1195 650L1338 650Q1338 499 1318 397Q1388 167 1657-13L1551-118Q1338 35 1263 210Q1197 38 983-127L869-32Z"  horiz-adv-x="1739" vert-adv-y="2048"  />

      
      <glyph glyph-name="uniAC4C" unicode="&#xAC4C;" d="M129 671L42 789Q363 876 567.50 1042Q772 1208 831 1459Q731 1454 603 1454L157 1454L157 1570Q157 1580 502.50 1580Q848 1580 1002 1588Q959 1244 737 1013Q515 782 129 671M1430 1666L1430 1383L1716 1383L1716 1256L1430 1256L1430 1023L1716 1023L1716 895L1430 895L1430 662L1293 662L1293 1666L1430 1666M907-129Q669 3 583 202Q493 1 232-129L137-22Q336 72 435.50 219.50Q535 367 523 588L660 588Q660 480 649 400Q670 301 739.50 198.50Q809 96 911 33Q1027 118 1093 263Q1159 408 1145 595L1279 595Q1279 493 1266 397Q1293 284 1381 176Q1469 68 1635-11L1528-121Q1394-55 1317.50 33Q1241 121 1205 197Q1124-1 907-129Z"  horiz-adv-x="1739" vert-adv-y="2048"  />

      
      <glyph glyph-name="uniAC4E" unicode="&#xAC4E;" d="M129 671L42 789Q363 876 567.50 1042Q772 1208 831 1459Q731 1454 603 1454L157 1454L157 1570Q157 1580 502.50 1580Q848 1580 1002 1588Q959 1244 737 1013Q515 782 129 671M1430 1666L1430 1383L1716 1383L1716 1256L1430 1256L1430 1023L1716 1023L1716 895L1430 895L1430 662L1293 662L1293 1666L1430 1666M1184 456Q1064 449 746 449L418 449L418 579L1003 579Q1226 579 1346 586Q1371 586 1381.50 565.50Q1392 545 1381 522Q1298 335 1053 185Q1279 77 1630-1L1554-126Q1330-75 1060 43Q983 78 924 110Q645-41 291-131L220-3Q567 71 841.50 212Q1116 353 1184 456Z"  horiz-adv-x="1739" vert-adv-y="2048"  />

      
      <glyph glyph-name="uniAC4F" unicode="&#xAC4F;" d="M126 726L44 847Q369 924 570 1079.50Q771 1235 833 1461Q734 1456 608 1456L158 1456L158 1570Q158 1580 505 1580Q852 1580 1008 1588Q959 1258 732 1040.50Q505 823 126 726M1432 1666L1432 1383L1717 1383L1717 1256L1432 1256L1432 1052L1717 1052L1717 927L1432 927L1432 701L1294 701L1294 1666L1432 1666M578 606L578 732L1143 732L1143 606L578 606M1040 146Q1262 49 1592 3L1523-122Q1208-77 899 73Q619-59 266-124L194-5Q691 82 1004 270Q1105 329 1138 366Q1038 360 887 360L367 360L367 482L970 482Q1197 482 1318 488Q1343 488 1353.50 468.50Q1364 449 1353 424Q1251 255 1040 146Z"  horiz-adv-x="1740" vert-adv-y="2048"  />

      
      <glyph glyph-name="uniAC50" unicode="&#xAC50;" d="M131 653L41 769Q362 861 567.50 1029.50Q773 1198 830 1459Q730 1454 602 1454L156 1454L156 1570Q156 1580 501.50 1580Q847 1580 1001 1588Q958 1240 738 1004Q518 768 131 653M1429 1666L1429 1383L1715 1383L1715 1256L1429 1256L1429 1011L1715 1011L1715 886L1429 886L1429 643L1292 643L1292 1666L1429 1666M774 226Q1099 226 1293 255L1293 427L307 427L307 556L1431 556L1431-128L1293-128L1293 135Q1102 99 739 99L294 99L294 226L774 226Z"  horiz-adv-x="1739" vert-adv-y="2048"  />

      
      <glyph glyph-name="uniAC51" unicode="&#xAC51;" d="M126 726L44 847Q369 924 570 1079.50Q771 1235 833 1461Q734 1456 608 1456L158 1456L158 1570Q158 1580 505 1580Q852 1580 1008 1588Q959 1258 732 1040.50Q505 823 126 726M1432 1666L1432 1423L1717 1423L1717 1295L1432 1295L1432 1107L1717 1107L1717 983L1432 983L1432 786L1294 786L1294 1666L1432 1666M1432 243L483 243L483 26L1472 26L1472-101L345-101L345 701L1436 701L1436 575L483 575L483 365L1432 365L1432 243Z"  horiz-adv-x="1740" vert-adv-y="2048"  />

      
      <glyph glyph-name="uniAC52" unicode="&#xAC52;" d="M127 707L42 826Q366 906 568 1065.50Q770 1225 828 1459Q729 1454 603 1454L157 1454L157 1570Q157 1580 502.50 1580Q848 1580 1003 1588Q956 1252 732 1030.50Q508 809 127 707M1430 1666L1430 1383L1716 1383L1716 1256L1430 1256L1430 1041L1716 1041L1716 914L1430 914L1430 701L1293 701L1293 1666L1430 1666M1510 28L1510-101L271-101L271 28L515 28L507 486L293 486L293 613L1481 613L1481 486L1260 486L1253 28L1510 28M652 28L1114 28L1123 486L645 486L652 28Z"  horiz-adv-x="1739" vert-adv-y="2048"  />

      
      <glyph glyph-name="uniAC53" unicode="&#xAC53;" d="M126 726L44 847Q369 924 570 1079.50Q771 1235 833 1461Q734 1456 608 1456L158 1456L158 1570Q158 1580 505 1580Q852 1580 1008 1588Q959 1258 732 1040.50Q505 823 126 726M1432 1666L1432 1383L1717 1383L1717 1256L1432 1256L1432 1052L1717 1052L1717 927L1432 927L1432 701L1294 701L1294 1666L1432 1666M1500 401L245 401L245 521L1500 521L1500 401M1163 610L558 610L558 734L1163 734L1163 610M1395 92.50Q1395 92.50 1395 33.25Q1395-26 1251-87.50Q1107-149 872-149Q637-149 492.50-87.50Q348-26 348 92.50Q348 211 489.50 273.50Q631 336 871 336Q1111 336 1253 273.50Q1395 211 1395 92.50M499 93.50Q499 93.50 499 66.75Q499 40 596.50 4.50Q694-31 870.50-31Q1047-31 1146 4.50Q1245 40 1245 93.50Q1245 147 1152.50 182Q1060 217 871 217Q682 217 590.50 182Q499 147 499 93.50Z"  horiz-adv-x="1740" vert-adv-y="2048"  />

      
      <glyph glyph-name="uniAC55" unicode="&#xAC55;" d="M142 601L47 714Q481 877 642 1212Q697 1332 712 1455Q638 1450 529 1450L157 1450L157 1567Q157 1577 444 1577Q731 1577 865 1584Q850 1232 663 980.50Q476 729 142 601M1429 604L1429 913L1165 913L1165 604L1029 604L1029 1647L1165 1647L1165 1406L1429 1406L1429 1666L1566 1666L1566 604L1429 604M1429 1031L1429 1288L1165 1288L1165 1031L1429 1031M1564-133L1427-133L1427 386L387 386L387 516L1564 516L1564-133Z"  horiz-adv-x="1748" vert-adv-y="2048"  />

      
      <glyph glyph-name="uniAC56" unicode="&#xAC56;" d="M140 616L47 731Q330 828 505.50 1016.50Q681 1205 712 1455Q638 1450 529 1450L157 1450L157 1567Q157 1577 444 1577Q731 1577 865 1584Q852 1236 661.50 988.50Q471 741 140 616M1429 623L1429 940L1163 940L1163 623L1027 623L1027 1647L1163 1647L1163 1426L1429 1426L1429 1666L1566 1666L1566 623L1429 623M1429 1058L1429 1309L1163 1309L1163 1058L1429 1058M1564-133L1427-133L1427 406L962 406L962 535L1564 535L1564-133M906-133L768-133L768 406L336 406L336 535L906 535L906-133Z"  horiz-adv-x="1748" vert-adv-y="2048"  />

      
      <glyph glyph-name="uniAC57" unicode="&#xAC57;" d="M140 616L47 731Q329 828 504.50 1016.50Q680 1205 711 1455Q637 1450 529 1450L157 1450L157 1567Q157 1577 443.50 1577Q730 1577 865 1584Q852 1236 661.50 988.50Q471 741 140 616M1428 623L1428 940L1162 940L1162 623L1027 623L1027 1647L1162 1647L1162 1426L1428 1426L1428 1666L1565 1666L1565 623L1428 623M1428 1058L1428 1309L1162 1309L1162 1058L1428 1058M782-126L782 406L302 406L302 535L919 535L919-126L782-126M1390 555Q1390 450 1378 374Q1402 246 1492 143Q1585 31 1725-31L1618-134Q1507-80 1428 9Q1349 98 1312 179Q1221-22 1001-143L897-39Q1092 60 1176 207Q1260 354 1248 555L1390 555Z"  horiz-adv-x="1739" vert-adv-y="2048"  />

      
      <glyph glyph-name="uniAC59" unicode="&#xAC59;" d="M139 616L47 731Q328 828 504 1016.50Q680 1205 711 1455Q637 1450 528 1450L156 1450L156 1567Q156 1577 442.50 1577Q729 1577 865 1584Q852 1236 661 988.50Q470 741 139 616M1428 623L1428 940L1161 940L1161 623L1026 623L1026 1647L1161 1647L1161 1426L1428 1426L1428 1666L1565 1666L1565 623L1428 623M1428 1058L1428 1309L1161 1309L1161 1058L1428 1058M1539 541Q1530 361 1384 202Q1507 87 1702 5L1596-104Q1424-20 1293 112Q1149-17 937-106L884-46L884-54Q726-101 454-101L319-101L319 551L461 551L461 26L538 26Q752 26 904 77L904 28Q1071 89 1204.50 206Q1338 323 1369 411Q1291 406 1109 406L958 406L958 535L1184 535Q1390 535 1539 541Z"  horiz-adv-x="1740" vert-adv-y="2048"  />

      
      <glyph glyph-name="uniAC5A" unicode="&#xAC5A;" d="M138 657L47 772Q331 863 505.50 1042.50Q680 1222 711 1455Q637 1450 530 1450L156 1450L156 1577L566 1577Q731 1577 868 1584Q852 1248 656.50 1008.50Q461 769 138 657M1428 743L1428 1004L1161 1004L1161 743L1026 743L1026 1647L1161 1647L1161 1437L1428 1437L1428 1666L1565 1666L1565 743L1428 743M1428 1123L1428 1318L1161 1318L1161 1123L1428 1123M915-48Q737-101 465-101L322-101L322 577L461 577L461 24L550 24Q764 24 915 75L915-48M1246 181Q1157 181 1114 152.50Q1071 124 1071 82Q1071 40 1117 9Q1163-22 1246-22Q1329-22 1374.50 9Q1420 40 1420 82Q1420 124 1377.50 152.50Q1335 181 1246 181M1618 334L867 334L867 455L1618 455L1618 334M1449 521L1034 521L1034 641L1449 641L1449 521M930 79Q930 79 930 128.50Q930 178 1017.50 235.50Q1105 293 1245 293Q1385 293 1473 235.50Q1561 178 1561 79Q1561-20 1469.50-80Q1378-140 1246-140Q1114-140 1022-80Q930-20 930 79Z"  horiz-adv-x="1744" vert-adv-y="2048"  />

      
      <glyph glyph-name="uniAC5B" unicode="&#xAC5B;" d="M140 616L47 731Q330 828 505.50 1016.50Q681 1205 712 1455Q638 1450 529 1450L157 1450L157 1567Q157 1577 444 1577Q731 1577 865 1584Q852 1236 661.50 988.50Q471 741 140 616M1429 623L1429 940L1162 940L1162 623L1027 623L1027 1647L1162 1647L1162 1426L1429 1426L1429 1666L1565 1666L1565 623L1429 623M1429 1058L1429 1309L1162 1309L1162 1058L1429 1058M1601-101L432-101L432 535L1567 535L1567 406L571 406L571 26L1601 26L1601-101Z"  horiz-adv-x="1745" vert-adv-y="2048"  />

      
      <glyph glyph-name="uniAC5D" unicode="&#xAC5D;" d="M135 696L47 811Q332 895 506 1065Q680 1235 711 1454Q638 1450 530 1450L157 1450L157 1577L568 1577Q735 1577 870 1584Q854 1258 654 1026Q454 794 135 696M1429 767L1429 1002L1163 1002L1163 767L1027 767L1027 1647L1163 1647L1163 1439L1429 1439L1429 1666L1566 1666L1566 767L1429 767M1429 1121L1429 1321L1163 1321L1163 1121L1429 1121M1564-133L1427-133L1427 560L997 560L997 686L1564 686L1564-133M1093-59Q968-109 740-109L370-109L370 358L816 358L816 560L370 560L370 686L955 686L955 235L508 235L508 19L798 19Q974 19 1093 67L1093-59Z"  horiz-adv-x="1748" vert-adv-y="2048"  />

      
      <glyph glyph-name="uniAC5E" unicode="&#xAC5E;" d="M135 696L47 811Q332 895 506 1065Q680 1235 711 1454Q638 1450 530 1450L157 1450L157 1577L568 1577Q735 1577 870 1584Q854 1258 654 1026Q454 794 135 696M1429 767L1429 1002L1163 1002L1163 767L1027 767L1027 1647L1163 1647L1163 1439L1429 1439L1429 1666L1566 1666L1566 767L1429 767M1429 1121L1429 1321L1163 1321L1163 1121L1429 1121M995-101L995 686L1564 686L1564-101L995-101M1429 562L1127 562L1127 24L1429 24L1429 562M966-57Q846-105 608-105L353-105L353 358L787 358L787 560L353 560L353 686L921 686L921 235L491 235L491 23L666 23Q848 23 966 70L966-57Z"  horiz-adv-x="1748" vert-adv-y="2048"  />

      
      <glyph glyph-name="uniAC5F" unicode="&#xAC5F;" d="M135 696L47 811Q332 895 506 1065Q680 1235 711 1454Q638 1450 530 1450L157 1450L157 1577L568 1577Q735 1577 870 1584Q854 1258 654 1026Q454 794 135 696M1429 767L1429 1002L1163 1002L1163 767L1027 767L1027 1647L1163 1647L1163 1439L1429 1439L1429 1666L1566 1666L1566 767L1429 767M1429 1121L1429 1321L1163 1321L1163 1121L1429 1121M975-101L975 686L1110 686L1110 430L1429 430L1429 695L1564 695L1564-101L975-101M1429 309L1110 309L1110 26L1429 26L1429 309M951-57Q830-105 595-105L342-105L342 358L765 358L765 560L342 560L342 686L899 686L899 235L479 235L479 23L655 23Q832 23 951 70L951-57Z"  horiz-adv-x="1748" vert-adv-y="2048"  />

      
      <glyph glyph-name="uniAC60" unicode="&#xAC60;" d="M135 696L47 811Q331 895 505 1065Q679 1235 710 1454Q638 1450 530 1450L157 1450L157 1577L568 1577Q734 1577 870 1584Q854 1258 654 1026Q454 794 135 696M1428 767L1428 1002L1162 1002L1162 767L1027 767L1027 1647L1162 1647L1162 1439L1428 1439L1428 1666L1565 1666L1565 767L1428 767M1428 1121L1428 1321L1162 1321L1162 1121L1428 1121M934-63Q789-109 567-109L315-109L315 352L762 352L762 560L315 560L315 686L900 686L900 231L452 231L452 17L627 17Q816 17 934 63L934 18Q1075 107 1153.50 288Q1232 469 1215 693L1356 693Q1360 584 1347 477Q1362 333 1454.50 200.50Q1547 68 1687-3L1587-114Q1380 7 1283 246Q1248 150 1167.50 47Q1087-56 980-124L934-76L934-63Z"  horiz-adv-x="1741" vert-adv-y="2048"  />

      
      <glyph glyph-name="uniAC61" unicode="&#xAC61;" d="M135 696L47 811Q332 895 506 1065Q680 1235 712 1454Q638 1450 531 1450L157 1450L157 1577L569 1577Q735 1577 870 1584Q854 1258 654 1026Q454 794 135 696M1429 767L1429 1002L1162 1002L1162 767L1027 767L1027 1647L1162 1647L1162 1439L1429 1439L1429 1666L1566 1666L1566 767L1429 767M1429 1121L1429 1321L1162 1321L1162 1121L1429 1121M1007-101L1007 686L1568 686L1568 560L1146 560L1146 358L1564 358L1564 235L1146 235L1146 26L1593 26L1593-101L1007-101M973-59Q858-105 614-105L344-105L344 358L793 358L793 560L344 560L344 686L932 686L932 235L481 235L481 23L675 23Q867 23 973 68L973-59Z"  horiz-adv-x="1746" vert-adv-y="2048"  />

      
      <glyph glyph-name="uniAC62" unicode="&#xAC62;" d="M135 696L47 811Q331 895 505.50 1065Q680 1235 711 1454Q637 1450 530 1450L156 1450L156 1577L568 1577Q733 1577 870 1584Q853 1258 653 1026Q453 794 135 696M1428 767L1428 1002L1161 1002L1161 767L1026 767L1026 1647L1161 1647L1161 1439L1428 1439L1428 1666L1565 1666L1565 767L1428 767M1428 1121L1428 1321L1161 1321L1161 1121L1428 1121M945 686L1606 686L1606 562L1502 562L1495 24L1620 24L1620-101L945-101L945 24L1059 24L1055 562L945 562L945 686M1191 24L1362 24L1369 562L1187 562L1191 24M933-57Q812-105 584-105L329-105L329 358L783 358L783 560L329 560L329 686L917 686L917 235L467 235L467 23L643 23Q814 23 933 70L933-57Z"  horiz-adv-x="1744" vert-adv-y="2048"  />

      
      <glyph glyph-name="uniAC63" unicode="&#xAC63;" d="M135 696L47 811Q332 895 506 1065Q680 1235 711 1454Q638 1450 530 1450L157 1450L157 1577L568 1577Q735 1577 870 1584Q854 1258 654 1026Q454 794 135 696M1428 767L1428 1002L1162 1002L1162 767L1027 767L1027 1647L1162 1647L1162 1439L1428 1439L1428 1666L1565 1666L1565 767L1428 767M1428 1121L1428 1321L1162 1321L1162 1121L1428 1121M947-66Q801-110 581-110L320-110L320 350L744 350L744 556L320 556L320 682L880 682L880 230L456 230L456 14L641 14Q830 14 947 61L947-66M1608 386L908 386L908 506L1608 506L1608 386M1464 579L1053 579L1053 701L1464 701L1464 579M970 96Q970 96 970 149.50Q970 203 1049.50 271Q1129 339 1261.50 339Q1394 339 1474 271Q1554 203 1554 96Q1554-11 1473-77.50Q1392-144 1261-144Q1130-144 1050-77.50Q970-11 970 96M1425 97Q1425 97 1425 123.50Q1425 150 1381.50 187.50Q1338 225 1261 225Q1184 225 1142.50 188Q1101 151 1101 97Q1101 43 1141.50 6Q1182-31 1260.50-31Q1339-31 1382 6.50Q1425 44 1425 97Z"  horiz-adv-x="1745" vert-adv-y="2048"  />

      
      <glyph glyph-name="uniAC64" unicode="&#xAC64;" d="M140 630L47 744Q328 841 499 1019Q681 1213 712 1455Q638 1450 529 1450L157 1450L157 1567Q157 1577 444 1577Q731 1577 865 1584Q842 1073 438 783Q309 690 140 630M1429 643L1429 911L1163 911L1163 643L1027 643L1027 1647L1163 1647L1163 1387L1429 1387L1429 1666L1566 1666L1566 643L1429 643M1429 1029L1429 1268L1163 1268L1163 1029L1429 1029M1564 556L1564-101L428-101L428 556L1564 556M1427 26L1427 427L567 427L567 26L1427 26Z"  horiz-adv-x="1748" vert-adv-y="2048"  />

      
      <glyph glyph-name="uniAC65" unicode="&#xAC65;" d="M138 657L47 772Q332 863 506 1042.50Q680 1222 711 1455Q638 1450 530 1450L157 1450L157 1577L567 1577Q733 1577 868 1584Q852 1248 656.50 1008.50Q461 769 138 657M1429 712L1429 985L1163 985L1163 712L1027 712L1027 1647L1163 1647L1163 1437L1429 1437L1429 1666L1566 1666L1566 712L1429 712M1429 1101L1429 1318L1163 1318L1163 1101L1429 1101M1564 628L1564-101L428-101L428 617L567 617L567 387L1427 387L1427 628L1564 628M565 26L1429 26L1429 260L565 260L565 26Z"  horiz-adv-x="1748" vert-adv-y="2048"  />

      
      <glyph glyph-name="uniAC66" unicode="&#xAC66;" d="M137 657L46 772Q330 863 504.50 1042.50Q679 1222 710 1455Q637 1450 530 1450L156 1450L156 1577L566 1577Q731 1577 868 1584Q851 1248 656 1008.50Q461 769 137 657M1428 712L1428 985L1161 985L1161 712L1026 712L1026 1647L1161 1647L1161 1437L1428 1437L1428 1666L1565 1666L1565 712L1428 712M1428 1101L1428 1318L1161 1318L1161 1101L1428 1101M945 619L945-101L307-101L307 611L446 611L446 391L808 391L808 619L945 619M446 26L808 26L808 266L446 266L446 26M918-32Q1272 186 1244 622L1387 622Q1387 478 1368 379Q1436 153 1707-13L1600-118Q1385 36 1313 199Q1245 29 1029-126L918-32Z"  horiz-adv-x="1739" vert-adv-y="2048"  />

      
      <glyph glyph-name="uniAC67" unicode="&#xAC67;" d="M143 588L47 700Q477 861 642 1207Q697 1328 712 1455Q638 1450 528 1450L156 1450L156 1567Q156 1577 443 1577Q730 1577 865 1584Q850 1231 664.50 976.50Q479 722 143 588M1428 470L1428 929L1161 929L1161 669L1026 669L1026 1647L1161 1647L1161 1387L1428 1387L1428 1666L1565 1666L1565 470L1428 470M1428 1047L1428 1268L1161 1268L1161 1047L1428 1047M226-11Q867 133 867 584L1013 584Q1013 479 987 401Q1053 262 1220.50 150.50Q1388 39 1621-8L1537-126Q1318-76 1155 32.50Q992 141 922 265Q849 141 688 33.50Q527-74 312-126L226-11Z"  horiz-adv-x="1744" vert-adv-y="2048"  />

      
      <glyph glyph-name="uniAC68" unicode="&#xAC68;" d="M140 630L47 744Q327 841 499 1019Q681 1213 712 1455Q638 1450 529 1450L157 1450L157 1567Q157 1577 443.50 1577Q730 1577 867 1584Q842 1073 438 783Q309 690 140 630M1429 643L1429 911L1162 911L1162 643L1027 643L1027 1647L1162 1647L1162 1387L1429 1387L1429 1666L1566 1666L1566 643L1429 643M1429 1029L1429 1268L1162 1268L1162 1029L1429 1029M1568-121Q1339-13 1246 185Q1165-7 948-128Q709-1 624 194Q531-3 270-129L178-21Q376 70 476 213Q576 356 563 568L700 568Q700 463 689 386Q711 289 781 190.50Q851 92 952 31Q1067 111 1133 253Q1199 395 1186 575L1320 575Q1320 476 1306 383Q1334 272 1421.50 169Q1509 66 1675-11L1568-121Z"  horiz-adv-x="1742" vert-adv-y="2048"  />

      
      <glyph glyph-name="uniAC69" unicode="&#xAC69;" d="M142 601L47 714Q481 877 642 1212Q697 1332 712 1455Q638 1450 529 1450L157 1450L157 1567Q157 1577 444 1577Q731 1577 865 1584Q850 1232 663 980.50Q476 729 142 601M1429 579L1429 940L1163 940L1163 671L1027 671L1027 1647L1163 1647L1163 1426L1429 1426L1429 1666L1566 1666L1566 579L1429 579M1429 1058L1429 1309L1163 1309L1163 1058L1429 1058M1396-33Q1235-138 958-138Q681-138 521-33Q361 65 361 225Q361 385 521 486.50Q681 588 958 588Q1235 588 1397 486.50Q1559 385 1559 225Q1559 65 1396-33M514 226.50Q514 226.50 514 180.75Q514 135 625 61Q736-13 958.50-13Q1181-13 1293 61Q1405 135 1405 226.50Q1405 318 1295 390Q1185 462 958 462Q731 462 622.50 390Q514 318 514 226.50Z"  horiz-adv-x="1748" vert-adv-y="2048"  />

      
      <glyph glyph-name="uniAC6A" unicode="&#xAC6A;" d="M139 630L47 744Q326 841 498 1019Q679 1213 711 1455Q637 1450 528 1450L156 1450L156 1567Q156 1577 442.50 1577Q729 1577 866 1584Q841 1073 437 783Q308 690 139 630M1428 643L1428 911L1161 911L1161 643L1026 643L1026 1647L1161 1647L1161 1387L1428 1387L1428 1666L1565 1666L1565 643L1428 643M1428 1029L1428 1268L1161 1268L1161 1029L1428 1029M1219 436Q1100 429 782 429L453 429L453 560L1040 560Q1263 560 1384 566Q1409 566 1419 546Q1429 526 1419 503Q1342 325 1092 176Q1322 71 1666-1L1588-126Q1267-51 961 102Q704-35 326-131L256-3Q615 75 880.50 205Q1146 335 1219 436Z"  horiz-adv-x="1741" vert-adv-y="2048"  />

      
      <glyph glyph-name="uniAC6B" unicode="&#xAC6B;" d="M135 696L47 811Q331 895 505.50 1065Q680 1235 712 1454Q638 1450 531 1450L157 1450L157 1577L569 1577Q734 1577 870 1584Q854 1258 654 1026Q454 794 135 696M1429 656L1429 990L1162 990L1162 808L1027 808L1027 1647L1162 1647L1162 1426L1429 1426L1429 1666L1566 1666L1566 656L1429 656M1429 1107L1429 1309L1162 1309L1162 1107L1429 1107M623 587L623 713L1188 713L1188 587L623 587M1182 355Q1083 347 931 347L413 347L413 471L1015 471Q1243 471 1364 477Q1388 477 1398.50 457Q1409 437 1398 412Q1298 250 1090 140Q1319 49 1637 3L1568-122Q1260-79 946 69Q681-55 312-124L239-4Q546 45 821.50 152.50Q1097 260 1182 355Z"  horiz-adv-x="1744" vert-adv-y="2048"  />

      
      <glyph glyph-name="uniAC6C" unicode="&#xAC6C;" d="M140 616L47 731Q330 828 505.50 1016.50Q681 1205 712 1455Q638 1450 529 1450L157 1450L157 1567Q157 1577 444 1577Q731 1577 865 1584Q852 1236 661.50 988.50Q471 741 140 616M1429 623L1429 940L1163 940L1163 623L1027 623L1027 1647L1163 1647L1163 1426L1429 1426L1429 1666L1566 1666L1566 623L1429 623M1429 1058L1429 1309L1163 1309L1163 1058L1429 1058M907 215Q1231 215 1427 246L1427 408L401 408L401 536L1564 536L1564-128L1427-128L1427 126Q1234 90 872 90L387 90L387 215L907 215Z"  horiz-adv-x="1748" vert-adv-y="2048"  />

      
      <glyph glyph-name="uniAC6D" unicode="&#xAC6D;" d="M135 696L47 811Q332 895 506 1065Q680 1235 711 1454Q638 1450 530 1450L157 1450L157 1577L568 1577Q735 1577 870 1584Q854 1258 654 1026Q454 794 135 696M1429 767L1429 1002L1162 1002L1162 767L1027 767L1027 1647L1162 1647L1162 1439L1429 1439L1429 1666L1565 1666L1565 767L1429 767M1429 1121L1429 1321L1162 1321L1162 1121L1429 1121M1563 237L569 237L569 26L1604 26L1604-101L432-101L432 682L1567 682L1567 556L569 556L569 360L1563 360L1563 237Z"  horiz-adv-x="1745" vert-adv-y="2048"  />

      
      <glyph glyph-name="uniAC6E" unicode="&#xAC6E;" d="M138 657L47 772Q331 863 505.50 1042.50Q680 1222 711 1455Q638 1450 530 1450L156 1450L156 1577L566 1577Q733 1577 868 1584Q852 1248 656.50 1008.50Q461 769 138 657M1428 682L1428 950L1161 950L1161 682L1027 682L1027 1647L1161 1647L1161 1426L1428 1426L1428 1666L1565 1666L1565 682L1428 682M1428 1068L1428 1309L1161 1309L1161 1068L1428 1068M1612 26L1612-101L344-101L344 26L578 26L570 466L365 466L365 595L1583 595L1583 466L1373 466L1362 26L1612 26M716 26L1224 26L1235 466L708 466L716 26Z"  horiz-adv-x="1744" vert-adv-y="2048"  />

      
      <glyph glyph-name="uniAC6F" unicode="&#xAC6F;" d="M135 696L47 811Q331 895 505.50 1065Q680 1235 711 1454Q637 1450 530 1450L156 1450L156 1577L568 1577Q734 1577 870 1584Q853 1258 653 1026Q453 794 135 696M1428 656L1428 990L1162 990L1162 808L1026 808L1026 1647L1162 1647L1162 1426L1428 1426L1428 1666L1565 1666L1565 656L1428 656M1428 1107L1428 1309L1162 1309L1162 1107L1428 1107M1583 386L329 386L329 508L1583 508L1583 386M1247 591L642 591L642 715L1247 715L1247 591M1478 87Q1478 87 1478 28.50Q1478-30 1334-89.50Q1190-149 955-149Q720-149 576-89.50Q432-30 432 87Q432 204 573 264.50Q714 325 954 325Q1194 325 1336 264.50Q1478 204 1478 87M582 90Q582 36 679.50 2.50Q777-31 954-31Q1131-31 1229.50 2.50Q1328 36 1328 90Q1328 138 1236 172Q1144 206 955.50 206Q767 206 674.50 172Q582 138 582 90Z"  horiz-adv-x="1746" vert-adv-y="2048"  />

      
      <glyph glyph-name="uniAC72" unicode="&#xAC72;" d="M161 647L70 763Q403 850 609.50 1026.50Q816 1203 857 1459Q757 1454 629 1454L187 1454L187 1570Q187 1580 528.50 1580Q870 1580 1025 1588Q954 871 161 647M1380 1050L969 1050L969 1182L1380 1182L1380 1666L1519 1666L1519 643L1380 643L1380 1050M1519-133L1380-133L1380 427L946 427L946 556L1519 556L1519-133M890-133L754-133L754 427L319 427L319 556L890 556L890-133Z"  horiz-adv-x="1751" vert-adv-y="2048"  />

      
      <glyph glyph-name="uniAC73" unicode="&#xAC73;" d="M161 647L70 763Q402 850 608.50 1026.50Q815 1203 857 1459Q756 1454 629 1454L187 1454L187 1570Q187 1580 528.50 1580Q870 1580 1025 1588Q954 871 161 647M1380 1050L969 1050L969 1182L1380 1182L1380 1666L1518 1666L1518 643L1380 643L1380 1050M781-126L781 425L310 425L310 555L918 555L918-126L781-126M892-40Q1267 159 1243 574L1385 574Q1385 458 1370 374Q1397 251 1487.50 141Q1578 31 1713-29L1608-134Q1405-32 1304 182Q1265 94 1183 5Q1101-84 997-143L892-40Z"  horiz-adv-x="1741" vert-adv-y="2048"  />

      
      <glyph glyph-name="uniAC75" unicode="&#xAC75;" d="M160 647L70 763Q402 850 608.50 1026.50Q815 1203 857 1459Q756 1454 629 1454L187 1454L187 1570Q187 1580 528.50 1580Q870 1580 1025 1588Q954 871 160 647M1380 1050L969 1050L969 1182L1380 1182L1380 1666L1518 1666L1518 643L1380 643L1380 1050M1518 560Q1510 374 1361 208Q1490 88 1682 4L1576-104Q1406-18 1272 119Q1129-13 917-106L872-54Q713-101 444-101L318-101L318 570L460 570L460 26L527 26Q742 26 894 77L894 33Q1062 99 1192 220.50Q1322 342 1351 430Q1273 425 1091 425L938 425L938 555L1164 555Q1370 555 1518 560Z"  horiz-adv-x="1742" vert-adv-y="2048"  />

      
      <glyph glyph-name="uniAC76" unicode="&#xAC76;" d="M156 689L71 808Q397 887 603.50 1053.50Q810 1220 856 1459Q757 1454 630 1454L188 1454L188 1570Q188 1580 530 1580Q872 1580 1027 1588Q986 1231 763 1008.50Q540 786 156 689M1381 1084L976 1084L976 1214L1381 1214L1381 1666L1520 1666L1520 760L1381 760L1381 1084M899-48Q721-101 449-101L314-101L314 611L454 611L454 26L532 26Q748 26 899 77L899-48M1587 360L849 360L849 480L1587 480L1587 360M904 89.50Q904 89.50 904 140.75Q904 192 991 252.50Q1078 313 1218 313Q1358 313 1447 252.50Q1536 192 1536 89.50Q1536-13 1444-76.50Q1352-140 1219.50-140Q1087-140 995.50-76.50Q904-13 904 89.50M1393 92.50Q1393 92.50 1393 115.75Q1393 139 1350.50 169Q1308 199 1219.50 199Q1131 199 1087.50 168.50Q1044 138 1044 92Q1044 46 1091 13Q1138-20 1220.50-20Q1303-20 1348 13Q1393 46 1393 92.50M1429 554L1007 554L1007 676L1429 676L1429 554Z"  horiz-adv-x="1747" vert-adv-y="2048"  />

      
      <glyph glyph-name="uniAC79" unicode="&#xAC79;" d="M157 726L74 849Q402 915 606 1075Q810 1235 858 1461Q757 1456 633 1456L189 1456L189 1570Q189 1580 531.50 1580Q874 1580 1030 1588Q986 1239 759.50 1026Q533 813 157 726M1382 1084L976 1084L976 1214L1382 1214L1382 1666L1521 1666L1521 786L1382 786L1382 1084M1521-133L1382-133L1382 579L969 579L969 706L1521 706L1521-133M1065-59Q940-109 710-109L356-109L356 364L789 364L789 579L356 579L356 706L926 706L926 241L494 241L494 19L769 19Q945 19 1065 67L1065-59Z"  horiz-adv-x="1752" vert-adv-y="2048"  />

      
      <glyph glyph-name="uniAC7B" unicode="&#xAC7B;" d="M157 726L74 849Q402 915 606 1075Q810 1235 858 1461Q757 1456 633 1456L189 1456L189 1570Q189 1580 531.50 1580Q874 1580 1030 1588Q986 1239 759.50 1026Q533 813 157 726M1382 1084L976 1084L976 1214L1382 1214L1382 1666L1521 1666L1521 786L1382 786L1382 1084M946-101L946 706L1080 706L1080 441L1385 441L1385 715L1521 715L1521-101L946-101M1385 321L1080 321L1080 23L1385 23L1385 321M920-57Q801-105 565-105L325-105L325 364L734 364L734 579L325 579L325 706L868 706L868 241L463 241L463 23L624 23Q801 23 920 70L920-57Z"  horiz-adv-x="1752" vert-adv-y="2048"  />

      
      <glyph glyph-name="uniAC7C" unicode="&#xAC7C;" d="M156 726L72 849Q400 915 604 1075Q808 1235 855 1461Q755 1456 632 1456L188 1456L188 1570Q188 1580 530.50 1580Q873 1580 1028 1588Q985 1239 758 1026Q531 813 156 726M1381 1084L975 1084L975 1214L1381 1214L1381 1666L1518 1666L1518 786L1381 786L1381 1084M933-63Q789-109 567-109L315-109L315 362L761 362L761 579L315 579L315 706L900 706L900 241L452 241L452 17L627 17Q816 17 933 63L933 18Q1076 111 1154 296.50Q1232 482 1214 713L1356 713Q1360 587 1345 491Q1364 341 1456.50 203.50Q1549 66 1687-3L1585-114Q1473-49 1394.50 58Q1316 165 1281 255Q1197 26 981-125L933-76L933-63Z"  horiz-adv-x="1742" vert-adv-y="2048"  />

      
      <glyph glyph-name="uniAC7D" unicode="&#xAC7D;" d="M156 726L73 849Q401 915 605.50 1075Q810 1235 856 1461Q757 1456 632 1456L188 1456L188 1570Q188 1580 531 1580Q874 1580 1029 1588Q985 1239 758.50 1026Q532 813 156 726M1381 1084L976 1084L976 1214L1381 1214L1381 1666L1520 1666L1520 786L1381 786L1381 1084M972-101L972 706L1524 706L1524 579L1111 579L1111 364L1520 364L1520 241L1111 241L1111 26L1548 26L1548-101L972-101M938-59Q823-105 579-105L318-105L318 364L759 364L759 579L318 579L318 706L897 706L897 241L456 241L456 23L638 23Q833 23 938 68L938-59Z"  horiz-adv-x="1750" vert-adv-y="2048"  />

      
      <glyph glyph-name="uniAC7E" unicode="&#xAC7E;" d="M157 726L73 849Q402 915 605.50 1075Q809 1235 856 1461Q757 1456 633 1456L189 1456L189 1570Q189 1580 531.50 1580Q874 1580 1029 1588Q986 1239 759 1026Q532 813 157 726M1382 1084L976 1084L976 1214L1382 1214L1382 1666L1520 1666L1520 786L1382 786L1382 1084M912 706L1557 706L1557 581L1452 581L1444 24L1571 24L1571-101L912-101L912 24L1029 24L1025 581L912 581L912 706M1161 24L1312 24L1320 581L1158 581L1161 24M901-57Q781-105 551-105L315-105L315 364L752 364L752 579L315 579L315 706L885 706L885 241L453 241L453 23L609 23Q781 23 901 70L901-57Z"  horiz-adv-x="1749" vert-adv-y="2048"  />

      
      <glyph glyph-name="uniAC7F" unicode="&#xAC7F;" d="M156 726L73 849Q400 915 604 1075Q808 1235 856 1461Q757 1456 632 1456L188 1456L188 1570Q188 1580 530.50 1580Q873 1580 1029 1588Q985 1239 758.50 1026Q532 813 156 726M1381 1084L976 1084L976 1214L1381 1214L1381 1666L1520 1666L1520 786L1381 786L1381 1084M928-66Q783-110 562-110L320-110L320 360L733 360L733 575L320 575L320 701L871 701L871 239L456 239L456 14L622 14Q811 14 928 61L928-66M1589 401L899 401L899 519L1589 519L1589 401M1444 597L1034 597L1034 721L1444 721L1444 597M951 101Q951 101 951 155.50Q951 210 1030.50 279Q1110 348 1242.50 348Q1375 348 1455.50 279Q1536 210 1536 101Q1536-8 1454.50-76Q1373-144 1242.50-144Q1112-144 1031.50-76Q951-8 951 101M1405 102Q1405 102 1405 129.50Q1405 157 1362 195Q1319 233 1242.50 233Q1166 233 1123.50 195Q1081 157 1081 102Q1081 47 1122.50 9Q1164-29 1242.50-29Q1321-29 1363 9Q1405 47 1405 102Z"  horiz-adv-x="1747" vert-adv-y="2048"  />

      
      <glyph glyph-name="uniAC82" unicode="&#xAC82;" d="M156 689L71 808Q397 887 603.50 1053.50Q810 1220 856 1459Q756 1454 630 1454L188 1454L188 1570Q188 1580 530 1580Q872 1580 1027 1588Q986 1231 763 1008.50Q540 786 156 689M1381 1065L977 1065L977 1197L1381 1197L1381 1666L1519 1666L1519 732L1381 732L1381 1065M955 649L955-101L327-101L327 641L466 641L466 408L819 408L819 649L955 649M466 28L819 28L819 284L466 284L466 28M919-32Q1274 197 1244 650L1388 650Q1388 499 1369 397Q1436 168 1706-13L1601-118Q1389 34 1314 210Q1247 38 1033-127L919-32Z"  horiz-adv-x="1741" vert-adv-y="2048"  />

      
      <glyph glyph-name="uniAC87" unicode="&#xAC87;" d="M157 726L73 849Q401 915 605 1075Q809 1235 856 1461Q757 1456 633 1456L189 1456L189 1570Q189 1580 531.50 1580Q874 1580 1029 1588Q985 1239 758.50 1026Q532 813 157 726M1382 1104L986 1104L986 1236L1382 1236L1382 1666L1520 1666L1520 701L1382 701L1382 1104M604 606L604 732L1168 732L1168 606L604 606M1066 146Q1288 49 1617 3L1550-122Q1235-77 925 73Q644-59 293-124L221-5Q718 82 1032 270Q1132 329 1164 366Q1063 360 911 360L394 360L394 482L996 482Q1223 482 1344 488Q1369 488 1379 469Q1389 450 1379 425Q1277 255 1066 146Z"  horiz-adv-x="1746" vert-adv-y="2048"  />

      
      <glyph glyph-name="uniAC88" unicode="&#xAC88;" d="M161 647L70 763Q403 850 609.50 1026.50Q816 1203 857 1459Q757 1454 629 1454L187 1454L187 1570Q187 1580 528.50 1580Q870 1580 1025 1588Q954 871 161 647M1380 1050L969 1050L969 1182L1380 1182L1380 1666L1519 1666L1519 643L1380 643L1380 1050M861 226Q1187 226 1380 255L1380 427L376 427L376 556L1519 556L1519-128L1380-128L1380 135Q1190 99 827 99L362 99L362 226L861 226Z"  horiz-adv-x="1751" vert-adv-y="2048"  />

      
      <glyph glyph-name="uniAC8D" unicode="&#xAC8D;" d="M142 601L47 714Q481 877 642 1212Q697 1332 712 1455Q638 1450 529 1450L157 1450L157 1567Q157 1577 444 1577Q731 1577 865 1584Q850 1232 663 980.50Q476 729 142 601M1564 1666L1564 604L1429 604L1429 1666L1564 1666M1089 1186L1089 1647L1222 1647L1222 604L1089 604L1089 1056L670 1056L670 1186L1089 1186M1564-133L1427-133L1427 386L388 386L388 516L1564 516L1564-133Z"  horiz-adv-x="1748" vert-adv-y="2048"  />

      
      <glyph glyph-name="uniAC8E" unicode="&#xAC8E;" d="M140 616L47 731Q330 828 505.50 1016.50Q681 1205 712 1455Q638 1450 529 1450L157 1450L157 1567Q157 1577 444 1577Q731 1577 865 1584Q852 1236 661.50 988.50Q471 741 140 616M1564 1666L1564 623L1429 623L1429 1666L1564 1666M1089 1177L1089 1647L1222 1647L1222 623L1089 623L1089 1046L650 1046L650 1177L1089 1177M1564-133L1427-133L1427 406L962 406L962 535L1564 535L1564-133M906-133L768-133L768 406L336 406L336 535L906 535L906-133Z"  horiz-adv-x="1748" vert-adv-y="2048"  />

      
      <glyph glyph-name="uniAC8F" unicode="&#xAC8F;" d="M140 616L47 731Q329 828 504.50 1016.50Q680 1205 711 1455Q637 1450 529 1450L157 1450L157 1567Q157 1577 443.50 1577Q730 1577 865 1584Q852 1236 661.50 988.50Q471 741 140 616M1563 1666L1563 623L1428 623L1428 1666L1563 1666M1087 1177L1087 1647L1222 1647L1222 623L1087 623L1087 1046L649 1046L649 1177L1087 1177M782-126L782 406L302 406L302 535L919 535L919-126L782-126M1390 555Q1390 450 1378 374Q1402 246 1492 143Q1585 31 1725-31L1618-134Q1507-80 1428 9Q1349 98 1312 179Q1221-22 1001-143L897-39Q1092 60 1176 207Q1260 354 1248 555L1390 555Z"  horiz-adv-x="1739" vert-adv-y="2048"  />

      
      <glyph glyph-name="uniAC91" unicode="&#xAC91;" d="M139 616L47 731Q328 828 504 1016.50Q680 1205 711 1455Q637 1450 528 1450L156 1450L156 1567Q156 1577 442.50 1577Q729 1577 865 1584Q852 1236 661 988.50Q470 741 139 616M1563 1666L1563 623L1428 623L1428 1666L1563 1666M1087 1177L1087 1647L1222 1647L1222 623L1087 623L1087 1046L649 1046L649 1177L1087 1177M1539 541Q1530 361 1384 202Q1507 87 1702 5L1596-104Q1424-20 1293 112Q1149-17 937-106L884-46L884-54Q726-101 454-101L319-101L319 551L461 551L461 26L538 26Q752 26 904 77L904 28Q1071 89 1204.50 206Q1338 323 1369 411Q1291 406 1109 406L958 406L958 535L1184 535Q1390 535 1539 541Z"  horiz-adv-x="1740" vert-adv-y="2048"  />

      
      <glyph glyph-name="uniAC92" unicode="&#xAC92;" d="M138 657L47 772Q331 863 505.50 1042.50Q680 1222 711 1455Q637 1450 530 1450L156 1450L156 1577L566 1577Q731 1577 868 1584Q852 1248 656.50 1008.50Q461 769 138 657M1563 1666L1563 743L1428 743L1428 1666L1563 1666M1088 1197L1088 1647L1222 1647L1222 743L1088 743L1088 1067L669 1067L669 1197L1088 1197M915-48Q737-101 465-101L322-101L322 577L461 577L461 24L550 24Q764 24 915 75L915-48M1246 181Q1157 181 1114 152.50Q1071 124 1071 82Q1071 40 1117 9Q1163-22 1246-22Q1329-22 1374.50 9Q1420 40 1420 82Q1420 124 1377.50 152.50Q1335 181 1246 181M1618 334L867 334L867 455L1618 455L1618 334M1449 521L1034 521L1034 641L1449 641L1449 521M930 79Q930 79 930 128.50Q930 178 1017.50 235.50Q1105 293 1245 293Q1385 293 1473 235.50Q1561 178 1561 79Q1561-20 1469.50-80Q1378-140 1246-140Q1114-140 1022-80Q930-20 930 79Z"  horiz-adv-x="1744" vert-adv-y="2048"  />

      
      <glyph glyph-name="uniAC93" unicode="&#xAC93;" d="M140 616L47 731Q330 828 505.50 1016.50Q681 1205 712 1455Q638 1450 529 1450L157 1450L157 1567Q157 1577 444 1577Q731 1577 865 1584Q852 1236 661.50 988.50Q471 741 140 616M1564 1666L1564 623L1429 623L1429 1666L1564 1666M1089 1177L1089 1647L1223 1647L1223 623L1089 623L1089 1046L650 1046L650 1177L1089 1177M1601-101L432-101L432 535L1567 535L1567 406L571 406L571 26L1601 26L1601-101Z"  horiz-adv-x="1745" vert-adv-y="2048"  />

      
      <glyph glyph-name="uniAC95" unicode="&#xAC95;" d="M135 696L47 811Q332 895 506 1065Q680 1235 711 1454Q638 1450 530 1450L157 1450L157 1577L568 1577Q735 1577 870 1584Q854 1258 654 1026Q454 794 135 696M1564 1666L1564 767L1429 767L1429 1666L1564 1666M1089 1197L1089 1647L1222 1647L1222 767L1089 767L1089 1067L631 1067L631 1197L1089 1197M1564-133L1427-133L1427 560L997 560L997 686L1564 686L1564-133M1093-59Q968-109 740-109L370-109L370 358L816 358L816 560L370 560L370 686L955 686L955 235L508 235L508 19L798 19Q974 19 1093 67L1093-59Z"  horiz-adv-x="1748" vert-adv-y="2048"  />

      
      <glyph glyph-name="uniAC96" unicode="&#xAC96;" d="M135 696L47 811Q332 895 506 1065Q680 1235 711 1454Q638 1450 530 1450L157 1450L157 1577L568 1577Q735 1577 870 1584Q854 1258 654 1026Q454 794 135 696M1564 1666L1564 767L1429 767L1429 1666L1564 1666M1089 1197L1089 1647L1222 1647L1222 767L1089 767L1089 1067L631 1067L631 1197L1089 1197M995-101L995 686L1564 686L1564-101L995-101M1429 562L1128 562L1128 24L1429 24L1429 562M966-57Q846-105 608-105L353-105L353 358L787 358L787 560L353 560L353 686L921 686L921 235L491 235L491 23L666 23Q848 23 966 70L966-57Z"  horiz-adv-x="1748" vert-adv-y="2048"  />

      
      <glyph glyph-name="uniAC97" unicode="&#xAC97;" d="M135 696L47 811Q332 895 506 1065Q680 1235 711 1454Q638 1450 530 1450L157 1450L157 1577L568 1577Q735 1577 870 1584Q854 1258 654 1026Q454 794 135 696M1564 1666L1564 767L1429 767L1429 1666L1564 1666M1089 1197L1089 1647L1222 1647L1222 767L1089 767L1089 1067L631 1067L631 1197L1089 1197M975-101L975 686L1110 686L1110 430L1429 430L1429 695L1564 695L1564-101L975-101M1429 309L1110 309L1110 26L1429 26L1429 309M951-57Q830-105 595-105L342-105L342 358L765 358L765 560L342 560L342 686L899 686L899 235L479 235L479 23L655 23Q832 23 951 70L951-57Z"  horiz-adv-x="1748" vert-adv-y="2048"  />

      
      <glyph glyph-name="uniAC98" unicode="&#xAC98;" d="M135 696L47 811Q331 895 505 1065Q679 1235 710 1454Q638 1450 530 1450L157 1450L157 1577L568 1577Q734 1577 870 1584Q854 1258 654 1026Q454 794 135 696M1563 1666L1563 767L1428 767L1428 1666L1563 1666M1087 1197L1087 1647L1222 1647L1222 767L1087 767L1087 1067L631 1067L631 1197L1087 1197M934-63Q789-109 567-109L315-109L315 352L762 352L762 560L315 560L315 686L900 686L900 231L452 231L452 17L627 17Q816 17 934 63L934 18Q1075 107 1153.50 288Q1232 469 1215 693L1356 693Q1360 584 1347 477Q1362 333 1454.50 200.50Q1547 68 1687-3L1587-114Q1380 7 1283 246Q1248 150 1167.50 47Q1087-56 980-124L934-76L934-63Z"  horiz-adv-x="1741" vert-adv-y="2048"  />

      
      <glyph glyph-name="uniAC99" unicode="&#xAC99;" d="M135 696L47 811Q332 895 506 1065Q680 1235 712 1454Q638 1450 531 1450L157 1450L157 1577L569 1577Q735 1577 870 1584Q854 1258 654 1026Q454 794 135 696M1564 1666L1564 767L1429 767L1429 1666L1564 1666M1089 1197L1089 1647L1223 1647L1223 767L1089 767L1089 1067L631 1067L631 1197L1089 1197M1007-101L1007 686L1568 686L1568 560L1146 560L1146 358L1564 358L1564 235L1146 235L1146 26L1593 26L1593-101L1007-101M973-59Q858-105 614-105L344-105L344 358L793 358L793 560L344 560L344 686L932 686L932 235L481 235L481 23L675 23Q867 23 973 68L973-59Z"  horiz-adv-x="1746" vert-adv-y="2048"  />

      
      <glyph glyph-name="uniAC9A" unicode="&#xAC9A;" d="M135 696L47 811Q331 895 505.50 1065Q680 1235 711 1454Q637 1450 530 1450L156 1450L156 1577L568 1577Q733 1577 870 1584Q853 1258 653 1026Q453 794 135 696M1563 1666L1563 767L1428 767L1428 1666L1563 1666M1088 1197L1088 1647L1222 1647L1222 767L1088 767L1088 1067L630 1067L630 1197L1088 1197M945 686L1606 686L1606 562L1502 562L1495 24L1620 24L1620-101L945-101L945 24L1059 24L1055 562L945 562L945 686M1191 24L1362 24L1369 562L1187 562L1191 24M933-57Q812-105 584-105L329-105L329 358L783 358L783 560L329 560L329 686L917 686L917 235L467 235L467 23L643 23Q814 23 933 70L933-57Z"  horiz-adv-x="1744" vert-adv-y="2048"  />

      
      <glyph glyph-name="uniAC9B" unicode="&#xAC9B;" d="M135 696L47 811Q332 895 506 1065Q680 1235 711 1454Q638 1450 530 1450L157 1450L157 1577L568 1577Q735 1577 870 1584Q854 1258 654 1026Q454 794 135 696M1563 1666L1563 767L1428 767L1428 1666L1563 1666M1088 1197L1088 1647L1222 1647L1222 767L1088 767L1088 1067L631 1067L631 1197L1088 1197M947-66Q801-110 581-110L320-110L320 350L744 350L744 556L320 556L320 682L880 682L880 230L456 230L456 14L641 14Q830 14 947 61L947-66M1608 386L908 386L908 506L1608 506L1608 386M1464 579L1053 579L1053 701L1464 701L1464 579M970 96Q970 96 970 149.50Q970 203 1049.50 271Q1129 339 1261.50 339Q1394 339 1474 271Q1554 203 1554 96Q1554-11 1473-77.50Q1392-144 1261-144Q1130-144 1050-77.50Q970-11 970 96M1425 97Q1425 97 1425 123.50Q1425 150 1381.50 187.50Q1338 225 1261 225Q1184 225 1142.50 188Q1101 151 1101 97Q1101 43 1141.50 6Q1182-31 1260.50-31Q1339-31 1382 6.50Q1425 44 1425 97Z"  horiz-adv-x="1745" vert-adv-y="2048"  />

      
      <glyph glyph-name="uniAC9E" unicode="&#xAC9E;" d="M137 657L46 772Q330 863 504.50 1042.50Q679 1222 710 1455Q637 1450 530 1450L156 1450L156 1577L566 1577Q731 1577 868 1584Q851 1248 656 1008.50Q461 769 137 657M1563 1666L1563 712L1428 712L1428 1666L1563 1666M1087 1177L1087 1647L1222 1647L1222 712L1087 712L1087 1046L648 1046L648 1177L1087 1177M945 619L945-101L307-101L307 611L446 611L446 391L808 391L808 619L945 619M446 26L808 26L808 266L446 266L446 26M918-32Q1272 186 1244 622L1387 622Q1387 478 1368 379Q1436 153 1707-13L1600-118Q1385 36 1313 199Q1245 29 1029-126L918-32Z"  horiz-adv-x="1739" vert-adv-y="2048"  />

      
      <glyph glyph-name="uniACA2" unicode="&#xACA2;" d="M139 630L47 744Q326 841 498 1019Q679 1213 711 1455Q637 1450 528 1450L156 1450L156 1567Q156 1577 442.50 1577Q729 1577 866 1584Q841 1073 437 783Q308 690 139 630M1563 1666L1563 643L1428 643L1428 1666L1563 1666M1087 1186L1087 1647L1222 1647L1222 643L1087 643L1087 1058L649 1058L649 1186L1087 1186M1219 436Q1100 429 782 429L453 429L453 560L1040 560Q1263 560 1384 566Q1409 566 1419 546Q1429 526 1419 503Q1342 325 1092 176Q1322 71 1666-1L1588-126Q1267-51 961 102Q704-35 326-131L256-3Q615 75 880.50 205Q1146 335 1219 436Z"  horiz-adv-x="1741" vert-adv-y="2048"  />

      
      <glyph glyph-name="uniACA3" unicode="&#xACA3;" d="M135 696L47 811Q331 895 505.50 1065Q680 1235 712 1454Q638 1450 531 1450L157 1450L157 1577L569 1577Q734 1577 870 1584Q854 1258 654 1026Q454 794 135 696M1564 1666L1564 656L1429 656L1429 1666L1564 1666M1089 1210L1089 1647L1223 1647L1223 808L1089 808L1089 1082L650 1082L650 1210L1089 1210M623 587L623 713L1188 713L1188 587L623 587M1182 355Q1083 347 931 347L413 347L413 471L1015 471Q1243 471 1364 477Q1388 477 1398.50 457Q1409 437 1398 412Q1298 250 1090 140Q1319 49 1637 3L1568-122Q1260-79 946 69Q681-55 312-124L239-4Q546 45 821.50 152.50Q1097 260 1182 355Z"  horiz-adv-x="1744" vert-adv-y="2048"  />

      
      <glyph glyph-name="uniACA4" unicode="&#xACA4;" d="M140 616L47 731Q330 828 505.50 1016.50Q681 1205 712 1455Q638 1450 529 1450L157 1450L157 1567Q157 1577 444 1577Q731 1577 865 1584Q852 1236 661.50 988.50Q471 741 140 616M1564 1666L1564 623L1429 623L1429 1666L1564 1666M1089 1177L1089 1647L1222 1647L1222 623L1089 623L1089 1046L650 1046L650 1177L1089 1177M907 215Q1231 215 1427 246L1427 408L401 408L401 536L1564 536L1564-128L1427-128L1427 126Q1234 90 872 90L388 90L388 215L907 215Z"  horiz-adv-x="1748" vert-adv-y="2048"  />

      
      <glyph glyph-name="uniACA5" unicode="&#xACA5;" d="M135 696L47 811Q332 895 506 1065Q680 1235 711 1454Q638 1450 530 1450L157 1450L157 1577L568 1577Q735 1577 870 1584Q854 1258 654 1026Q454 794 135 696M1563 1666L1563 767L1429 767L1429 1666L1563 1666M1088 1197L1088 1647L1222 1647L1222 767L1088 767L1088 1067L631 1067L631 1197L1088 1197M1563 237L569 237L569 26L1604 26L1604-101L432-101L432 682L1567 682L1567 556L569 556L569 360L1563 360L1563 237Z"  horiz-adv-x="1745" vert-adv-y="2048"  />

      
      <glyph glyph-name="uniACA6" unicode="&#xACA6;" d="M138 657L47 772Q331 863 505.50 1042.50Q680 1222 711 1455Q638 1450 530 1450L156 1450L156 1577L566 1577Q733 1577 868 1584Q852 1248 656.50 1008.50Q461 769 138 657M1563 1666L1563 682L1428 682L1428 1666L1563 1666M1088 1177L1088 1647L1222 1647L1222 682L1088 682L1088 1046L649 1046L649 1177L1088 1177M1612 26L1612-101L344-101L344 26L578 26L570 466L365 466L365 595L1583 595L1583 466L1373 466L1362 26L1612 26M716 26L1224 26L1235 466L708 466L716 26Z"  horiz-adv-x="1744" vert-adv-y="2048"  />

      
      <glyph glyph-name="uniACA7" unicode="&#xACA7;" d="M135 696L47 811Q331 895 505.50 1065Q680 1235 711 1454Q637 1450 530 1450L156 1450L156 1577L568 1577Q734 1577 870 1584Q853 1258 653 1026Q453 794 135 696M1564 1666L1564 656L1428 656L1428 1666L1564 1666M1088 1210L1088 1647L1222 1647L1222 808L1088 808L1088 1082L649 1082L649 1210L1088 1210M1583 386L329 386L329 508L1583 508L1583 386M1247 591L642 591L642 715L1247 715L1247 591M1478 87Q1478 87 1478 28.50Q1478-30 1334-89.50Q1190-149 955-149Q720-149 576-89.50Q432-30 432 87Q432 204 573 264.50Q714 325 954 325Q1194 325 1336 264.50Q1478 204 1478 87M582 90Q582 36 679.50 2.50Q777-31 954-31Q1131-31 1229.50 2.50Q1328 36 1328 90Q1328 138 1236 172Q1144 206 955.50 206Q767 206 674.50 172Q582 138 582 90Z"  horiz-adv-x="1746" vert-adv-y="2048"  />

      
      <glyph glyph-name="uniACAB" unicode="&#xACAB;" d="M161 647L70 763Q402 850 608.50 1026.50Q815 1203 857 1459Q756 1454 629 1454L187 1454L187 1570Q187 1580 528.50 1580Q870 1580 1025 1588Q954 871 161 647M1022 1362L1380 1362L1380 1666L1518 1666L1518 643L1380 643L1380 874L971 874L971 999L1380 999L1380 1239L1022 1239L1022 1362M781-126L781 425L310 425L310 555L918 555L918-126L781-126M892-40Q1267 159 1243 574L1385 574Q1385 458 1370 374Q1397 251 1487.50 141Q1578 31 1713-29L1608-134Q1405-32 1304 182Q1265 94 1183 5Q1101-84 997-143L892-40Z"  horiz-adv-x="1741" vert-adv-y="2048"  />

      
      <glyph glyph-name="uniACAD" unicode="&#xACAD;" d="M160 647L70 763Q402 850 608.50 1026.50Q815 1203 857 1459Q756 1454 629 1454L187 1454L187 1570Q187 1580 528.50 1580Q870 1580 1025 1588Q954 871 160 647M1022 1362L1380 1362L1380 1666L1518 1666L1518 643L1380 643L1380 874L970 874L970 999L1380 999L1380 1239L1022 1239L1022 1362M1518 560Q1510 374 1361 208Q1490 88 1682 4L1576-104Q1406-18 1272 119Q1129-13 917-106L872-54Q713-101 444-101L318-101L318 570L460 570L460 26L527 26Q742 26 894 77L894 33Q1062 99 1192 220.50Q1322 342 1351 430Q1273 425 1091 425L938 425L938 555L1164 555Q1370 555 1518 560Z"  horiz-adv-x="1742" vert-adv-y="2048"  />

      
      <glyph glyph-name="uniACAE" unicode="&#xACAE;" d="M156 689L71 808Q397 887 603.50 1053.50Q810 1220 856 1459Q757 1454 630 1454L188 1454L188 1570Q188 1580 530 1580Q872 1580 1027 1588Q986 1231 763 1008.50Q540 786 156 689M1023 1387L1381 1387L1381 1666L1520 1666L1520 760L1381 760L1381 940L972 940L972 1064L1381 1064L1381 1264L1023 1264L1023 1387M899-48Q721-101 449-101L314-101L314 611L454 611L454 26L532 26Q748 26 899 77L899-48M1587 360L849 360L849 480L1587 480L1587 360M904 89.50Q904 89.50 904 140.75Q904 192 991 252.50Q1078 313 1218 313Q1358 313 1447 252.50Q1536 192 1536 89.50Q1536-13 1444-76.50Q1352-140 1219.50-140Q1087-140 995.50-76.50Q904-13 904 89.50M1393 92.50Q1393 92.50 1393 115.75Q1393 139 1350.50 169Q1308 199 1219.50 199Q1131 199 1087.50 168.50Q1044 138 1044 92Q1044 46 1091 13Q1138-20 1220.50-20Q1303-20 1348 13Q1393 46 1393 92.50M1429 554L1007 554L1007 676L1429 676L1429 554Z"  horiz-adv-x="1747" vert-adv-y="2048"  />

      
      <glyph glyph-name="uniACB1" unicode="&#xACB1;" d="M157 726L74 849Q402 915 606 1075Q810 1235 858 1461Q757 1456 633 1456L189 1456L189 1570Q189 1580 531.50 1580Q874 1580 1030 1588Q986 1239 759.50 1026Q533 813 157 726M1024 1387L1382 1387L1382 1666L1521 1666L1521 786L1382 786L1382 929L973 929L973 1052L1382 1052L1382 1264L1024 1264L1024 1387M1521-133L1382-133L1382 579L969 579L969 706L1521 706L1521-133M1065-59Q940-109 710-109L356-109L356 364L789 364L789 579L356 579L356 706L926 706L926 241L494 241L494 19L769 19Q945 19 1065 67L1065-59Z"  horiz-adv-x="1752" vert-adv-y="2048"  />

      
      <glyph glyph-name="uniACB2" unicode="&#xACB2;" d="M157 726L74 849Q402 915 606 1075Q810 1235 858 1461Q757 1456 633 1456L189 1456L189 1570Q189 1580 531.50 1580Q874 1580 1030 1588Q986 1239 759.50 1026Q533 813 157 726M1024 1387L1382 1387L1382 1666L1521 1666L1521 786L1382 786L1382 929L973 929L973 1052L1382 1052L1382 1264L1024 1264L1024 1387M965-101L965 706L1521 706L1521-101L965-101M1385 581L1098 581L1098 24L1385 24L1385 581M937-57Q816-105 578-105L337-105L337 364L758 364L758 579L337 579L337 706L892 706L892 241L474 241L474 23L637 23Q818 23 937 70L937-57Z"  horiz-adv-x="1752" vert-adv-y="2048"  />

      
      <glyph glyph-name="uniACB3" unicode="&#xACB3;" d="M157 726L74 849Q402 915 606 1075Q810 1235 858 1461Q757 1456 633 1456L189 1456L189 1570Q189 1580 531.50 1580Q874 1580 1030 1588Q986 1239 759.50 1026Q533 813 157 726M1024 1387L1382 1387L1382 1666L1521 1666L1521 786L1382 786L1382 929L973 929L973 1052L1382 1052L1382 1264L1024 1264L1024 1387M946-101L946 706L1080 706L1080 441L1385 441L1385 715L1521 715L1521-101L946-101M1385 321L1080 321L1080 23L1385 23L1385 321M920-57Q801-105 565-105L325-105L325 364L734 364L734 579L325 579L325 706L868 706L868 241L463 241L463 23L624 23Q801 23 920 70L920-57Z"  horiz-adv-x="1752" vert-adv-y="2048"  />

      
      <glyph glyph-name="uniACB4" unicode="&#xACB4;" d="M156 726L72 849Q400 915 604 1075Q808 1235 855 1461Q755 1456 632 1456L188 1456L188 1570Q188 1580 530.50 1580Q873 1580 1028 1588Q985 1239 758 1026Q531 813 156 726M1023 1387L1381 1387L1381 1666L1518 1666L1518 786L1381 786L1381 929L971 929L971 1052L1381 1052L1381 1264L1023 1264L1023 1387M933-63Q789-109 567-109L315-109L315 362L761 362L761 579L315 579L315 706L900 706L900 241L452 241L452 17L627 17Q816 17 933 63L933 18Q1076 111 1154 296.50Q1232 482 1214 713L1356 713Q1360 587 1345 491Q1364 341 1456.50 203.50Q1549 66 1687-3L1585-114Q1473-49 1394.50 58Q1316 165 1281 255Q1197 26 981-125L933-76L933-63Z"  horiz-adv-x="1742" vert-adv-y="2048"  />

      
      <glyph glyph-name="uniACB5" unicode="&#xACB5;" d="M156 726L73 849Q401 915 605.50 1075Q810 1235 856 1461Q757 1456 632 1456L188 1456L188 1570Q188 1580 531 1580Q874 1580 1029 1588Q985 1239 758.50 1026Q532 813 156 726M1023 1387L1381 1387L1381 1666L1520 1666L1520 786L1381 786L1381 929L972 929L972 1052L1381 1052L1381 1264L1023 1264L1023 1387M972-101L972 706L1524 706L1524 579L1111 579L1111 364L1520 364L1520 241L1111 241L1111 26L1548 26L1548-101L972-101M938-59Q823-105 579-105L318-105L318 364L759 364L759 579L318 579L318 706L897 706L897 241L456 241L456 23L638 23Q833 23 938 68L938-59Z"  horiz-adv-x="1750" vert-adv-y="2048"  />

      
      <glyph glyph-name="uniACB6" unicode="&#xACB6;" d="M157 726L73 849Q402 915 605.50 1075Q809 1235 856 1461Q757 1456 633 1456L189 1456L189 1570Q189 1580 531.50 1580Q874 1580 1029 1588Q986 1239 759 1026Q532 813 157 726M1024 1387L1382 1387L1382 1666L1520 1666L1520 786L1382 786L1382 929L972 929L972 1052L1382 1052L1382 1264L1024 1264L1024 1387M912 706L1557 706L1557 581L1452 581L1444 24L1571 24L1571-101L912-101L912 24L1029 24L1025 581L912 581L912 706M1161 24L1312 24L1320 581L1158 581L1161 24M901-57Q781-105 551-105L315-105L315 364L752 364L752 579L315 579L315 706L885 706L885 241L453 241L453 23L609 23Q781 23 901 70L901-57Z"  horiz-adv-x="1749" vert-adv-y="2048"  />

      
      <glyph glyph-name="uniACB7" unicode="&#xACB7;" d="M156 726L73 849Q400 915 604 1075Q808 1235 856 1461Q757 1456 632 1456L188 1456L188 1570Q188 1580 530.50 1580Q873 1580 1029 1588Q985 1239 758.50 1026Q532 813 156 726M1023 1387L1381 1387L1381 1666L1520 1666L1520 786L1381 786L1381 929L972 929L972 1052L1381 1052L1381 1264L1023 1264L1023 1387M928-66Q783-110 562-110L320-110L320 360L733 360L733 575L320 575L320 701L871 701L871 239L456 239L456 14L622 14Q811 14 928 61L928-66M1589 401L899 401L899 519L1589 519L1589 401M1444 597L1034 597L1034 721L1444 721L1444 597M951 101Q951 101 951 155.50Q951 210 1030.50 279Q1110 348 1242.50 348Q1375 348 1455.50 279Q1536 210 1536 101Q1536-8 1454.50-76Q1373-144 1242.50-144Q1112-144 1031.50-76Q951-8 951 101M1405 102Q1405 102 1405 129.50Q1405 157 1362 195Q1319 233 1242.50 233Q1166 233 1123.50 195Q1081 157 1081 102Q1081 47 1122.50 9Q1164-29 1242.50-29Q1321-29 1363 9Q1405 47 1405 102Z"  horiz-adv-x="1747" vert-adv-y="2048"  />

      
      <glyph glyph-name="uniACBA" unicode="&#xACBA;" d="M156 689L71 808Q397 887 603.50 1053.50Q810 1220 856 1459Q756 1454 630 1454L188 1454L188 1570Q188 1580 530 1580Q872 1580 1027 1588Q986 1231 763 1008.50Q540 786 156 689M1023 1362L1381 1362L1381 1666L1519 1666L1519 732L1381 732L1381 882L972 882L972 1008L1381 1008L1381 1239L1023 1239L1023 1362M955 649L955-101L327-101L327 641L466 641L466 408L819 408L819 649L955 649M466 28L819 28L819 284L466 284L466 28M919-32Q1274 197 1244 650L1388 650Q1388 499 1369 397Q1436 168 1706-13L1601-118Q1389 34 1314 210Q1247 38 1033-127L919-32Z"  horiz-adv-x="1741" vert-adv-y="2048"  />

      
      <glyph glyph-name="uniACBE" unicode="&#xACBE;" d="M159 666L70 783Q400 865 606.50 1037Q813 1209 856 1459Q755 1454 627 1454L187 1454L187 1570Q187 1580 529 1580Q871 1580 1025 1588Q989 1228 767 999Q545 770 159 666M1022 1362L1381 1362L1381 1666L1519 1666L1519 662L1381 662L1381 884L971 884L971 1009L1381 1009L1381 1239L1022 1239L1022 1362M1210 456Q1091 449 772 449L443 449L443 579L1031 579Q1252 579 1372 586Q1397 586 1407.50 565.50Q1418 545 1407 522Q1323 335 1079 185Q1305 77 1655-1L1579-126Q1356-75 1087 43Q1009 78 949 110Q672-41 317-131L246-3Q593 71 867.50 212Q1142 353 1210 456Z"  horiz-adv-x="1744" vert-adv-y="2048"  />

      
      <glyph glyph-name="uniACBF" unicode="&#xACBF;" d="M157 726L73 849Q401 915 605 1075Q809 1235 856 1461Q757 1456 633 1456L189 1456L189 1570Q189 1580 531.50 1580Q874 1580 1029 1588Q985 1239 758.50 1026Q532 813 157 726M1023 1360L1382 1360L1382 1666L1520 1666L1520 701L1382 701L1382 921L972 921L972 1045L1382 1045L1382 1236L1023 1236L1023 1360M604 606L604 732L1168 732L1168 606L604 606M1066 146Q1288 49 1617 3L1550-122Q1235-77 925 73Q644-59 293-124L221-5Q718 82 1032 270Q1132 329 1164 366Q1063 360 911 360L394 360L394 482L996 482Q1223 482 1344 488Q1369 488 1379 469Q1389 450 1379 425Q1277 255 1066 146Z"  horiz-adv-x="1746" vert-adv-y="2048"  />

      
      <glyph glyph-name="uniACC0" unicode="&#xACC0;" d="M161 647L70 763Q403 850 609.50 1026.50Q816 1203 857 1459Q757 1454 629 1454L187 1454L187 1570Q187 1580 528.50 1580Q870 1580 1025 1588Q954 871 161 647M1022 1362L1380 1362L1380 1666L1519 1666L1519 643L1380 643L1380 874L971 874L971 999L1380 999L1380 1239L1022 1239L1022 1362M861 226Q1187 226 1380 255L1380 427L376 427L376 556L1519 556L1519-128L1380-128L1380 135Q1190 99 827 99L362 99L362 226L861 226Z"  horiz-adv-x="1751" vert-adv-y="2048"  />

      
      <glyph glyph-name="uniACC2" unicode="&#xACC2;" d="M157 689L71 808Q399 887 605.50 1053.50Q812 1220 856 1459Q757 1454 631 1454L189 1454L189 1570Q189 1580 530.50 1580Q872 1580 1028 1588Q987 1231 764 1008.50Q541 786 157 689M1024 1362L1382 1362L1382 1666L1520 1666L1520 701L1382 701L1382 894L972 894L972 1019L1382 1019L1382 1239L1024 1239L1024 1362M1567 28L1567-101L330-101L330 28L572 28L565 486L350 486L350 613L1540 613L1540 486L1320 486L1312 28L1567 28M711 28L1173 28L1180 486L704 486L711 28Z"  horiz-adv-x="1750" vert-adv-y="2048"  />

      
      <glyph glyph-name="uniACC3" unicode="&#xACC3;" d="M157 726L73 849Q402 915 606 1075Q810 1235 856 1461Q757 1456 633 1456L189 1456L189 1570Q189 1580 531.50 1580Q874 1580 1030 1588Q986 1239 759 1026Q532 813 157 726M1024 1360L1382 1360L1382 1666L1521 1666L1521 701L1382 701L1382 921L972 921L972 1045L1382 1045L1382 1236L1024 1236L1024 1360M1565 401L311 401L311 521L1565 521L1565 401M1229 610L624 610L624 734L1229 734L1229 610M1461 92.50Q1461 92.50 1461 33.25Q1461-26 1317-87.50Q1173-149 937-149Q701-149 558-87.50Q415-26 415 92Q415 210 555 273Q695 336 936 336Q1177 336 1319 273.50Q1461 211 1461 92.50M563 93.50Q563 93.50 563 66.75Q563 40 661 4.50Q759-31 936-31Q1113-31 1212 4.50Q1311 40 1311 93.50Q1311 147 1219 182Q1127 217 937.50 217Q748 217 655.50 182Q563 147 563 93.50Z"  horiz-adv-x="1750" vert-adv-y="2048"  />

      
      <glyph glyph-name="uniACC5" unicode="&#xACC5;" d="M142 601L47 714Q481 877 642 1212Q697 1332 712 1455Q638 1450 529 1450L157 1450L157 1567Q157 1577 444 1577Q731 1577 865 1584Q850 1232 663 980.50Q476 729 142 601M1564 1666L1564 604L1429 604L1429 1666L1564 1666M733 1331L1096 1331L1096 1647L1230 1647L1230 604L1096 604L1096 851L789 851L789 975L1096 975L1096 1204L733 1204L733 1331M1564-133L1427-133L1427 386L388 386L388 516L1564 516L1564-133Z"  horiz-adv-x="1748" vert-adv-y="2048"  />

      
      <glyph glyph-name="uniACC6" unicode="&#xACC6;" d="M140 616L47 731Q330 828 505.50 1016.50Q681 1205 712 1455Q638 1450 529 1450L157 1450L157 1567Q157 1577 444 1577Q731 1577 865 1584Q852 1236 661.50 988.50Q471 741 140 616M1564 1666L1564 623L1429 623L1429 1666L1564 1666M733 1331L1096 1331L1096 1647L1230 1647L1230 623L1096 623L1096 860L789 860L789 985L1096 985L1096 1204L733 1204L733 1331M1564-133L1427-133L1427 406L962 406L962 535L1564 535L1564-133M906-133L768-133L768 406L336 406L336 535L906 535L906-133Z"  horiz-adv-x="1748" vert-adv-y="2048"  />

      
      <glyph glyph-name="uniACC7" unicode="&#xACC7;" d="M140 616L47 731Q329 828 504.50 1016.50Q680 1205 711 1455Q637 1450 529 1450L157 1450L157 1567Q157 1577 443.50 1577Q730 1577 865 1584Q852 1236 661.50 988.50Q471 741 140 616M1563 1666L1563 623L1428 623L1428 1666L1563 1666M732 1331L1095 1331L1095 1647L1230 1647L1230 623L1095 623L1095 860L789 860L789 985L1095 985L1095 1204L732 1204L732 1331M782-126L782 406L302 406L302 535L919 535L919-126L782-126M1390 555Q1390 450 1378 374Q1402 246 1492 143Q1585 31 1725-31L1618-134Q1507-80 1428 9Q1349 98 1312 179Q1221-22 1001-143L897-39Q1092 60 1176 207Q1260 354 1248 555L1390 555Z"  horiz-adv-x="1739" vert-adv-y="2048"  />

      
      <glyph glyph-name="uniACC9" unicode="&#xACC9;" d="M139 616L47 731Q328 828 504 1016.50Q680 1205 711 1455Q637 1450 528 1450L156 1450L156 1567Q156 1577 442.50 1577Q729 1577 865 1584Q852 1236 661 988.50Q470 741 139 616M1563 1666L1563 623L1428 623L1428 1666L1563 1666M732 1331L1095 1331L1095 1647L1230 1647L1230 623L1095 623L1095 860L789 860L789 985L1095 985L1095 1204L732 1204L732 1331M1539 541Q1530 361 1384 202Q1507 87 1702 5L1596-104Q1424-20 1293 112Q1149-17 937-106L884-46L884-54Q726-101 454-101L319-101L319 551L461 551L461 26L538 26Q752 26 904 77L904 28Q1071 89 1204.50 206Q1338 323 1369 411Q1291 406 1109 406L958 406L958 535L1184 535Q1390 535 1539 541Z"  horiz-adv-x="1740" vert-adv-y="2048"  />

      
      <glyph glyph-name="uniACCA" unicode="&#xACCA;" d="M138 657L47 772Q331 863 505.50 1042.50Q680 1222 711 1455Q637 1450 530 1450L156 1450L156 1577L566 1577Q731 1577 868 1584Q852 1248 656.50 1008.50Q461 769 138 657M1563 1666L1563 743L1428 743L1428 1666L1563 1666M752 1373L1096 1373L1096 1647L1230 1647L1230 743L1096 743L1096 940L789 940L789 1064L1096 1064L1096 1249L752 1249L752 1373M915-48Q737-101 465-101L322-101L322 577L461 577L461 24L550 24Q764 24 915 75L915-48M1246 181Q1157 181 1114 152.50Q1071 124 1071 82Q1071 40 1117 9Q1163-22 1246-22Q1329-22 1374.50 9Q1420 40 1420 82Q1420 124 1377.50 152.50Q1335 181 1246 181M1618 334L867 334L867 455L1618 455L1618 334M1449 521L1034 521L1034 641L1449 641L1449 521M930 79Q930 79 930 128.50Q930 178 1017.50 235.50Q1105 293 1245 293Q1385 293 1473 235.50Q1561 178 1561 79Q1561-20 1469.50-80Q1378-140 1246-140Q1114-140 1022-80Q930-20 930 79Z"  horiz-adv-x="1744" vert-adv-y="2048"  />

      
      <glyph glyph-name="uniACCB" unicode="&#xACCB;" d="M140 616L47 731Q330 828 505.50 1016.50Q681 1205 712 1455Q638 1450 529 1450L157 1450L157 1567Q157 1577 444 1577Q731 1577 865 1584Q852 1236 661.50 988.50Q471 741 140 616M1564 1666L1564 623L1429 623L1429 1666L1564 1666M733 1331L1096 1331L1096 1647L1230 1647L1230 623L1096 623L1096 860L789 860L789 985L1096 985L1096 1204L733 1204L733 1331M1601-101L432-101L432 535L1567 535L1567 406L571 406L571 26L1601 26L1601-101Z"  horiz-adv-x="1745" vert-adv-y="2048"  />

      
      <glyph glyph-name="uniACCD" unicode="&#xACCD;" d="M135 696L47 811Q332 895 506 1065Q680 1235 711 1454Q638 1450 530 1450L157 1450L157 1577L568 1577Q735 1577 870 1584Q854 1258 654 1026Q454 794 135 696M1564 1666L1564 767L1429 767L1429 1666L1564 1666M733 1375L1096 1375L1096 1647L1230 1647L1230 767L1096 767L1096 942L789 942L789 1066L1096 1066L1096 1251L733 1251L733 1375M1564-133L1427-133L1427 560L997 560L997 686L1564 686L1564-133M1093-59Q968-109 740-109L370-109L370 358L816 358L816 560L370 560L370 686L955 686L955 235L508 235L508 19L798 19Q974 19 1093 67L1093-59Z"  horiz-adv-x="1748" vert-adv-y="2048"  />

      
      <glyph glyph-name="uniACCE" unicode="&#xACCE;" d="M135 696L47 811Q332 895 506 1065Q680 1235 711 1454Q638 1450 530 1450L157 1450L157 1577L568 1577Q735 1577 870 1584Q854 1258 654 1026Q454 794 135 696M1564 1666L1564 767L1429 767L1429 1666L1564 1666M733 1375L1096 1375L1096 1647L1230 1647L1230 767L1096 767L1096 942L789 942L789 1066L1096 1066L1096 1251L733 1251L733 1375M995-101L995 686L1564 686L1564-101L995-101M1429 562L1128 562L1128 24L1429 24L1429 562M966-57Q846-105 608-105L353-105L353 358L787 358L787 560L353 560L353 686L921 686L921 235L491 235L491 23L666 23Q848 23 966 70L966-57Z"  horiz-adv-x="1748" vert-adv-y="2048"  />

      
      <glyph glyph-name="uniACCF" unicode="&#xACCF;" d="M135 696L47 811Q332 895 506 1065Q680 1235 711 1454Q638 1450 530 1450L157 1450L157 1577L568 1577Q735 1577 870 1584Q854 1258 654 1026Q454 794 135 696M1564 1666L1564 767L1429 767L1429 1666L1564 1666M733 1375L1096 1375L1096 1647L1230 1647L1230 767L1096 767L1096 942L789 942L789 1066L1096 1066L1096 1251L733 1251L733 1375M975-101L975 686L1110 686L1110 430L1429 430L1429 695L1564 695L1564-101L975-101M1429 309L1110 309L1110 26L1429 26L1429 309M951-57Q830-105 595-105L342-105L342 358L765 358L765 560L342 560L342 686L899 686L899 235L479 235L479 23L655 23Q832 23 951 70L951-57Z"  horiz-adv-x="1748" vert-adv-y="2048"  />

      
      <glyph glyph-name="uniACD0" unicode="&#xACD0;" d="M135 696L47 811Q331 895 505 1065Q679 1235 710 1454Q638 1450 530 1450L157 1450L157 1577L568 1577Q734 1577 870 1584Q854 1258 654 1026Q454 794 135 696M1563 1666L1563 767L1428 767L1428 1666L1563 1666M732 1375L1095 1375L1095 1647L1230 1647L1230 767L1095 767L1095 942L789 942L789 1066L1095 1066L1095 1251L732 1251L732 1375M934-63Q789-109 567-109L315-109L315 352L762 352L762 560L315 560L315 686L900 686L900 231L452 231L452 17L627 17Q816 17 934 63L934 18Q1075 107 1153.50 288Q1232 469 1215 693L1356 693Q1360 584 1347 477Q1362 333 1454.50 200.50Q1547 68 1687-3L1587-114Q1380 7 1283 246Q1248 150 1167.50 47Q1087-56 980-124L934-76L934-63Z"  horiz-adv-x="1741" vert-adv-y="2048"  />

      
      <glyph glyph-name="uniACD1" unicode="&#xACD1;" d="M135 696L47 811Q332 895 506 1065Q680 1235 712 1454Q638 1450 531 1450L157 1450L157 1577L569 1577Q735 1577 870 1584Q854 1258 654 1026Q454 794 135 696M1564 1666L1564 767L1429 767L1429 1666L1564 1666M734 1375L1096 1375L1096 1647L1230 1647L1230 767L1096 767L1096 942L790 942L790 1066L1096 1066L1096 1251L734 1251L734 1375M1007-101L1007 686L1568 686L1568 560L1146 560L1146 358L1564 358L1564 235L1146 235L1146 26L1593 26L1593-101L1007-101M973-59Q858-105 614-105L344-105L344 358L793 358L793 560L344 560L344 686L932 686L932 235L481 235L481 23L675 23Q867 23 973 68L973-59Z"  horiz-adv-x="1746" vert-adv-y="2048"  />

      
      <glyph glyph-name="uniACD2" unicode="&#xACD2;" d="M135 696L47 811Q331 895 505.50 1065Q680 1235 711 1454Q637 1450 530 1450L156 1450L156 1577L568 1577Q733 1577 870 1584Q853 1258 653 1026Q453 794 135 696M1563 1666L1563 767L1428 767L1428 1666L1563 1666M732 1375L1096 1375L1096 1647L1230 1647L1230 767L1096 767L1096 942L789 942L789 1066L1096 1066L1096 1251L732 1251L732 1375M945 686L1606 686L1606 562L1502 562L1495 24L1620 24L1620-101L945-101L945 24L1059 24L1055 562L945 562L945 686M1191 24L1362 24L1369 562L1187 562L1191 24M933-57Q812-105 584-105L329-105L329 358L783 358L783 560L329 560L329 686L917 686L917 235L467 235L467 23L643 23Q814 23 933 70L933-57Z"  horiz-adv-x="1744" vert-adv-y="2048"  />

      
      <glyph glyph-name="uniACD3" unicode="&#xACD3;" d="M135 696L47 811Q332 895 506 1065Q680 1235 711 1454Q638 1450 530 1450L157 1450L157 1577L568 1577Q735 1577 870 1584Q854 1258 654 1026Q454 794 135 696M1563 1666L1563 767L1428 767L1428 1666L1563 1666M733 1375L1096 1375L1096 1647L1230 1647L1230 767L1096 767L1096 942L789 942L789 1066L1096 1066L1096 1251L733 1251L733 1375M947-66Q801-110 581-110L320-110L320 350L744 350L744 556L320 556L320 682L880 682L880 230L456 230L456 14L641 14Q830 14 947 61L947-66M1608 386L908 386L908 506L1608 506L1608 386M1464 579L1053 579L1053 701L1464 701L1464 579M970 96Q970 96 970 149.50Q970 203 1049.50 271Q1129 339 1261.50 339Q1394 339 1474 271Q1554 203 1554 96Q1554-11 1473-77.50Q1392-144 1261-144Q1130-144 1050-77.50Q970-11 970 96M1425 97Q1425 97 1425 123.50Q1425 150 1381.50 187.50Q1338 225 1261 225Q1184 225 1142.50 188Q1101 151 1101 97Q1101 43 1141.50 6Q1182-31 1260.50-31Q1339-31 1382 6.50Q1425 44 1425 97Z"  horiz-adv-x="1745" vert-adv-y="2048"  />

      
      <glyph glyph-name="uniACD4" unicode="&#xACD4;" d="M140 630L47 744Q328 841 499 1019Q681 1213 712 1455Q638 1450 529 1450L157 1450L157 1567Q157 1577 444 1577Q731 1577 865 1584Q842 1073 438 783Q309 690 140 630M1564 1666L1564 643L1429 643L1429 1666L1564 1666M733 1331L1096 1331L1096 1647L1230 1647L1230 643L1096 643L1096 866L789 866L789 991L1096 991L1096 1204L733 1204L733 1331M1564 556L1564-101L428-101L428 556L1564 556M1427 26L1427 427L567 427L567 26L1427 26Z"  horiz-adv-x="1748" vert-adv-y="2048"  />

      
      <glyph glyph-name="uniACD6" unicode="&#xACD6;" d="M137 657L46 772Q330 863 504.50 1042.50Q679 1222 710 1455Q637 1450 530 1450L156 1450L156 1577L566 1577Q731 1577 868 1584Q851 1248 656 1008.50Q461 769 137 657M1563 1666L1563 712L1428 712L1428 1666L1563 1666M752 1371L1095 1371L1095 1647L1229 1647L1229 712L1095 712L1095 925L789 925L789 1048L1095 1048L1095 1247L752 1247L752 1371M945 619L945-101L307-101L307 611L446 611L446 391L808 391L808 619L945 619M446 26L808 26L808 266L446 266L446 26M918-32Q1272 186 1244 622L1387 622Q1387 478 1368 379Q1436 153 1707-13L1600-118Q1385 36 1313 199Q1245 29 1029-126L918-32Z"  horiz-adv-x="1739" vert-adv-y="2048"  />

      
      <glyph glyph-name="uniACD8" unicode="&#xACD8;" d="M140 630L47 744Q327 841 499 1019Q681 1213 712 1455Q638 1450 529 1450L157 1450L157 1567Q157 1577 443.50 1577Q730 1577 867 1584Q842 1073 438 783Q309 690 140 630M1564 1666L1564 643L1429 643L1429 1666L1564 1666M733 1331L1095 1331L1095 1647L1230 1647L1230 643L1095 643L1095 866L790 866L790 991L1095 991L1095 1204L733 1204L733 1331M1568-121Q1339-13 1246 185Q1165-7 948-128Q709-1 624 194Q531-3 270-129L178-21Q376 70 476 213Q576 356 563 568L700 568Q700 463 689 386Q711 289 781 190.50Q851 92 952 31Q1067 111 1133 253Q1199 395 1186 575L1320 575Q1320 476 1306 383Q1334 272 1421.50 169Q1509 66 1675-11L1568-121Z"  horiz-adv-x="1742" vert-adv-y="2048"  />

      
      <glyph glyph-name="uniACD9" unicode="&#xACD9;" d="M142 601L47 714Q481 877 642 1212Q697 1332 712 1455Q638 1450 529 1450L157 1450L157 1567Q157 1577 444 1577Q731 1577 865 1584Q850 1232 663 980.50Q476 729 142 601M1564 1666L1564 579L1429 579L1429 1666L1564 1666M733 1331L1096 1331L1096 1647L1230 1647L1230 671L1096 671L1096 860L789 860L789 985L1096 985L1096 1204L733 1204L733 1331M1396-33Q1235-138 958-138Q681-138 521-33Q361 65 361 225Q361 385 521 486.50Q681 588 958 588Q1235 588 1397 486.50Q1559 385 1559 225Q1559 65 1396-33M514 226.50Q514 226.50 514 180.75Q514 135 625 61Q736-13 958.50-13Q1181-13 1293 61Q1405 135 1405 226.50Q1405 318 1295 390Q1185 462 958 462Q731 462 622.50 390Q514 318 514 226.50Z"  horiz-adv-x="1748" vert-adv-y="2048"  />

      
      <glyph glyph-name="uniACDA" unicode="&#xACDA;" d="M139 630L47 744Q326 841 498 1019Q679 1213 711 1455Q637 1450 528 1450L156 1450L156 1567Q156 1577 442.50 1577Q729 1577 866 1584Q841 1073 437 783Q308 690 139 630M1563 1666L1563 643L1428 643L1428 1666L1563 1666M732 1331L1095 1331L1095 1647L1230 1647L1230 643L1095 643L1095 866L789 866L789 991L1095 991L1095 1204L732 1204L732 1331M1219 436Q1100 429 782 429L453 429L453 560L1040 560Q1263 560 1384 566Q1409 566 1419 546Q1429 526 1419 503Q1342 325 1092 176Q1322 71 1666-1L1588-126Q1267-51 961 102Q704-35 326-131L256-3Q615 75 880.50 205Q1146 335 1219 436Z"  horiz-adv-x="1741" vert-adv-y="2048"  />

      
      <glyph glyph-name="uniACDB" unicode="&#xACDB;" d="M135 696L47 811Q331 895 505.50 1065Q680 1235 712 1454Q638 1450 531 1450L157 1450L157 1577L569 1577Q734 1577 870 1584Q854 1258 654 1026Q454 794 135 696M1564 1666L1564 656L1429 656L1429 1666L1564 1666M1096 808L1096 934L790 934L790 1058L1096 1058L1096 1245L733 1245L733 1370L1096 1370L1096 1647L1230 1647L1230 808L1096 808M623 587L623 713L1188 713L1188 587L623 587M1182 355Q1083 347 931 347L413 347L413 471L1015 471Q1243 471 1364 477Q1388 477 1398.50 457Q1409 437 1398 412Q1298 250 1090 140Q1319 49 1637 3L1568-122Q1260-79 946 69Q681-55 312-124L239-4Q546 45 821.50 152.50Q1097 260 1182 355Z"  horiz-adv-x="1744" vert-adv-y="2048"  />

      
      <glyph glyph-name="uniACDC" unicode="&#xACDC;" d="M140 616L47 731Q330 828 505.50 1016.50Q681 1205 712 1455Q638 1450 529 1450L157 1450L157 1567Q157 1577 444 1577Q731 1577 865 1584Q852 1236 661.50 988.50Q471 741 140 616M1564 1666L1564 623L1429 623L1429 1666L1564 1666M733 1331L1096 1331L1096 1647L1230 1647L1230 623L1096 623L1096 860L789 860L789 985L1096 985L1096 1204L733 1204L733 1331M907 215Q1231 215 1427 246L1427 408L401 408L401 536L1564 536L1564-128L1427-128L1427 126Q1234 90 872 90L388 90L388 215L907 215Z"  horiz-adv-x="1748" vert-adv-y="2048"  />

      
      <glyph glyph-name="uniACDD" unicode="&#xACDD;" d="M135 696L47 811Q332 895 506 1065Q680 1235 711 1454Q638 1450 530 1450L157 1450L157 1577L568 1577Q735 1577 870 1584Q854 1258 654 1026Q454 794 135 696M1563 1666L1563 767L1429 767L1429 1666L1563 1666M733 1375L1096 1375L1096 1647L1230 1647L1230 767L1096 767L1096 942L789 942L789 1066L1096 1066L1096 1251L733 1251L733 1375M1563 237L569 237L569 26L1604 26L1604-101L432-101L432 682L1567 682L1567 556L569 556L569 360L1563 360L1563 237Z"  horiz-adv-x="1745" vert-adv-y="2048"  />

      
      <glyph glyph-name="uniACDE" unicode="&#xACDE;" d="M138 657L47 772Q331 863 505.50 1042.50Q680 1222 711 1455Q638 1450 530 1450L156 1450L156 1577L566 1577Q733 1577 868 1584Q852 1248 656.50 1008.50Q461 769 138 657M1563 1666L1563 682L1428 682L1428 1666L1563 1666M733 1334L1096 1334L1096 1647L1230 1647L1230 682L1096 682L1096 880L789 880L789 1004L1096 1004L1096 1210L733 1210L733 1334M1612 26L1612-101L344-101L344 26L578 26L570 466L365 466L365 595L1583 595L1583 466L1373 466L1362 26L1612 26M716 26L1224 26L1235 466L708 466L716 26Z"  horiz-adv-x="1744" vert-adv-y="2048"  />

      
      <glyph glyph-name="uniACDF" unicode="&#xACDF;" d="M135 696L47 811Q331 895 505.50 1065Q680 1235 711 1454Q637 1450 530 1450L156 1450L156 1577L568 1577Q734 1577 870 1584Q853 1258 653 1026Q453 794 135 696M1564 1666L1564 656L1428 656L1428 1666L1564 1666M1096 808L1096 934L789 934L789 1058L1096 1058L1096 1245L733 1245L733 1370L1096 1370L1096 1647L1230 1647L1230 808L1096 808M1583 386L329 386L329 508L1583 508L1583 386M1247 591L642 591L642 715L1247 715L1247 591M1478 87Q1478 87 1478 28.50Q1478-30 1334-89.50Q1190-149 955-149Q720-149 576-89.50Q432-30 432 87Q432 204 573 264.50Q714 325 954 325Q1194 325 1336 264.50Q1478 204 1478 87M582 90Q582 36 679.50 2.50Q777-31 954-31Q1131-31 1229.50 2.50Q1328 36 1328 90Q1328 138 1236 172Q1144 206 955.50 206Q767 206 674.50 172Q582 138 582 90Z"  horiz-adv-x="1746" vert-adv-y="2048"  />

      
      <glyph glyph-name="uniACE2" unicode="&#xACE2;" d="M1428 1616Q1419 1328 1369 958L1228 958Q1283 1294 1287 1485L291 1485L291 1616L1428 1616M683 1237L829 1237L829 845L1716 845L1716 719L8 719L8 845L683 845L683 1237M1456-133L1316-133L1316 408L877 408L877 535L1456 535L1456-133M821-133L681-133L681 408L244 408L244 535L821 535L821-133Z"  horiz-adv-x="1738" vert-adv-y="2048"  />

      
      <glyph glyph-name="uniACE3" unicode="&#xACE3;" d="M1428 1616Q1419 1338 1369 987L1228 987Q1283 1304 1287 1485L291 1485L291 1616L1428 1616M683 1245L829 1245L829 860L1716 860L1716 734L8 734L8 860L683 860L683 1245M714-126L714 438L244 438L244 564L853 564L853-126L714-126M1535-132Q1337-31 1234 190Q1148-11 924-144L822-40Q1196 166 1171 584L1312 584Q1312 465 1297 380Q1323 252 1413.50 143.50Q1504 35 1641-27L1535-132Z"  horiz-adv-x="1738" vert-adv-y="2048"  />

      
      <glyph glyph-name="uniACE5" unicode="&#xACE5;" d="M1428 1616Q1419 1338 1369 987L1228 987Q1283 1304 1287 1485L291 1485L291 1616L1428 1616M683 1245L829 1245L829 860L1716 860L1716 734L8 734L8 860L683 860L683 1245M822-54Q664-101 393-101L269-101L269 577L410 577L410 28L477 28Q691 28 842 79L842 23Q1016 87 1149.50 212Q1283 337 1312 430Q1234 425 1051 425L893 425L893 556L1130 556Q1337 556 1485 562Q1477 372 1326 204Q1449 86 1645 0L1539-110Q1361-16 1235 114Q1091-20 882-112L822-46L822-54Z"  horiz-adv-x="1738" vert-adv-y="2048"  />

      
      <glyph glyph-name="uniACE6" unicode="&#xACE6;" d="M1430 1616Q1421 1319 1368 1025L1228 1025Q1283 1307 1287 1485L291 1485L291 1616L1430 1616M683 1258L829 1258L829 929L1716 929L1716 804L8 804L8 929L683 929L683 1258M845-48Q666-101 395-101L269-101L269 611L410 611L410 26L479 26Q692 26 845 77L845-48M1534 360L796 360L796 480L1534 480L1534 360M850 89.50Q850 89.50 850 140.75Q850 192 936.50 252.50Q1023 313 1163.50 313Q1304 313 1392.50 252.50Q1481 192 1481 89.50Q1481-13 1390-76.50Q1299-140 1165.50-140Q1032-140 941-76.50Q850-13 850 89.50M1340 92.50Q1340 92.50 1340 115.75Q1340 139 1297.50 169Q1255 199 1165.50 199Q1076 199 1033 168.50Q990 138 990 92Q990 46 1036 13Q1082-20 1165-20Q1248-20 1294 13Q1340 46 1340 92.50M1375 554L953 554L953 676L1375 676L1375 554Z"  horiz-adv-x="1738" vert-adv-y="2048"  />

      
      </font>
</defs>
</svg>
