<?xml version="1.0" standalone="no"?>
  <!DOCTYPE svg PUBLIC "-//W3C//DTD SVG 1.1//EN" "http://www.w3.org/Graphics/SVG/1.1/DTD/svg11.dtd" >
  <svg>
  <metadata>
  Created by font-carrier
  </metadata>
  <defs>
  <font id="NanumBarunRoboto-Bold" horiz-adv-x="2109" vert-adv-y="2109" >
    <font-face
      
      font-family="NanumBarunRoboto"
      
      font-weight="400"
      
      font-stretch="normal"
      
      units-per-em="2048"
      
      ascent="2146"
      
      descent="-555"
      
    />
      <missing-glyph />

      
      <glyph glyph-name="x" unicode="&#x78;" horiz-adv-x="100"
        d="M20 20 L50 20 L50 -20 Z" />
      

      
      <glyph glyph-name="uniAC02" unicode="&#xAC02;" d="M759 1389Q657 1383 556 1383L153 1383L153 1588Q153 1588 662 1588Q878 1588 1047 1592Q1025 1247 797.50 999Q570 751 167 637L28 822Q357 908 542 1061.50Q727 1215 759 1389M1727 1023L1452 1023L1452 647L1204 647L1204 1672L1452 1672L1452 1235L1727 1235L1727 1023M1202-141L1202 372L882 372L882 580L1452 580L1452-141L1202-141M602-141L602 372L233 372L233 580L851 580L851-141L602-141Z"  horiz-adv-x="1737" vert-adv-y="2048"  />

      
      <glyph glyph-name="uniAC03" unicode="&#xAC03;" d="M759 1389Q657 1383 556 1383L153 1383L153 1588Q153 1588 662 1588Q878 1588 1047 1592Q1025 1247 797.50 999Q570 751 167 637L28 822Q357 908 542 1061.50Q727 1215 759 1389M1727 1023L1452 1023L1452 647L1204 647L1204 1672L1452 1672L1452 1235L1727 1235L1727 1023M1506-150Q1322-43 1224 98Q1124-54 938-162L882-99L882-136L637-136L637 374L232 374L232 580L882 580L882 69Q1022 157 1073 279.50Q1124 402 1119 599L1357 599Q1362 466 1333 342Q1429 138 1667 25L1506-150Z"  horiz-adv-x="1737" vert-adv-y="2048"  />

      
      <glyph glyph-name="uniAC05" unicode="&#xAC05;" d="M759 1389Q657 1383 556 1383L153 1383L153 1588Q153 1588 662 1588Q878 1588 1047 1592Q1025 1247 797.50 999Q570 751 167 637L28 822Q357 908 542 1061.50Q727 1215 759 1389M1727 1023L1452 1023L1452 647L1204 647L1204 1672L1452 1672L1452 1235L1727 1235L1727 1023M796-76Q629-110 394-110L239-110L239 599L492 599L492 98L513 98Q688 98 853 147L853 91Q998 166 1088 248.50Q1178 331 1201 380Q1162 377 1109 377L857 377L857 580L1224 580Q1380 580 1489 583Q1489 400 1344 218Q1460 119 1657 36L1515-142Q1334-66 1193 64Q1042-66 859-150L796-76Z"  horiz-adv-x="1737" vert-adv-y="2048"  />

      
      <glyph glyph-name="uniAC06" unicode="&#xAC06;" d="M763 1393Q662 1387 559 1387L153 1387L153 1588Q153 1588 666 1588Q883 1588 1052 1592Q1032 1265 801 1030Q570 795 163 695L30 878Q359 954 545 1095.50Q731 1237 763 1393M1727 1062L1452 1062L1452 757L1204 757L1204 1672L1452 1672L1452 1274L1727 1274L1727 1062M838-64Q682-112 439-112L261-112L261 607L505 607L505 89L532 89Q676 89 838 136L838-64M789 313L789 472L1561 472L1561 313L789 313M960 535L960 705L1405 705L1405 535L960 535M1506 66Q1506 66 1506 16Q1506-34 1413.50-93.50Q1321-153 1180.50-153Q1040-153 951-93.50Q862-34 862 66Q862 166 945.50 224.50Q1029 283 1180 283Q1331 283 1418.50 224.50Q1506 166 1506 66M1071 68.50Q1071 68.50 1071 54.75Q1071 41 1099.50 22.50Q1128 4 1181.50 4Q1235 4 1264.50 22.50Q1294 41 1294 68.50Q1294 96 1264.50 113.50Q1235 131 1181.50 131Q1128 131 1099.50 113.50Q1071 96 1071 68.50Z"  horiz-adv-x="1738" vert-adv-y="2048"  />

      
      <glyph glyph-name="uniAC0B" unicode="&#xAC0B;" d="M766 1397Q666 1391 563 1391L153 1391L153 1588Q153 1588 668 1588Q887 1588 1056 1592Q1036 1277 803 1050Q563 824 159 734L30 918Q361 982 548 1117Q735 1252 766 1397M1727 1088L1452 1088L1452 783L1204 783L1204 1672L1452 1672L1452 1302L1727 1302L1727 1088M871 715L1095 715L1095 445L1218 445L1218 724L1452 724L1452-118L871-118L871 715M1095 260L1095 67L1218 67L1218 260L1095 260M840-74Q695-118 472-118L234-118L234 393L560 393L560 519L234 519L234 715L790 715L790 206L471 206L471 78L541 78Q717 78 840 124L840-74Z"  horiz-adv-x="1738" vert-adv-y="2048"  />

      
      <glyph glyph-name="uniAC0C" unicode="&#xAC0C;" d="M766 1397Q666 1391 563 1391L153 1391L153 1588Q153 1588 668 1588Q887 1588 1056 1592Q1036 1277 803 1050Q563 824 159 734L30 918Q361 982 548 1117Q735 1252 766 1397M1727 1088L1452 1088L1452 783L1204 783L1204 1672L1452 1672L1452 1302L1727 1302L1727 1088M917 66Q1194 295 1144 724L1387 724Q1387 574 1370 469Q1436 165 1694-2L1525-152Q1353-30 1269 162Q1180-23 1002-158L901-78Q775-118 550-118L265-118L265 393L645 393L645 519L265 519L265 715L875 715L875 206L503 206L503 78L618 78Q795 78 917 124L917 66Z"  horiz-adv-x="1738" vert-adv-y="2048"  />

      
      <glyph glyph-name="uniAC0D" unicode="&#xAC0D;" d="M766 1397Q666 1391 563 1391L153 1391L153 1588Q153 1588 668 1588Q887 1588 1056 1592Q1036 1277 803 1050Q563 824 159 734L30 918Q361 982 548 1117Q735 1252 766 1397M1727 1088L1452 1088L1452 783L1204 783L1204 1672L1452 1672L1452 1302L1727 1302L1727 1088M892 715L1456 715L1456 522L1123 522L1123 391L1452 391L1452 208L1123 208L1123 76L1475 76L1475-118L892-118L892 715M853-74Q708-118 485-118L235-118L235 393L581 393L581 519L235 519L235 715L818 715L818 206L475 206L475 78L556 78Q730 78 853 124L853-74Z"  horiz-adv-x="1738" vert-adv-y="2048"  />

      
      <glyph glyph-name="uniAC0E" unicode="&#xAC0E;" d="M766 1397Q666 1391 563 1391L153 1391L153 1588Q153 1588 668 1588Q887 1588 1056 1592Q1036 1277 803 1050Q563 824 159 734L30 918Q361 982 548 1117Q735 1252 766 1397M1727 1088L1452 1088L1452 783L1204 783L1204 1672L1452 1672L1452 1302L1727 1302L1727 1088M1503 715L1503 519L1417 519L1413 74L1518 74L1518-118L867-118L867 74L958 74L958 524L867 524L867 715L1503 715M1223 526L1153 526L1153 72L1220 72L1223 526M836-74Q691-118 468-118L214-118L214 393L576 393L576 519L214 519L214 715L806 715L806 206L451 206L451 78L538 78Q713 78 836 124L836-74Z"  horiz-adv-x="1738" vert-adv-y="2048"  />

      
      <glyph glyph-name="uniAC0F" unicode="&#xAC0F;" d="M766 1397Q666 1391 563 1391L153 1391L153 1588Q153 1588 668 1588Q887 1588 1056 1592Q1036 1277 803 1050Q563 824 159 734L30 918Q361 982 548 1117Q735 1252 766 1397M1727 1088L1452 1088L1452 783L1204 783L1204 1672L1452 1672L1452 1302L1727 1302L1727 1088M872-74Q730-118 499-118L247-118L247 393L581 393L581 519L247 519L247 715L818 715L818 206L488 206L488 78L578 78Q728 78 872 123L872-74M860 335L860 494L1561 494L1561 335L860 335M981 554L981 724L1436 724L1436 554L981 554M901 78.50Q901 78.50 901 132.75Q901 187 986 245Q1071 303 1208 303Q1345 303 1430.50 245Q1516 187 1516 78.50Q1516-30 1424.50-89.50Q1333-149 1209-149Q1085-149 993-89.50Q901-30 901 78.50M1112 78.50Q1112 78.50 1112 62.75Q1112 47 1139.50 28Q1167 9 1207.50 9Q1248 9 1276.50 28Q1305 47 1305 78.50Q1305 110 1278.50 130Q1252 150 1207.50 150Q1163 150 1137.50 130Q1112 110 1112 78.50Z"  horiz-adv-x="1738" vert-adv-y="2048"  />

      
      <glyph glyph-name="uniAC18" unicode="&#xAC18;" d="M759 1389Q657 1383 556 1383L153 1383L153 1588Q153 1588 662 1588Q878 1588 1047 1592Q1025 1247 797.50 999Q570 751 167 637L28 822Q357 908 542 1061.50Q727 1215 759 1389M1727 1023L1452 1023L1452 647L1204 647L1204 1672L1452 1672L1452 1235L1727 1235L1727 1023M708 251Q1000 251 1202 276L1202 375L295 375L295 578L1452 578L1452-143L1202-143L1202 90Q998 55 677 55L276 55L276 251L708 251Z"  horiz-adv-x="1737" vert-adv-y="2048"  />

      
      <glyph glyph-name="uniAC1E" unicode="&#xAC1E;" d="M609 1380Q492 1376 294 1376L148 1376L148 1578Q148 1578 552 1578Q720 1578 869 1583Q863 1250 681.50 1003Q500 756 167 626L20 806Q296 899 442.50 1056Q589 1213 609 1380M1575 631L1339 631L1339 1062L1201 1062L1201 631L967 631L967 1652L1201 1652L1201 1268L1339 1268L1339 1672L1575 1672L1575 631M1326-141L1326 354L955 354L955 560L1574 560L1574-141L1326-141M676-141L676 354L311 354L311 560L924 560L924-141L676-141Z"  horiz-adv-x="1746" vert-adv-y="2048"  />

      
      <glyph glyph-name="uniAC1F" unicode="&#xAC1F;" d="M607 1380Q491 1376 293 1376L147 1376L147 1578Q147 1578 551 1578Q718 1578 868 1583Q863 1250 681.50 1003Q500 756 166 626L19 806Q295 899 441 1056Q587 1213 607 1380M1575 631L1339 631L1339 1062L1201 1062L1201 631L966 631L966 1652L1201 1652L1201 1268L1339 1268L1339 1672L1575 1672L1575 631M1583-148Q1401-53 1301 90Q1203-55 1014-160L942-81L942-136L697-136L697 354L280 354L280 560L942 560L942 58Q1091 146 1146 264.50Q1201 383 1195 580L1433 580Q1436 448 1408 328Q1459 223 1541.50 152.50Q1624 82 1743 25L1583-148Z"  horiz-adv-x="1737" vert-adv-y="2048"  />

      
      <glyph glyph-name="uniAC21" unicode="&#xAC21;" d="M606 1380Q491 1376 292 1376L147 1376L147 1578Q147 1578 550 1578Q718 1578 868 1583Q862 1250 680.50 1003Q499 756 166 626L18 806Q294 899 440.50 1056Q587 1213 606 1380M1574 631L1338 631L1338 1062L1200 1062L1200 631L965 631L965 1652L1200 1652L1200 1268L1338 1268L1338 1672L1574 1672L1574 631M868-68Q675-110 433-110L278-110L278 580L530 580L530 98L551 98Q726 98 891 147L891 70Q1052 142 1151.50 224.50Q1251 307 1278 361Q1240 357 1187 357L934 357L934 560L1302 560Q1457 560 1567 564Q1567 384 1422 205Q1543 107 1733 35L1594-142Q1398-59 1272 55Q1121-66 934-150L868-68Z"  horiz-adv-x="1737" vert-adv-y="2048"  />

      
      <glyph glyph-name="uniAC22" unicode="&#xAC22;" d="M611 1387Q495 1381 299 1381L147 1381L147 1578Q147 1578 554 1578Q723 1578 874 1583Q864 1260 679.50 1031.50Q495 803 159 685L19 865Q291 943 440.50 1085Q590 1227 611 1387M1575 748L1338 748L1338 1077L1200 1077L1200 748L966 748L966 1652L1200 1652L1200 1282L1338 1282L1338 1672L1575 1672L1575 748M872-64Q716-112 474-112L283-112L283 589L527 589L527 87L567 87Q711 87 872 134L872-64M839 301L839 459L1612 459L1612 301L839 301M1010 519L1010 685L1455 685L1455 519L1010 519M1556 61Q1556 61 1556 12.50Q1556-36 1463.50-94.50Q1371-153 1231.50-153Q1092-153 1002.50-94.50Q913-36 913 61Q913 158 996.50 216Q1080 274 1231 274Q1382 274 1469 216Q1556 158 1556 61M1122 64.50Q1122 64.50 1122 50.75Q1122 37 1150.50 18.50Q1179 0 1232 0Q1285 0 1314.50 18.50Q1344 37 1344 64.50Q1344 92 1315 109Q1286 126 1232 126Q1178 126 1150 109Q1122 92 1122 64.50Z"  horiz-adv-x="1743" vert-adv-y="2048"  />

      
      <glyph glyph-name="uniAC23" unicode="&#xAC23;" d="M608 1380Q491 1376 293 1376L147 1376L147 1578Q147 1578 551 1578Q718 1578 868 1583Q862 1250 680.50 1003Q499 756 166 626L19 806Q295 899 441.50 1056Q588 1213 608 1380M1575 631L1338 631L1338 1062L1200 1062L1200 631L966 631L966 1652L1200 1652L1200 1268L1338 1268L1338 1672L1575 1672L1575 631M395-110L395 560L1578 560L1578 352L644 352L644 96L1610 96L1610-110L395-110Z"  horiz-adv-x="1743" vert-adv-y="2048"  />

      
      <glyph glyph-name="uniAC25" unicode="&#xAC25;" d="M614 1389Q497 1383 302 1383L148 1383L148 1578Q148 1578 557 1578Q727 1578 877 1583Q865 1264 679 1048Q493 832 156 724L20 904Q288 975 439 1106Q590 1237 614 1389M1575 770L1339 770L1339 1114L1201 1114L1201 770L967 770L967 1652L1201 1652L1201 1317L1339 1317L1339 1672L1575 1672L1575 770M1333-138L1333 511L984 511L984 705L1575 705L1575-138L1333-138M1065-74Q921-118 698-118L325-118L325 379L705 379L705 511L325 511L325 705L947 705L947 202L565 202L565 67L767 67Q943 67 1065 111L1065-74Z"  horiz-adv-x="1746" vert-adv-y="2048"  />

      
      <glyph glyph-name="uniAC26" unicode="&#xAC26;" d="M614 1389Q497 1383 302 1383L148 1383L148 1578Q148 1578 557 1578Q727 1578 877 1583Q865 1264 679 1048Q493 832 156 724L20 904Q288 975 439 1106Q590 1237 614 1389M1575 770L1339 770L1339 1114L1201 1114L1201 770L967 770L967 1652L1201 1652L1201 1317L1339 1317L1339 1672L1575 1672L1575 770M990 705L1575 705L1575-118L990-118L990 705M1213 519L1213 59L1341 59L1341 519L1213 519M959-74Q817-118 591-118L332-118L332 383L687 383L687 509L332 509L332 705L916 705L916 202L571 202L571 69L661 69Q836 69 959 113L959-74Z"  horiz-adv-x="1746" vert-adv-y="2048"  />

      
      <glyph glyph-name="uniAC27" unicode="&#xAC27;" d="M614 1389Q497 1383 302 1383L148 1383L148 1578Q148 1578 557 1578Q727 1578 877 1583Q865 1264 679 1048Q493 832 156 724L20 904Q288 975 439 1106Q590 1237 614 1389M1575 770L1339 770L1339 1114L1201 1114L1201 770L967 770L967 1652L1201 1652L1201 1317L1339 1317L1339 1672L1575 1672L1575 770M969 696L1193 696L1193 435L1341 435L1341 705L1575 705L1575-118L969-118L969 696M1193 253L1193 65L1341 65L1341 253L1193 253M937-74Q795-118 570-118L309-118L309 381L658 381L658 502L309 502L309 696L889 696L889 200L545 200L545 76L640 76Q815 76 937 121L937-74Z"  horiz-adv-x="1746" vert-adv-y="2048"  />

      
      <glyph glyph-name="uniAC28" unicode="&#xAC28;" d="M612 1389Q496 1383 299 1383L145 1383L145 1578Q145 1578 555 1578Q725 1578 876 1583Q864 1264 677.50 1048Q491 832 154 724L18 904Q286 975 437 1106Q588 1237 612 1389M1574 770L1338 770L1338 1114L1200 1114L1200 770L964 770L964 1652L1200 1652L1200 1317L1338 1317L1338 1672L1574 1672L1574 770M979 48Q1277 269 1226 705L1469 705Q1469 563 1452 458Q1519 158 1776-2L1608-152Q1434-28 1351 154Q1261-28 1084-158L979-75L979-74Q838-118 612-118L299-118L299 381L709 381L709 502L299 502L299 696L938 696L938 200L538 200L538 76L682 76Q858 76 979 121L979 48Z"  horiz-adv-x="1733" vert-adv-y="2048"  />

      
      <glyph glyph-name="uniAC29" unicode="&#xAC29;" d="M614 1389Q497 1383 301 1383L147 1383L147 1578Q147 1578 557 1578Q726 1578 877 1583Q864 1264 678 1048Q492 832 156 724L19 904Q288 975 439 1106Q590 1237 614 1389M1575 770L1338 770L1338 1114L1201 1114L1201 770L966 770L966 1652L1201 1652L1201 1317L1338 1317L1338 1672L1575 1672L1575 770M990 696L1579 696L1579 504L1220 504L1220 379L1575 379L1575 202L1220 202L1220 74L1598 74L1598-118L990-118L990 696M950-74Q808-118 582-118L311-118L311 381L679 381L679 502L311 502L311 696L916 696L916 200L548 200L548 76L653 76Q828 76 950 121L950-74Z"  horiz-adv-x="1744" vert-adv-y="2048"  />

      
      <glyph glyph-name="uniAC2A" unicode="&#xAC2A;" d="M614 1389Q497 1383 300 1383L147 1383L147 1578Q147 1578 557 1578Q726 1578 877 1583Q864 1264 678 1048Q492 832 156 724L19 904Q287 975 438.50 1106Q590 1237 614 1389M1575 770L1338 770L1338 1114L1201 1114L1201 770L966 770L966 1652L1201 1652L1201 1317L1338 1317L1338 1672L1575 1672L1575 770M1625 696L1625 502L1540 502L1536 72L1640 72L1640-118L964-118L964 72L1055 72L1055 506L964 506L964 696L1625 696M1346 507L1251 507L1251 71L1342 71L1346 507M933-74Q790-118 565-118L288-118L288 381L673 381L673 502L288 502L288 696L903 696L903 200L525 200L525 76L635 76Q810 76 933 121L933-74Z"  horiz-adv-x="1742" vert-adv-y="2048"  />

      
      <glyph glyph-name="uniAC2B" unicode="&#xAC2B;" d="M614 1389Q497 1383 300 1383L147 1383L147 1578Q147 1578 557 1578Q726 1578 877 1583Q864 1264 678 1048Q492 832 156 724L19 904Q287 975 438.50 1106Q590 1237 614 1389M1575 770L1338 770L1338 1114L1201 1114L1201 770L966 770L966 1652L1201 1652L1201 1317L1338 1317L1338 1672L1575 1672L1575 770M962-74Q820-118 589-118L308-118L308 381L660 381L660 502L308 502L308 696L898 696L898 200L548 200L548 76L668 76Q818 76 962 121L962-74M951 323L951 480L1670 480L1670 323L951 323M1080 537L1080 705L1536 705L1536 537L1080 537M1001 73Q1001 73 1001 126.50Q1001 180 1085.50 237Q1170 294 1307 294Q1444 294 1530 237Q1616 180 1616 73Q1616-34 1524.50-91.50Q1433-149 1309-149Q1185-149 1093-91.50Q1001-34 1001 73M1212 73Q1212 73 1212 57Q1212 41 1239.50 22.50Q1267 4 1307.50 4Q1348 4 1376.50 22.50Q1405 41 1405 73Q1405 105 1378.50 124Q1352 143 1307.50 143Q1263 143 1237.50 124Q1212 105 1212 73Z"  horiz-adv-x="1740" vert-adv-y="2048"  />

      
      <glyph glyph-name="uniAC2E" unicode="&#xAC2E;" d="M610 1387Q494 1381 298 1381L147 1381L147 1578Q147 1578 553 1578Q723 1578 874 1583Q864 1260 679.50 1031.50Q495 803 158 685L18 865Q290 943 439 1085Q588 1227 610 1387M1574 716L1338 716L1338 1077L1200 1077L1200 716L964 716L964 1652L1200 1652L1200 1282L1338 1282L1338 1672L1574 1672L1574 716M1606-137Q1434-33 1349 121Q1257-33 1081-142L999-75L999-110L313-110L313 627L545 627L545 439L774 439L774 637L999 637L999 72Q1148 168 1202 307.50Q1256 447 1240 646L1471 646Q1471 514 1455 410Q1519 170 1775 26L1606-137M780 61L780 257L544 257L544 61L780 61Z"  horiz-adv-x="1734" vert-adv-y="2048"  />

      
      <glyph glyph-name="uniAC32" unicode="&#xAC32;" d="M609 1383Q493 1378 295 1378L147 1378L147 1578Q147 1578 551 1578Q720 1578 871 1583Q864 1254 681 1012Q498 770 163 646L19 825Q293 914 440 1065.50Q587 1217 609 1383M1575 649L1338 649L1338 1068L1201 1068L1201 649L966 649L966 1652L1201 1652L1201 1274L1338 1274L1338 1672L1575 1672L1575 649M1158 382Q1022 375 755 375L388 375L388 580L1090 580Q1361 580 1489 583Q1557 583 1529 499Q1475 338 1220 189Q1433 106 1746 48L1611-138Q1270-60 996 76Q726-47 333-142L207 44Q604 125 847 221Q1090 317 1158 382Z"  horiz-adv-x="1737" vert-adv-y="2048"  />

      
      <glyph glyph-name="uniAC33" unicode="&#xAC33;" d="M613 1389Q497 1383 300 1383L147 1383L147 1578Q147 1578 557 1578Q726 1578 877 1583Q864 1264 678 1048Q492 832 156 724L19 904Q287 975 438.50 1106Q590 1237 613 1389M1575 662L1338 662L1338 1085L1201 1085L1201 807L966 807L966 1652L1201 1652L1201 1291L1338 1291L1338 1672L1575 1672L1575 662M1084 278Q954 270 685 270L384 270L384 453L1037 453Q1293 453 1420 457Q1448 457 1461 438.50Q1474 420 1462 382Q1408 252 1209 145Q1405 86 1714 49L1601-138Q1253-77 973 35Q684-77 324-139L206 46Q568 98 796 166.50Q1024 235 1084 278M597 726L1196 726L1196 539L597 539L597 726Z"  horiz-adv-x="1738" vert-adv-y="2048"  />

      
      <glyph glyph-name="uniAC34" unicode="&#xAC34;" d="M609 1380Q492 1376 294 1376L148 1376L148 1578Q148 1578 552 1578Q720 1578 869 1583Q863 1250 681.50 1003Q500 756 167 626L20 806Q296 899 442.50 1056Q589 1213 609 1380M1575 631L1339 631L1339 1062L1201 1062L1201 631L967 631L967 1652L1201 1652L1201 1268L1339 1268L1339 1672L1575 1672L1575 631M832 235Q1124 235 1326 260L1326 357L370 357L370 558L1575 558L1575-143L1326-143L1326 78Q1121 44 800 44L352 44L352 235L832 235Z"  horiz-adv-x="1746" vert-adv-y="2048"  />

      
      <glyph glyph-name="uniAC35" unicode="&#xAC35;" d="M613 1389Q496 1383 301 1383L147 1383L147 1578Q147 1578 556 1578Q725 1578 876 1583Q864 1264 678 1048Q492 832 155 724L19 904Q287 975 438.50 1106Q590 1237 613 1389M1575 770L1338 770L1338 1114L1200 1114L1200 770L966 770L966 1652L1200 1652L1200 1317L1338 1317L1338 1672L1575 1672L1575 770M638 203L638 82L1612 82L1612-110L389-110L389 696L1578 696L1578 502L638 502L638 385L1575 385L1575 203L638 203Z"  horiz-adv-x="1743" vert-adv-y="2048"  />

      
      <glyph glyph-name="uniAC36" unicode="&#xAC36;" d="M612 1387Q495 1381 300 1381L148 1381L148 1578Q148 1578 555 1578Q724 1578 875 1583Q865 1260 680.50 1031.50Q496 803 160 685L19 865Q292 943 441 1085Q590 1227 612 1387M1575 686L1339 686L1339 1068L1201 1068L1201 686L967 686L967 1652L1201 1652L1201 1274L1339 1274L1339 1672L1575 1672L1575 686M1618-110L325-110L325 89L550 89L544 401L345 401L345 599L1591 599L1591 401L1385 401L1380 89L1618 89L1618-110M1135 89L1138 401L789 401L793 89L1135 89Z"  horiz-adv-x="1743" vert-adv-y="2048"  />

      
      <glyph glyph-name="uniAC37" unicode="&#xAC37;" d="M614 1389Q497 1383 301 1383L147 1383L147 1578Q147 1578 557 1578Q726 1578 877 1583Q864 1264 678 1048Q492 832 156 724L19 904Q288 975 439 1106Q590 1237 614 1389M1575 662L1338 662L1338 1085L1201 1085L1201 807L966 807L966 1652L1201 1652L1201 1291L1338 1291L1338 1672L1575 1672L1575 662M244 346L244 507L1598 507L1598 346L244 346M572 564L572 734L1231 734L1231 564L572 564M1498 84Q1498 84 1498 28Q1498-28 1352-89.50Q1206-151 941.50-151Q677-151 531.50-89.50Q386-28 386 84Q386 196 530.50 256.50Q675 317 941.50 317Q1208 317 1353 256.50Q1498 196 1498 84M942 9Q942 9 1090 9Q1238 9 1238 86Q1238 163 906 163Q781 163 725 143.50Q669 124 657.50 110.50Q646 97 646 86Q646 9 942 9Z"  horiz-adv-x="1744" vert-adv-y="2048"  />

      
      <glyph glyph-name="uniAC3A" unicode="&#xAC3A;" d="M758 1389Q656 1383 555 1383L152 1383L152 1588Q152 1588 661 1588Q877 1588 1046 1592Q1024 1247 796.50 999Q569 751 166 637L28 822Q356 908 541.50 1061.50Q727 1215 758 1389M1451 1416L1719 1416L1719 1208L1449 1208L1449 1074L1719 1074L1719 865L1451 865L1451 647L1203 647L1203 1672L1451 1672L1451 1416M1202-141L1202 372L881 372L881 580L1451 580L1451-141L1202-141M602-141L602 372L233 372L233 580L850 580L850-141L602-141Z"  horiz-adv-x="1738" vert-adv-y="2048"  />

      
      <glyph glyph-name="uniAC3B" unicode="&#xAC3B;" d="M758 1389Q656 1383 555 1383L152 1383L152 1588Q152 1588 661 1588Q877 1588 1046 1592Q1024 1247 796.50 999Q569 751 166 637L28 822Q356 908 541.50 1061.50Q727 1215 758 1389M1451 1416L1719 1416L1719 1208L1449 1208L1449 1074L1719 1074L1719 865L1451 865L1451 647L1203 647L1203 1672L1451 1672L1451 1416M1506-150Q1321-43 1223 98Q1124-54 938-162L881-99L881-136L636-136L636 374L231 374L231 580L881 580L881 69Q1021 157 1072.50 279.50Q1124 402 1118 599L1356 599Q1361 466 1332 342Q1429 138 1666 25L1506-150Z"  horiz-adv-x="1738" vert-adv-y="2048"  />

      
      <glyph glyph-name="uniAC3D" unicode="&#xAC3D;" d="M758 1389Q656 1383 555 1383L152 1383L152 1588Q152 1588 661 1588Q877 1588 1046 1592Q1024 1247 796.50 999Q569 751 166 637L28 822Q356 908 541.50 1061.50Q727 1215 758 1389M1451 1416L1719 1416L1719 1208L1449 1208L1449 1074L1719 1074L1719 865L1451 865L1451 647L1203 647L1203 1672L1451 1672L1451 1416M795-76Q628-110 393-110L238-110L238 599L491 599L491 98L512 98Q687 98 852 147L852 91Q998 166 1087.50 248.50Q1177 331 1201 380Q1162 377 1108 377L856 377L856 580L1223 580Q1379 580 1488 583Q1488 400 1343 218Q1459 119 1657 36L1514-142Q1334-66 1192 64Q1041-66 858-150L795-76Z"  horiz-adv-x="1738" vert-adv-y="2048"  />

      
      <glyph glyph-name="uniAC3E" unicode="&#xAC3E;" d="M763 1393Q662 1387 560 1387L153 1387L153 1588Q153 1588 666 1588Q883 1588 1053 1592Q1033 1265 801.50 1030Q570 795 163 695L30 878Q359 954 545 1095.50Q731 1237 763 1393M1452 1429L1720 1429L1720 1222L1451 1222L1451 1128L1720 1128L1720 921L1452 921L1452 757L1205 757L1205 1672L1452 1672L1452 1429M838-64Q682-112 439-112L261-112L261 607L505 607L505 89L532 89Q676 89 838 136L838-64M789 313L789 472L1561 472L1561 313L789 313M960 535L960 705L1405 705L1405 535L960 535M1507 66Q1507 66 1507 16Q1507-34 1414-93.50Q1321-153 1180.50-153Q1040-153 951.50-93.50Q863-34 863 66Q863 166 946 224.50Q1029 283 1180 283Q1331 283 1419 224.50Q1507 166 1507 66M1182 4Q1235 4 1264.50 22.50Q1294 41 1294 68.50Q1294 96 1264.50 113.50Q1235 131 1182 131Q1129 131 1100.50 113.50Q1072 96 1072 68.50Q1072 41 1100.50 22.50Q1129 4 1182 4Z"  horiz-adv-x="1738" vert-adv-y="2048"  />

      
      <glyph glyph-name="uniAC3F" unicode="&#xAC3F;" d="M758 1389Q656 1383 555 1383L152 1383L152 1588Q152 1588 661 1588Q877 1588 1046 1592Q1024 1247 796.50 999Q569 751 166 637L28 822Q356 908 541.50 1061.50Q727 1215 758 1389M1451 1416L1719 1416L1719 1208L1449 1208L1449 1074L1719 1074L1719 865L1451 865L1451 647L1203 647L1203 1672L1451 1672L1451 1416M318-110L318 580L1455 580L1455 370L567 370L567 98L1485 98L1485-110L318-110Z"  horiz-adv-x="1738" vert-adv-y="2048"  />

      
      <glyph glyph-name="uniAC41" unicode="&#xAC41;" d="M767 1397Q666 1391 563 1391L153 1391L153 1588Q153 1588 668 1588Q887 1588 1056 1592Q1036 1277 803 1050Q563 824 160 734L30 918Q361 982 548 1117Q735 1252 767 1397M1452 1454L1720 1454L1720 1245L1451 1245L1451 1161L1720 1161L1720 954L1452 954L1452 783L1205 783L1205 1672L1452 1672L1452 1454M1210-138L1210 529L886 529L886 724L1452 724L1452-138L1210-138M968-74Q826-118 600-118L249-118L249 391L607 391L607 529L249 529L249 724L849 724L849 208L490 208L490 69L670 69Q845 69 968 113L968-74Z"  horiz-adv-x="1738" vert-adv-y="2048"  />

      
      <glyph glyph-name="uniAC42" unicode="&#xAC42;" d="M767 1397Q666 1391 563 1391L153 1391L153 1588Q153 1588 668 1588Q887 1588 1056 1592Q1036 1277 803 1050Q563 824 160 734L30 918Q361 982 548 1117Q735 1252 767 1397M1452 1454L1720 1454L1720 1245L1451 1245L1451 1161L1720 1161L1720 954L1452 954L1452 783L1205 783L1205 1672L1452 1672L1452 1454M883 724L1452 724L1452-118L883-118L883 724M1105 537L1105 61L1218 61L1218 537L1105 537M851-74Q707-118 484-118L238-118L238 394L580 394L580 527L238 527L238 724L808 724L808 208L477 208L477 71L554 71Q729 71 851 115L851-74Z"  horiz-adv-x="1738" vert-adv-y="2048"  />

      
      <glyph glyph-name="uniAC43" unicode="&#xAC43;" d="M767 1397Q666 1391 563 1391L153 1391L153 1588Q153 1588 668 1588Q887 1588 1056 1592Q1036 1277 803 1050Q563 824 160 734L30 918Q361 982 548 1117Q735 1252 767 1397M1452 1454L1720 1454L1720 1245L1451 1245L1451 1161L1720 1161L1720 954L1452 954L1452 783L1205 783L1205 1672L1452 1672L1452 1454M871 715L1095 715L1095 445L1218 445L1218 724L1452 724L1452-118L871-118L871 715M1095 260L1095 67L1218 67L1218 260L1095 260M840-74Q695-118 472-118L234-118L234 393L561 393L561 519L234 519L234 715L790 715L790 206L471 206L471 78L542 78Q717 78 840 124L840-74Z"  horiz-adv-x="1738" vert-adv-y="2048"  />

      
      <glyph glyph-name="uniAC44" unicode="&#xAC44;" d="M767 1397Q666 1391 563 1391L153 1391L153 1588Q153 1588 668 1588Q887 1588 1056 1592Q1036 1277 803 1050Q563 824 160 734L30 918Q361 982 548 1117Q735 1252 767 1397M1452 1454L1720 1454L1720 1245L1451 1245L1451 1161L1720 1161L1720 954L1452 954L1452 783L1205 783L1205 1672L1452 1672L1452 1454M918 66Q1194 295 1144 724L1387 724Q1387 574 1370 469Q1436 165 1695-2L1526-152Q1354-30 1269 162Q1180-23 1002-158L902-78Q775-118 550-118L265-118L265 393L645 393L645 519L265 519L265 715L875 715L875 206L504 206L504 78L618 78Q795 78 918 124L918 66Z"  horiz-adv-x="1738" vert-adv-y="2048"  />

      
      <glyph glyph-name="uniAC45" unicode="&#xAC45;" d="M767 1397Q666 1391 563 1391L153 1391L153 1588Q153 1588 668 1588Q887 1588 1056 1592Q1036 1277 803 1050Q563 824 160 734L30 918Q361 982 548 1117Q735 1252 767 1397M1452 1454L1720 1454L1720 1245L1451 1245L1451 1161L1720 1161L1720 954L1452 954L1452 783L1205 783L1205 1672L1452 1672L1452 1454M892 715L1456 715L1456 522L1123 522L1123 391L1452 391L1452 208L1123 208L1123 76L1475 76L1475-118L892-118L892 715M853-74Q709-118 485-118L236-118L236 393L581 393L581 519L236 519L236 715L818 715L818 206L475 206L475 78L556 78Q731 78 853 124L853-74Z"  horiz-adv-x="1738" vert-adv-y="2048"  />

      
      <glyph glyph-name="uniAC46" unicode="&#xAC46;" d="M767 1397Q666 1391 563 1391L153 1391L153 1588Q153 1588 668 1588Q887 1588 1056 1592Q1036 1277 803 1050Q563 824 160 734L30 918Q361 982 548 1117Q735 1252 767 1397M1452 1454L1720 1454L1720 1245L1451 1245L1451 1161L1720 1161L1720 954L1452 954L1452 783L1205 783L1205 1672L1452 1672L1452 1454M1503 715L1503 519L1417 519L1413 74L1518 74L1518-118L867-118L867 74L959 74L959 524L867 524L867 715L1503 715M1224 526L1153 526L1153 72L1220 72L1224 526M836-74Q692-118 468-118L214-118L214 393L576 393L576 519L214 519L214 715L807 715L807 206L451 206L451 78L538 78Q713 78 836 124L836-74Z"  horiz-adv-x="1738" vert-adv-y="2048"  />

      
      <glyph glyph-name="uniAC47" unicode="&#xAC47;" d="M767 1397Q666 1391 563 1391L153 1391L153 1588Q153 1588 668 1588Q887 1588 1056 1592Q1036 1277 803 1050Q563 824 160 734L30 918Q361 982 548 1117Q735 1252 767 1397M1452 1454L1720 1454L1720 1245L1451 1245L1451 1161L1720 1161L1720 954L1452 954L1452 783L1205 783L1205 1672L1452 1672L1452 1454M872-74Q731-118 499-118L247-118L247 393L581 393L581 519L247 519L247 715L818 715L818 206L488 206L488 78L579 78Q729 78 872 123L872-74M861 335L861 494L1561 494L1561 335L861 335M981 554L981 724L1436 724L1436 554L981 554M902 78.50Q902 78.50 902 132.75Q902 187 987 245Q1072 303 1208.50 303Q1345 303 1430.50 245Q1516 187 1516 78.50Q1516-30 1424.50-89.50Q1333-149 1209-149Q1085-149 993.50-89.50Q902-30 902 78.50M1112 78.50Q1112 78.50 1112 62.75Q1112 47 1139.50 28Q1167 9 1207.50 9Q1248 9 1276.50 28Q1305 47 1305 78.50Q1305 110 1278.50 130Q1252 150 1208 150Q1164 150 1138 130Q1112 110 1112 78.50Z"  horiz-adv-x="1738" vert-adv-y="2048"  />

      
      <glyph glyph-name="uniAC48" unicode="&#xAC48;" d="M760 1391Q658 1385 557 1385L152 1385L152 1588Q152 1588 661 1588Q879 1588 1048 1592Q1026 1253 797.50 1009.50Q569 766 164 656L28 841Q356 924 542.50 1073.50Q729 1223 760 1391M1451 1416L1719 1416L1719 1208L1449 1208L1449 1083L1719 1083L1719 874L1451 874L1451 664L1203 664L1203 1672L1451 1672L1451 1416M1451-110L320-110L320 599L1451 599L1451-110M1203 389L569 389L569 94L1203 94L1203 389Z"  horiz-adv-x="1738" vert-adv-y="2048"  />

      
      <glyph glyph-name="uniAC49" unicode="&#xAC49;" d="M763 1393Q662 1387 560 1387L153 1387L153 1588Q153 1588 666 1588Q883 1588 1053 1592Q1033 1265 801.50 1030Q570 795 163 695L30 878Q359 954 545 1095.50Q731 1237 763 1393M1452 1418L1720 1418L1720 1210L1451 1210L1451 1118L1720 1118L1720 909L1452 909L1452 733L1205 733L1205 1672L1452 1672L1452 1418M1452-110L321-110L321 657L572 657L572 469L1206 469L1206 666L1452 666L1452-110M1206 90L1206 268L570 268L570 90L1206 90Z"  horiz-adv-x="1738" vert-adv-y="2048"  />

      
      <glyph glyph-name="uniAC4A" unicode="&#xAC4A;" d="M763 1393Q662 1387 560 1387L153 1387L153 1588Q153 1588 666 1588Q883 1588 1053 1592Q1033 1265 801.50 1030Q570 795 163 695L30 878Q359 954 545 1095.50Q731 1237 763 1393M1452 1418L1720 1418L1720 1210L1451 1210L1451 1118L1720 1118L1720 909L1452 909L1452 733L1205 733L1205 1672L1452 1672L1452 1418M1481-137Q1311-27 1226 125Q1145-17 961-142L907-100L907-110L239-110L239 646L473 646L473 453L682 453L682 657L907 657L907 94Q1038 191 1086 330.50Q1134 470 1118 666L1350 666Q1350 529 1335 421Q1398 178 1654 26L1481-137M688 67L688 268L471 268L471 67L688 67Z"  horiz-adv-x="1738" vert-adv-y="2048"  />

      
      <glyph glyph-name="uniAC4C" unicode="&#xAC4C;" d="M760 1391Q658 1385 557 1385L152 1385L152 1588Q152 1588 661 1588Q879 1588 1048 1592Q1026 1253 797.50 1009.50Q569 766 164 656L28 841Q356 924 542.50 1073.50Q729 1223 760 1391M1451 1416L1719 1416L1719 1208L1449 1208L1449 1083L1719 1083L1719 874L1451 874L1451 664L1203 664L1203 1672L1451 1672L1451 1416M1312 607Q1312 500 1287 396Q1333 266 1422 187.50Q1511 109 1660 40L1506-135Q1295-43 1186 147Q1077-37 890-142Q721-37 611 145Q494-37 275-142L112 27Q302 120 399.50 250.50Q497 381 487 599L739 599Q735 472 709 369Q771 222 898 142Q1083 306 1063 607L1312 607Z"  horiz-adv-x="1738" vert-adv-y="2048"  />

      
      <glyph glyph-name="uniAC4E" unicode="&#xAC4E;" d="M760 1391Q658 1385 557 1385L152 1385L152 1588Q152 1588 661 1588Q879 1588 1048 1592Q1026 1253 797.50 1009.50Q569 766 164 656L28 841Q356 924 542.50 1073.50Q729 1223 760 1391M1451 1416L1719 1416L1719 1208L1449 1208L1449 1083L1719 1083L1719 874L1451 874L1451 664L1203 664L1203 1672L1451 1672L1451 1416M1066 400Q931 393 662 393L346 393L346 599L1010 599Q1266 599 1394 601Q1463 601 1435 517Q1381 354 1133 195Q1350 109 1651 50L1515-138Q1182-60 918 76Q633-63 299-142L172 46Q545 123 772.50 226.50Q1000 330 1066 400Z"  horiz-adv-x="1738" vert-adv-y="2048"  />

      
      <glyph glyph-name="uniAC4F" unicode="&#xAC4F;" d="M767 1397Q666 1391 563 1391L153 1391L153 1588Q153 1588 668 1588Q887 1588 1056 1592Q1036 1277 803 1050Q563 824 160 734L30 918Q361 982 548 1117Q735 1252 767 1397M1452 1416L1720 1416L1720 1208L1451 1208L1451 1111L1720 1111L1720 902L1452 902L1452 701L1205 701L1205 1672L1452 1672L1452 1416M1026 287Q895 280 627 280L345 280L345 467L985 467Q1234 467 1363 470Q1391 470 1403 451.50Q1415 433 1404 396Q1351 264 1149 146Q1362 86 1637 51L1522-138Q1177-77 910 32Q632-77 287-139L167 48Q529 102 749 173Q969 244 1026 287M559 744L1138 744L1138 554L559 554L559 744Z"  horiz-adv-x="1738" vert-adv-y="2048"  />

      
      <glyph glyph-name="uniAC50" unicode="&#xAC50;" d="M758 1389Q656 1383 555 1383L152 1383L152 1588Q152 1588 661 1588Q877 1588 1046 1592Q1024 1247 796.50 999Q569 751 166 637L28 822Q356 908 541.50 1061.50Q727 1215 758 1389M1451 1416L1719 1416L1719 1208L1449 1208L1449 1074L1719 1074L1719 865L1451 865L1451 647L1203 647L1203 1672L1451 1672L1451 1416M708 251Q1000 251 1202 276L1202 375L294 375L294 578L1451 578L1451-143L1202-143L1202 90Q997 55 676 55L275 55L275 251L708 251Z"  horiz-adv-x="1738" vert-adv-y="2048"  />

      
      <glyph glyph-name="uniAC51" unicode="&#xAC51;" d="M767 1397Q666 1391 563 1391L153 1391L153 1588Q153 1588 668 1588Q887 1588 1056 1592Q1036 1277 803 1050Q563 824 160 734L30 918Q361 982 548 1117Q735 1252 767 1397M1452 1454L1720 1454L1720 1245L1451 1245L1451 1161L1720 1161L1720 954L1452 954L1452 783L1205 783L1205 1672L1452 1672L1452 1454M564 210L564 84L1489 84L1489-110L315-110L315 715L1456 715L1456 519L564 519L564 396L1452 396L1452 210L564 210Z"  horiz-adv-x="1738" vert-adv-y="2048"  />

      
      <glyph glyph-name="uniAC52" unicode="&#xAC52;" d="M763 1393Q662 1387 560 1387L153 1387L153 1588Q153 1588 666 1588Q883 1588 1053 1592Q1033 1265 801.50 1030Q570 795 163 695L30 878Q359 954 545 1095.50Q731 1237 763 1393M1452 1416L1720 1416L1720 1208L1451 1208L1451 1099L1720 1099L1720 892L1452 892L1452 701L1205 701L1205 1672L1452 1672L1452 1416M1527-110L253-110L253 90L477 90L471 420L273 420L273 618L1499 618L1499 420L1294 420L1288 90L1527 90L1527-110M1043 90L1047 420L717 420L721 90L1043 90Z"  horiz-adv-x="1738" vert-adv-y="2048"  />

      
      <glyph glyph-name="uniAC53" unicode="&#xAC53;" d="M767 1397Q666 1391 563 1391L153 1391L153 1588Q153 1588 668 1588Q887 1588 1056 1592Q1036 1277 803 1050Q563 824 160 734L30 918Q361 982 548 1117Q735 1252 767 1397M1452 1416L1720 1416L1720 1208L1451 1208L1451 1111L1720 1111L1720 902L1452 902L1452 701L1205 701L1205 1672L1452 1672L1452 1416M219 357L219 523L1534 523L1534 357L219 357M527 582L527 753L1167 753L1167 582L527 582M1419 89.50Q1419 89.50 1419 32.75Q1419-24 1277.50-87.50Q1136-151 877.50-151Q619-151 476.50-87.50Q334-24 334 89.50Q334 203 476.50 266Q619 329 878.50 329Q1138 329 1278.50 266Q1419 203 1419 89.50M596 91Q596 13 878 13Q1160 13 1160 91Q1160 140 1019 161Q964 170 847.50 170Q731 170 674 150Q617 130 606.50 116.50Q596 103 596 91Z"  horiz-adv-x="1738" vert-adv-y="2048"  />

      
      <glyph glyph-name="uniAC55" unicode="&#xAC55;" d="M609 1380Q492 1376 294 1376L148 1376L148 1578Q148 1578 551 1578Q720 1578 869 1583Q863 1248 683 994.50Q503 741 169 607L20 786Q300 884 444.50 1045.50Q589 1207 609 1380M1343 870L1196 870L1196 612L965 612L965 1652L1196 1652L1196 1415L1343 1415L1343 1672L1577 1672L1577 612L1343 612L1343 870M1345 1227L1195 1227L1195 1058L1345 1058L1345 1227M1328-141L1328 335L361 335L361 541L1574 541L1574-141L1328-141Z"  horiz-adv-x="1745" vert-adv-y="2048"  />

      
      <glyph glyph-name="uniAC56" unicode="&#xAC56;" d="M608 1380Q492 1376 294 1376L148 1376L148 1578Q148 1578 551 1578Q720 1578 869 1583Q863 1250 681.50 1003Q500 756 167 626L20 806Q296 899 442.50 1056Q589 1213 608 1380M1343 900L1196 900L1196 631L965 631L965 1652L1196 1652L1196 1438L1343 1438L1343 1672L1577 1672L1577 631L1343 631L1343 900M1345 1251L1195 1251L1195 1087L1345 1087L1345 1251M1326-141L1326 354L955 354L955 560L1574 560L1574-141L1326-141M676-141L676 354L311 354L311 560L924 560L924-141L676-141Z"  horiz-adv-x="1745" vert-adv-y="2048"  />

      
      <glyph glyph-name="uniAC57" unicode="&#xAC57;" d="M607 1380Q491 1376 293 1376L147 1376L147 1578Q147 1578 551 1578Q718 1578 868 1583Q863 1250 681.50 1003Q500 756 166 626L19 806Q295 899 441 1056Q587 1213 607 1380M1342 900L1196 900L1196 631L964 631L964 1652L1196 1652L1196 1438L1342 1438L1342 1672L1577 1672L1577 631L1342 631L1342 900M1344 1251L1194 1251L1194 1087L1344 1087L1344 1251M1583-148Q1401-53 1301 90Q1203-55 1014-160L942-81L942-136L697-136L697 354L280 354L280 560L942 560L942 58Q1091 146 1146 264.50Q1201 383 1195 580L1433 580Q1436 448 1408 328Q1459 223 1541.50 152.50Q1624 82 1743 25L1583-148Z"  horiz-adv-x="1737" vert-adv-y="2048"  />

      
      <glyph glyph-name="uniAC59" unicode="&#xAC59;" d="M606 1380Q491 1376 292 1376L147 1376L147 1578Q147 1578 550 1578Q718 1578 868 1583Q862 1250 680.50 1003Q499 756 166 626L18 806Q294 899 440.50 1056Q587 1213 606 1380M1342 900L1195 900L1195 631L964 631L964 1652L1195 1652L1195 1438L1342 1438L1342 1672L1576 1672L1576 631L1342 631L1342 900M1344 1251L1193 1251L1193 1087L1344 1087L1344 1251M868-68Q675-110 433-110L278-110L278 580L530 580L530 98L551 98Q726 98 891 147L891 70Q1052 142 1151.50 224.50Q1251 307 1278 361Q1240 357 1187 357L934 357L934 560L1302 560Q1457 560 1567 564Q1567 384 1422 205Q1543 107 1733 35L1594-142Q1398-59 1272 55Q1121-66 934-150L868-68Z"  horiz-adv-x="1737" vert-adv-y="2048"  />

      
      <glyph glyph-name="uniAC5A" unicode="&#xAC5A;" d="M611 1387Q495 1381 299 1381L147 1381L147 1578Q147 1578 554 1578Q723 1578 874 1583Q864 1260 679.50 1031.50Q495 803 159 685L19 865Q291 943 440.50 1085Q590 1227 611 1387M1342 970L1196 970L1196 748L964 748L964 1652L1196 1652L1196 1466L1342 1466L1342 1672L1576 1672L1576 748L1342 748L1342 970M1344 1278L1194 1278L1194 1157L1344 1157L1344 1278M872-64Q716-112 474-112L283-112L283 589L527 589L527 87L567 87Q711 87 872 134L872-64M839 301L839 459L1612 459L1612 301L839 301M1010 519L1010 685L1455 685L1455 519L1010 519M1556 61Q1556 61 1556 12.50Q1556-36 1463.50-94.50Q1371-153 1231.50-153Q1092-153 1002.50-94.50Q913-36 913 61Q913 158 996.50 216Q1080 274 1231 274Q1382 274 1469 216Q1556 158 1556 61M1122 64.50Q1122 64.50 1122 50.75Q1122 37 1150.50 18.50Q1179 0 1232 0Q1285 0 1314.50 18.50Q1344 37 1344 64.50Q1344 92 1315 109Q1286 126 1232 126Q1178 126 1150 109Q1122 92 1122 64.50Z"  horiz-adv-x="1743" vert-adv-y="2048"  />

      
      <glyph glyph-name="uniAC5B" unicode="&#xAC5B;" d="M608 1380Q491 1376 293 1376L147 1376L147 1578Q147 1578 551 1578Q718 1578 868 1583Q862 1250 680.50 1003Q499 756 166 626L19 806Q295 899 441.50 1056Q588 1213 608 1380M1342 900L1196 900L1196 631L964 631L964 1652L1196 1652L1196 1438L1342 1438L1342 1672L1576 1672L1576 631L1342 631L1342 900M1344 1251L1194 1251L1194 1087L1344 1087L1344 1251M395-110L395 560L1578 560L1578 352L644 352L644 96L1610 96L1610-110L395-110Z"  horiz-adv-x="1743" vert-adv-y="2048"  />

      
      <glyph glyph-name="uniAC5D" unicode="&#xAC5D;" d="M614 1389Q497 1383 302 1383L148 1383L148 1578Q148 1578 557 1578Q727 1578 877 1583Q865 1264 679 1048Q493 832 156 724L20 904Q288 975 439 1106Q590 1237 614 1389M1343 970L1196 970L1196 770L965 770L965 1652L1196 1652L1196 1468L1343 1468L1343 1672L1577 1672L1577 770L1343 770L1343 970M1345 1280L1195 1280L1195 1157L1345 1157L1345 1280M1333-138L1333 511L984 511L984 705L1575 705L1575-138L1333-138M1065-74Q921-118 698-118L324-118L324 379L705 379L705 511L324 511L324 705L947 705L947 202L565 202L565 67L767 67Q943 67 1065 111L1065-74Z"  horiz-adv-x="1745" vert-adv-y="2048"  />

      
      <glyph glyph-name="uniAC5E" unicode="&#xAC5E;" d="M614 1389Q497 1383 302 1383L148 1383L148 1578Q148 1578 557 1578Q727 1578 877 1583Q865 1264 679 1048Q493 832 156 724L20 904Q288 975 439 1106Q590 1237 614 1389M1343 970L1196 970L1196 770L965 770L965 1652L1196 1652L1196 1468L1343 1468L1343 1672L1577 1672L1577 770L1343 770L1343 970M1345 1280L1195 1280L1195 1157L1345 1157L1345 1280M990 705L1575 705L1575-118L990-118L990 705M1213 519L1213 59L1341 59L1341 519L1213 519M959-74Q816-118 591-118L332-118L332 383L687 383L687 509L332 509L332 705L916 705L916 202L570 202L570 69L661 69Q836 69 959 113L959-74Z"  horiz-adv-x="1745" vert-adv-y="2048"  />

      
      <glyph glyph-name="uniAC5F" unicode="&#xAC5F;" d="M614 1389Q497 1383 302 1383L148 1383L148 1578Q148 1578 557 1578Q727 1578 877 1583Q865 1264 679 1048Q493 832 156 724L20 904Q288 975 439 1106Q590 1237 614 1389M1343 970L1196 970L1196 770L965 770L965 1652L1196 1652L1196 1468L1343 1468L1343 1672L1577 1672L1577 770L1343 770L1343 970M1345 1280L1195 1280L1195 1157L1345 1157L1345 1280M968 696L1193 696L1193 435L1341 435L1341 705L1575 705L1575-118L968-118L968 696M1193 253L1193 65L1341 65L1341 253L1193 253M937-74Q795-118 570-118L309-118L309 381L658 381L658 502L309 502L309 696L889 696L889 200L545 200L545 76L640 76Q815 76 937 121L937-74Z"  horiz-adv-x="1745" vert-adv-y="2048"  />

      
      <glyph glyph-name="uniAC60" unicode="&#xAC60;" d="M612 1389Q496 1383 299 1383L145 1383L145 1578Q145 1578 555 1578Q725 1578 876 1583Q864 1264 677.50 1048Q491 832 154 724L18 904Q286 975 437 1106Q588 1237 612 1389M1340 970L1195 970L1195 770L962 770L962 1652L1195 1652L1195 1468L1340 1468L1340 1672L1576 1672L1576 770L1340 770L1340 970M1342 1280L1193 1280L1193 1157L1342 1157L1342 1280M979 48Q1277 269 1226 705L1469 705Q1469 563 1452 458Q1519 158 1776-2L1608-152Q1434-28 1351 154Q1261-28 1084-158L979-75L979-74Q838-118 612-118L299-118L299 381L709 381L709 502L299 502L299 696L938 696L938 200L538 200L538 76L682 76Q858 76 979 121L979 48Z"  horiz-adv-x="1733" vert-adv-y="2048"  />

      
      <glyph glyph-name="uniAC61" unicode="&#xAC61;" d="M614 1389Q497 1383 301 1383L147 1383L147 1578Q147 1578 557 1578Q726 1578 877 1583Q864 1264 678 1048Q492 832 156 724L19 904Q288 975 439 1106Q590 1237 614 1389M1342 970L1196 970L1196 770L964 770L964 1652L1196 1652L1196 1468L1342 1468L1342 1672L1577 1672L1577 770L1342 770L1342 970M1344 1280L1194 1280L1194 1157L1344 1157L1344 1280M990 696L1579 696L1579 504L1220 504L1220 379L1575 379L1575 202L1220 202L1220 74L1598 74L1598-118L990-118L990 696M950-74Q808-118 582-118L311-118L311 381L679 381L679 502L311 502L311 696L916 696L916 200L548 200L548 76L653 76Q828 76 950 121L950-74Z"  horiz-adv-x="1744" vert-adv-y="2048"  />

      
      <glyph glyph-name="uniAC62" unicode="&#xAC62;" d="M614 1389Q497 1383 300 1383L147 1383L147 1578Q147 1578 557 1578Q726 1578 877 1583Q864 1264 678 1048Q492 832 156 724L19 904Q287 975 438.50 1106Q590 1237 614 1389M1342 970L1196 970L1196 770L964 770L964 1652L1196 1652L1196 1468L1342 1468L1342 1672L1577 1672L1577 770L1342 770L1342 970M1344 1280L1194 1280L1194 1157L1344 1157L1344 1280M1625 696L1625 502L1540 502L1536 72L1640 72L1640-118L964-118L964 72L1055 72L1055 506L964 506L964 696L1625 696M1346 507L1251 507L1251 71L1342 71L1346 507M933-74Q790-118 565-118L288-118L288 381L673 381L673 502L288 502L288 696L903 696L903 200L525 200L525 76L635 76Q810 76 933 121L933-74Z"  horiz-adv-x="1742" vert-adv-y="2048"  />

      
      <glyph glyph-name="uniAC63" unicode="&#xAC63;" d="M614 1389Q497 1383 300 1383L147 1383L147 1578Q147 1578 557 1578Q726 1578 877 1583Q864 1264 678 1048Q492 832 156 724L19 904Q287 975 438.50 1106Q590 1237 614 1389M1342 970L1196 970L1196 770L964 770L964 1652L1196 1652L1196 1468L1342 1468L1342 1672L1577 1672L1577 770L1342 770L1342 970M1344 1280L1194 1280L1194 1157L1344 1157L1344 1280M962-74Q820-118 589-118L308-118L308 381L660 381L660 502L308 502L308 696L898 696L898 200L548 200L548 76L668 76Q818 76 962 121L962-74M951 323L951 480L1670 480L1670 323L951 323M1080 537L1080 705L1536 705L1536 537L1080 537M1001 73Q1001 73 1001 126.50Q1001 180 1085.50 237Q1170 294 1307 294Q1444 294 1530 237Q1616 180 1616 73Q1616-34 1524.50-91.50Q1433-149 1309-149Q1185-149 1093-91.50Q1001-34 1001 73M1212 73Q1212 73 1212 57Q1212 41 1239.50 22.50Q1267 4 1307.50 4Q1348 4 1376.50 22.50Q1405 41 1405 73Q1405 105 1378.50 124Q1352 143 1307.50 143Q1263 143 1237.50 124Q1212 105 1212 73Z"  horiz-adv-x="1740" vert-adv-y="2048"  />

      
      <glyph glyph-name="uniAC64" unicode="&#xAC64;" d="M610 1383Q494 1378 296 1378L148 1378L148 1578Q148 1578 551 1578Q722 1578 872 1583Q865 1254 681.50 1012Q498 770 164 646L20 825Q294 914 441.50 1065.50Q589 1217 610 1383M1343 911L1196 911L1196 649L965 649L965 1652L1196 1652L1196 1440L1343 1440L1343 1672L1577 1672L1577 649L1343 649L1343 911M1345 1253L1195 1253L1195 1099L1345 1099L1345 1253M1575-110L396-110L396 580L1575 580L1575-110M1328 372L645 372L645 92L1328 92L1328 372Z"  horiz-adv-x="1745" vert-adv-y="2048"  />

      
      <glyph glyph-name="uniAC65" unicode="&#xAC65;" d="M612 1387Q495 1381 300 1381L148 1381L148 1578Q148 1578 555 1578Q725 1578 875 1583Q865 1260 680.50 1031.50Q496 803 160 685L20 865Q292 943 441 1085Q590 1227 612 1387M1343 956L1196 956L1196 716L965 716L965 1652L1196 1652L1196 1466L1343 1466L1343 1672L1577 1672L1577 716L1343 716L1343 956M1345 1278L1195 1278L1195 1142L1345 1142L1345 1278M1575-110L396-110L396 637L646 637L646 455L1329 455L1329 646L1575 646L1575-110M1329 89L1329 257L645 257L645 89L1329 89Z"  horiz-adv-x="1745" vert-adv-y="2048"  />

      
      <glyph glyph-name="uniAC66" unicode="&#xAC66;" d="M610 1387Q494 1381 298 1381L147 1381L147 1578Q147 1578 553 1578Q723 1578 874 1583Q864 1260 679.50 1031.50Q495 803 158 685L18 865Q290 943 439 1085Q588 1227 610 1387M1341 956L1195 956L1195 716L962 716L962 1652L1195 1652L1195 1466L1341 1466L1341 1672L1576 1672L1576 716L1341 716L1341 956M1343 1278L1193 1278L1193 1142L1343 1142L1343 1278M1606-137Q1434-33 1349 121Q1257-33 1081-142L999-75L999-110L313-110L313 627L545 627L545 439L774 439L774 637L999 637L999 72Q1148 168 1202 307.50Q1256 447 1240 646L1471 646Q1471 514 1455 410Q1519 170 1775 26L1606-137M780 61L780 257L544 257L544 61L780 61Z"  horiz-adv-x="1734" vert-adv-y="2048"  />

      
      <glyph glyph-name="uniAC67" unicode="&#xAC67;" d="M607 1377Q489 1372 290 1372L147 1372L147 1578Q147 1578 549 1578Q716 1578 866 1583Q862 1243 683 976.50Q504 710 172 569L19 747Q302 854 445 1025.50Q588 1197 607 1377M1342 890L1196 890L1196 662L964 662L964 1652L1196 1652L1196 1421L1342 1421L1342 1672L1576 1672L1576 472L1342 472L1342 890M1344 1233L1194 1233L1194 1077L1344 1077L1344 1233M1065 599Q1061 509 1032 422Q1210 134 1648 55L1509-138Q1328-102 1173-12Q1018 78 913 213Q810 88 648.50-4Q487-96 302-138L161 53Q452 119 620.50 244Q789 369 800 599L1065 599Z"  horiz-adv-x="1741" vert-adv-y="2048"  />

      
      <glyph glyph-name="uniAC68" unicode="&#xAC68;" d="M609 1383Q493 1378 294 1378L147 1378L147 1578Q147 1578 551 1578Q720 1578 871 1583Q864 1254 680.50 1012Q497 770 163 646L19 825Q292 914 440 1065.50Q588 1217 609 1383M1342 911L1196 911L1196 649L964 649L964 1652L1196 1652L1196 1440L1342 1440L1342 1672L1576 1672L1576 649L1342 649L1342 911M1344 1253L1194 1253L1194 1099L1344 1099L1344 1253M1375 589Q1375 485 1349 380Q1397 257 1486.50 181Q1576 105 1724 40L1571-135Q1357-47 1250 140Q1144-35 952-142Q780-39 671 137Q560-35 336-142L174 27Q367 116 463.50 242Q560 368 550 580L802 580Q799 455 771 355Q834 212 960 136Q1145 289 1126 589L1375 589Z"  horiz-adv-x="1737" vert-adv-y="2048"  />

      
      <glyph glyph-name="uniAC69" unicode="&#xAC69;" d="M609 1380Q491 1376 294 1376L148 1376L148 1578Q148 1578 551 1578Q719 1578 869 1583Q863 1248 683 994.50Q503 741 168 607L19 786Q300 884 444 1045.50Q588 1207 609 1380M1343 900L1196 900L1196 676L964 676L964 1652L1196 1652L1196 1438L1343 1438L1343 1672L1577 1672L1577 589L1343 589L1343 900M1344 1251L1194 1251L1194 1087L1344 1087L1344 1251M339 207Q339 207 339 284Q339 361 495.50 465Q652 569 959 569Q1266 569 1425.50 465Q1585 361 1585 207Q1585 53 1425.50-50Q1266-153 959-153Q652-153 495.50-50Q339 53 339 207M1333 207.50Q1333 207.50 1333 237.75Q1333 268 1246 318Q1159 368 956 368Q753 368 672 318Q591 268 591 207.50Q591 147 672 96.50Q753 46 956 46Q1159 46 1246 96.50Q1333 147 1333 207.50Z"  horiz-adv-x="1745" vert-adv-y="2048"  />

      
      <glyph glyph-name="uniAC6A" unicode="&#xAC6A;" d="M609 1383Q493 1378 295 1378L147 1378L147 1578Q147 1578 551 1578Q720 1578 871 1583Q864 1254 681 1012Q498 770 163 646L19 825Q293 914 440 1065.50Q587 1217 609 1383M1342 911L1196 911L1196 649L964 649L964 1652L1196 1652L1196 1440L1342 1440L1342 1672L1577 1672L1577 649L1342 649L1342 911M1344 1253L1194 1253L1194 1099L1344 1099L1344 1253M1158 382Q1022 375 755 375L388 375L388 580L1090 580Q1361 580 1489 583Q1557 583 1529 499Q1475 338 1220 189Q1433 106 1746 48L1611-138Q1270-60 996 76Q726-47 333-142L207 44Q604 125 847 221Q1090 317 1158 382Z"  horiz-adv-x="1737" vert-adv-y="2048"  />

      
      <glyph glyph-name="uniAC6B" unicode="&#xAC6B;" d="M613 1389Q497 1383 300 1383L147 1383L147 1578Q147 1578 557 1578Q726 1578 877 1583Q864 1264 678 1048Q492 832 156 724L19 904Q287 975 438.50 1106Q590 1237 613 1389M1342 965L1196 965L1196 807L964 807L964 1652L1196 1652L1196 1470L1342 1470L1342 1672L1577 1672L1577 662L1342 662L1342 965M1344 1282L1194 1282L1194 1153L1344 1153L1344 1282M1084 278Q954 270 685 270L384 270L384 453L1037 453Q1293 453 1420 457Q1448 457 1461 438.50Q1474 420 1462 382Q1408 252 1209 145Q1405 86 1714 49L1601-138Q1253-77 973 35Q684-77 324-139L206 46Q568 98 796 166.50Q1024 235 1084 278M597 726L1196 726L1196 539L597 539L597 726Z"  horiz-adv-x="1738" vert-adv-y="2048"  />

      
      <glyph glyph-name="uniAC6C" unicode="&#xAC6C;" d="M608 1380Q492 1376 294 1376L148 1376L148 1578Q148 1578 551 1578Q720 1578 869 1583Q863 1250 681.50 1003Q500 756 167 626L20 806Q296 899 442.50 1056Q589 1213 608 1380M1343 900L1196 900L1196 631L965 631L965 1652L1196 1652L1196 1438L1343 1438L1343 1672L1577 1672L1577 631L1343 631L1343 900M1345 1251L1195 1251L1195 1087L1345 1087L1345 1251M832 235Q1124 235 1326 260L1326 357L370 357L370 558L1575 558L1575-143L1326-143L1326 78Q1121 44 800 44L351 44L351 235L832 235Z"  horiz-adv-x="1745" vert-adv-y="2048"  />

      
      <glyph glyph-name="uniAC6D" unicode="&#xAC6D;" d="M613 1389Q496 1383 301 1383L147 1383L147 1578Q147 1578 556 1578Q725 1578 876 1583Q864 1264 678 1048Q492 832 155 724L19 904Q287 975 438.50 1106Q590 1237 613 1389M1342 970L1196 970L1196 770L964 770L964 1652L1196 1652L1196 1468L1342 1468L1342 1672L1576 1672L1576 770L1342 770L1342 970M1344 1280L1194 1280L1194 1157L1344 1157L1344 1280M638 203L638 82L1612 82L1612-110L389-110L389 696L1578 696L1578 502L638 502L638 385L1575 385L1575 203L638 203Z"  horiz-adv-x="1743" vert-adv-y="2048"  />

      
      <glyph glyph-name="uniAC6E" unicode="&#xAC6E;" d="M612 1387Q495 1381 300 1381L148 1381L148 1578Q148 1578 555 1578Q724 1578 875 1583Q865 1260 680.50 1031.50Q496 803 160 685L19 865Q292 943 441 1085Q590 1227 612 1387M1343 911L1196 911L1196 686L965 686L965 1652L1196 1652L1196 1440L1343 1440L1343 1672L1577 1672L1577 686L1343 686L1343 911M1345 1253L1194 1253L1194 1099L1345 1099L1345 1253M1618-110L325-110L325 89L550 89L544 401L345 401L345 599L1591 599L1591 401L1385 401L1380 89L1618 89L1618-110M1135 89L1138 401L789 401L793 89L1135 89Z"  horiz-adv-x="1743" vert-adv-y="2048"  />

      
      <glyph glyph-name="uniAC6F" unicode="&#xAC6F;" d="M614 1389Q497 1383 301 1383L147 1383L147 1578Q147 1578 557 1578Q726 1578 877 1583Q864 1264 678 1048Q492 832 156 724L19 904Q288 975 439 1106Q590 1237 614 1389M1342 965L1196 965L1196 807L964 807L964 1652L1196 1652L1196 1470L1342 1470L1342 1672L1577 1672L1577 662L1342 662L1342 965M1344 1282L1194 1282L1194 1153L1344 1153L1344 1282M244 346L244 507L1598 507L1598 346L244 346M572 564L572 734L1231 734L1231 564L572 564M1498 84Q1498 84 1498 28Q1498-28 1352-89.50Q1206-151 941.50-151Q677-151 531.50-89.50Q386-28 386 84Q386 196 530.50 256.50Q675 317 941.50 317Q1208 317 1353 256.50Q1498 196 1498 84M942 9Q942 9 1090 9Q1238 9 1238 86Q1238 163 906 163Q781 163 725 143.50Q669 124 657.50 110.50Q646 97 646 86Q646 9 942 9Z"  horiz-adv-x="1744" vert-adv-y="2048"  />

      
      <glyph glyph-name="uniAC72" unicode="&#xAC72;" d="M770 1389Q669 1383 568 1383L172 1383L172 1588Q172 1588 676 1588Q888 1588 1058 1592Q1036 1247 812.50 999Q589 751 188 637L49 822Q378 908 558.50 1061.50Q739 1215 770 1389M980 965L980 1172L1287 1172L1287 1672L1536 1672L1536 647L1287 647L1287 965L980 965M1283-141L1283 372L941 372L941 580L1532 580L1532-141L1283-141M660-141L660 372L295 372L295 580L910 580L910-141L660-141Z"  horiz-adv-x="1749" vert-adv-y="2048"  />

      
      <glyph glyph-name="uniAC73" unicode="&#xAC73;" d="M768 1389Q668 1383 567 1383L172 1383L172 1588Q172 1588 674 1588Q887 1588 1056 1592Q1034 1247 811.50 999Q589 751 187 637L48 822Q376 908 556.50 1061.50Q737 1215 768 1389M979 965L979 1172L1286 1172L1286 1672L1534 1672L1534 647L1286 647L1286 965L979 965M1586-150Q1398-43 1304 100Q1206-52 1017-162L942-77L942-136L697-136L697 374L291 374L291 580L942 580L942 57Q1092 147 1147 271.50Q1202 396 1199 599L1434 599Q1438 459 1411 343Q1504 140 1747 25L1586-150Z"  horiz-adv-x="1738" vert-adv-y="2048"  />

      
      <glyph glyph-name="uniAC75" unicode="&#xAC75;" d="M769 1389Q668 1383 567 1383L172 1383L172 1588Q172 1588 675 1588Q887 1588 1056 1592Q1036 1247 812.50 999Q589 751 187 637L49 822Q376 908 556.50 1061.50Q737 1215 769 1389M980 965L980 1172L1286 1172L1286 1672L1534 1672L1534 647L1286 647L1286 965L980 965M833-72Q652-110 413-110L260-110L260 599L512 599L512 98L532 98Q708 98 872 147L872 81Q1029 157 1123 242Q1217 327 1241 380Q1202 377 1149 377L896 377L896 580L1264 580Q1419 580 1529 583Q1529 400 1383 218Q1499 119 1697 36L1554-142Q1374-66 1232 64Q1081-66 898-150L833-72Z"  horiz-adv-x="1740" vert-adv-y="2048"  />

      
      <glyph glyph-name="uniAC76" unicode="&#xAC76;" d="M773 1393Q673 1387 571 1387L172 1387L172 1588Q172 1588 680 1588Q893 1588 1063 1592Q1044 1265 816.50 1030Q589 795 183 695L51 878Q379 954 560.50 1095.50Q742 1237 773 1393M984 985L984 1189L1287 1189L1287 1672L1536 1672L1536 753L1287 753L1287 985L984 985M883-64Q728-112 484-112L293-112L293 607L537 607L537 89L577 89Q722 89 883 136L883-64M840 313L840 472L1612 472L1612 313L840 313M1011 535L1011 705L1456 705L1456 535L1011 535M1557 66Q1557 66 1557 16Q1557-34 1464.50-93.50Q1372-153 1232.50-153Q1093-153 1003.50-93.50Q914-34 914 66Q914 166 997.50 224.50Q1081 283 1232 283Q1383 283 1470 224.50Q1557 166 1557 66M1124 68.50Q1124 68.50 1124 54.75Q1124 41 1152 22.50Q1180 4 1233 4Q1286 4 1315.50 22.50Q1345 41 1345 68.50Q1345 96 1315.50 113.50Q1286 131 1233 131Q1180 131 1152 113.50Q1124 96 1124 68.50Z"  horiz-adv-x="1745" vert-adv-y="2048"  />

      
      <glyph glyph-name="uniAC79" unicode="&#xAC79;" d="M778 1397Q677 1391 575 1391L172 1391L172 1588Q172 1588 683 1588Q897 1588 1068 1592Q1048 1277 818.50 1051.50Q589 826 179 734L51 918Q381 982 563.50 1117Q746 1252 778 1397M994 1035L994 1235L1287 1235L1287 1672L1536 1672L1536 783L1287 783L1287 1035L994 1035M1292-138L1292 529L959 529L959 724L1536 724L1536-138L1292-138M1041-74Q898-118 673-118L313-118L313 391L680 391L680 529L313 529L313 724L922 724L922 208L553 208L553 69L742 69Q918 69 1041 113L1041-74Z"  horiz-adv-x="1749" vert-adv-y="2048"  />

      
      <glyph glyph-name="uniAC7B" unicode="&#xAC7B;" d="M778 1397Q677 1391 575 1391L172 1391L172 1588Q172 1588 683 1588Q897 1588 1068 1592Q1048 1277 818.50 1051.50Q589 826 179 734L51 918Q381 982 563.50 1117Q746 1252 778 1397M994 1035L994 1235L1287 1235L1287 1672L1536 1672L1536 783L1287 783L1287 1035L994 1035M943 715L1169 715L1169 445L1300 445L1300 724L1536 724L1536-118L943-118L943 715M1169 260L1169 67L1300 67L1300 260L1169 260M911-74Q771-118 544-118L297-118L297 393L633 393L633 519L297 519L297 715L863 715L863 206L533 206L533 78L614 78Q791 78 911 124L911-74Z"  horiz-adv-x="1749" vert-adv-y="2048"  />

      
      <glyph glyph-name="uniAC7C" unicode="&#xAC7C;" d="M776 1397Q676 1391 575 1391L172 1391L172 1588Q172 1588 681 1588Q897 1588 1067 1592Q1047 1277 818 1051.50Q589 826 179 734L51 918Q380 982 562.50 1117Q745 1252 776 1397M994 1035L994 1235L1286 1235L1286 1672L1534 1672L1534 783L1286 783L1286 1035L994 1035M950 58Q1237 286 1187 724L1429 724Q1429 574 1413 469Q1479 165 1738-2L1568-152Q1397-30 1312 162Q1223-23 1044-158L942-76Q805-118 582-118L288-118L288 393L678 393L678 519L288 519L288 715L907 715L907 206L527 206L527 78L652 78Q828 78 950 124L950 58Z"  horiz-adv-x="1738" vert-adv-y="2048"  />

      
      <glyph glyph-name="uniAC7D" unicode="&#xAC7D;" d="M778 1397Q677 1391 576 1391L173 1391L173 1588Q173 1588 683 1588Q898 1588 1069 1592Q1049 1277 819.50 1051.50Q590 826 180 734L51 918Q382 982 564.50 1117Q747 1252 778 1397M995 1035L995 1235L1287 1235L1287 1672L1536 1672L1536 783L1287 783L1287 1035L995 1035M965 715L1540 715L1540 522L1196 522L1196 391L1536 391L1536 208L1196 208L1196 76L1559 76L1559-118L965-118L965 715M926-74Q783-118 559-118L299-118L299 393L654 393L654 519L299 519L299 715L891 715L891 206L538 206L538 78L629 78Q804 78 926 124L926-74Z"  horiz-adv-x="1749" vert-adv-y="2048"  />

      
      <glyph glyph-name="uniAC7E" unicode="&#xAC7E;" d="M777 1397Q677 1391 576 1391L173 1391L173 1588Q173 1588 683 1588Q898 1588 1069 1592Q1049 1277 819.50 1051.50Q590 826 179 734L51 918Q381 982 564 1117Q747 1252 777 1397M994 1035L994 1235L1287 1235L1287 1672L1536 1672L1536 783L1287 783L1287 1035L994 1035M1585 715L1585 519L1501 519L1497 74L1600 74L1600-118L937-118L937 74L1030 74L1030 524L937 524L937 715L1585 715M1306 526L1224 526L1224 72L1302 72L1306 526M906-74Q763-118 538-118L278-118L278 393L647 393L647 519L278 519L278 715L878 715L878 206L515 206L515 78L609 78Q784 78 906 124L906-74Z"  horiz-adv-x="1745" vert-adv-y="2048"  />

      
      <glyph glyph-name="uniAC7F" unicode="&#xAC7F;" d="M777 1397Q677 1391 576 1391L173 1391L173 1588Q173 1588 683 1588Q898 1588 1069 1592Q1049 1277 819.50 1051.50Q590 826 180 734L51 918Q381 982 563.50 1117Q746 1252 777 1397M995 1035L995 1235L1287 1235L1287 1672L1535 1672L1535 783L1287 783L1287 1035L995 1035M941-74Q797-118 568-118L297-118L297 393L641 393L641 519L297 519L297 715L878 715L878 206L538 206L538 78L648 78Q798 78 941 123L941-74M930 335L930 494L1630 494L1630 335L930 335M1051 554L1051 724L1507 724L1507 554L1051 554M971 78.50Q971 78.50 971 132.75Q971 187 1056 245Q1141 303 1277.50 303Q1414 303 1499.50 245Q1585 187 1585 78.50Q1585-30 1493.50-89.50Q1402-149 1278-149Q1154-149 1062.50-89.50Q971-30 971 78.50M1182 78.50Q1182 78.50 1182 62.75Q1182 47 1209.50 28Q1237 9 1277.50 9Q1318 9 1346.50 28Q1375 47 1375 78.50Q1375 110 1348 130Q1321 150 1277 150Q1233 150 1207.50 130Q1182 110 1182 78.50Z"  horiz-adv-x="1744" vert-adv-y="2048"  />

      
      <glyph glyph-name="uniAC82" unicode="&#xAC82;" d="M772 1393Q672 1387 571 1387L172 1387L172 1588Q172 1588 678 1588Q893 1588 1062 1592Q1043 1265 816 1030Q589 795 183 695L51 878Q378 954 559.50 1095.50Q741 1237 772 1393M983 985L983 1189L1286 1189L1286 1672L1534 1672L1534 734L1286 734L1286 985L983 985M1563-137Q1393-27 1308 125Q1227-17 1042-142L980-92L980-110L302-110L302 646L535 646L535 453L754 453L754 657L980 657L980 87Q1116 185 1166 327Q1216 469 1200 666L1431 666Q1431 529 1416 421Q1479 178 1736 26L1563-137M760 67L760 268L533 268L533 67L760 67Z"  horiz-adv-x="1738" vert-adv-y="2048"  />

      
      <glyph glyph-name="uniAC87" unicode="&#xAC87;" d="M776 1397Q675 1391 575 1391L172 1391L172 1588Q172 1588 681 1588Q897 1588 1067 1592Q1048 1277 818.50 1051.50Q589 826 179 734L50 918Q380 982 562.50 1117Q745 1252 776 1397M994 1035L994 1235L1286 1235L1286 1672L1534 1672L1534 701L1286 701L1286 1035L994 1035M1094 287Q963 280 694 280L412 280L412 467L1053 467Q1302 467 1431 470Q1458 470 1471 451.50Q1484 433 1471 396Q1419 264 1217 146Q1430 86 1704 51L1590-138Q1244-77 978 32Q700-77 354-139L236 48Q598 102 817 173Q1036 244 1094 287M627 744L1206 744L1206 554L627 554L627 744Z"  horiz-adv-x="1740" vert-adv-y="2048"  />

      
      <glyph glyph-name="uniAC88" unicode="&#xAC88;" d="M770 1389Q669 1383 568 1383L172 1383L172 1588Q172 1588 676 1588Q888 1588 1058 1592Q1036 1247 812.50 999Q589 751 188 637L49 822Q378 908 558.50 1061.50Q739 1215 770 1389M980 965L980 1172L1287 1172L1287 1672L1536 1672L1536 647L1287 647L1287 965L980 965M792 251Q1083 251 1285 276L1285 375L360 375L360 578L1536 578L1536-143L1285-143L1285 90Q1081 55 760 55L340 55L340 251L792 251Z"  horiz-adv-x="1749" vert-adv-y="2048"  />

      
      <glyph glyph-name="uniAC8D" unicode="&#xAC8D;" d="M601 1380Q484 1376 290 1376L148 1376L148 1578Q148 1578 546 1578Q712 1578 861 1583Q855 1248 679 994.50Q503 741 169 607L20 786Q300 884 440.50 1045.50Q581 1207 601 1380M1575 612L1343 612L1343 1672L1575 1672L1575 612M1006 1652L1234 1652L1234 612L1006 612L1006 968L624 968L624 1174L1006 1174L1006 1652M1328-141L1328 335L361 335L361 541L1574 541L1574-141L1328-141Z"  horiz-adv-x="1746" vert-adv-y="2048"  />

      
      <glyph glyph-name="uniAC8E" unicode="&#xAC8E;" d="M601 1380Q484 1376 290 1376L148 1376L148 1578Q148 1578 546 1578Q712 1578 861 1583Q855 1250 677.50 1003Q500 756 167 626L20 806Q296 899 438.50 1056Q581 1213 601 1380M1575 631L1343 631L1343 1672L1575 1672L1575 631M1006 1652L1234 1652L1234 631L1006 631L1006 978L624 978L624 1181L1006 1181L1006 1652M1326-141L1326 354L955 354L955 560L1574 560L1574-141L1326-141M676-141L676 354L311 354L311 560L924 560L924-141L676-141Z"  horiz-adv-x="1746" vert-adv-y="2048"  />

      
      <glyph glyph-name="uniAC8F" unicode="&#xAC8F;" d="M600 1380Q484 1376 289 1376L147 1376L147 1578Q147 1578 545 1578Q711 1578 861 1583Q855 1250 677.50 1003Q500 756 166 626L19 806Q295 899 438 1056Q581 1213 600 1380M1575 631L1342 631L1342 1672L1575 1672L1575 631M1004 1652L1233 1652L1233 631L1004 631L1004 978L622 978L622 1181L1004 1181L1004 1652M1583-148Q1401-53 1301 90Q1203-55 1014-160L942-81L942-136L697-136L697 354L280 354L280 560L942 560L942 58Q1091 146 1146 264.50Q1201 383 1195 580L1433 580Q1436 448 1408 328Q1459 223 1541.50 152.50Q1624 82 1743 25L1583-148Z"  horiz-adv-x="1737" vert-adv-y="2048"  />

      
      <glyph glyph-name="uniAC91" unicode="&#xAC91;" d="M599 1380Q483 1376 288 1376L147 1376L147 1578Q147 1578 545 1578Q710 1578 860 1583Q854 1250 676.50 1003Q499 756 166 626L18 806Q294 899 437 1056Q580 1213 599 1380M1574 631L1342 631L1342 1672L1574 1672L1574 631M1003 1652L1232 1652L1232 631L1003 631L1003 978L622 978L622 1181L1003 1181L1003 1652M868-68Q675-110 433-110L278-110L278 580L530 580L530 98L551 98Q726 98 891 147L891 70Q1052 142 1151.50 224.50Q1251 307 1278 361Q1240 357 1187 357L934 357L934 560L1302 560Q1457 560 1567 564Q1567 384 1422 205Q1543 107 1733 35L1594-142Q1398-59 1272 55Q1121-66 934-150L868-68Z"  horiz-adv-x="1737" vert-adv-y="2048"  />

      
      <glyph glyph-name="uniAC92" unicode="&#xAC92;" d="M604 1387Q487 1381 295 1381L147 1381L147 1578Q147 1578 549 1578Q716 1578 866 1583Q856 1260 675.50 1031.50Q495 803 159 685L19 865Q291 943 436.50 1085Q582 1227 604 1387M1575 748L1342 748L1342 1672L1575 1672L1575 748M1005 1652L1233 1652L1233 748L1005 748L1005 997L601 997L601 1196L1005 1196L1005 1652M872-64Q716-112 474-112L283-112L283 589L527 589L527 87L567 87Q711 87 872 134L872-64M839 301L839 459L1612 459L1612 301L839 301M1010 519L1010 685L1455 685L1455 519L1010 519M1556 61Q1556 61 1556 12.50Q1556-36 1463.50-94.50Q1371-153 1231.50-153Q1092-153 1002.50-94.50Q913-36 913 61Q913 158 996.50 216Q1080 274 1231 274Q1382 274 1469 216Q1556 158 1556 61M1122 64.50Q1122 64.50 1122 50.75Q1122 37 1150.50 18.50Q1179 0 1232 0Q1285 0 1314.50 18.50Q1344 37 1344 64.50Q1344 92 1315 109Q1286 126 1232 126Q1178 126 1150 109Q1122 92 1122 64.50Z"  horiz-adv-x="1743" vert-adv-y="2048"  />

      
      <glyph glyph-name="uniAC93" unicode="&#xAC93;" d="M600 1380Q483 1376 289 1376L147 1376L147 1578Q147 1578 545 1578Q710 1578 860 1583Q855 1250 677 1003Q499 756 166 626L19 806Q295 899 437.50 1056Q580 1213 600 1380M1575 631L1342 631L1342 1672L1575 1672L1575 631M1005 1652L1233 1652L1233 631L1005 631L1005 978L623 978L623 1181L1005 1181L1005 1652M395-110L395 560L1578 560L1578 352L644 352L644 96L1610 96L1610-110L395-110Z"  horiz-adv-x="1743" vert-adv-y="2048"  />

      
      <glyph glyph-name="uniAC95" unicode="&#xAC95;" d="M609 1389Q492 1383 298 1383L148 1383L148 1578Q148 1578 553 1578Q722 1578 872 1583Q859 1264 676 1048Q493 832 156 724L20 904Q288 975 436.50 1106Q585 1237 609 1389M1575 770L1343 770L1343 1672L1575 1672L1575 770M1006 1652L1234 1652L1234 770L1006 770L1006 1037L621 1037L621 1233L1006 1233L1006 1652M1333-138L1333 511L984 511L984 705L1575 705L1575-138L1333-138M1065-74Q921-118 698-118L325-118L325 379L705 379L705 511L325 511L325 705L947 705L947 202L565 202L565 67L767 67Q943 67 1065 111L1065-74Z"  horiz-adv-x="1746" vert-adv-y="2048"  />

      
      <glyph glyph-name="uniAC96" unicode="&#xAC96;" d="M609 1389Q492 1383 298 1383L148 1383L148 1578Q148 1578 553 1578Q722 1578 872 1583Q859 1264 676 1048Q493 832 156 724L20 904Q288 975 436.50 1106Q585 1237 609 1389M1575 770L1343 770L1343 1672L1575 1672L1575 770M1006 1652L1234 1652L1234 770L1006 770L1006 1037L621 1037L621 1233L1006 1233L1006 1652M990 705L1575 705L1575-118L990-118L990 705M1213 519L1213 59L1341 59L1341 519L1213 519M959-74Q817-118 591-118L332-118L332 383L687 383L687 509L332 509L332 705L916 705L916 202L571 202L571 69L661 69Q836 69 959 113L959-74Z"  horiz-adv-x="1746" vert-adv-y="2048"  />

      
      <glyph glyph-name="uniAC97" unicode="&#xAC97;" d="M609 1389Q492 1383 298 1383L148 1383L148 1578Q148 1578 553 1578Q722 1578 872 1583Q859 1264 676 1048Q493 832 156 724L20 904Q288 975 436.50 1106Q585 1237 609 1389M1575 770L1343 770L1343 1672L1575 1672L1575 770M1006 1652L1234 1652L1234 770L1006 770L1006 1037L621 1037L621 1233L1006 1233L1006 1652M969 696L1193 696L1193 435L1341 435L1341 705L1575 705L1575-118L969-118L969 696M1193 253L1193 65L1341 65L1341 253L1193 253M937-74Q795-118 570-118L309-118L309 381L658 381L658 502L309 502L309 696L889 696L889 200L545 200L545 76L640 76Q815 76 937 121L937-74Z"  horiz-adv-x="1746" vert-adv-y="2048"  />

      
      <glyph glyph-name="uniAC98" unicode="&#xAC98;" d="M606 1389Q490 1383 296 1383L145 1383L145 1578Q145 1578 551 1578Q719 1578 870 1583Q858 1264 674.50 1048Q491 832 154 724L18 904Q286 975 434 1106Q582 1237 606 1389M1574 770L1340 770L1340 1672L1574 1672L1574 770M1003 1652L1232 1652L1232 770L1003 770L1003 1037L619 1037L619 1233L1003 1233L1003 1652M979 48Q1277 269 1226 705L1469 705Q1469 563 1452 458Q1519 158 1776-2L1608-152Q1434-28 1351 154Q1261-28 1084-158L979-75L979-74Q838-118 612-118L299-118L299 381L709 381L709 502L299 502L299 696L938 696L938 200L538 200L538 76L682 76Q858 76 979 121L979 48Z"  horiz-adv-x="1733" vert-adv-y="2048"  />

      
      <glyph glyph-name="uniAC99" unicode="&#xAC99;" d="M608 1389Q491 1383 297 1383L147 1383L147 1578Q147 1578 553 1578Q721 1578 871 1583Q859 1264 675.50 1048Q492 832 156 724L19 904Q288 975 436 1106Q584 1237 608 1389M1575 770L1342 770L1342 1672L1575 1672L1575 770M1005 1652L1233 1652L1233 770L1005 770L1005 1037L620 1037L620 1233L1005 1233L1005 1652M990 696L1579 696L1579 504L1220 504L1220 379L1575 379L1575 202L1220 202L1220 74L1598 74L1598-118L990-118L990 696M950-74Q808-118 582-118L311-118L311 381L679 381L679 502L311 502L311 696L916 696L916 200L548 200L548 76L653 76Q828 76 950 121L950-74Z"  horiz-adv-x="1744" vert-adv-y="2048"  />

      
      <glyph glyph-name="uniAC9A" unicode="&#xAC9A;" d="M608 1389Q491 1383 296 1383L147 1383L147 1578Q147 1578 553 1578Q720 1578 871 1583Q859 1264 675.50 1048Q492 832 156 724L19 904Q287 975 435.50 1106Q584 1237 608 1389M1575 770L1342 770L1342 1672L1575 1672L1575 770M1005 1652L1233 1652L1233 770L1005 770L1005 1037L620 1037L620 1233L1005 1233L1005 1652M1625 696L1625 502L1540 502L1536 72L1640 72L1640-118L964-118L964 72L1055 72L1055 506L964 506L964 696L1625 696M1346 507L1251 507L1251 71L1342 71L1346 507M933-74Q790-118 565-118L288-118L288 381L673 381L673 502L288 502L288 696L903 696L903 200L525 200L525 76L635 76Q810 76 933 121L933-74Z"  horiz-adv-x="1742" vert-adv-y="2048"  />

      
      <glyph glyph-name="uniAC9B" unicode="&#xAC9B;" d="M608 1389Q491 1383 296 1383L147 1383L147 1578Q147 1578 553 1578Q720 1578 871 1583Q859 1264 675.50 1048Q492 832 156 724L19 904Q287 975 435.50 1106Q584 1237 608 1389M1575 770L1342 770L1342 1672L1575 1672L1575 770M1005 1652L1233 1652L1233 770L1005 770L1005 1037L620 1037L620 1233L1005 1233L1005 1652M962-74Q820-118 589-118L308-118L308 381L660 381L660 502L308 502L308 696L898 696L898 200L548 200L548 76L668 76Q818 76 962 121L962-74M951 323L951 480L1670 480L1670 323L951 323M1080 537L1080 705L1536 705L1536 537L1080 537M1001 73Q1001 73 1001 126.50Q1001 180 1085.50 237Q1170 294 1307 294Q1444 294 1530 237Q1616 180 1616 73Q1616-34 1524.50-91.50Q1433-149 1309-149Q1185-149 1093-91.50Q1001-34 1001 73M1212 73Q1212 73 1212 57Q1212 41 1239.50 22.50Q1267 4 1307.50 4Q1348 4 1376.50 22.50Q1405 41 1405 73Q1405 105 1378.50 124Q1352 143 1307.50 143Q1263 143 1237.50 124Q1212 105 1212 73Z"  horiz-adv-x="1740" vert-adv-y="2048"  />

      
      <glyph glyph-name="uniAC9E" unicode="&#xAC9E;" d="M602 1387Q487 1381 294 1381L147 1381L147 1578Q147 1578 548 1578Q715 1578 866 1583Q856 1260 675.50 1031.50Q495 803 158 685L18 865Q290 943 435.50 1085Q581 1227 602 1387M1574 716L1341 716L1341 1672L1574 1672L1574 716M1003 1652L1232 1652L1232 716L1003 716L1003 997L600 997L600 1196L1003 1196L1003 1652M1606-137Q1434-33 1349 121Q1257-33 1081-142L999-75L999-110L313-110L313 627L545 627L545 439L774 439L774 637L999 637L999 72Q1148 168 1202 307.50Q1256 447 1240 646L1471 646Q1471 514 1455 410Q1519 170 1775 26L1606-137M780 61L780 257L544 257L544 61L780 61Z"  horiz-adv-x="1734" vert-adv-y="2048"  />

      
      <glyph glyph-name="uniACA2" unicode="&#xACA2;" d="M601 1383Q485 1378 291 1378L147 1378L147 1578Q147 1578 547 1578Q712 1578 863 1583Q857 1254 677.50 1012Q498 770 163 646L19 825Q293 914 436.50 1065.50Q580 1217 601 1383M1575 649L1342 649L1342 1672L1575 1672L1575 649M1004 1652L1233 1652L1233 649L1004 649L1004 985L602 985L602 1189L1004 1189L1004 1652M1158 382Q1022 375 755 375L388 375L388 580L1090 580Q1361 580 1489 583Q1557 583 1529 499Q1475 338 1220 189Q1433 106 1746 48L1611-138Q1270-60 996 76Q726-47 333-142L207 44Q604 125 847 221Q1090 317 1158 382Z"  horiz-adv-x="1737" vert-adv-y="2048"  />

      
      <glyph glyph-name="uniACA3" unicode="&#xACA3;" d="M608 1389Q491 1383 296 1383L147 1383L147 1578Q147 1578 553 1578Q720 1578 871 1583Q859 1264 675.50 1048Q492 832 156 724L19 904Q287 975 435.50 1106Q584 1237 608 1389M1575 662L1342 662L1342 1672L1575 1672L1575 662M1005 1652L1233 1652L1233 807L1005 807L1005 1037L619 1037L619 1233L1005 1233L1005 1652M1084 278Q954 270 685 270L384 270L384 453L1037 453Q1293 453 1420 457Q1448 457 1461 438.50Q1474 420 1462 382Q1408 252 1209 145Q1405 86 1714 49L1601-138Q1253-77 973 35Q684-77 324-139L206 46Q568 98 796 166.50Q1024 235 1084 278M597 726L1196 726L1196 539L597 539L597 726Z"  horiz-adv-x="1738" vert-adv-y="2048"  />

      
      <glyph glyph-name="uniACA4" unicode="&#xACA4;" d="M601 1380Q484 1376 290 1376L148 1376L148 1578Q148 1578 546 1578Q712 1578 861 1583Q855 1250 677.50 1003Q500 756 167 626L20 806Q296 899 438.50 1056Q581 1213 601 1380M1575 631L1343 631L1343 1672L1575 1672L1575 631M1006 1652L1234 1652L1234 631L1006 631L1006 978L624 978L624 1181L1006 1181L1006 1652M832 235Q1124 235 1326 260L1326 357L370 357L370 558L1575 558L1575-143L1326-143L1326 78Q1121 44 800 44L352 44L352 235L832 235Z"  horiz-adv-x="1746" vert-adv-y="2048"  />

      
      <glyph glyph-name="uniACA5" unicode="&#xACA5;" d="M608 1389Q491 1383 297 1383L147 1383L147 1578Q147 1578 552 1578Q720 1578 871 1583Q858 1264 675 1048Q492 832 155 724L19 904Q287 975 435.50 1106Q584 1237 608 1389M1575 770L1342 770L1342 1672L1575 1672L1575 770M1005 1652L1233 1652L1233 770L1005 770L1005 1037L620 1037L620 1233L1005 1233L1005 1652M638 203L638 82L1612 82L1612-110L389-110L389 696L1578 696L1578 502L638 502L638 385L1575 385L1575 203L638 203Z"  horiz-adv-x="1743" vert-adv-y="2048"  />

      
      <glyph glyph-name="uniACA6" unicode="&#xACA6;" d="M605 1387Q488 1381 296 1381L148 1381L148 1578Q148 1578 550 1578Q717 1578 867 1583Q857 1260 676.50 1031.50Q496 803 160 685L19 865Q292 943 437.50 1085Q583 1227 605 1387M1575 686L1343 686L1343 1672L1575 1672L1575 686M1005 1652L1233 1652L1233 686L1005 686L1005 997L582 997L582 1196L1005 1196L1005 1652M1618-110L325-110L325 89L550 89L544 401L345 401L345 599L1591 599L1591 401L1385 401L1380 89L1618 89L1618-110M1135 89L1138 401L789 401L793 89L1135 89Z"  horiz-adv-x="1743" vert-adv-y="2048"  />

      
      <glyph glyph-name="uniACA7" unicode="&#xACA7;" d="M608 1389Q491 1383 297 1383L147 1383L147 1578Q147 1578 553 1578Q721 1578 871 1583Q859 1264 675.50 1048Q492 832 156 724L19 904Q288 975 436 1106Q584 1237 608 1389M1575 662L1342 662L1342 1672L1575 1672L1575 662M1005 1652L1233 1652L1233 807L1005 807L1005 1037L620 1037L620 1233L1005 1233L1005 1652M244 346L244 507L1598 507L1598 346L244 346M572 564L572 734L1231 734L1231 564L572 564M1498 84Q1498 84 1498 28Q1498-28 1352-89.50Q1206-151 941.50-151Q677-151 531.50-89.50Q386-28 386 84Q386 196 530.50 256.50Q675 317 941.50 317Q1208 317 1353 256.50Q1498 196 1498 84M942 9Q942 9 1090 9Q1238 9 1238 86Q1238 163 906 163Q781 163 725 143.50Q669 124 657.50 110.50Q646 97 646 86Q646 9 942 9Z"  horiz-adv-x="1744" vert-adv-y="2048"  />

      
      <glyph glyph-name="uniACAB" unicode="&#xACAB;" d="M759 1389Q657 1383 559 1383L172 1383L172 1588Q172 1588 667 1588Q878 1588 1047 1592Q1025 1247 807 999Q589 751 187 637L48 822Q376 908 551.50 1061.50Q727 1215 759 1389M1286 1361L1286 1672L1534 1672L1534 647L1286 647L1286 802L974 802L974 1001L1288 1001L1288 1155L1030 1155L1030 1361L1286 1361M1586-150Q1398-43 1304 100Q1206-52 1017-162L942-77L942-136L697-136L697 374L291 374L291 580L942 580L942 57Q1092 147 1147 271.50Q1202 396 1199 599L1434 599Q1438 459 1411 343Q1504 140 1747 25L1586-150Z"  horiz-adv-x="1738" vert-adv-y="2048"  />

      
      <glyph glyph-name="uniACAD" unicode="&#xACAD;" d="M759 1389Q658 1383 560 1383L172 1383L172 1588Q172 1588 667 1588Q878 1588 1048 1592Q1026 1247 807.50 999Q589 751 187 637L49 822Q376 908 551.50 1061.50Q727 1215 759 1389M1286 1361L1286 1672L1534 1672L1534 647L1286 647L1286 802L974 802L974 1001L1288 1001L1288 1155L1031 1155L1031 1361L1286 1361M833-72Q652-110 413-110L260-110L260 599L512 599L512 98L532 98Q708 98 872 147L872 81Q1029 157 1123 242Q1217 327 1241 380Q1202 377 1149 377L896 377L896 580L1264 580Q1419 580 1529 583Q1529 400 1383 218Q1499 119 1697 36L1554-142Q1374-66 1232 64Q1081-66 898-150L833-72Z"  horiz-adv-x="1740" vert-adv-y="2048"  />

      
      <glyph glyph-name="uniACAE" unicode="&#xACAE;" d="M763 1393Q664 1387 564 1387L172 1387L172 1588Q172 1588 672 1588Q884 1588 1054 1592Q1034 1265 811.50 1030Q589 795 183 695L51 878Q379 954 556 1095.50Q733 1237 763 1393M1287 1367L1287 1672L1536 1672L1536 753L1287 753L1287 828L974 828L974 1021L1289 1021L1289 1165L1031 1165L1031 1367L1287 1367M883-64Q728-112 484-112L293-112L293 607L537 607L537 89L577 89Q722 89 883 136L883-64M840 313L840 472L1612 472L1612 313L840 313M1011 535L1011 705L1456 705L1456 535L1011 535M1557 66Q1557 66 1557 16Q1557-34 1464.50-93.50Q1372-153 1232.50-153Q1093-153 1003.50-93.50Q914-34 914 66Q914 166 997.50 224.50Q1081 283 1232 283Q1383 283 1470 224.50Q1557 166 1557 66M1124 68.50Q1124 68.50 1124 54.75Q1124 41 1152 22.50Q1180 4 1233 4Q1286 4 1315.50 22.50Q1345 41 1345 68.50Q1345 96 1315.50 113.50Q1286 131 1233 131Q1180 131 1152 113.50Q1124 96 1124 68.50Z"  horiz-adv-x="1745" vert-adv-y="2048"  />

      
      <glyph glyph-name="uniACB1" unicode="&#xACB1;" d="M768 1397Q667 1391 568 1391L172 1391L172 1588Q172 1588 676 1588Q888 1588 1058 1592Q1038 1277 813.50 1051.50Q589 826 179 734L51 918Q381 982 559 1117Q737 1252 768 1397M1287 1379L1287 1672L1536 1672L1536 783L1287 783L1287 888L980 888L980 1074L1289 1074L1289 1185L1035 1185L1035 1379L1287 1379M1292-138L1292 529L959 529L959 724L1536 724L1536-138L1292-138M1041-74Q898-118 673-118L313-118L313 391L680 391L680 529L313 529L313 724L922 724L922 208L553 208L553 69L742 69Q918 69 1041 113L1041-74Z"  horiz-adv-x="1749" vert-adv-y="2048"  />

      
      <glyph glyph-name="uniACB2" unicode="&#xACB2;" d="M768 1397Q667 1391 568 1391L172 1391L172 1588Q172 1588 676 1588Q888 1588 1058 1592Q1038 1277 813.50 1051.50Q589 826 179 734L51 918Q381 982 559 1117Q737 1252 768 1397M1287 1379L1287 1672L1536 1672L1536 783L1287 783L1287 888L980 888L980 1074L1289 1074L1289 1185L1035 1185L1035 1379L1287 1379M955 724L1536 724L1536-118L955-118L955 724M1178 537L1178 61L1300 61L1300 537L1178 537M924-74Q782-118 556-118L302-118L302 394L652 394L652 527L302 527L302 724L881 724L881 208L539 208L539 71L626 71Q802 71 924 115L924-74Z"  horiz-adv-x="1749" vert-adv-y="2048"  />

      
      <glyph glyph-name="uniACB3" unicode="&#xACB3;" d="M768 1397Q667 1391 568 1391L172 1391L172 1588Q172 1588 676 1588Q888 1588 1058 1592Q1038 1277 813.50 1051.50Q589 826 179 734L51 918Q381 982 559 1117Q737 1252 768 1397M1287 1379L1287 1672L1536 1672L1536 783L1287 783L1287 888L980 888L980 1074L1289 1074L1289 1185L1035 1185L1035 1379L1287 1379M943 715L1169 715L1169 445L1300 445L1300 724L1536 724L1536-118L943-118L943 715M1169 260L1169 67L1300 67L1300 260L1169 260M911-74Q771-118 544-118L297-118L297 393L633 393L633 519L297 519L297 715L863 715L863 206L533 206L533 78L614 78Q791 78 911 124L911-74Z"  horiz-adv-x="1749" vert-adv-y="2048"  />

      
      <glyph glyph-name="uniACB4" unicode="&#xACB4;" d="M767 1397Q666 1391 567 1391L172 1391L172 1588Q172 1588 675 1588Q887 1588 1056 1592Q1036 1277 812.50 1051.50Q589 826 179 734L51 918Q380 982 557.50 1117Q735 1252 767 1397M1286 1379L1286 1672L1534 1672L1534 783L1286 783L1286 888L980 888L980 1074L1288 1074L1288 1185L1034 1185L1034 1379L1286 1379M950 58Q1237 286 1187 724L1429 724Q1429 574 1413 469Q1479 165 1738-2L1568-152Q1397-30 1312 162Q1223-23 1044-158L942-76Q805-118 582-118L288-118L288 393L678 393L678 519L288 519L288 715L907 715L907 206L527 206L527 78L652 78Q828 78 950 124L950 58Z"  horiz-adv-x="1738" vert-adv-y="2048"  />

      
      <glyph glyph-name="uniACB5" unicode="&#xACB5;" d="M768 1397Q668 1391 568 1391L173 1391L173 1588Q173 1588 676 1588Q888 1588 1058 1592Q1038 1277 814 1051.50Q590 826 180 734L51 918Q382 982 559.50 1117Q737 1252 768 1397M1287 1379L1287 1672L1536 1672L1536 783L1287 783L1287 888L980 888L980 1074L1289 1074L1289 1185L1035 1185L1035 1379L1287 1379M965 715L1540 715L1540 522L1196 522L1196 391L1536 391L1536 208L1196 208L1196 76L1559 76L1559-118L965-118L965 715M926-74Q783-118 559-118L299-118L299 393L654 393L654 519L299 519L299 715L891 715L891 206L538 206L538 78L629 78Q804 78 926 124L926-74Z"  horiz-adv-x="1749" vert-adv-y="2048"  />

      
      <glyph glyph-name="uniACB6" unicode="&#xACB6;" d="M767 1397Q668 1391 568 1391L173 1391L173 1588Q173 1588 676 1588Q888 1588 1058 1592Q1038 1277 814 1051.50Q590 826 179 734L51 918Q381 982 559 1117Q737 1252 767 1397M1287 1379L1287 1672L1536 1672L1536 783L1287 783L1287 888L980 888L980 1074L1289 1074L1289 1185L1035 1185L1035 1379L1287 1379M1585 715L1585 519L1501 519L1497 74L1600 74L1600-118L937-118L937 74L1030 74L1030 524L937 524L937 715L1585 715M1306 526L1224 526L1224 72L1302 72L1306 526M906-74Q763-118 538-118L278-118L278 393L647 393L647 519L278 519L278 715L878 715L878 206L515 206L515 78L609 78Q784 78 906 124L906-74Z"  horiz-adv-x="1745" vert-adv-y="2048"  />

      
      <glyph glyph-name="uniACB7" unicode="&#xACB7;" d="M768 1397Q668 1391 568 1391L173 1391L173 1588Q173 1588 676 1588Q888 1588 1058 1592Q1038 1277 814 1051.50Q590 826 180 734L51 918Q381 982 558.50 1117Q736 1252 768 1397M1287 1379L1287 1672L1535 1672L1535 783L1287 783L1287 888L980 888L980 1074L1289 1074L1289 1185L1035 1185L1035 1379L1287 1379M941-74Q797-118 568-118L297-118L297 393L641 393L641 519L297 519L297 715L878 715L878 206L538 206L538 78L648 78Q798 78 941 123L941-74M930 335L930 494L1630 494L1630 335L930 335M1051 554L1051 724L1507 724L1507 554L1051 554M971 78.50Q971 78.50 971 132.75Q971 187 1056 245Q1141 303 1277.50 303Q1414 303 1499.50 245Q1585 187 1585 78.50Q1585-30 1493.50-89.50Q1402-149 1278-149Q1154-149 1062.50-89.50Q971-30 971 78.50M1182 78.50Q1182 78.50 1182 62.75Q1182 47 1209.50 28Q1237 9 1277.50 9Q1318 9 1346.50 28Q1375 47 1375 78.50Q1375 110 1348 130Q1321 150 1277 150Q1233 150 1207.50 130Q1182 110 1182 78.50Z"  horiz-adv-x="1744" vert-adv-y="2048"  />

      
      <glyph glyph-name="uniACBA" unicode="&#xACBA;" d="M763 1393Q662 1387 564 1387L172 1387L172 1588Q172 1588 671 1588Q884 1588 1053 1592Q1033 1265 811 1030Q589 795 183 695L51 878Q378 954 555 1095.50Q732 1237 763 1393M1286 1367L1286 1672L1534 1672L1534 734L1286 734L1286 828L974 828L974 1021L1288 1021L1288 1165L1030 1165L1030 1367L1286 1367M1563-137Q1393-27 1308 125Q1227-17 1042-142L980-92L980-110L302-110L302 646L535 646L535 453L754 453L754 657L980 657L980 87Q1116 185 1166 327Q1216 469 1200 666L1431 666Q1431 529 1416 421Q1479 178 1736 26L1563-137M760 67L760 268L533 268L533 67L760 67Z"  horiz-adv-x="1738" vert-adv-y="2048"  />

      
      <glyph glyph-name="uniACBE" unicode="&#xACBE;" d="M761 1391Q661 1385 564 1385L172 1385L172 1588Q172 1588 669 1588Q880 1588 1050 1592Q1028 1253 808.50 1009.50Q589 766 186 656L49 841Q377 924 553.50 1073.50Q730 1223 761 1391M1287 1363L1287 1672L1535 1672L1535 666L1287 666L1287 810L974 810L974 1009L1289 1009L1289 1157L1031 1157L1031 1363L1287 1363M1102 400Q967 393 699 393L382 393L382 599L1045 599Q1303 599 1431 601Q1499 601 1472 517Q1418 354 1170 195Q1386 109 1687 50L1551-138Q1217-60 954 76Q669-63 336-142L209 46Q582 123 809.50 226.50Q1037 330 1102 400Z"  horiz-adv-x="1741" vert-adv-y="2048"  />

      
      <glyph glyph-name="uniACBF" unicode="&#xACBF;" d="M767 1397Q666 1391 567 1391L172 1391L172 1588Q172 1588 674 1588Q887 1588 1056 1592Q1037 1277 813 1051.50Q589 826 179 734L50 918Q380 982 557.50 1117Q735 1252 767 1397M1286 1379L1286 1672L1534 1672L1534 676L1286 676L1286 888L979 888L979 1074L1288 1074L1288 1185L1035 1185L1035 1379L1286 1379M1094 287Q963 280 694 280L412 280L412 467L1053 467Q1302 467 1431 470Q1458 470 1471 451.50Q1484 433 1471 396Q1419 264 1217 146Q1430 86 1704 51L1590-138Q1244-77 978 32Q700-77 354-139L236 48Q598 102 817 173Q1036 244 1094 287M627 744L1206 744L1206 554L627 554L627 744Z"  horiz-adv-x="1740" vert-adv-y="2048"  />

      
      <glyph glyph-name="uniACC0" unicode="&#xACC0;" d="M760 1389Q659 1383 560 1383L172 1383L172 1588Q172 1588 668 1588Q878 1588 1048 1592Q1026 1247 807.50 999Q589 751 188 637L49 822Q378 908 553 1061.50Q728 1215 760 1389M1287 1361L1287 1672L1536 1672L1536 647L1287 647L1287 802L974 802L974 1001L1289 1001L1289 1155L1031 1155L1031 1361L1287 1361M792 251Q1083 251 1285 276L1285 375L360 375L360 578L1536 578L1536-143L1285-143L1285 90Q1081 55 760 55L340 55L340 251L792 251Z"  horiz-adv-x="1749" vert-adv-y="2048"  />

      
      <glyph glyph-name="uniACC2" unicode="&#xACC2;" d="M764 1393Q663 1387 564 1387L172 1387L172 1588Q172 1588 672 1588Q884 1588 1054 1592Q1034 1265 811.50 1030Q589 795 183 695L51 878Q378 954 555.50 1095.50Q733 1237 764 1393M1287 1367L1287 1672L1535 1672L1535 686L1287 686L1287 828L974 828L974 1021L1288 1021L1288 1165L1031 1165L1031 1367L1287 1367M1577-110L324-110L324 90L548 90L542 420L344 420L344 618L1551 618L1551 420L1345 420L1339 90L1577 90L1577-110M1095 90L1099 420L787 420L791 90L1095 90Z"  horiz-adv-x="1746" vert-adv-y="2048"  />

      
      <glyph glyph-name="uniACC3" unicode="&#xACC3;" d="M767 1397Q668 1391 568 1391L173 1391L173 1588Q173 1588 676 1588Q888 1588 1058 1592Q1038 1277 814 1051.50Q590 826 179 734L51 918Q381 982 559 1117Q737 1252 767 1397M1287 1379L1287 1672L1536 1672L1536 676L1287 676L1287 888L980 888L980 1074L1289 1074L1289 1185L1035 1185L1035 1379L1287 1379M284 357L284 523L1599 523L1599 357L284 357M593 582L593 753L1232 753L1232 582L593 582M1486 89.50Q1486 89.50 1486 32.75Q1486-24 1344-87.50Q1202-151 944-151Q686-151 543-87.50Q400-24 400 89.50Q400 203 543 266Q686 329 944.50 329Q1203 329 1344.50 266Q1486 203 1486 89.50M660 91Q660 13 942 13Q1224 13 1224 91.50Q1224 170 912 170Q793 170 738.50 150Q684 130 672 116.50Q660 103 660 91Z"  horiz-adv-x="1746" vert-adv-y="2048"  />

      
      <glyph glyph-name="uniACC5" unicode="&#xACC5;" d="M597 1380Q480 1376 288 1376L148 1376L148 1578Q148 1578 542 1578Q707 1578 857 1583Q852 1248 677.50 994.50Q503 741 169 607L20 786Q300 884 438.50 1045.50Q577 1207 597 1380M1575 612L1343 612L1343 1672L1575 1672L1575 612M1009 1354L1009 1652L1235 1652L1235 612L1009 612L1009 812L728 812L728 1003L1011 1003L1011 1155L726 1155L726 1354L1009 1354M1328-141L1328 335L361 335L361 541L1574 541L1574-141L1328-141Z"  horiz-adv-x="1746" vert-adv-y="2048"  />

      
      <glyph glyph-name="uniACC6" unicode="&#xACC6;" d="M597 1380Q480 1376 288 1376L148 1376L148 1578Q148 1578 542 1578Q707 1578 857 1583Q852 1250 676 1003Q500 756 167 626L20 806Q295 899 436 1056Q577 1213 597 1380M1575 627L1343 627L1343 1672L1575 1672L1575 627M1009 1358L1009 1652L1235 1652L1235 627L1009 627L1009 826L728 826L728 1018L1011 1018L1011 1159L726 1159L726 1358L1009 1358M1326-141L1326 354L955 354L955 560L1574 560L1574-141L1326-141M676-141L676 354L311 354L311 560L924 560L924-141L676-141Z"  horiz-adv-x="1746" vert-adv-y="2048"  />

      
      <glyph glyph-name="uniACC7" unicode="&#xACC7;" d="M596 1380Q480 1376 287 1376L147 1376L147 1578Q147 1578 542 1578Q706 1578 857 1583Q851 1250 675.50 1003Q500 756 166 626L19 806Q294 899 435.50 1056Q577 1213 596 1380M1575 627L1342 627L1342 1672L1575 1672L1575 627M1008 1358L1008 1652L1235 1652L1235 627L1008 627L1008 826L727 826L727 1018L1010 1018L1010 1159L725 1159L725 1358L1008 1358M1583-148Q1401-53 1301 90Q1203-55 1014-160L942-81L942-136L697-136L697 354L280 354L280 560L942 560L942 58Q1091 146 1146 264.50Q1201 383 1195 580L1433 580Q1436 448 1408 328Q1459 223 1541.50 152.50Q1624 82 1743 25L1583-148Z"  horiz-adv-x="1737" vert-adv-y="2048"  />

      
      <glyph glyph-name="uniACC9" unicode="&#xACC9;" d="M595 1380Q479 1376 286 1376L147 1376L147 1578Q147 1578 541 1578Q705 1578 856 1583Q851 1250 675 1003Q499 756 166 626L18 806Q293 899 434.50 1056Q576 1213 595 1380M1574 627L1342 627L1342 1672L1574 1672L1574 627M1007 1358L1007 1652L1234 1652L1234 627L1007 627L1007 826L726 826L726 1018L1009 1018L1009 1159L724 1159L724 1358L1007 1358M868-68Q675-110 433-110L278-110L278 580L530 580L530 98L551 98Q726 98 891 147L891 70Q1052 142 1151.50 224.50Q1251 307 1278 361Q1240 357 1187 357L934 357L934 560L1302 560Q1457 560 1567 564Q1567 384 1422 205Q1543 107 1733 35L1594-142Q1398-59 1272 55Q1121-66 934-150L868-68Z"  horiz-adv-x="1737" vert-adv-y="2048"  />

      
      <glyph glyph-name="uniACCA" unicode="&#xACCA;" d="M600 1387Q483 1381 293 1381L147 1381L147 1578Q147 1578 547 1578Q712 1578 862 1583Q853 1260 674 1031.50Q495 803 159 685L19 865Q291 943 434.50 1085Q578 1227 600 1387M1575 748L1342 748L1342 1672L1575 1672L1575 748M1008 1373L1008 1652L1234 1652L1234 748L1008 748L1008 861L726 861L726 1046L1010 1046L1010 1179L724 1179L724 1373L1008 1373M872-64Q716-112 474-112L283-112L283 589L527 589L527 87L567 87Q711 87 872 134L872-64M839 301L839 459L1612 459L1612 301L839 301M1010 519L1010 685L1455 685L1455 519L1010 519M1556 61Q1556 61 1556 12.50Q1556-36 1463.50-94.50Q1371-153 1231.50-153Q1092-153 1002.50-94.50Q913-36 913 61Q913 158 996.50 216Q1080 274 1231 274Q1382 274 1469 216Q1556 158 1556 61M1122 64.50Q1122 64.50 1122 50.75Q1122 37 1150.50 18.50Q1179 0 1232 0Q1285 0 1314.50 18.50Q1344 37 1344 64.50Q1344 92 1315 109Q1286 126 1232 126Q1178 126 1150 109Q1122 92 1122 64.50Z"  horiz-adv-x="1743" vert-adv-y="2048"  />

      
      <glyph glyph-name="uniACCB" unicode="&#xACCB;" d="M596 1380Q479 1376 288 1376L147 1376L147 1578Q147 1578 541 1578Q706 1578 856 1583Q851 1250 675 1003Q499 756 166 626L19 806Q294 899 435 1056Q576 1213 596 1380M1575 627L1342 627L1342 1672L1575 1672L1575 627M1008 1358L1008 1652L1235 1652L1235 627L1008 627L1008 826L726 826L726 1018L1010 1018L1010 1159L724 1159L724 1358L1008 1358M395-110L395 560L1578 560L1578 352L644 352L644 96L1610 96L1610-110L395-110Z"  horiz-adv-x="1743" vert-adv-y="2048"  />

      
      <glyph glyph-name="uniACCD" unicode="&#xACCD;" d="M603 1389Q486 1383 296 1383L148 1383L148 1578Q148 1578 548 1578Q716 1578 865 1583Q854 1264 673.50 1048Q493 832 156 724L20 904Q288 975 433.50 1106Q579 1237 603 1389M1575 770L1343 770L1343 1672L1575 1672L1575 770M1009 1385L1009 1652L1235 1652L1235 770L1009 770L1009 902L728 902L728 1079L1011 1079L1011 1198L726 1198L726 1385L1009 1385M1333-138L1333 511L984 511L984 705L1575 705L1575-138L1333-138M1065-74Q921-118 698-118L325-118L325 379L705 379L705 511L325 511L325 705L947 705L947 202L565 202L565 67L767 67Q943 67 1065 111L1065-74Z"  horiz-adv-x="1746" vert-adv-y="2048"  />

      
      <glyph glyph-name="uniACCE" unicode="&#xACCE;" d="M603 1389Q486 1383 296 1383L148 1383L148 1578Q148 1578 548 1578Q716 1578 865 1583Q854 1264 673.50 1048Q493 832 156 724L20 904Q288 975 433.50 1106Q579 1237 603 1389M1575 770L1343 770L1343 1672L1575 1672L1575 770M1009 1385L1009 1652L1235 1652L1235 770L1009 770L1009 902L728 902L728 1079L1011 1079L1011 1198L726 1198L726 1385L1009 1385M990 705L1575 705L1575-118L990-118L990 705M1213 519L1213 59L1341 59L1341 519L1213 519M959-74Q817-118 591-118L332-118L332 383L687 383L687 509L332 509L332 705L916 705L916 202L571 202L571 69L661 69Q836 69 959 113L959-74Z"  horiz-adv-x="1746" vert-adv-y="2048"  />

      
      <glyph glyph-name="uniACCF" unicode="&#xACCF;" d="M603 1389Q486 1383 296 1383L148 1383L148 1578Q148 1578 548 1578Q716 1578 865 1583Q854 1264 673.50 1048Q493 832 156 724L20 904Q288 975 433.50 1106Q579 1237 603 1389M1575 770L1343 770L1343 1672L1575 1672L1575 770M1009 1385L1009 1652L1235 1652L1235 770L1009 770L1009 902L728 902L728 1079L1011 1079L1011 1198L726 1198L726 1385L1009 1385M969 696L1193 696L1193 435L1341 435L1341 705L1575 705L1575-118L969-118L969 696M1193 253L1193 65L1341 65L1341 253L1193 253M937-74Q795-118 570-118L309-118L309 381L658 381L658 502L309 502L309 696L889 696L889 200L545 200L545 76L640 76Q815 76 937 121L937-74Z"  horiz-adv-x="1746" vert-adv-y="2048"  />

      
      <glyph glyph-name="uniACD0" unicode="&#xACD0;" d="M600 1389Q485 1383 294 1383L145 1383L145 1578Q145 1578 545 1578Q714 1578 864 1583Q852 1264 671.50 1048Q491 832 154 724L18 904Q286 975 431.50 1106Q577 1237 600 1389M1574 770L1340 770L1340 1672L1574 1672L1574 770M1007 1385L1007 1652L1234 1652L1234 770L1007 770L1007 902L726 902L726 1079L1009 1079L1009 1198L724 1198L724 1385L1007 1385M979 48Q1277 269 1226 705L1469 705Q1469 563 1452 458Q1519 158 1776-2L1608-152Q1434-28 1351 154Q1261-28 1084-158L979-75L979-74Q838-118 612-118L299-118L299 381L709 381L709 502L299 502L299 696L938 696L938 200L538 200L538 76L682 76Q858 76 979 121L979 48Z"  horiz-adv-x="1733" vert-adv-y="2048"  />

      
      <glyph glyph-name="uniACD1" unicode="&#xACD1;" d="M602 1389Q485 1383 295 1383L147 1383L147 1578Q147 1578 547 1578Q715 1578 864 1583Q853 1264 672.50 1048Q492 832 156 724L19 904Q288 975 433 1106Q578 1237 602 1389M1575 770L1342 770L1342 1672L1575 1672L1575 770M1009 1385L1009 1652L1235 1652L1235 770L1009 770L1009 902L727 902L727 1079L1011 1079L1011 1198L726 1198L726 1385L1009 1385M990 696L1579 696L1579 504L1220 504L1220 379L1575 379L1575 202L1220 202L1220 74L1598 74L1598-118L990-118L990 696M950-74Q808-118 582-118L311-118L311 381L679 381L679 502L311 502L311 696L916 696L916 200L548 200L548 76L653 76Q828 76 950 121L950-74Z"  horiz-adv-x="1744" vert-adv-y="2048"  />

      
      <glyph glyph-name="uniACD2" unicode="&#xACD2;" d="M602 1389Q485 1383 294 1383L147 1383L147 1578Q147 1578 547 1578Q714 1578 864 1583Q853 1264 672.50 1048Q492 832 156 724L19 904Q287 975 432.50 1106Q578 1237 602 1389M1575 770L1342 770L1342 1672L1575 1672L1575 770M1009 1385L1009 1652L1235 1652L1235 770L1009 770L1009 902L727 902L727 1079L1011 1079L1011 1198L725 1198L725 1385L1009 1385M1625 696L1625 502L1540 502L1536 72L1640 72L1640-118L964-118L964 72L1055 72L1055 506L964 506L964 696L1625 696M1346 507L1251 507L1251 71L1342 71L1346 507M933-74Q790-118 565-118L288-118L288 381L673 381L673 502L288 502L288 696L903 696L903 200L525 200L525 76L635 76Q810 76 933 121L933-74Z"  horiz-adv-x="1742" vert-adv-y="2048"  />

      
      <glyph glyph-name="uniACD3" unicode="&#xACD3;" d="M602 1389Q485 1383 295 1383L147 1383L147 1578Q147 1578 547 1578Q714 1578 864 1583Q853 1264 672.50 1048Q492 832 156 724L19 904Q287 975 433 1106Q579 1237 602 1389M1575 770L1342 770L1342 1672L1575 1672L1575 770M1009 1385L1009 1652L1235 1652L1235 770L1009 770L1009 902L727 902L727 1079L1011 1079L1011 1198L725 1198L725 1385L1009 1385M962-74Q820-118 589-118L308-118L308 381L660 381L660 502L308 502L308 696L898 696L898 200L548 200L548 76L668 76Q818 76 962 121L962-74M951 323L951 480L1670 480L1670 323L951 323M1080 537L1080 705L1536 705L1536 537L1080 537M1001 73Q1001 73 1001 126.50Q1001 180 1085.50 237Q1170 294 1307 294Q1444 294 1530 237Q1616 180 1616 73Q1616-34 1524.50-91.50Q1433-149 1309-149Q1185-149 1093-91.50Q1001-34 1001 73M1212 73Q1212 73 1212 57Q1212 41 1239.50 22.50Q1267 4 1307.50 4Q1348 4 1376.50 22.50Q1405 41 1405 73Q1405 105 1378.50 124Q1352 143 1307.50 143Q1263 143 1237.50 124Q1212 105 1212 73Z"  horiz-adv-x="1740" vert-adv-y="2048"  />

      
      <glyph glyph-name="uniACD4" unicode="&#xACD4;" d="M599 1383Q482 1378 290 1378L148 1378L148 1578Q148 1578 544 1578Q709 1578 859 1583Q854 1254 676 1012Q498 770 164 646L20 825Q294 914 435.50 1065.50Q577 1217 599 1383M1575 649L1343 649L1343 1672L1575 1672L1575 649M1009 1360L1009 1652L1235 1652L1235 649L1009 649L1009 833L728 833L728 1025L1011 1025L1011 1161L726 1161L726 1360L1009 1360M1575-110L396-110L396 580L1575 580L1575-110M1328 372L645 372L645 92L1328 92L1328 372Z"  horiz-adv-x="1746" vert-adv-y="2048"  />

      
      <glyph glyph-name="uniACD6" unicode="&#xACD6;" d="M599 1387Q483 1381 292 1381L147 1381L147 1578Q147 1578 546 1578Q712 1578 862 1583Q852 1260 673.50 1031.50Q495 803 158 685L18 865Q290 943 433.50 1085Q577 1227 599 1387M1574 715L1341 715L1341 1672L1574 1672L1574 715M1007 1373L1007 1652L1234 1652L1234 715L1007 715L1007 861L726 861L726 1046L1009 1046L1009 1179L724 1179L724 1373L1007 1373M1606-137Q1434-33 1349 121Q1257-33 1081-142L999-75L999-110L313-110L313 627L545 627L545 439L774 439L774 637L999 637L999 72Q1148 168 1202 307.50Q1256 447 1240 646L1471 646Q1471 514 1455 410Q1519 170 1775 26L1606-137M780 61L780 257L544 257L544 61L780 61Z"  horiz-adv-x="1734" vert-adv-y="2048"  />

      
      <glyph glyph-name="uniACD8" unicode="&#xACD8;" d="M597 1383Q481 1378 288 1378L147 1378L147 1578Q147 1578 543 1578Q707 1578 858 1583Q853 1254 675 1012Q497 770 163 646L19 825Q292 914 434 1065.50Q576 1217 597 1383M1575 649L1342 649L1342 1672L1575 1672L1575 649M1007 1360L1007 1652L1235 1652L1235 649L1007 649L1007 833L726 833L726 1025L1009 1025L1009 1161L724 1161L724 1360L1007 1360M1375 589Q1375 485 1349 380Q1397 257 1486.50 181Q1576 105 1724 40L1571-135Q1357-47 1250 140Q1144-35 952-142Q780-39 671 137Q560-35 336-142L174 27Q367 116 463.50 242Q560 368 550 580L802 580Q799 455 771 355Q834 212 960 136Q1145 289 1126 589L1375 589Z"  horiz-adv-x="1737" vert-adv-y="2048"  />

      
      <glyph glyph-name="uniACD9" unicode="&#xACD9;" d="M597 1380Q480 1376 288 1376L148 1376L148 1578Q148 1578 542 1578Q707 1578 857 1583Q851 1248 677 994.50Q503 741 168 607L19 786Q300 884 438.50 1045.50Q577 1207 597 1380M1575 550L1343 550L1343 1672L1575 1672L1575 550M1009 1354L1009 1652L1235 1652L1235 637L1009 637L1009 812L728 812L728 1003L1011 1003L1011 1155L726 1155L726 1354L1009 1354M339 207Q339 207 339 284Q339 361 495.50 465Q652 569 959 569Q1266 569 1425.50 465Q1585 361 1585 207Q1585 53 1425.50-50Q1266-153 959-153Q652-153 495.50-50Q339 53 339 207M1333 207.50Q1333 207.50 1333 237.75Q1333 268 1246 318Q1159 368 956 368Q753 368 672 318Q591 268 591 207.50Q591 147 672 96.50Q753 46 956 46Q1159 46 1246 96.50Q1333 147 1333 207.50Z"  horiz-adv-x="1745" vert-adv-y="2048"  />

      
      <glyph glyph-name="uniACDA" unicode="&#xACDA;" d="M598 1383Q482 1378 289 1378L147 1378L147 1578Q147 1578 543 1578Q708 1578 859 1583Q853 1254 675.50 1012Q498 770 163 646L19 825Q293 914 435 1065.50Q577 1217 598 1383M1575 649L1342 649L1342 1672L1575 1672L1575 649M1008 1360L1008 1652L1235 1652L1235 649L1008 649L1008 833L727 833L727 1025L1010 1025L1010 1161L725 1161L725 1360L1008 1360M1158 382Q1022 375 755 375L388 375L388 580L1090 580Q1361 580 1489 583Q1557 583 1529 499Q1475 338 1220 189Q1433 106 1746 48L1611-138Q1270-60 996 76Q726-47 333-142L207 44Q604 125 847 221Q1090 317 1158 382Z"  horiz-adv-x="1737" vert-adv-y="2048"  />

      
      <glyph glyph-name="uniACDB" unicode="&#xACDB;" d="M602 1389Q485 1383 294 1383L147 1383L147 1578Q147 1578 547 1578Q714 1578 864 1583Q853 1264 672.50 1048Q492 832 156 724L19 904Q287 975 432.50 1106Q578 1237 602 1389M1575 643L1342 643L1342 1672L1575 1672L1575 643M1009 902L727 902L727 1079L1010 1079L1010 1198L725 1198L725 1385L1009 1385L1009 1652L1235 1652L1235 787L1009 787L1009 902M1084 278Q954 270 685 270L384 270L384 453L1037 453Q1293 453 1420 457Q1448 457 1461 438.50Q1474 420 1462 382Q1408 252 1209 145Q1405 86 1714 49L1601-138Q1253-77 973 35Q684-77 324-139L206 46Q568 98 796 166.50Q1024 235 1084 278M597 726L1196 726L1196 539L597 539L597 726Z"  horiz-adv-x="1738" vert-adv-y="2048"  />

      
      <glyph glyph-name="uniACDC" unicode="&#xACDC;" d="M597 1380Q480 1376 288 1376L148 1376L148 1578Q148 1578 542 1578Q707 1578 857 1583Q852 1250 676 1003Q500 756 167 626L20 806Q295 899 436 1056Q577 1213 597 1380M1575 627L1343 627L1343 1672L1575 1672L1575 627M1009 1358L1009 1652L1235 1652L1235 627L1009 627L1009 826L728 826L728 1018L1011 1018L1011 1159L726 1159L726 1358L1009 1358M832 235Q1124 235 1326 260L1326 357L370 357L370 558L1575 558L1575-143L1326-143L1326 78Q1121 44 800 44L352 44L352 235L832 235Z"  horiz-adv-x="1746" vert-adv-y="2048"  />

      
      <glyph glyph-name="uniACDD" unicode="&#xACDD;" d="M602 1389Q485 1383 295 1383L147 1383L147 1578Q147 1578 547 1578Q714 1578 864 1583Q853 1264 672.50 1048Q492 832 155 724L19 904Q287 975 432.50 1106Q578 1237 602 1389M1575 770L1342 770L1342 1672L1575 1672L1575 770M1008 1385L1008 1652L1234 1652L1234 770L1008 770L1008 902L726 902L726 1079L1010 1079L1010 1198L724 1198L724 1385L1008 1385M638 203L638 82L1612 82L1612-110L389-110L389 696L1578 696L1578 502L638 502L638 385L1575 385L1575 203L638 203Z"  horiz-adv-x="1743" vert-adv-y="2048"  />

      
      <glyph glyph-name="uniACDE" unicode="&#xACDE;" d="M601 1387Q484 1381 294 1381L148 1381L148 1578Q148 1578 548 1578Q713 1578 863 1583Q853 1260 674.50 1031.50Q496 803 160 685L19 865Q292 943 435.50 1085Q579 1227 601 1387M1575 666L1343 666L1343 1672L1575 1672L1575 666M1009 1373L1009 1652L1235 1652L1235 666L1009 666L1009 861L727 861L727 1046L1011 1046L1011 1179L725 1179L725 1373L1009 1373M1618-110L325-110L325 89L550 89L544 401L345 401L345 599L1591 599L1591 401L1385 401L1380 89L1618 89L1618-110M1135 89L1138 401L789 401L793 89L1135 89Z"  horiz-adv-x="1743" vert-adv-y="2048"  />

      
      <glyph glyph-name="uniACDF" unicode="&#xACDF;" d="M602 1389Q485 1383 295 1383L147 1383L147 1578Q147 1578 547 1578Q715 1578 864 1583Q853 1264 672.50 1048Q492 832 156 724L19 904Q288 975 433 1106Q578 1237 602 1389M1575 643L1342 643L1342 1672L1575 1672L1575 643M1009 902L727 902L727 1079L1011 1079L1011 1198L726 1198L726 1385L1009 1385L1009 1652L1235 1652L1235 787L1009 787L1009 902M244 346L244 507L1598 507L1598 346L244 346M572 564L572 734L1231 734L1231 564L572 564M1498 84Q1498 84 1498 28Q1498-28 1352-89.50Q1206-151 941.50-151Q677-151 531.50-89.50Q386-28 386 84Q386 196 530.50 256.50Q675 317 941.50 317Q1208 317 1353 256.50Q1498 196 1498 84M942 9Q942 9 1090 9Q1238 9 1238 86Q1238 163 906 163Q781 163 725 143.50Q669 124 657.50 110.50Q646 97 646 86Q646 9 942 9Z"  horiz-adv-x="1744" vert-adv-y="2048"  />

      
      <glyph glyph-name="uniACE2" unicode="&#xACE2;" d="M1449 1624Q1437 1259 1386 987L1143 987Q1190 1223 1197 1419L232 1419L232 1624L1449 1624M850 1198L850 889L1719 889L1719 681L9 681L9 889L598 889L598 1198L850 1198M1234-141L1234 327L873 327L873 541L1476 541L1476-141L1234-141M596-141L596 327L227 327L227 541L842 541L842-141L596-141Z"  horiz-adv-x="1738" vert-adv-y="2048"  />

      
      <glyph glyph-name="uniACE3" unicode="&#xACE3;" d="M1449 1624Q1437 1270 1386 1006L1143 1006Q1188 1228 1197 1421L232 1421L232 1624L1449 1624M850 1217L850 909L1719 909L1719 701L9 701L9 909L598 909L598 1217L850 1217M1356 599Q1361 466 1331 342Q1428 138 1666 25L1505-150Q1321-43 1223 98Q1123-54 937-162L881-99L881-136L636-136L636 374L230 374L230 580L881 580L881 69Q1021 157 1072 279.50Q1123 402 1118 599L1356 599Z"  horiz-adv-x="1738" vert-adv-y="2048"  />

      
      <glyph glyph-name="uniACE5" unicode="&#xACE5;" d="M1449 1624Q1437 1270 1386 1006L1143 1006Q1188 1228 1197 1421L232 1421L232 1624L1449 1624M850 1217L850 909L1719 909L1719 701L9 701L9 909L598 909L598 1217L850 1217M1503 564Q1503 388 1366 211Q1479 115 1671 36L1529-142Q1341-61 1215 55Q1061-70 872-150L810-76Q643-110 408-110L253-110L253 580L506 580L506 98L527 98Q702 98 867 147L867 83Q1014 149 1103.50 230Q1193 311 1215 361Q1176 357 1124 357L872 357L872 560Q872 560 1238 560Q1394 560 1503 564Z"  horiz-adv-x="1738" vert-adv-y="2048"  />

      
      <glyph glyph-name="uniACE6" unicode="&#xACE6;" d="M1449 1624Q1437 1292 1386 1044L1143 1044Q1188 1243 1196 1427L232 1427L232 1624L1449 1624M850 1259L850 987L1719 987L1719 789L9 789L9 987L598 987L598 1259L850 1259M836-62Q681-110 437-110L260-110L260 629L504 629L504 90L531 90Q675 90 836 138L836-62M788 307L788 467L1559 467L1559 307L788 307M959 522L959 685L1402 685L1402 522L959 522M1505 67.50Q1505 67.50 1505 17.75Q1505-32 1412.50-91.50Q1320-151 1179.50-151Q1039-151 950-91.50Q861-32 861 67.50Q861 167 944 224Q1027 281 1178 281Q1329 281 1417 224Q1505 167 1505 67.50M1180 7Q1233 7 1262.50 25Q1292 43 1292 70.50Q1292 98 1262.50 115.50Q1233 133 1180 133Q1127 133 1098.50 115.50Q1070 98 1070 70.50Q1070 43 1098.50 25Q1127 7 1180 7Z"  horiz-adv-x="1738" vert-adv-y="2048"  />

      
      <glyph glyph-name="uniACE9" unicode="&#xACE9;" d="M1449 1624Q1437 1302 1386 1055L1143 1055Q1188 1243 1197 1429L232 1429L232 1624L1449 1624M850 1261L850 997L1719 997L1719 798L9 798L9 997L598 997L598 1261L850 1261M1220-138L1220 483L896 483L896 685L1462 685L1462-138L1220-138M978-93Q834-138 609-138L260-138L260 372L616 372L616 485L260 485L260 685L859 685L859 184L500 184L500 69L680 69Q855 69 978 113L978-93Z"  horiz-adv-x="1738" vert-adv-y="2048"  />

      
      </font>
</defs>
</svg>
