<?xml version="1.0" standalone="no"?>
  <!DOCTYPE svg PUBLIC "-//W3C//DTD SVG 1.1//EN" "http://www.w3.org/Graphics/SVG/1.1/DTD/svg11.dtd" >
  <svg>
  <metadata>
  Created by font-carrier
  </metadata>
  <defs>
  <font id="NanumBarunRobotoLight" horiz-adv-x="2130" vert-adv-y="2130" >
    <font-face
      
      font-family="NanumBarunRoboto Light"
      
      font-weight="400"
      
      font-stretch="normal"
      
      units-per-em="2048"
      
      ascent="2146"
      
      descent="-555"
      
    />
      <missing-glyph />

      
      <glyph glyph-name="x" unicode="&#x78;" horiz-adv-x="100"
        d="M20 20 L50 20 L50 -20 Z" />
      

      
      <glyph glyph-name="uniB662" unicode="&#xB662;" d="M534 1048L534 1598L936 1598L936 1479L670 1479L670 1165L955 1165L955 1048L534 1048M511 1079Q377 1045 215 1045L103 1045L103 1598L503 1598L503 1479L237 1479L237 1161L293 1161Q367 1161 511 1192L511 1079M1564 1666L1564 613L1433 613L1433 1099L1196 1099L1196 613L1066 613L1066 1647L1196 1647L1196 1223L1433 1223L1433 1666L1564 1666M1020 741Q714 684 285 684L46 684L46 798Q46 808 233 808Q420 808 457 810L457 1047L591 1047L591 817Q830 826 1020 860L1020 741M1644 24L1644-101L347-101L347 24L589 24L577 401L368 401L368 525L1615 525L1615 401L1406 401L1394 24L1644 24M725 24L1256 24L1268 401L714 401L725 24Z"  horiz-adv-x="1743" vert-adv-y="2048"  />

      
      <glyph glyph-name="uniB663" unicode="&#xB663;" d="M535 1080L535 1598L937 1598L937 1482L671 1482L671 1195L956 1195L956 1080L535 1080M511 1109Q378 1075 215 1075L103 1075L103 1598L503 1598L503 1482L237 1482L237 1191L293 1191Q367 1191 511 1220L511 1109M1020 822Q716 765 285 765L46 765L46 878Q46 888 233 888Q420 888 457 890L457 1080L591 1080L591 896Q831 906 1020 939L1020 822M1564 1666L1564 611L1433 611L1433 1119L1196 1119L1196 708L1067 708L1067 1647L1196 1647L1196 1241L1433 1241L1433 1666L1564 1666M1596 342L343 342L343 461L1596 461L1596 342M1260 533L655 533L655 656L1260 656L1260 533M1491 69.50Q1491 69.50 1491 12.75Q1491-44 1347.50-96.50Q1204-149 968.50-149Q733-149 588.50-96.50Q444-44 444 69.50Q444 183 585.50 236Q727 289 967.50 289Q1208 289 1349.50 236Q1491 183 1491 69.50M595 69Q595 69 595 46.50Q595 24 692-4.50Q789-33 967.50-33Q1146-33 1244-4Q1342 25 1342 69.50Q1342 114 1250 144Q1158 174 968 174Q778 174 686.50 144Q595 114 595 69Z"  horiz-adv-x="1746" vert-adv-y="2048"  />

      
      <glyph glyph-name="uniB665" unicode="&#xB665;" d="M714 1019L714 1612L1172 1612L1172 1485L853 1485L853 1145L1193 1145L1193 1019L714 1019M667 1049Q517 1015 332 1015L204 1015L204 1612L658 1612L658 1485L345 1485L345 1142L419 1142Q518 1142 667 1172L667 1049M1566 553L1432 553L1432 1666L1566 1666L1566 553M1376 706Q991 639 442 639L65 639L65 755Q65 765 324.50 765Q584 765 622 767L622 1011L764 1011L764 771Q1142 787 1376 826L1376 706M1566-133L1428-133L1428 336L398 336L398 461L1566 461L1566-133Z"  horiz-adv-x="1748" vert-adv-y="2048"  />

      
      <glyph glyph-name="uniB666" unicode="&#xB666;" d="M714 1028L714 1612L1172 1612L1172 1485L853 1485L853 1156L1193 1156L1193 1028L714 1028M667 1059Q517 1025 332 1025L204 1025L204 1612L658 1612L658 1485L345 1485L345 1152L419 1152Q518 1152 667 1182L667 1059M1566 575L1432 575L1432 1666L1566 1666L1566 575M1376 717Q991 650 442 650L65 650L65 769Q65 779 324.50 779Q584 779 622 781L622 1023L764 1023L764 785Q1122 795 1376 839L1376 717M1566-133L1428-133L1428 362L987 362L987 486L1566 486L1566-133M931-133L795-133L795 362L347 362L347 486L931 486L931-133Z"  horiz-adv-x="1748" vert-adv-y="2048"  />

      
      <glyph glyph-name="uniB667" unicode="&#xB667;" d="M713 1028L713 1612L1172 1612L1172 1485L854 1485L854 1156L1193 1156L1193 1028L713 1028M667 1059Q518 1025 332 1025L205 1025L205 1612L657 1612L657 1485L345 1485L345 1152L419 1152Q519 1152 667 1182L667 1059M1565 575L1431 575L1431 1666L1565 1666L1565 575M1376 717Q992 650 443 650L65 650L65 769Q65 779 324.50 779Q584 779 623 781L623 1023L763 1023L763 785Q1122 795 1376 839L1376 717M923-39Q1298 139 1273 506L1415 506Q1415 411 1401 328Q1428 218 1518 121.50Q1608 25 1744-31L1637-134Q1429-41 1336 150Q1243-32 1026-143L923-39M791-126L791 362L311 362L311 486L930 486L930-126L791-126Z"  horiz-adv-x="1739" vert-adv-y="2048"  />

      
      <glyph glyph-name="uniB669" unicode="&#xB669;" d="M713 1028L713 1612L1172 1612L1172 1485L854 1485L854 1156L1193 1156L1193 1028L713 1028M666 1059Q518 1025 332 1025L205 1025L205 1612L657 1612L657 1485L344 1485L344 1152L419 1152Q519 1152 666 1182L666 1059M1565 575L1432 575L1432 1666L1565 1666L1565 575M1376 717Q992 650 443 650L65 650L65 769Q65 779 324.50 779Q584 779 623 781L623 1023L763 1023L763 785Q1122 795 1376 839L1376 717M1549 494Q1540 319 1396 180Q1517 77 1714 3L1608-104Q1432-26 1304 96Q1158-25 945-106L900-54Q741-101 474-101L344-101L344 502L491 502L491 26L558 26Q771 26 923 77L923 30Q1104 93 1227 196.50Q1350 300 1374 362Q1297 358 1116 358L967 358L967 486L1193 486Q1399 486 1549 494Z"  horiz-adv-x="1740" vert-adv-y="2048"  />

      
      <glyph glyph-name="uniB66A" unicode="&#xB66A;" d="M714 1048L714 1612L1172 1612L1172 1485L854 1485L854 1175L1193 1175L1193 1048L714 1048M668 1078Q518 1045 333 1045L205 1045L205 1612L658 1612L658 1485L346 1485L346 1171L419 1171Q519 1171 668 1201L668 1078M1432 660L1432 1666L1565 1666L1565 660L1432 660M1376 746Q992 680 443 680L65 680L65 798Q65 808 324.50 808Q584 808 623 810L623 1047L763 1047L763 814Q1123 824 1376 867L1376 746M935-48Q756-101 486-101L350-101L350 535L491 535L491 26L569 26Q784 26 935 77L935-48M1624 305L886 305L886 422L1624 422L1624 305M941 64.50Q941 64.50 941 111.75Q941 159 1026.50 214.50Q1112 270 1253.50 270Q1395 270 1483 215Q1571 160 1571 65Q1571-30 1481-85Q1391-140 1255.50-140Q1120-140 1030.50-85Q941-30 941 64.50M1430 67.50Q1430 67.50 1430 85.25Q1430 103 1387.50 129.50Q1345 156 1254 156Q1163 156 1122 130Q1081 104 1081 68Q1081 32 1126 4Q1171-24 1256-24Q1341-24 1385.50 4Q1430 32 1430 67.50M1465 478L1044 478L1044 599L1465 599L1465 478Z"  horiz-adv-x="1745" vert-adv-y="2048"  />

      
      <glyph glyph-name="uniB66B" unicode="&#xB66B;" d="M714 1028L714 1612L1171 1612L1171 1485L853 1485L853 1156L1192 1156L1192 1028L714 1028M667 1059Q518 1025 332 1025L204 1025L204 1612L658 1612L658 1485L345 1485L345 1152L419 1152Q518 1152 667 1182L667 1059M1566 575L1432 575L1432 1666L1566 1666L1566 575M1376 717Q992 650 442 650L65 650L65 769Q65 779 324.50 779Q584 779 622 781L622 1023L764 1023L764 785Q1123 795 1376 839L1376 717M1602-101L433-101L433 484L1569 484L1569 358L574 358L574 24L1602 24L1602-101Z"  horiz-adv-x="1746" vert-adv-y="2048"  />

      
      <glyph glyph-name="uniB66C" unicode="&#xB66C;" d="M714 1067L714 1612L1171 1612L1171 1487L853 1487L853 1193L1192 1193L1192 1067L714 1067M667 1098Q517 1064 332 1064L204 1064L204 1612L658 1612L658 1487L345 1487L345 1189L419 1189Q518 1189 667 1219L667 1098M1432 719L1432 1666L1565 1666L1565 719L1432 719M1376 817Q991 749 442 749L65 749L65 868Q65 878 324.50 878Q584 878 622 880L622 1070L763 1070L763 884Q1122 894 1376 937L1376 817M1605 19L1605-109L435-109L435 328L1428 328L1428 507L435 507L435 633L1565 633L1565 206L574 206L574 19L1605 19Z"  horiz-adv-x="1745" vert-adv-y="2048"  />

      
      <glyph glyph-name="uniB66D" unicode="&#xB66D;" d="M714 1067L714 1612L1172 1612L1172 1487L853 1487L853 1193L1193 1193L1193 1067L714 1067M667 1098Q517 1064 332 1064L204 1064L204 1612L658 1612L658 1487L345 1487L345 1189L419 1189Q518 1189 667 1219L667 1098M1432 719L1432 1666L1566 1666L1566 719L1432 719M1376 817Q991 749 442 749L65 749L65 868Q65 878 324.50 878Q584 878 622 880L622 1070L764 1070L764 884Q1122 894 1376 937L1376 817M1566-133L1428-133L1428 512L993 512L993 637L1566 637L1566-133M1088-59Q964-109 736-109L390-109L390 330L811 330L811 512L390 512L390 637L950 637L950 208L527 208L527 19L795 19Q969 19 1088 67L1088-59Z"  horiz-adv-x="1748" vert-adv-y="2048"  />

      
      <glyph glyph-name="uniB66E" unicode="&#xB66E;" d="M714 1067L714 1612L1172 1612L1172 1487L853 1487L853 1193L1193 1193L1193 1067L714 1067M667 1098Q517 1064 332 1064L204 1064L204 1612L658 1612L658 1487L345 1487L345 1189L419 1189Q518 1189 667 1219L667 1098M1432 719L1432 1666L1566 1666L1566 719L1432 719M1376 817Q991 749 442 749L65 749L65 868Q65 878 324.50 878Q584 878 622 880L622 1070L764 1070L764 884Q1122 894 1376 937L1376 817M972-65Q851-112 613-112L370-112L370 330L793 330L793 512L370 512L370 637L927 637L927 208L507 208L507 14L672 14Q853 14 972 63L972-65M1000-109L1000 637L1566 637L1566-109L1000-109M1430 514L1133 514L1133 17L1430 17L1430 514Z"  horiz-adv-x="1748" vert-adv-y="2048"  />

      
      <glyph glyph-name="uniB66F" unicode="&#xB66F;" d="M714 1067L714 1612L1172 1612L1172 1487L853 1487L853 1193L1193 1193L1193 1067L714 1067M667 1098Q517 1064 332 1064L204 1064L204 1612L658 1612L658 1487L345 1487L345 1189L419 1189Q518 1189 667 1219L667 1098M1432 719L1432 1666L1566 1666L1566 719L1432 719M1376 817Q991 749 442 749L65 749L65 868Q65 878 324.50 878Q584 878 622 880L622 1070L764 1070L764 884Q1122 894 1376 937L1376 817M989-109L989 637L1123 637L1123 401L1430 401L1430 649L1566 649L1566-109L989-109M1430 280L1123 280L1123 14L1430 14L1430 280M963-65Q843-112 610-112L370-112L370 330L778 330L778 512L370 512L370 637L911 637L911 208L507 208L507 14L668 14Q845 14 963 63L963-65Z"  horiz-adv-x="1748" vert-adv-y="2048"  />

      
      <glyph glyph-name="uniB670" unicode="&#xB670;" d="M713 1067L713 1612L1171 1612L1171 1487L853 1487L853 1193L1192 1193L1192 1067L713 1067M667 1098Q517 1064 331 1064L204 1064L204 1612L658 1612L658 1487L344 1487L344 1189L419 1189Q518 1189 667 1219L667 1098M1432 719L1432 1666L1565 1666L1565 719L1432 719M1376 817Q991 749 442 749L65 749L65 868Q65 878 324.50 878Q584 878 622 880L622 1070L763 1070L763 884Q1121 894 1376 937L1376 817M933-63Q788-109 567-109L315-109L315 323L761 323L761 501L315 501L315 628L900 628L900 202L451 202L451 17L627 17Q816 17 933 63L933 13Q1077 96 1154 261Q1231 426 1214 635L1356 635Q1360 519 1344 434Q1363 304 1454 181.50Q1545 59 1685-7L1588-115Q1477-57 1398 40.50Q1319 138 1282 220Q1245 128 1164 33.50Q1083-61 975-124L933-78L933-63Z"  horiz-adv-x="1742" vert-adv-y="2048"  />

      
      <glyph glyph-name="uniB671" unicode="&#xB671;" d="M714 1067L714 1612L1172 1612L1172 1487L853 1487L853 1193L1192 1193L1192 1067L714 1067M667 1098Q518 1064 332 1064L205 1064L205 1612L658 1612L658 1487L345 1487L345 1189L419 1189Q518 1189 667 1219L667 1098M1432 719L1432 1666L1566 1666L1566 719L1432 719M1376 817Q992 749 443 749L65 749L65 868Q65 878 324.50 878Q584 878 623 880L623 1070L764 1070L764 884Q1123 894 1376 937L1376 817M1014-109L1014 637L1569 637L1569 512L1153 512L1153 330L1566 330L1566 208L1153 208L1153 19L1598 19L1598-109L1014-109M980-67Q864-112 621-112L370-112L370 330L800 330L800 512L370 512L370 637L939 637L939 208L508 208L508 14L680 14Q871 14 980 61L980-67Z"  horiz-adv-x="1746" vert-adv-y="2048"  />

      
      <glyph glyph-name="uniB672" unicode="&#xB672;" d="M714 1067L714 1612L1172 1612L1172 1487L854 1487L854 1193L1193 1193L1193 1067L714 1067M668 1098Q518 1064 333 1064L205 1064L205 1612L658 1612L658 1487L346 1487L346 1189L419 1189Q519 1189 668 1219L668 1098M1432 719L1432 1666L1565 1666L1565 719L1432 719M1376 817Q992 749 443 749L65 749L65 868Q65 878 324.50 878Q584 878 623 880L623 1070L763 1070L763 884Q1123 894 1376 937L1376 817M962 637L1610 637L1610 514L1506 514L1499 17L1624 17L1624-109L962-109L962 17L1079 17L1075 514L962 514L962 637M1210 17L1366 17L1373 514L1206 514L1210 17M951-65Q830-112 601-112L354-112L354 330L800 330L800 512L354 512L354 637L935 637L935 208L493 208L493 14L660 14Q832 14 951 63L951-65Z"  horiz-adv-x="1745" vert-adv-y="2048"  />

      
      <glyph glyph-name="uniB673" unicode="&#xB673;" d="M714 1067L714 1612L1171 1612L1171 1487L853 1487L853 1193L1192 1193L1192 1067L714 1067M667 1098Q517 1064 331 1064L204 1064L204 1612L658 1612L658 1487L344 1487L344 1189L419 1189Q518 1189 667 1219L667 1098M1432 719L1432 1666L1565 1666L1565 719L1432 719M1376 817Q991 749 442 749L65 749L65 868Q65 878 324.50 878Q584 878 622 880L622 1070L763 1070L763 884Q1122 894 1376 937L1376 817M980-66Q834-110 613-110L372-110L372 319L785 319L785 499L372 499L372 624L923 624L923 202L507 202L507 10L674 10Q862 10 980 57L980-66M1641 347L950 347L950 463L1641 463L1641 347M1496 525L1086 525L1086 643L1496 643L1496 525M1002 81.50Q1002 81.50 1002 131.75Q1002 182 1081 245.50Q1160 309 1293 309Q1426 309 1506.50 245.50Q1587 182 1587 81.50Q1587-19 1505.50-81.50Q1424-144 1293.50-144Q1163-144 1082.50-81.50Q1002-19 1002 81.50M1456 81.50Q1456 81.50 1456 104.75Q1456 128 1413 163.50Q1370 199 1293.50 199Q1217 199 1174.50 164Q1132 129 1132 82Q1132 35 1173.50 0.50Q1215-34 1293.50-34Q1372-34 1414 0.50Q1456 35 1456 81.50Z"  horiz-adv-x="1744" vert-adv-y="2048"  />

      
      <glyph glyph-name="uniB674" unicode="&#xB674;" d="M714 1039L714 1612L1172 1612L1172 1485L853 1485L853 1165L1193 1165L1193 1039L714 1039M667 1068Q517 1034 332 1034L204 1034L204 1612L658 1612L658 1485L345 1485L345 1161L419 1161Q518 1161 667 1192L667 1068M1432 585L1432 1666L1566 1666L1566 585L1432 585M1376 727Q991 660 442 660L65 660L65 779Q65 789 324.50 789Q584 789 622 791L622 1033L764 1033L764 795Q1122 804 1376 848L1376 727M1566-101L430-101L430 498L1566 498L1566-101M570 373L570 24L1428 24L1428 373L570 373Z"  horiz-adv-x="1748" vert-adv-y="2048"  />

      
      <glyph glyph-name="uniB675" unicode="&#xB675;" d="M714 1048L714 1612L1172 1612L1172 1485L853 1485L853 1175L1193 1175L1193 1048L714 1048M667 1078Q517 1045 332 1045L204 1045L204 1612L658 1612L658 1485L345 1485L345 1171L419 1171Q518 1171 667 1201L667 1078M1432 660L1432 1666L1566 1666L1566 660L1432 660M1376 746Q991 680 442 680L65 680L65 798Q65 808 324.50 808Q584 808 622 810L622 1047L764 1047L764 814Q1122 824 1376 867L1376 746M1566 586L1566-101L430-101L430 575L570 575L570 399L1428 399L1428 586L1566 586M568 24L1430 24L1430 276L568 276L568 24Z"  horiz-adv-x="1748" vert-adv-y="2048"  />

      
      <glyph glyph-name="uniB676" unicode="&#xB676;" d="M713 1048L713 1612L1171 1612L1171 1485L853 1485L853 1175L1192 1175L1192 1048L713 1048M666 1078Q517 1045 331 1045L204 1045L204 1612L657 1612L657 1485L344 1485L344 1171L419 1171Q518 1171 666 1201L666 1078M1432 660L1432 1666L1565 1666L1565 660L1432 660M1376 746Q991 680 442 680L65 680L65 798Q65 808 324.50 808Q584 808 622 810L622 1047L763 1047L763 814Q1121 824 1376 867L1376 746M974 582L974-101L346-101L346 574L485 574L485 367L837 367L837 582L974 582M485 24L837 24L837 243L485 243L485 24M1387 355Q1455 146 1725-13L1622-116Q1407 25 1332 183Q1263 17 1046-123L937-30Q1294 171 1262 584L1406 584Q1406 449 1387 355Z"  horiz-adv-x="1740" vert-adv-y="2048"  />

      
      <glyph glyph-name="uniB677" unicode="&#xB677;" d="M714 1006L714 1598L1172 1598L1172 1471L854 1471L854 1132L1193 1132L1193 1006L714 1006M668 1035Q518 1002 333 1002L205 1002L205 1598L658 1598L658 1471L346 1471L346 1128L420 1128Q519 1128 668 1159L668 1035M1566 443L1433 443L1433 1666L1566 1666L1566 443M1377 698Q992 630 443 630L66 630L66 748Q66 758 322.50 758Q579 758 618 760L618 1002L757 1002L757 763Q1112 773 1377 819L1377 698M1010 535Q1010 433 983 364Q1049 239 1215 137.50Q1381 36 1615-7L1538-126Q1315-82 1152.50 19Q990 120 919 236Q844 120 681.50 21Q519-78 302-126L225-10Q541 54 702.50 191.50Q864 329 864 535L1010 535Z"  horiz-adv-x="1746" vert-adv-y="2048"  />

      
      <glyph glyph-name="uniB678" unicode="&#xB678;" d="M713 1039L713 1612L1172 1612L1172 1485L853 1485L853 1165L1192 1165L1192 1039L713 1039M667 1068Q518 1034 331 1034L205 1034L205 1612L658 1612L658 1485L344 1485L344 1161L419 1161Q518 1161 667 1192L667 1068M1432 585L1432 1666L1565 1666L1565 585L1432 585M1376 727Q992 660 443 660L65 660L65 779Q65 789 324.50 789Q584 789 623 791L623 1033L763 1033L763 795Q1122 804 1376 848L1376 727M1575-123Q1343-23 1254 159Q1174-14 955-130Q710-14 631 161Q539-18 277-131L186-21Q595 149 570 510L707 510Q707 410 696 341Q719 253 789.50 165.50Q860 78 958 26Q1070 96 1138 223Q1206 350 1192 517L1326 517Q1326 426 1313 337Q1341 238 1429.50 146.50Q1518 55 1681-15L1575-123Z"  horiz-adv-x="1742" vert-adv-y="2048"  />

      
      <glyph glyph-name="uniB679" unicode="&#xB679;" d="M714 1019L714 1612L1172 1612L1172 1485L853 1485L853 1145L1193 1145L1193 1019L714 1019M667 1049Q517 1015 332 1015L204 1015L204 1612L658 1612L658 1485L345 1485L345 1142L419 1142Q518 1142 667 1172L667 1049M1566 531L1432 531L1432 1666L1566 1666L1566 531M1376 707Q991 641 442 641L65 641L65 757Q65 767 324.50 767Q584 767 622 769L622 1013L764 1013L764 773Q1142 789 1376 828L1376 707M1564 202.50Q1564 202.50 1564 128.75Q1564 55 1403-42.50Q1242-140 964.50-140Q687-140 528.50-42.50Q370 55 370 202.50Q370 350 528.50 446.50Q687 543 963.50 543Q1240 543 1402 446.50Q1564 350 1564 202.50M517 198.50Q517 198.50 517 157.75Q517 117 629 49.50Q741-18 965.50-18Q1190-18 1303 49.50Q1416 117 1416 198.50Q1416 280 1305 348Q1194 416 965 416Q736 416 626.50 348Q517 280 517 198.50Z"  horiz-adv-x="1748" vert-adv-y="2048"  />

      
      <glyph glyph-name="uniB67A" unicode="&#xB67A;" d="M714 1039L714 1612L1172 1612L1172 1485L854 1485L854 1165L1193 1165L1193 1039L714 1039M668 1068Q518 1034 332 1034L205 1034L205 1612L658 1612L658 1485L345 1485L345 1161L419 1161Q519 1161 668 1192L668 1068M1433 585L1433 1666L1566 1666L1566 585L1433 585M1377 727Q992 660 443 660L66 660L66 779Q66 789 325.50 789Q585 789 623 791L623 1033L764 1033L764 795Q1123 804 1377 848L1377 727M1201 378Q1088 371 769 371L444 371L444 502L1034 502Q1256 502 1377 508Q1401 508 1411.50 488.50Q1422 469 1412 445Q1340 280 1100 151Q1303 69 1654 1L1581-126Q1355-79 1093 22Q1014 50 954 79Q687-50 318-130L249-3Q602 65 866.50 180Q1131 295 1201 378Z"  horiz-adv-x="1744" vert-adv-y="2048"  />

      
      <glyph glyph-name="uniB67B" unicode="&#xB67B;" d="M714 1078L714 1612L1172 1612L1172 1487L854 1487L854 1202L1193 1202L1193 1078L714 1078M668 1107Q518 1073 332 1073L205 1073L205 1612L658 1612L658 1487L345 1487L345 1199L419 1199Q519 1199 668 1229L668 1107M1432 621L1432 1666L1565 1666L1565 621L1432 621M1376 826Q992 760 443 760L66 760L66 878Q66 888 325.50 888Q585 888 623 890L623 1080L764 1080L764 894Q1142 910 1376 949L1376 826M642 538L642 665L1206 665L1206 538L642 538M1197 324Q1101 317 951 317L432 317L432 438L1036 438Q1264 438 1385 443Q1410 443 1420 423.50Q1430 404 1419 379Q1323 229 1117 126Q1349 40 1656 3L1591-121Q1275-81 966 56Q694-61 329-124L259-4Q567 42 844 141Q1117 246 1197 324Z"  horiz-adv-x="1744" vert-adv-y="2048"  />

      
      <glyph glyph-name="uniB67C" unicode="&#xB67C;" d="M714 1028L714 1612L1172 1612L1172 1485L853 1485L853 1156L1193 1156L1193 1028L714 1028M667 1059Q517 1025 332 1025L204 1025L204 1612L658 1612L658 1485L345 1485L345 1152L419 1152Q518 1152 667 1182L667 1059M1566 575L1432 575L1432 1666L1566 1666L1566 575M1376 717Q991 650 442 650L65 650L65 769Q65 779 324.50 779Q584 779 622 781L622 1023L764 1023L764 785Q1122 795 1376 839L1376 717M908 192Q1246 192 1428 218L1428 360L402 360L402 488L1566 488L1566-128L1428-128L1428 98Q1256 67 874 67L390 67L390 192L908 192Z"  horiz-adv-x="1748" vert-adv-y="2048"  />

      
      <glyph glyph-name="uniB67D" unicode="&#xB67D;" d="M714 1067L714 1612L1171 1612L1171 1487L853 1487L853 1193L1192 1193L1192 1067L714 1067M667 1098Q517 1064 332 1064L204 1064L204 1612L658 1612L658 1487L345 1487L345 1189L419 1189Q518 1189 667 1219L667 1098M1432 719L1432 1666L1565 1666L1565 719L1432 719M1376 817Q991 749 442 749L65 749L65 868Q65 878 324.50 878Q584 878 622 880L622 1070L763 1070L763 884Q1122 894 1376 937L1376 817M1565 210L585 210L585 26L1605 26L1605-101L448-101L448 633L1568 633L1568 507L585 507L585 332L1565 332L1565 210Z"  horiz-adv-x="1745" vert-adv-y="2048"  />

      
      <glyph glyph-name="uniB67E" unicode="&#xB67E;" d="M713 1048L713 1612L1171 1612L1171 1485L853 1485L853 1175L1192 1175L1192 1048L713 1048M667 1078Q517 1045 331 1045L204 1045L204 1612L657 1612L657 1485L344 1485L344 1171L419 1171Q518 1171 667 1201L667 1078M1432 623L1432 1666L1565 1666L1565 623L1432 623M1376 746Q991 680 442 680L65 680L65 798Q65 808 323.50 808Q582 808 620 810L620 1047L761 1047L761 814Q1122 824 1376 867L1376 746M1644 24L1644-101L369-101L369 24L610 24L597 408L389 408L389 535L1616 535L1616 408L1406 408L1395 24L1644 24M746 24L1257 24L1268 408L734 408L746 24Z"  horiz-adv-x="1744" vert-adv-y="2048"  />

      
      <glyph glyph-name="uniB67F" unicode="&#xB67F;" d="M714 1078L714 1612L1172 1612L1172 1487L853 1487L853 1202L1193 1202L1193 1078L714 1078M667 1107Q518 1073 332 1073L205 1073L205 1612L658 1612L658 1487L345 1487L345 1199L419 1199Q519 1199 667 1229L667 1107M1432 621L1432 1666L1566 1666L1566 621L1432 621M1376 826Q992 760 443 760L65 760L65 878Q65 888 324.50 888Q584 888 623 890L623 1080L764 1080L764 894Q1143 910 1376 949L1376 826M1596 350L343 350L343 471L1596 471L1596 350M1261 542L656 542L656 667L1261 667L1261 542M1492 72.50Q1492 72.50 1492 16.25Q1492-40 1348-94.50Q1204-149 968.50-149Q733-149 589-94.50Q445-40 445 72.50Q445 185 586 240Q727 295 967.50 295Q1208 295 1350 240Q1492 185 1492 72.50M595 72Q595 72 595 50Q595 28 692-1.50Q789-31 967.50-31Q1146-31 1244.50-1.50Q1343 28 1343 72Q1343 116 1251 147.50Q1159 179 969 179Q779 179 687 147.50Q595 116 595 72Z"  horiz-adv-x="1746" vert-adv-y="2048"  />

      
      <glyph glyph-name="uniB680" unicode="&#xB680;" d="M890 648L890 1499L1483 1499L1483 1369L1030 1369L1030 777L1505 777L1505 648L890 648M830 677Q667 641 400 641L229 641L229 1499L801 1499L801 1369L368 1369L368 769L499 769Q677 769 830 802L830 677M1080 622L1220 622L1220 241L1696 241L1696 116L28 116L28 241L504 241L504 622L644 622L644 241L1080 241L1080 622Z"  horiz-adv-x="1740" vert-adv-y="2048"  />

      
      <glyph glyph-name="uniB681" unicode="&#xB681;" d="M889 994L889 1616L1458 1616L1458 1485L1028 1485L1028 1123L1479 1123L1479 994L889 994M829 1022Q666 987 399 987L264 987L264 1616L799 1616L799 1485L406 1485L406 1115L498 1115Q676 1115 829 1147L829 1022M1082 949L1223 949L1223 752L1716 752L1716 625L8 625L8 752L499 752L499 949L638 949L638 752L1082 752L1082 949M1432-133L1292-133L1292 323L260 323L260 447L1432 447L1432-133Z"  horiz-adv-x="1738" vert-adv-y="2048"  />

      
      <glyph glyph-name="uniB682" unicode="&#xB682;" d="M889 1004L889 1616L1458 1616L1458 1485L1028 1485L1028 1132L1479 1132L1479 1004L889 1004M829 1031Q666 997 399 997L264 997L264 1616L799 1616L799 1485L406 1485L406 1124L498 1124Q676 1124 829 1157L829 1031M1084 958L1225 958L1225 762L1716 762L1716 635L8 635L8 762L497 762L497 958L636 958L636 762L1084 762L1084 958M1456-133L1316-133L1316 340L877 340L877 465L1456 465L1456-133M821-133L681-133L681 340L244 340L244 465L821 465L821-133Z"  horiz-adv-x="1738" vert-adv-y="2048"  />

      
      <glyph glyph-name="uniB683" unicode="&#xB683;" d="M889 1023L889 1616L1458 1616L1458 1485L1028 1485L1028 1152L1479 1152L1479 1023L889 1023M829 1051Q666 1015 399 1015L264 1015L264 1616L799 1616L799 1485L406 1485L406 1143L498 1143Q676 1143 829 1176L829 1051M1086 988L1227 988L1227 771L1716 771L1716 645L8 645L8 771L495 771L495 988L634 988L634 771L1086 771L1086 988M714-126L714 371L244 371L244 496L853 496L853-126L714-126M1535-132Q1334-41 1234 155Q1148-24 924-143L820-39Q1196 143 1171 516L1312 516Q1312 408 1297 332Q1325 220 1415.50 124.50Q1506 29 1642-29L1535-132Z"  horiz-adv-x="1738" vert-adv-y="2048"  />

      
      <glyph glyph-name="uniB684" unicode="&#xB684;" d="M889 973L889 1616L1458 1616L1458 1485L1028 1485L1028 1101L1479 1101L1479 973L889 973M829 1001Q666 966 399 966L264 966L264 1616L799 1616L799 1485L406 1485L406 1093L498 1093Q676 1093 829 1125L829 1001M1081 931L1221 931L1221 695L1716 695L1716 570L8 570L8 695L501 695L501 931L641 931L641 695L1081 695L1081 931M1469 28L1469-101L291-101L291 397L433 397L433 28L1469 28Z"  horiz-adv-x="1738" vert-adv-y="2048"  />

      
      <glyph glyph-name="uniB685" unicode="&#xB685;" d="M889 1023L889 1616L1458 1616L1458 1485L1028 1485L1028 1152L1479 1152L1479 1023L889 1023M829 1051Q666 1015 399 1015L264 1015L264 1616L799 1616L799 1485L406 1485L406 1143L498 1143Q676 1143 829 1176L829 1051M1086 988L1227 988L1227 771L1716 771L1716 645L8 645L8 771L495 771L495 988L634 988L634 771L1086 771L1086 988M822-54Q664-101 393-101L269-101L269 499L410 499L410 28L477 28Q691 28 842 79L842 20Q1031 83 1157.50 187Q1284 291 1307 356Q1230 352 1049 352L893 352L893 480L1130 480Q1337 480 1486 486Q1473 303 1324 163Q1437 78 1641-1L1540-110Q1351-29 1229 77Q1083-34 881-112L822-49L822-54Z"  horiz-adv-x="1738" vert-adv-y="2048"  />

      
      <glyph glyph-name="uniB686" unicode="&#xB686;" d="M889 1060L889 1623L1458 1623L1458 1495L1028 1495L1028 1186L1479 1186L1479 1060L889 1060M498 1179Q676 1179 829 1211L829 1086Q711 1060 607 1056Q503 1052 399 1052L264 1052L264 1623L799 1623L799 1495L406 1495L406 1179L498 1179M1094 1023L1235 1023L1235 869L1716 869L1716 743L8 743L8 869L487 869L487 1023L627 1023L627 869L1094 869L1094 1023M845-48Q666-101 395-101L269-101L269 545L410 545L410 26L479 26Q692 26 845 77L845-48M1534 311L796 311L796 430L1534 430L1534 311M850 66.50Q850 66.50 850 114.75Q850 163 935.50 218.50Q1021 274 1162.50 274Q1304 274 1392.50 219Q1481 164 1481 67Q1481-30 1389.50-85Q1298-140 1163.50-140Q1029-140 939.50-85Q850-30 850 66.50M1340 70Q1340 70 1340 89Q1340 108 1297.50 135Q1255 162 1165 162Q1075 162 1032.50 135Q990 108 990 70Q990 32 1036 4Q1082-24 1165.50-24Q1249-24 1294.50 4Q1340 32 1340 70M1375 486L953 486L953 608L1375 608L1375 486Z"  horiz-adv-x="1738" vert-adv-y="2048"  />

      
      <glyph glyph-name="uniB687" unicode="&#xB687;" d="M889 1023L889 1616L1458 1616L1458 1485L1028 1485L1028 1152L1479 1152L1479 1023L889 1023M829 1051Q666 1015 399 1015L264 1015L264 1616L799 1616L799 1485L406 1485L406 1143L498 1143Q676 1143 829 1176L829 1051M1088 988L1229 988L1229 781L1716 781L1716 654L8 654L8 781L494 781L494 988L632 988L632 781L1088 781L1088 988M1471-101L291-101L291 484L1436 484L1436 364L429 364L429 24L1471 24L1471-101Z"  horiz-adv-x="1738" vert-adv-y="2048"  />

      
      <glyph glyph-name="uniB688" unicode="&#xB688;" d="M889 1060L889 1623L1458 1623L1458 1495L1028 1495L1028 1186L1479 1186L1479 1060L889 1060M498 1179Q676 1179 829 1211L829 1086Q711 1060 607 1056Q503 1052 399 1052L264 1052L264 1623L799 1623L799 1495L406 1495L406 1179L498 1179M1094 1023L1235 1023L1235 869L1716 869L1716 743L8 743L8 869L487 869L487 1023L627 1023L627 869L1094 869L1094 1023M1482-120L289-120L289 304L1296 304L1296 475L289 475L289 597L1434 597L1434 185L427 185L427 3L1482 3L1482-120Z"  horiz-adv-x="1738" vert-adv-y="2048"  />

      
      <glyph glyph-name="uniB689" unicode="&#xB689;" d="M889 1067L889 1623L1458 1623L1458 1497L1028 1497L1028 1195L1479 1195L1479 1067L889 1067M498 1186Q676 1186 829 1219L829 1094Q711 1067 607 1063.50Q503 1060 399 1060L264 1060L264 1623L799 1623L799 1497L406 1497L406 1186L498 1186M1097 1033L1236 1033L1236 878L1716 878L1716 754L8 754L8 878L485 878L485 1033L625 1033L625 878L1097 878L1097 1033M1450-133L1312-133L1312 475L901 475L901 597L1450 597L1450-133M981-74Q866-120 626-120L258-120L258 304L718 304L718 475L258 475L258 597L856 597L856 185L396 185L396 3L682 3Q870 3 981 47L981-74Z"  horiz-adv-x="1738" vert-adv-y="2048"  />

      
      <glyph glyph-name="uniB68A" unicode="&#xB68A;" d="M889 1067L889 1623L1458 1623L1458 1497L1028 1497L1028 1195L1479 1195L1479 1067L889 1067M498 1186Q676 1186 829 1219L829 1094Q711 1067 607 1063.50Q503 1060 399 1060L264 1060L264 1623L799 1623L799 1497L406 1497L406 1186L498 1186M1097 1033L1236 1033L1236 878L1716 878L1716 754L8 754L8 878L485 878L485 1033L625 1033L625 878L1097 878L1097 1033M881-74Q761-122 522-122L279-122L279 304L699 304L699 475L279 475L279 597L837 597L837 185L418 185L418 1L581 1Q755 1 881 46L881-74M1318 477L1046 477L1046 3L1318 3L1318 477M911-118L911 597L1454 597L1454-118L911-118Z"  horiz-adv-x="1738" vert-adv-y="2048"  />

      
      <glyph glyph-name="uniB68B" unicode="&#xB68B;" d="M889 1067L889 1623L1458 1623L1458 1497L1028 1497L1028 1195L1479 1195L1479 1067L889 1067M498 1186Q676 1186 829 1219L829 1094Q711 1067 607 1063.50Q503 1060 399 1060L264 1060L264 1623L799 1623L799 1497L406 1497L406 1186L498 1186M1097 1033L1236 1033L1236 878L1716 878L1716 754L8 754L8 878L485 878L485 1033L625 1033L625 878L1097 878L1097 1033M891-118L891 597L1026 597L1026 384L1312 384L1312 606L1450 606L1450-118L891-118M1312 264L1026 264L1026 3L1312 3L1312 264M866-74Q745-122 506-122L271-122L271 304L677 304L677 475L271 475L271 597L814 597L814 185L410 185L410 1L564 1Q740 1 866 46L866-74Z"  horiz-adv-x="1738" vert-adv-y="2048"  />

      
      <glyph glyph-name="uniB68C" unicode="&#xB68C;" d="M889 1067L889 1623L1458 1623L1458 1497L1028 1497L1028 1195L1479 1195L1479 1067L889 1067M498 1186Q676 1186 829 1219L829 1094Q711 1067 607 1063.50Q503 1060 399 1060L264 1060L264 1623L799 1623L799 1497L406 1497L406 1186L498 1186M1097 1033L1236 1033L1236 878L1716 878L1716 754L8 754L8 878L485 878L485 1033L625 1033L625 878L1097 878L1097 1033M890-73Q744-118 524-118L271-118L271 304L718 304L718 475L271 475L271 597L856 597L856 187L408 187L408 3L583 3Q772 3 890 47L890 6Q1031 86 1109.50 244Q1188 402 1171 602L1312 602Q1316 505 1303 408Q1318 281 1412 162Q1500 46 1642-16L1543-126Q1337-14 1238 200Q1202 113 1120.50 21.50Q1039-70 932-132L890-86L890-73Z"  horiz-adv-x="1738" vert-adv-y="2048"  />

      
      <glyph glyph-name="uniB68D" unicode="&#xB68D;" d="M889 1067L889 1623L1458 1623L1458 1497L1028 1497L1028 1195L1479 1195L1479 1067L889 1067M498 1186Q676 1186 829 1219L829 1094Q711 1067 607 1063.50Q503 1060 399 1060L264 1060L264 1623L799 1623L799 1497L406 1497L406 1186L498 1186M1097 1033L1236 1033L1236 878L1716 878L1716 754L8 754L8 878L485 878L485 1033L625 1033L625 878L1097 878L1097 1033M918-118L918 597L1462 597L1462 475L1056 475L1056 306L1458 306L1458 187L1056 187L1056 5L1486 5L1486-118L918-118M884-77Q769-122 524-122L275-122L275 304L704 304L704 475L275 475L275 597L842 597L842 185L414 185L414 1L583 1Q772 1 884 45L884-77Z"  horiz-adv-x="1738" vert-adv-y="2048"  />

      
      <glyph glyph-name="uniB68E" unicode="&#xB68E;" d="M889 1067L889 1623L1458 1623L1458 1497L1028 1497L1028 1195L1479 1195L1479 1067L889 1067M498 1186Q676 1186 829 1219L829 1094Q711 1067 607 1063.50Q503 1060 399 1060L264 1060L264 1623L799 1623L799 1497L406 1497L406 1186L498 1186M1097 1033L1236 1033L1236 878L1716 878L1716 754L8 754L8 878L485 878L485 1033L625 1033L625 878L1097 878L1097 1033M860 597L1484 597L1484 475L1387 475L1379 5L1506 5L1506-118L870-118L870 5L981 5L975 475L860 475L860 597M1114 5L1240 5L1250 475L1110 475L1114 5M860-75Q735-122 498-122L275-122L275 304L701 304L701 475L275 475L275 597L835 597L835 185L414 185L414 1L557 1Q733 1 860 46L860-75Z"  horiz-adv-x="1738" vert-adv-y="2048"  />

      
      <glyph glyph-name="uniB68F" unicode="&#xB68F;" d="M889 1067L889 1623L1458 1623L1458 1497L1028 1497L1028 1195L1479 1195L1479 1067L889 1067M498 1186Q676 1186 829 1219L829 1094Q711 1067 607 1063.50Q503 1060 399 1060L264 1060L264 1623L799 1623L799 1497L406 1497L406 1186L498 1186M1097 1033L1236 1033L1236 878L1716 878L1716 754L8 754L8 878L485 878L485 1033L625 1033L625 878L1097 878L1097 1033M903-66Q757-110 537-110L275-110L275 304L693 304L693 468L275 468L275 593L831 593L831 187L412 187L412 10L598 10Q787 10 903 57L903-66M1558 323L864 323L864 438L1558 438L1558 323M1413 494L1003 494L1003 611L1413 611L1413 494M920 69Q920 69 920 118Q920 167 999.50 227.50Q1079 288 1211 288Q1343 288 1423.50 227.50Q1504 167 1504 69Q1504-29 1423-86.50Q1342-144 1211.50-144Q1081-144 1000.50-86.50Q920-29 920 69M1374 70.50Q1374 70.50 1374 92.75Q1374 115 1331.50 147Q1289 179 1211 179Q1133 179 1091.50 147Q1050 115 1050 70.50Q1050 26 1091-5Q1132-36 1211.50-36Q1291-36 1332.50-5Q1374 26 1374 70.50Z"  horiz-adv-x="1738" vert-adv-y="2048"  />

      
      <glyph glyph-name="uniB690" unicode="&#xB690;" d="M889 1023L889 1616L1458 1616L1458 1485L1028 1485L1028 1152L1479 1152L1479 1023L889 1023M829 1051Q666 1015 399 1015L264 1015L264 1616L799 1616L799 1485L406 1485L406 1143L498 1143Q676 1143 829 1176L829 1051M1088 988L1229 988L1229 781L1716 781L1716 654L8 654L8 781L494 781L494 988L632 988L632 781L1088 781L1088 988M1432-101L291-101L291 494L1432 494L1432-101M1292 26L1292 369L431 369L431 26L1292 26Z"  horiz-adv-x="1738" vert-adv-y="2048"  />

      
      <glyph glyph-name="uniB691" unicode="&#xB691;" d="M889 1043L889 1619L1458 1619L1458 1489L1028 1489L1028 1171L1479 1171L1479 1043L889 1043M829 1070Q666 1034 399 1034L264 1034L264 1619L799 1619L799 1489L406 1489L406 1163L498 1163Q676 1163 829 1196L829 1070M1092 1015L1233 1015L1233 810L1716 810L1716 684L8 684L8 810L489 810L489 1015L628 1015L628 810L1092 810L1092 1015M1432-101L291-101L291 595L433 595L433 403L1292 403L1292 595L1432 595L1432-101M1294 26L1294 280L429 280L429 26L1294 26Z"  horiz-adv-x="1738" vert-adv-y="2048"  />

      
      <glyph glyph-name="uniB692" unicode="&#xB692;" d="M889 1043L889 1619L1458 1619L1458 1489L1028 1489L1028 1171L1479 1171L1479 1043L889 1043M829 1070Q666 1034 399 1034L264 1034L264 1619L799 1619L799 1489L406 1489L406 1163L498 1163Q676 1163 829 1196L829 1070M1092 1015L1233 1015L1233 810L1716 810L1716 684L8 684L8 810L489 810L489 1015L628 1015L628 810L1092 810L1092 1015M903 601L903-101L269-101L269 593L408 593L408 380L766 380L766 601L903 601M408 26L766 26L766 254L408 254L408 26M1318 379Q1386 152 1661-13L1555-118Q1338 30 1264 196Q1201 27 978-126L867-32Q1221 182 1193 602L1336 602Q1336 482 1318 379Z"  horiz-adv-x="1738" vert-adv-y="2048"  />

      
      <glyph glyph-name="uniB693" unicode="&#xB693;" d="M889 994L889 1616L1458 1616L1458 1485L1028 1485L1028 1123L1479 1123L1479 994L889 994M829 1022Q666 987 399 987L264 987L264 1616L799 1616L799 1485L406 1485L406 1115L498 1115Q676 1115 829 1147L829 1022M1082 949L1223 949L1223 752L1716 752L1716 625L8 625L8 752L499 752L499 949L638 949L638 752L1082 752L1082 949M977 543Q977 446 950 366Q1014 239 1190 137.50Q1366 36 1602-7L1522-126Q1299-82 1128 21.50Q957 125 884 243Q807 125 638 23.50Q469-78 253-126L170-10Q488 54 659.50 194.50Q831 335 831 543L977 543Z"  horiz-adv-x="1738" vert-adv-y="2048"  />

      
      <glyph glyph-name="uniB694" unicode="&#xB694;" d="M889 1023L889 1616L1458 1616L1458 1485L1028 1485L1028 1152L1479 1152L1479 1023L889 1023M829 1051Q666 1015 399 1015L264 1015L264 1616L799 1616L799 1485L406 1485L406 1143L498 1143Q676 1143 829 1176L829 1051M1086 988L1227 988L1227 771L1716 771L1716 645L8 645L8 771L495 771L495 988L634 988L634 771L1086 771L1086 988M120-21Q531 146 508 510L645 510Q645 411 632 343Q657 255 726.50 166.50Q796 78 896 26Q1008 96 1075.50 223Q1143 350 1130 517L1264 517Q1264 426 1251 337Q1280 238 1368 147.50Q1456 57 1618-13L1512-121Q1277-18 1189 157Q1109-18 892-128Q649-22 567 162Q475-12 214-129L120-21Z"  horiz-adv-x="1738" vert-adv-y="2048"  />

      
      <glyph glyph-name="uniB695" unicode="&#xB695;" d="M889 1023L889 1616L1458 1616L1458 1485L1028 1485L1028 1152L1479 1152L1479 1023L889 1023M829 1051Q666 1015 399 1015L264 1015L264 1616L799 1616L799 1485L406 1485L406 1143L498 1143Q676 1143 829 1176L829 1051M1086 988L1227 988L1227 771L1716 771L1716 645L8 645L8 771L495 771L495 988L634 988L634 771L1086 771L1086 988M1443 203.50Q1443 203.50 1443 129.25Q1443 55 1288-42.50Q1133-140 862-140Q591-140 436-42.50Q281 55 281 203.50Q281 352 437 447.50Q593 543 862 543Q1131 543 1287 447.50Q1443 352 1443 203.50M427 198.50Q427 198.50 427 157.75Q427 117 535 50.50Q643-16 861-16Q1079-16 1188.50 50.50Q1298 117 1298 198.50Q1298 280 1190.50 348Q1083 416 861.50 416Q640 416 533.50 348Q427 280 427 198.50Z"  horiz-adv-x="1738" vert-adv-y="2048"  />

      
      <glyph glyph-name="uniB696" unicode="&#xB696;" d="M889 1032L889 1616L1458 1616L1458 1485L1028 1485L1028 1161L1479 1161L1479 1032L889 1032M829 1061Q666 1025 399 1025L264 1025L264 1616L799 1616L799 1485L406 1485L406 1154L498 1154Q676 1154 829 1186L829 1061M1090 997L1231 997L1231 791L1716 791L1716 664L8 664L8 791L492 791L492 997L630 997L630 791L1090 791L1090 997M1177 378Q1058 371 727 371L353 371L353 492Q353 502 798.50 502Q1244 502 1368 508Q1394 508 1403 488Q1412 468 1402 445Q1318 272 1057 146Q1300 49 1602-1L1524-126Q1225-68 905 71Q626-50 252-130L176-3Q721 90 1059 294Q1153 351 1177 378Z"  horiz-adv-x="1738" vert-adv-y="2048"  />

      
      <glyph glyph-name="uniB697" unicode="&#xB697;" d="M889 1080L889 1623L1458 1623L1458 1497L1028 1497L1028 1204L1479 1204L1479 1080L889 1080M829 1105Q672 1071 399 1071L264 1071L264 1623L799 1623L799 1497L406 1497L406 1197L498 1197Q676 1197 829 1229L829 1105M1097 1033L1236 1033L1236 878L1716 878L1716 754L8 754L8 878L485 878L485 1033L625 1033L625 878L1097 878L1097 1033M552 490L552 619L1177 619L1177 490L552 490M1104 264Q1001 258 684 258L353 258L353 384L964 384Q1196 384 1321 389Q1347 389 1357 370Q1367 351 1356 326Q1281 202 1058 101Q1282 24 1597-8L1528-130Q1291-98 1040-16Q962 9 902 36Q628-72 250-131L182-8Q654 57 979 202Q1078 246 1104 264Z"  horiz-adv-x="1738" vert-adv-y="2048"  />

      
      <glyph glyph-name="uniB698" unicode="&#xB698;" d="M889 1023L889 1616L1458 1616L1458 1485L1028 1485L1028 1152L1479 1152L1479 1023L889 1023M829 1051Q666 1015 399 1015L264 1015L264 1616L799 1616L799 1485L406 1485L406 1143L498 1143Q676 1143 829 1176L829 1051M1088 988L1229 988L1229 781L1716 781L1716 654L8 654L8 781L494 781L494 988L632 988L632 781L1088 781L1088 988M775 213Q1121 213 1294 242L1294 369L286 369L286 498L1432 498L1432-128L1294-128L1294 126Q1111 88 740 88L273 88L273 213L775 213Z"  horiz-adv-x="1738" vert-adv-y="2048"  />

      
      <glyph glyph-name="uniB699" unicode="&#xB699;" d="M889 1060L889 1623L1458 1623L1458 1495L1028 1495L1028 1186L1479 1186L1479 1060L889 1060M498 1179Q676 1179 829 1211L829 1086Q711 1060 607 1056Q503 1052 399 1052L264 1052L264 1623L799 1623L799 1495L406 1495L406 1179L498 1179M1094 1023L1235 1023L1235 869L1716 869L1716 743L8 743L8 869L487 869L487 1023L627 1023L627 869L1094 869L1094 1023M1428 183L439 183L439 3L1469 3L1469-120L303-120L303 593L1432 593L1432 468L439 468L439 302L1428 302L1428 183Z"  horiz-adv-x="1738" vert-adv-y="2048"  />

      
      <glyph glyph-name="uniB69A" unicode="&#xB69A;" d="M889 1043L889 1619L1458 1619L1458 1489L1028 1489L1028 1171L1479 1171L1479 1043L889 1043M829 1070Q666 1034 399 1034L264 1034L264 1619L799 1619L799 1489L406 1489L406 1163L498 1163Q676 1163 829 1196L829 1070M1092 1015L1233 1015L1233 810L1716 810L1716 684L8 684L8 810L489 810L489 1015L628 1015L628 810L1092 810L1092 1015M1500 26L1500-101L211-101L211 26L442 26L437 401L230 401L230 525L1473 525L1473 401L1279 401L1272 26L1500 26M581 26L1134 26L1141 401L575 401L581 26Z"  horiz-adv-x="1738" vert-adv-y="2048"  />

      
      <glyph glyph-name="uniB69B" unicode="&#xB69B;" d="M889 1080L889 1623L1458 1623L1458 1497L1028 1497L1028 1204L1479 1204L1479 1080L889 1080M829 1105Q672 1071 399 1071L264 1071L264 1623L799 1623L799 1497L406 1497L406 1197L498 1197Q676 1197 829 1229L829 1105M1097 1033L1236 1033L1236 878L1716 878L1716 754L8 754L8 878L485 878L485 1033L625 1033L625 878L1097 878L1097 1033M1519 321L227 321L227 440L1519 440L1519 321M1216 503L533 503L533 628L1216 628L1216 503M1396 63Q1396 63 1396 8.50Q1396-46 1252-97.50Q1108-149 872-149Q636-149 492.50-97.50Q349-46 349 63Q349 172 490 223Q631 274 871.50 274Q1112 274 1254 223Q1396 172 1396 63M499 62.50Q499 62.50 499 42.75Q499 23 596.50-5Q694-33 871.50-33Q1049-33 1147.50-5Q1246 23 1246 62.50Q1246 102 1154 130Q1062 158 872 158Q682 158 590.50 130Q499 102 499 62.50Z"  horiz-adv-x="1738" vert-adv-y="2048"  />

      
      <glyph glyph-name="uniB69E" unicode="&#xB69E;" d="M889 1028L889 1616L1458 1616L1458 1485L1028 1485L1028 1160L1479 1160L1479 1028L889 1028M829 1057Q666 1021 399 1021L264 1021L264 1616L799 1616L799 1485L406 1485L406 1152L498 1152Q676 1152 829 1184L829 1057M931 701L931 402L786 402L786 701L8 701L8 828L1716 828L1716 701L931 701M1456-133L1316-133L1316 350L877 350L877 475L1456 475L1456-133M821-133L681-133L681 350L244 350L244 475L821 475L821-133Z"  horiz-adv-x="1738" vert-adv-y="2048"  />

      
      <glyph glyph-name="uniB69F" unicode="&#xB69F;" d="M889 1048L889 1616L1458 1616L1458 1485L1028 1485L1028 1179L1479 1179L1479 1048L889 1048M829 1076Q666 1041 399 1041L264 1041L264 1616L799 1616L799 1485L406 1485L406 1171L498 1171Q676 1171 829 1203L829 1076M931 723L931 445L786 445L786 723L8 723L8 849L1716 849L1716 723L931 723M714-126L714 381L244 381L244 506L853 506L853-126L714-126M1535-132Q1336-43 1234 161Q1146-24 924-143L820-39Q1196 147 1171 525L1312 525Q1312 417 1297 337Q1325 224 1415.50 126.50Q1506 29 1642-29L1535-132Z"  horiz-adv-x="1738" vert-adv-y="2048"  />

      
      <glyph glyph-name="uniB6A1" unicode="&#xB6A1;" d="M889 1048L889 1616L1458 1616L1458 1485L1028 1485L1028 1179L1479 1179L1479 1048L889 1048M829 1076Q666 1041 399 1041L264 1041L264 1616L799 1616L799 1485L406 1485L406 1171L498 1171Q676 1171 829 1203L829 1076M931 723L931 445L786 445L786 723L8 723L8 849L1716 849L1716 723L931 723M822-54Q664-101 393-101L269-101L269 510L410 510L410 28L477 28Q691 28 842 79L842 20Q1030 85 1157 191.50Q1284 298 1307 363Q1230 360 1049 360L893 360L893 488L1130 488Q1337 488 1486 496Q1473 309 1322 167Q1433 80 1641-1L1540-110Q1351-29 1227 81Q1079-36 881-112L822-49L822-54Z"  horiz-adv-x="1738" vert-adv-y="2048"  />

      
      <glyph glyph-name="uniB6A2" unicode="&#xB6A2;" d="M889 1087L889 1623L1458 1623L1458 1495L1028 1495L1028 1216L1479 1216L1479 1087L889 1087M498 1208Q676 1208 829 1240L829 1113Q711 1087 607 1083.50Q503 1080 399 1080L264 1080L264 1623L799 1623L799 1495L406 1495L406 1208L498 1208M931 790L931 496L786 496L786 790L8 790L8 915L1716 915L1716 790L931 790M845-48Q666-101 395-101L269-101L269 555L410 555L410 26L479 26Q692 26 845 77L845-48M1534 319L796 319L796 438L1534 438L1534 319M850 70Q850 70 850 118.50Q850 167 935.50 223.50Q1021 280 1162.50 280Q1304 280 1392.50 223.50Q1481 167 1481 70Q1481-27 1389.50-83.50Q1298-140 1163.50-140Q1029-140 939.50-83.50Q850-27 850 70M1340 74Q1340 74 1340 93.50Q1340 113 1297.50 140.50Q1255 168 1165 168Q1075 168 1032.50 140.50Q990 113 990 74Q990 35 1036 5.50Q1082-24 1165.50-24Q1249-24 1294.50 5.50Q1340 35 1340 74M1375 496L953 496L953 617L1375 617L1375 496Z"  horiz-adv-x="1738" vert-adv-y="2048"  />

      
      <glyph glyph-name="uniB6A3" unicode="&#xB6A3;" d="M889 1048L889 1616L1458 1616L1458 1485L1028 1485L1028 1179L1479 1179L1479 1048L889 1048M829 1076Q666 1041 399 1041L264 1041L264 1616L799 1616L799 1485L406 1485L406 1171L498 1171Q676 1171 829 1203L829 1076M931 724L931 436L786 436L786 724L8 724L8 851L1716 851L1716 724L931 724M1471-101L291-101L291 496L1436 496L1436 371L429 371L429 24L1471 24L1471-101Z"  horiz-adv-x="1738" vert-adv-y="2048"  />

      
      <glyph glyph-name="uniB6A5" unicode="&#xB6A5;" d="M889 1091L889 1623L1458 1623L1458 1497L1028 1497L1028 1219L1479 1219L1479 1091L889 1091M498 1212Q676 1212 829 1244L829 1117Q711 1091 607 1087.50Q503 1084 399 1084L264 1084L264 1623L799 1623L799 1497L406 1497L406 1212L498 1212M931 810L931 514L786 514L786 810L8 810L8 934L1716 934L1716 810L931 810M1450-133L1312-133L1312 482L901 482L901 606L1450 606L1450-133M981-74Q866-120 626-120L258-120L258 309L718 309L718 482L258 482L258 606L856 606L856 190L396 190L396 3L682 3Q870 3 981 47L981-74Z"  horiz-adv-x="1738" vert-adv-y="2048"  />

      
      <glyph glyph-name="uniB6A6" unicode="&#xB6A6;" d="M889 1091L889 1623L1458 1623L1458 1497L1028 1497L1028 1219L1479 1219L1479 1091L889 1091M498 1212Q676 1212 829 1244L829 1117Q711 1091 607 1087.50Q503 1084 399 1084L264 1084L264 1623L799 1623L799 1497L406 1497L406 1212L498 1212M931 810L931 514L786 514L786 810L8 810L8 934L1716 934L1716 810L931 810M881-74Q761-122 522-122L279-122L279 309L699 309L699 482L279 482L279 606L837 606L837 190L418 190L418 1L581 1Q755 1 881 46L881-74M1318 484L1046 484L1046 3L1318 3L1318 484M911-118L911 606L1454 606L1454-118L911-118Z"  horiz-adv-x="1738" vert-adv-y="2048"  />

      
      <glyph glyph-name="uniB6A7" unicode="&#xB6A7;" d="M889 1091L889 1623L1458 1623L1458 1497L1028 1497L1028 1219L1479 1219L1479 1091L889 1091M498 1212Q676 1212 829 1244L829 1117Q711 1091 607 1087.50Q503 1084 399 1084L264 1084L264 1623L799 1623L799 1497L406 1497L406 1212L498 1212M931 810L931 514L786 514L786 810L8 810L8 934L1716 934L1716 810L931 810M891-118L891 606L1026 606L1026 387L1312 387L1312 615L1450 615L1450-118L891-118M1312 269L1026 269L1026 3L1312 3L1312 269M866-74Q745-122 506-122L271-122L271 309L677 309L677 482L271 482L271 606L814 606L814 190L410 190L410 1L564 1Q740 1 866 46L866-74Z"  horiz-adv-x="1738" vert-adv-y="2048"  />

      
      <glyph glyph-name="uniB6A8" unicode="&#xB6A8;" d="M889 1091L889 1623L1458 1623L1458 1497L1028 1497L1028 1219L1479 1219L1479 1091L889 1091M498 1212Q676 1212 829 1244L829 1117Q711 1091 607 1087.50Q503 1084 399 1084L264 1084L264 1623L799 1623L799 1497L406 1497L406 1212L498 1212M931 810L931 514L786 514L786 810L8 810L8 934L1716 934L1716 810L931 810M890-73Q744-118 524-118L271-118L271 309L718 309L718 482L271 482L271 606L856 606L856 192L408 192L408 3L583 3Q772 3 890 47L890 6Q1031 88 1109.50 248Q1188 408 1171 611L1312 611Q1316 512 1303 415Q1318 284 1412 166Q1496 52 1641-17L1543-126Q1341-16 1239 205Q1202 117 1120.50 23.50Q1039-70 932-132L890-86L890-73Z"  horiz-adv-x="1738" vert-adv-y="2048"  />

      
      <glyph glyph-name="uniB6A9" unicode="&#xB6A9;" d="M889 1091L889 1623L1458 1623L1458 1497L1028 1497L1028 1219L1479 1219L1479 1091L889 1091M498 1212Q676 1212 829 1244L829 1117Q711 1091 607 1087.50Q503 1084 399 1084L264 1084L264 1623L799 1623L799 1497L406 1497L406 1212L498 1212M931 810L931 514L786 514L786 810L8 810L8 934L1716 934L1716 810L931 810M918-118L918 606L1462 606L1462 482L1056 482L1056 311L1458 311L1458 192L1056 192L1056 5L1486 5L1486-118L918-118M884-77Q769-122 524-122L275-122L275 309L704 309L704 482L275 482L275 606L842 606L842 190L414 190L414 1L583 1Q772 1 884 45L884-77Z"  horiz-adv-x="1738" vert-adv-y="2048"  />

      
      <glyph glyph-name="uniB6AA" unicode="&#xB6AA;" d="M889 1091L889 1623L1458 1623L1458 1497L1028 1497L1028 1219L1479 1219L1479 1091L889 1091M498 1212Q676 1212 829 1244L829 1117Q711 1091 607 1087.50Q503 1084 399 1084L264 1084L264 1623L799 1623L799 1497L406 1497L406 1212L498 1212M931 810L931 514L786 514L786 810L8 810L8 934L1716 934L1716 810L931 810M860 606L1484 606L1484 482L1387 482L1379 5L1506 5L1506-118L870-118L870 5L981 5L975 482L860 482L860 606M1114 5L1240 5L1250 482L1110 482L1114 5M860-75Q735-122 498-122L275-122L275 309L701 309L701 482L275 482L275 606L835 606L835 190L414 190L414 1L557 1Q733 1 860 46L860-75Z"  horiz-adv-x="1738" vert-adv-y="2048"  />

      
      <glyph glyph-name="uniB6AD" unicode="&#xB6AD;" d="M889 1067L889 1619L1458 1619L1458 1489L1028 1489L1028 1199L1479 1199L1479 1067L889 1067M829 1096Q666 1060 399 1060L264 1060L264 1619L799 1619L799 1489L406 1489L406 1191L498 1191Q676 1191 829 1222L829 1096M931 762L931 499L786 499L786 762L8 762L8 888L1716 888L1716 762L931 762M1432-101L291-101L291 604L433 604L433 410L1292 410L1292 604L1432 604L1432-101M1294 26L1294 288L429 288L429 26L1294 26Z"  horiz-adv-x="1738" vert-adv-y="2048"  />

      
      <glyph glyph-name="uniB6AE" unicode="&#xB6AE;" d="M889 1067L889 1619L1458 1619L1458 1489L1028 1489L1028 1199L1479 1199L1479 1067L889 1067M829 1096Q666 1060 399 1060L264 1060L264 1619L799 1619L799 1489L406 1489L406 1191L498 1191Q676 1191 829 1222L829 1096M931 762L931 499L786 499L786 762L8 762L8 888L1716 888L1716 762L931 762M903 610L903-101L269-101L269 602L408 602L408 385L766 385L766 610L903 610M408 26L766 26L766 260L408 260L408 26M1318 385Q1386 152 1661-13L1555-118Q1336 34 1264 199Q1201 31 978-126L867-32Q1222 182 1193 611L1336 611Q1336 487 1318 385Z"  horiz-adv-x="1738" vert-adv-y="2048"  />

      
      <glyph glyph-name="uniB6AF" unicode="&#xB6AF;" d="M889 1019L889 1616L1458 1616L1458 1485L1028 1485L1028 1150L1479 1150L1479 1019L889 1019M829 1048Q666 1011 399 1011L264 1011L264 1616L799 1616L799 1485L406 1485L406 1142L498 1142Q676 1142 829 1174L829 1048M931 693L931 395L786 395L786 693L8 693L8 820L1716 820L1716 693L931 693M977 551Q977 453 950 374Q1010 250 1191 142Q1372 34 1602-7L1522-126Q1299-80 1128 24.50Q957 129 884 249Q807 129 638 26.50Q469-76 253-126L170-10Q488 56 659.50 197.50Q831 339 831 551L977 551Z"  horiz-adv-x="1738" vert-adv-y="2048"  />

      
      <glyph glyph-name="uniB6B0" unicode="&#xB6B0;" d="M889 1048L889 1616L1458 1616L1458 1485L1028 1485L1028 1179L1479 1179L1479 1048L889 1048M829 1076Q666 1041 399 1041L264 1041L264 1616L799 1616L799 1485L406 1485L406 1171L498 1171Q676 1171 829 1203L829 1076M931 723L931 445L786 445L786 723L8 723L8 849L1716 849L1716 723L931 723M892-128Q648-14 567 168Q475-12 214-129L120-21Q322 60 421 190Q520 320 508 519L645 519Q645 417 632 349Q657 261 726.50 170Q796 79 896 26Q1008 97 1075.50 227Q1143 357 1130 527L1264 527Q1264 433 1251 344Q1280 244 1368 151.50Q1456 59 1618-13L1511-121Q1275-13 1189 162Q1109-14 892-128Z"  horiz-adv-x="1738" vert-adv-y="2048"  />

      
      <glyph glyph-name="uniB6B2" unicode="&#xB6B2;" d="M889 1058L889 1616L1458 1616L1458 1485L1028 1485L1028 1189L1479 1189L1479 1058L889 1058M829 1086Q666 1050 399 1050L264 1050L264 1616L799 1616L799 1485L406 1485L406 1180L498 1180Q676 1180 829 1213L829 1086M931 734L931 445L786 445L786 734L8 734L8 860L1716 860L1716 734L931 734M1180 387Q1060 381 729 381L353 381L353 502Q353 512 798.50 512Q1244 512 1368 517Q1394 517 1403 497Q1412 477 1402 454Q1312 280 1055 149Q1285 55 1602-1L1524-126Q1225-66 905 75Q609-53 252-130L176-3Q717 90 1059 302Q1155 359 1180 387Z"  horiz-adv-x="1738" vert-adv-y="2048"  />

      
      <glyph glyph-name="uniB6B3" unicode="&#xB6B3;" d="M889 1104L889 1623L1458 1623L1458 1497L1028 1497L1028 1232L1479 1232L1479 1104L889 1104M498 1223Q676 1223 829 1256L829 1131Q711 1104 607 1100.50Q503 1097 399 1097L264 1097L264 1623L799 1623L799 1497L406 1497L406 1223L498 1223M931 810L931 514L786 514L786 810L8 810L8 934L1716 934L1716 810L931 810M552 499L552 630L1177 630L1177 499L552 499M1106 269Q1001 264 684 264L353 264L353 379Q353 389 774.50 389Q1196 389 1321 395Q1347 395 1357 375.50Q1367 356 1356 332Q1275 203 1054 105Q1276 24 1597-8L1528-130Q1299-98 1038-15Q960 11 900 38Q638-66 250-131L182-8Q495 34 751 119Q1009 198 1106 269Z"  horiz-adv-x="1738" vert-adv-y="2048"  />

      
      <glyph glyph-name="uniB6B4" unicode="&#xB6B4;" d="M889 1048L889 1616L1458 1616L1458 1485L1028 1485L1028 1179L1479 1179L1479 1048L889 1048M829 1076Q666 1041 399 1041L264 1041L264 1616L799 1616L799 1485L406 1485L406 1171L498 1171Q676 1171 829 1203L829 1076M931 724L931 436L786 436L786 724L8 724L8 851L1716 851L1716 724L931 724M775 220Q1121 220 1294 249L1294 379L286 379L286 508L1432 508L1432-128L1294-128L1294 132Q1111 94 740 94L273 94L273 220L775 220Z"  horiz-adv-x="1738" vert-adv-y="2048"  />

      
      <glyph glyph-name="uniB6B5" unicode="&#xB6B5;" d="M889 1087L889 1623L1458 1623L1458 1495L1028 1495L1028 1216L1479 1216L1479 1087L889 1087M498 1208Q676 1208 829 1240L829 1113Q711 1087 607 1083.50Q503 1080 399 1080L264 1080L264 1623L799 1623L799 1495L406 1495L406 1208L498 1208M931 790L931 496L786 496L786 790L8 790L8 915L1716 915L1716 790L931 790M1428 190L441 190L441 3L1469 3L1469-120L305-120L305 602L1432 602L1432 478L441 478L441 308L1428 308L1428 190Z"  horiz-adv-x="1738" vert-adv-y="2048"  />

      
      <glyph glyph-name="uniB6B6" unicode="&#xB6B6;" d="M889 1067L889 1619L1458 1619L1458 1489L1028 1489L1028 1199L1479 1199L1479 1067L889 1067M829 1096Q666 1060 399 1060L264 1060L264 1619L799 1619L799 1489L406 1489L406 1191L498 1191Q676 1191 829 1222L829 1096M931 762L931 499L786 499L786 762L8 762L8 888L1716 888L1716 762L931 762M1500 26L1500-101L211-101L211 26L442 26L437 410L230 410L230 535L1473 535L1473 410L1279 410L1272 26L1500 26M581 26L1134 26L1141 410L575 410L581 26Z"  horiz-adv-x="1738" vert-adv-y="2048"  />

      
      <glyph glyph-name="uniB6B7" unicode="&#xB6B7;" d="M889 1104L889 1623L1458 1623L1458 1497L1028 1497L1028 1232L1479 1232L1479 1104L889 1104M498 1223Q676 1223 829 1256L829 1131Q711 1104 607 1100.50Q503 1097 399 1097L264 1097L264 1623L799 1623L799 1497L406 1497L406 1223L498 1223M931 810L931 514L786 514L786 810L8 810L8 934L1716 934L1716 810L931 810M1519 328L227 328L227 447L1519 447L1519 328M1216 514L533 514L533 637L1216 637L1216 514M1396 65.50Q1396 65.50 1396 10.75Q1396-44 1252-96.50Q1108-149 872-149Q636-149 492.50-96.50Q349-44 349 65.50Q349 175 490 227.50Q631 280 871.50 280Q1112 280 1254 227.50Q1396 175 1396 65.50M499 65Q499 65 499 44.50Q499 24 596.50-4.50Q694-33 871.50-33Q1049-33 1147.50-4Q1246 25 1246 65.50Q1246 106 1154 135Q1062 164 872.50 164Q683 164 591 135Q499 106 499 65Z"  horiz-adv-x="1738" vert-adv-y="2048"  />

      
      <glyph glyph-name="uniB6B8" unicode="&#xB6B8;" d="M714 931L714 1569L1172 1569L1172 1448L853 1448L853 1050L1193 1050L1193 931L714 931M667 961Q517 927 332 927L204 927L204 1569L658 1569L658 1448L345 1448L345 1047L419 1047Q518 1047 667 1077L667 961M1566 1666L1566-128L1430-128L1430 284L973 284L973 412L1430 412L1430 1666L1566 1666M565 579L488 577Q488 577 63 577L63 707L417 707Q1012 707 1359 766L1359 642Q1071 597 708 583L708-89L565-89L565 579Z"  horiz-adv-x="1748" vert-adv-y="2048"  />

      
      <glyph glyph-name="uniB6B9" unicode="&#xB6B9;" d="M714 1087L714 1612L1172 1612L1172 1491L853 1491L853 1208L1193 1208L1193 1087L714 1087M667 1117Q517 1084 332 1084L204 1084L204 1612L658 1612L658 1491L345 1491L345 1204L419 1204Q518 1204 667 1235L667 1117M1566 507L1430 507L1430 627L1000 627L1000 750L1430 750L1430 1666L1566 1666L1566 507M1360 897Q1058 847 716 834L716 503L573 503L573 830Q546 829 502 829L65 829L65 954L417 954Q1000 954 1360 1014L1360 897M1566-133L1428-133L1428 291L390 291L390 416L1566 416L1566-133Z"  horiz-adv-x="1748" vert-adv-y="2048"  />

      
      <glyph glyph-name="uniB6BA" unicode="&#xB6BA;" d="M714 1087L714 1612L1172 1612L1172 1491L853 1491L853 1208L1193 1208L1193 1087L714 1087M667 1117Q517 1084 332 1084L204 1084L204 1612L658 1612L658 1491L345 1491L345 1204L419 1204Q518 1204 667 1235L667 1117M1566 527L1430 527L1430 633L1000 633L1000 754L1430 754L1430 1666L1566 1666L1566 527M1360 897Q1079 849 716 836L716 503L573 503L573 832Q502 829 419 829L65 829L65 954L417 954Q1012 954 1360 1012L1360 897M1566-133L1428-133L1428 313L983 313L983 438L1566 438L1566-133M927-133L791-133L791 313L339 313L339 438L927 438L927-133Z"  horiz-adv-x="1748" vert-adv-y="2048"  />

      
      <glyph glyph-name="uniB6BB" unicode="&#xB6BB;" d="M713 1087L713 1612L1172 1612L1172 1491L854 1491L854 1208L1193 1208L1193 1087L713 1087M667 1117Q518 1084 332 1084L205 1084L205 1612L657 1612L657 1491L345 1491L345 1204L419 1204Q519 1204 667 1235L667 1117M1565 527L1429 527L1429 633L1001 633L1001 754L1429 754L1429 1666L1565 1666L1565 527M1360 897Q1078 849 715 836L715 503L573 503L573 832Q503 829 419 829L65 829L65 954L417 954Q1013 954 1360 1012L1360 897M791-126L791 313L311 313L311 438L930 438L930-126L791-126M1637-136Q1433-51 1336 125Q1249-41 1026-143L923-40Q1297 130 1273 457L1415 457Q1415 371 1401 291Q1428 194 1519 107.50Q1610 21 1745-35L1637-136Z"  horiz-adv-x="1739" vert-adv-y="2048"  />

      
      <glyph glyph-name="uniB6BC" unicode="&#xB6BC;" d="M714 1027L714 1597L1172 1597L1172 1473L853 1473L853 1150L1193 1150L1193 1027L714 1027M667 1057Q518 1023 332 1023L205 1023L205 1597L658 1597L658 1473L345 1473L345 1145Q404 1145 485 1143.50Q566 1142 667 1164L667 1057M1566 274L1430 274L1430 529L1001 529L1001 652L1430 652L1430 1666L1566 1666L1566 274M1360 816Q1058 769 716 756L716 429L573 429L573 750Q546 749 502 749L65 749L65 877L417 877Q1024 877 1360 934L1360 816M1596 36L1596-92L410-92L410 385L550 385L550 36L1596 36Z"  horiz-adv-x="1746" vert-adv-y="2048"  />

      
      <glyph glyph-name="uniB6BD" unicode="&#xB6BD;" d="M713 1087L713 1612L1171 1612L1171 1491L853 1491L853 1208L1192 1208L1192 1087L713 1087M666 1117Q518 1084 331 1084L204 1084L204 1612L657 1612L657 1491L344 1491L344 1204L419 1204Q518 1204 666 1235L666 1117M1565 527L1430 527L1430 633L1000 633L1000 754L1430 754L1430 1666L1565 1666L1565 527M1360 897Q1078 849 715 836L715 503L573 503L573 832Q502 829 419 829L65 829L65 954L417 954Q1012 954 1360 1012L1360 897M903-54Q745-101 474-101L338-101L338 453L480 453L480 24L557 24Q771 24 923 75L923 24Q1106 81 1233.50 175Q1361 269 1384 315Q1310 311 1129 311L977 311L977 438L1203 438Q1409 438 1558 443Q1550 283 1409 159Q1517 78 1723 4L1620-104Q1433-29 1312 77Q1173-27 950-106L903-50L903-54Z"  horiz-adv-x="1740" vert-adv-y="2048"  />

      
      <glyph glyph-name="uniB6BE" unicode="&#xB6BE;" d="M714 1121L714 1612L1172 1612L1172 1493L853 1493L853 1239L1193 1239L1193 1121L714 1121M667 1150Q518 1116 332 1116L205 1116L205 1612L658 1612L658 1493L344 1493L344 1236L419 1236Q519 1236 667 1265L667 1150M1565 611L1430 611L1430 689L1001 689L1001 804L1430 804L1430 1666L1565 1666L1565 611M573 868L492 866Q492 866 65 866L65 993L417 993Q1012 993 1360 1051L1360 934Q1075 886 716 873L716 572L573 572L573 868M945-48Q767-101 495-101L359-101L359 496L500 496L500 26L578 26Q793 26 945 77L945-48M1633 276L895 276L895 393L1633 393L1633 276M950 53.50Q950 53.50 950 98.25Q950 143 1036 196Q1122 249 1263 249Q1404 249 1492.50 196Q1581 143 1581 53.50Q1581-36 1490.50-88Q1400-140 1264-140Q1128-140 1039-88Q950-36 950 53.50M1439 56Q1439 88 1396.50 113Q1354 138 1263 138Q1172 138 1131.50 113Q1091 88 1091 56Q1091 24 1135.50-1.50Q1180-27 1265.50-27Q1351-27 1395-1.50Q1439 24 1439 56M1475 440L1053 440L1053 560L1475 560L1475 440Z"  horiz-adv-x="1744" vert-adv-y="2048"  />

      
      <glyph glyph-name="uniB6BF" unicode="&#xB6BF;" d="M714 1087L714 1612L1171 1612L1171 1491L853 1491L853 1208L1192 1208L1192 1087L714 1087M667 1117Q518 1084 332 1084L204 1084L204 1612L658 1612L658 1491L345 1491L345 1204L419 1204Q518 1204 667 1235L667 1117M1566 527L1430 527L1430 633L1000 633L1000 754L1430 754L1430 1666L1566 1666L1566 527M1360 897Q1079 849 716 836L716 503L573 503L573 832Q502 829 419 829L65 829L65 954L417 954Q1012 954 1360 1012L1360 897M1602-101L433-101L433 436L1569 436L1569 309L574 309L574 24L1602 24L1602-101Z"  horiz-adv-x="1746" vert-adv-y="2048"  />

      
      <glyph glyph-name="uniB6C0" unicode="&#xB6C0;" d="M714 1132L714 1612L1171 1612L1171 1493L853 1493L853 1251L1192 1251L1192 1132L714 1132M667 1162Q517 1128 332 1128L204 1128L204 1612L658 1612L658 1493L345 1493L345 1247L419 1247Q518 1247 667 1277L667 1162M1565 650L1430 650L1430 732L1000 732L1000 845L1430 845L1430 1666L1565 1666L1565 650M1359 963Q1066 917 715 903L715 630L573 630L573 898Q546 897 502 897L65 897L65 1017L417 1017Q1012 1017 1359 1077L1359 963M1605 19L1605-109L426-109L426 304L1428 304L1428 455L426 455L426 582L1565 582L1565 181L564 181L564 19L1605 19Z"  horiz-adv-x="1745" vert-adv-y="2048"  />

      
      <glyph glyph-name="uniB6C1" unicode="&#xB6C1;" d="M714 1132L714 1612L1172 1612L1172 1493L853 1493L853 1251L1193 1251L1193 1132L714 1132M667 1162Q517 1128 332 1128L204 1128L204 1612L658 1612L658 1493L345 1493L345 1247L419 1247Q518 1247 667 1277L667 1162M1566 650L1430 650L1430 732L1000 732L1000 845L1430 845L1430 1666L1566 1666L1566 650M1360 963Q1066 917 716 903L716 630L573 630L573 898Q546 897 502 897L65 897L65 1017L417 1017Q1012 1017 1360 1077L1360 963M1566-133L1428-133L1428 459L991 459L991 586L1566 586L1566-133M1086-59Q962-109 734-109L380-109L380 306L809 306L809 459L380 459L380 586L948 586L948 183L517 183L517 19L793 19Q968 19 1086 67L1086-59Z"  horiz-adv-x="1748" vert-adv-y="2048"  />

      
      <glyph glyph-name="uniB6C2" unicode="&#xB6C2;" d="M714 1132L714 1612L1172 1612L1172 1493L853 1493L853 1251L1193 1251L1193 1132L714 1132M667 1162Q517 1128 332 1128L204 1128L204 1612L658 1612L658 1493L345 1493L345 1247L419 1247Q518 1247 667 1277L667 1162M1566 650L1430 650L1430 732L1000 732L1000 845L1430 845L1430 1666L1566 1666L1566 650M1360 963Q1066 917 716 903L716 630L573 630L573 898Q546 897 502 897L65 897L65 1017L417 1017Q1012 1017 1360 1077L1360 963M968-65Q847-112 610-112L358-112L358 306L790 306L790 459L358 459L358 586L923 586L923 183L496 183L496 14L668 14Q849 14 968 63L968-65M997-109L997 586L1566 586L1566-109L997-109M1430 460L1130 460L1130 17L1430 17L1430 460Z"  horiz-adv-x="1748" vert-adv-y="2048"  />

      
      <glyph glyph-name="uniB6C3" unicode="&#xB6C3;" d="M714 1132L714 1612L1172 1612L1172 1493L853 1493L853 1251L1193 1251L1193 1132L714 1132M667 1162Q517 1128 332 1128L204 1128L204 1612L658 1612L658 1493L345 1493L345 1247L419 1247Q518 1247 667 1277L667 1162M1566 650L1430 650L1430 732L1000 732L1000 845L1430 845L1430 1666L1566 1666L1566 650M1360 963Q1066 917 716 903L716 630L573 630L573 898Q546 897 502 897L65 897L65 1017L417 1017Q1012 1017 1360 1077L1360 963M985-109L985 586L1119 586L1119 380L1430 380L1430 595L1566 595L1566-109L985-109M1430 258L1119 258L1119 14L1430 14L1430 258M960-65Q840-112 604-112L358-112L358 306L773 306L773 459L358 459L358 586L907 586L907 183L496 183L496 14L664 14Q841 14 960 63L960-65Z"  horiz-adv-x="1748" vert-adv-y="2048"  />

      
      <glyph glyph-name="uniB6C4" unicode="&#xB6C4;" d="M713 1132L713 1612L1171 1612L1171 1493L853 1493L853 1251L1192 1251L1192 1132L713 1132M667 1162Q517 1128 331 1128L204 1128L204 1612L658 1612L658 1493L344 1493L344 1247L419 1247Q518 1247 667 1277L667 1162M1565 650L1430 650L1430 732L1000 732L1000 845L1430 845L1430 1666L1565 1666L1565 650M1360 963Q1066 917 715 903L715 630L573 630L573 898Q546 897 502 897L65 897L65 1017L417 1017Q1012 1017 1360 1077L1360 963M933-63Q788-109 567-109L315-109L315 298L761 298L761 453L315 453L315 579L900 579L900 177L451 177L451 17L627 17Q816 17 933 63L933 11Q1077 86 1154 238.50Q1231 391 1214 588L1356 588Q1360 478 1344 397Q1362 273 1453.50 163Q1545 53 1686-8L1588-115Q1477-61 1398.50 29.50Q1320 120 1281 198Q1191-3 973-124L933-80L933-63Z"  horiz-adv-x="1741" vert-adv-y="2048"  />

      
      <glyph glyph-name="uniB6C5" unicode="&#xB6C5;" d="M714 1132L714 1612L1172 1612L1172 1493L853 1493L853 1251L1192 1251L1192 1132L714 1132M667 1162Q518 1128 332 1128L205 1128L205 1612L658 1612L658 1493L345 1493L345 1247L419 1247Q518 1247 667 1277L667 1162M1566 650L1430 650L1430 732L1001 732L1001 845L1430 845L1430 1666L1566 1666L1566 650M1360 963Q1066 917 716 903L716 630L573 630L573 898Q546 897 502 897L65 897L65 1017L417 1017Q1012 1017 1360 1077L1360 963M1010-109L1010 586L1569 586L1569 459L1149 459L1149 306L1566 306L1566 183L1149 183L1149 19L1598 19L1598-109L1010-109M976-67Q861-112 617-112L358-112L358 306L796 306L796 459L358 459L358 586L935 586L935 183L496 183L496 14L676 14Q870 14 976 61L976-67Z"  horiz-adv-x="1746" vert-adv-y="2048"  />

      
      <glyph glyph-name="uniB6C6" unicode="&#xB6C6;" d="M714 1132L714 1612L1172 1612L1172 1493L854 1493L854 1251L1193 1251L1193 1132L714 1132M668 1162Q518 1128 333 1128L205 1128L205 1612L658 1612L658 1493L346 1493L346 1247L419 1247Q519 1247 668 1277L668 1162M1565 650L1430 650L1430 732L1001 732L1001 845L1430 845L1430 1666L1565 1666L1565 650M1360 963Q1066 917 716 903L716 630L573 630L573 898Q546 897 503 897L65 897L65 1017L417 1017Q1013 1017 1360 1077L1360 963M964 586L1610 586L1610 460L1506 460L1499 17L1624 17L1624-109L964-109L964 17L1081 17L1077 460L964 460L964 586M1213 17L1366 17L1373 460L1209 460L1213 17M952-65Q831-112 602-112L354-112L354 306L802 306L802 459L354 459L354 586L937 586L937 183L493 183L493 14L662 14Q830 14 952 61L952-65Z"  horiz-adv-x="1745" vert-adv-y="2048"  />

      
      <glyph glyph-name="uniB6C7" unicode="&#xB6C7;" d="M714 1132L714 1612L1172 1612L1172 1493L854 1493L854 1251L1193 1251L1193 1132L714 1132M668 1162Q518 1128 333 1128L205 1128L205 1612L658 1612L658 1493L346 1493L346 1247L419 1247Q519 1247 668 1277L668 1162M1565 650L1431 650L1431 732L1001 732L1001 845L1431 845L1431 1666L1565 1666L1565 650M1360 963Q1066 917 716 903L716 630L574 630L574 898Q547 897 503 897L66 897L66 1017L418 1017Q1013 1017 1360 1077L1360 963M951-66Q806-110 585-110L344-110L344 295L757 295L757 451L344 451L344 575L895 575L895 177L479 177L479 10L646 10Q834 10 951 57L951-66M1612 311L921 311L921 424L1612 424L1612 311M1468 477L1057 477L1057 595L1468 595L1468 477M974 65Q974 65 974 112Q974 159 1054 217.50Q1134 276 1265.50 276Q1397 276 1478 217.50Q1559 159 1559 65Q1559-29 1477-86.50Q1395-144 1265.50-144Q1136-144 1055-86.50Q974-29 974 65M1429 63.50Q1429 63.50 1429 84.25Q1429 105 1386.50 138.50Q1344 172 1266 172Q1188 172 1146.50 138.50Q1105 105 1105 63.50Q1105 22 1145-8Q1185-38 1265-38Q1345-38 1387-8Q1429 22 1429 63.50Z"  horiz-adv-x="1746" vert-adv-y="2048"  />

      
      <glyph glyph-name="uniB6C8" unicode="&#xB6C8;" d="M714 1097L714 1612L1172 1612L1172 1491L853 1491L853 1218L1193 1218L1193 1097L714 1097M667 1127Q517 1093 332 1093L204 1093L204 1612L658 1612L658 1491L345 1491L345 1214L419 1214Q518 1214 667 1244L667 1127M1566 536L1430 536L1430 647L1000 647L1000 765L1430 765L1430 1666L1566 1666L1566 536M573 842Q502 839 419 839L65 839L65 964L417 964Q1000 964 1360 1024L1360 906Q1103 858 716 845L716 514L573 514L573 842M1566-101L430-101L430 449L1566 449L1566-101M570 325L570 24L1428 24L1428 325L570 325Z"  horiz-adv-x="1748" vert-adv-y="2048"  />

      
      <glyph glyph-name="uniB6C9" unicode="&#xB6C9;" d="M714 1121L714 1612L1172 1612L1172 1493L853 1493L853 1239L1193 1239L1193 1121L714 1121M667 1150Q517 1116 332 1116L204 1116L204 1612L658 1612L658 1493L345 1493L345 1236L419 1236Q518 1236 667 1265L667 1150M1566 611L1430 611L1430 689L1000 689L1000 804L1430 804L1430 1666L1566 1666L1566 611M573 868L492 866Q492 866 65 866L65 993L417 993Q1012 993 1360 1051L1360 934Q1075 886 716 873L716 572L573 572L573 868M1566 535L1566-101L430-101L430 525L570 525L570 364L1428 364L1428 535L1566 535M568 24L1430 24L1430 241L568 241L568 24Z"  horiz-adv-x="1748" vert-adv-y="2048"  />

      
      <glyph glyph-name="uniB6CA" unicode="&#xB6CA;" d="M713 1121L713 1612L1172 1612L1172 1493L853 1493L853 1239L1193 1239L1193 1121L713 1121M666 1150Q518 1116 331 1116L205 1116L205 1612L657 1612L657 1493L344 1493L344 1236L419 1236Q519 1236 666 1265L666 1150M1565 611L1430 611L1430 689L1001 689L1001 804L1430 804L1430 1666L1565 1666L1565 611M573 868L492 866Q492 866 65 866L65 993L417 993Q1012 993 1360 1051L1360 934Q1074 886 715 873L715 572L573 572L573 868M964 533L964-101L337-101L337 525L474 525L474 343L828 343L828 533L964 533M474 24L828 24L828 217L474 217L474 24M1380 333Q1456 118 1717-9L1616-116Q1402 10 1325 167Q1254 5 1035-123L927-28Q1282 156 1253 535L1397 535Q1397 421 1380 333Z"  horiz-adv-x="1740" vert-adv-y="2048"  />

      
      <glyph glyph-name="uniB6CB" unicode="&#xB6CB;" d="M715 1075L715 1598L1172 1598L1172 1477L854 1477L854 1197L1193 1197L1193 1075L715 1075M668 1105Q518 1071 333 1071L205 1071L205 1598L659 1598L659 1477L346 1477L346 1193L420 1193Q519 1193 668 1222L668 1105M1566 453L1431 453L1431 610L1001 610L1001 728L1431 728L1431 1666L1566 1666L1566 453M574 811Q503 808 420 808L66 808L66 933L418 933Q1013 933 1360 993L1360 875Q1105 827 716 814L716 429L574 429L574 811M1010 486Q1010 391 983 329Q1048 215 1213 122.50Q1378 30 1612-9L1540-126Q1318-85 1154 8Q990 101 919 207Q844 101 680.50 9.50Q517-82 301-126L225-9Q542 46 703 172Q864 298 864 486L1010 486Z"  horiz-adv-x="1746" vert-adv-y="2048"  />

      
      <glyph glyph-name="uniB6CC" unicode="&#xB6CC;" d="M713 1097L713 1612L1172 1612L1172 1491L853 1491L853 1218L1192 1218L1192 1097L713 1097M667 1127Q518 1093 331 1093L205 1093L205 1612L658 1612L658 1491L344 1491L344 1214L419 1214Q518 1214 667 1244L667 1127M1565 536L1430 536L1430 647L1001 647L1001 765L1430 765L1430 1666L1565 1666L1565 536M573 842Q502 839 419 839L65 839L65 964L417 964Q1000 964 1360 1024L1360 906Q1102 858 715 845L715 514L573 514L573 842M1315 303Q1376 107 1682-16L1575-123Q1341-28 1254 135Q1174-24 955-130Q711-24 631 138Q543-20 277-131L185-23Q387 55 485.50 168.50Q584 282 570 461L707 461Q707 369 696 309Q721 226 791 146Q861 66 959 22Q1071 81 1138.50 197Q1206 313 1192 469L1326 469Q1326 371 1315 303Z"  horiz-adv-x="1742" vert-adv-y="2048"  />

      
      <glyph glyph-name="uniB6CD" unicode="&#xB6CD;" d="M714 1087L714 1612L1172 1612L1172 1491L853 1491L853 1208L1193 1208L1193 1087L714 1087M667 1117Q517 1084 332 1084L204 1084L204 1612L658 1612L658 1491L345 1491L345 1204L419 1204Q518 1204 667 1235L667 1117M1566 482L1430 482L1430 627L1000 627L1000 750L1430 750L1430 1666L1566 1666L1566 482M573 832Q502 829 419 829L65 829L65 954L417 954Q1000 954 1360 1014L1360 897Q1092 849 716 836L716 523L573 523L573 832M1564 182.50Q1564 182.50 1564 112.25Q1564 42 1403-49Q1242-140 964.50-140Q687-140 528.50-49Q370 42 370 182.50Q370 323 528.50 413.50Q687 504 963.50 504Q1240 504 1402 413.50Q1564 323 1564 182.50M517 179.50Q517 179.50 517 142.75Q517 106 628.50 43Q740-20 965-20Q1190-20 1303 43Q1416 106 1416 179.50Q1416 253 1305 316Q1194 379 965 379Q736 379 626.50 316Q517 253 517 179.50Z"  horiz-adv-x="1748" vert-adv-y="2048"  />

      
      <glyph glyph-name="uniB6CE" unicode="&#xB6CE;" d="M712 1097L712 1612L1171 1612L1171 1491L853 1491L853 1218L1192 1218L1192 1097L712 1097M667 1127Q517 1093 331 1093L204 1093L204 1612L657 1612L657 1491L344 1491L344 1214L418 1214Q518 1214 667 1244L667 1127M1564 536L1430 536L1430 647L1000 647L1000 765L1430 765L1430 1666L1564 1666L1564 536M573 842Q502 839 418 839L65 839L65 964L417 964Q1000 964 1359 1024L1359 906Q1101 858 714 845L714 514L573 514L573 842M1232 330Q1121 325 807 325L482 325L482 443Q482 453 888 453Q1294 453 1415 459Q1439 459 1449.50 439.50Q1460 420 1450 395Q1380 243 1145 129Q1356 53 1692 2L1622-126Q1305-73 992 60Q718-59 353-130L286-2Q648 57 916 167Q1169 265 1232 330Z"  horiz-adv-x="1741" vert-adv-y="2048"  />

      
      <glyph glyph-name="uniB6CF" unicode="&#xB6CF;" d="M713 1143L713 1612L1171 1612L1171 1493L853 1493L853 1262L1192 1262L1192 1143L713 1143M667 1174Q517 1140 331 1140L204 1140L204 1612L657 1612L657 1493L344 1493L344 1258L419 1258Q518 1258 667 1289L667 1174M1565 573L1430 573L1430 745L1000 745L1000 862L1430 862L1430 1666L1565 1666L1565 573M1361 974Q1094 927 715 914L715 652L573 652L573 908Q546 907 502 907L65 907L65 1028L419 1028Q1014 1028 1361 1087L1361 974M637 490L637 611L1202 611L1202 490L637 490M1189 290Q1097 284 947 284L428 284L428 394Q428 404 843.50 404Q1259 404 1380 410Q1404 410 1414.50 390.50Q1425 371 1414 346Q1326 213 1119 114Q1334 38 1650 0L1588-124Q1272-83 963 44Q682-68 319-126L254-8Q579 40 843 129Q1107 218 1189 290Z"  horiz-adv-x="1743" vert-adv-y="2048"  />

      
      <glyph glyph-name="uniB6D0" unicode="&#xB6D0;" d="M714 1087L714 1612L1172 1612L1172 1491L853 1491L853 1208L1193 1208L1193 1087L714 1087M667 1117Q517 1084 332 1084L204 1084L204 1612L658 1612L658 1491L345 1491L345 1204L419 1204Q518 1204 667 1235L667 1117M1566 527L1430 527L1430 633L1000 633L1000 754L1430 754L1430 1666L1566 1666L1566 527M1360 897Q1079 849 716 836L716 503L573 503L573 832Q502 829 419 829L65 829L65 954L417 954Q1012 954 1360 1012L1360 897M908 166Q1246 166 1428 194L1428 313L384 313L384 440L1566 440L1566-128L1428-128L1428 74Q1239 42 874 42L370 42L370 166L908 166Z"  horiz-adv-x="1748" vert-adv-y="2048"  />

      
      <glyph glyph-name="uniB6D1" unicode="&#xB6D1;" d="M714 1132L714 1612L1171 1612L1171 1493L853 1493L853 1251L1192 1251L1192 1132L714 1132M667 1162Q517 1128 332 1128L204 1128L204 1612L658 1612L658 1493L345 1493L345 1247L419 1247Q518 1247 667 1277L667 1162M1565 650L1430 650L1430 732L1000 732L1000 845L1430 845L1430 1666L1565 1666L1565 650M1359 963Q1066 917 715 903L715 630L573 630L573 898Q546 897 502 897L65 897L65 1017L417 1017Q1012 1017 1359 1077L1359 963M1565 185L576 185L576 26L1605 26L1605-101L439-101L439 582L1568 582L1568 455L576 455L576 308L1565 308L1565 185Z"  horiz-adv-x="1745" vert-adv-y="2048"  />

      
      <glyph glyph-name="uniB6D2" unicode="&#xB6D2;" d="M713 1108L713 1612L1171 1612L1171 1493L853 1493L853 1227L1192 1227L1192 1108L713 1108M667 1139Q517 1104 331 1104L204 1104L204 1612L657 1612L657 1493L344 1493L344 1223L419 1223Q518 1223 667 1254L667 1139M1565 575L1430 575L1430 662L1000 662L1000 781L1430 781L1430 1666L1565 1666L1565 575M1361 916Q1101 868 715 855L715 553L573 553L573 851Q546 849 529 849Q529 849 65 849L65 973L417 973Q1000 973 1359 1034L1361 916M1644 24L1644-101L357-101L357 24L599 24L587 360L379 360L379 484L1616 484L1616 360L1406 360L1395 24L1644 24M736 24L1257 24L1268 360L726 360L736 24Z"  horiz-adv-x="1744" vert-adv-y="2048"  />

      
      <glyph glyph-name="uniB6D3" unicode="&#xB6D3;" d="M714 1143L714 1612L1172 1612L1172 1493L853 1493L853 1262L1193 1262L1193 1143L714 1143M667 1174Q518 1140 332 1140L205 1140L205 1612L658 1612L658 1493L345 1493L345 1258L419 1258Q519 1258 667 1289L667 1174M1566 573L1430 573L1430 745L1001 745L1001 862L1430 862L1430 1666L1566 1666L1566 573M1362 974Q1094 927 716 914L716 652L573 652L573 908Q546 907 502 907L65 907L65 1028L419 1028Q1014 1028 1362 1087L1362 974M1596 313L343 313L343 432L1596 432L1596 313M1261 496L656 496L656 617L1261 617L1261 496M445 62Q445 269 968.50 269Q1492 269 1492 62Q1492-50 1348-99.50Q1204-149 968.50-149Q733-149 589-99.50Q445-50 445 62M595 59.50Q595 59.50 595 39.75Q595 20 692-6.50Q789-33 967.50-33Q1146-33 1244.50-6.50Q1343 20 1343 60Q1343 153 969 153Q778 153 686.50 126Q595 99 595 59.50Z"  horiz-adv-x="1746" vert-adv-y="2048"  />

      
      <glyph glyph-name="uniB6D5" unicode="&#xB6D5;" d="M553 1085L553 1602L959 1602L959 1485L690 1485L690 1202L979 1202L979 1085L553 1085M530 1116Q396 1082 234 1082L122 1082L122 1602L523 1602L523 1485L257 1485L257 1199L312 1199Q385 1199 530 1229L530 1116M1105 635L817 635L817 750L1105 750L1105 1647L1236 1647L1236 507L1105 507L1105 635M1431 507L1431 1666L1565 1666L1565 507L1431 507M1053 891Q851 853 600 840L600 482L466 482L466 834Q443 833 428 833Q428 833 31 833L31 954L333 954Q763 954 1053 1003L1053 891M1565-133L1427-133L1427 291L379 291L379 416L1565 416L1565-133Z"  horiz-adv-x="1748" vert-adv-y="2048"  />

      
      <glyph glyph-name="uniB6D6" unicode="&#xB6D6;" d="M553 1085L553 1602L959 1602L959 1485L690 1485L690 1202L979 1202L979 1085L553 1085M530 1116Q396 1082 234 1082L122 1082L122 1602L523 1602L523 1485L257 1485L257 1199L312 1199Q385 1199 530 1229L530 1116M1105 641L817 641L817 754L1105 754L1105 1647L1236 1647L1236 527L1105 527L1105 641M1431 527L1431 1666L1565 1666L1565 527L1431 527M1053 891Q853 853 600 840L600 503L466 503L466 834Q443 833 428 833Q428 833 31 833L31 954L333 954Q763 954 1053 1003L1053 891M1565-133L1427-133L1427 313L974 313L974 438L1565 438L1565-133M918-133L780-133L780 313L328 313L328 438L918 438L918-133Z"  horiz-adv-x="1748" vert-adv-y="2048"  />

      
      <glyph glyph-name="uniB6D7" unicode="&#xB6D7;" d="M553 1085L553 1602L958 1602L958 1485L688 1485L688 1202L978 1202L978 1085L553 1085M530 1116Q395 1082 233 1082L121 1082L121 1602L522 1602L522 1485L255 1485L255 1199L311 1199Q385 1199 530 1229L530 1116M1103 641L817 641L817 754L1103 754L1103 1647L1236 1647L1236 527L1103 527L1103 641M1429 527L1429 1666L1563 1666L1563 527L1429 527M1051 891Q852 853 598 840L598 503L465 503L465 834Q443 833 428 833Q428 833 30 833L30 954L332 954Q761 954 1051 1003L1051 891M780-126L780 313L290 313L290 438L917 438L917-126L780-126M1402 457Q1402 359 1392 312Q1414 208 1508 115.50Q1602 23 1743-35L1635-136Q1524-91 1445.50-14Q1367 63 1330 133Q1239-39 1014-143L910-40Q1286 130 1261 457L1402 457Z"  horiz-adv-x="1737" vert-adv-y="2048"  />

      
      <glyph glyph-name="uniB6D8" unicode="&#xB6D8;" d="M552 1027L552 1582L958 1582L958 1463L689 1463L689 1145L978 1145L978 1027L552 1027M530 1057Q395 1023 234 1023L121 1023L121 1582L522 1582L522 1463L256 1463L256 1142Q302 1142 367.50 1140Q433 1138 530 1162L530 1057M1104 536L816 536L816 652L1104 652L1104 1647L1235 1647L1235 340L1104 340L1104 536M1430 301L1430 1666L1563 1666L1563 301L1430 301M1052 832Q819 788 599 781L599 470L465 470L465 776Q443 775 404 775L30 775L30 896L332 896Q761 896 1052 945L1052 832M1594 34L1594-92L396-92L396 385L537 385L537 34L1594 34Z"  horiz-adv-x="1744" vert-adv-y="2048"  />

      
      <glyph glyph-name="uniB6D9" unicode="&#xB6D9;" d="M552 1085L552 1602L958 1602L958 1485L688 1485L688 1202L978 1202L978 1085L552 1085M529 1116Q395 1082 233 1082L121 1082L121 1602L522 1602L522 1485L255 1485L255 1199L310 1199Q384 1199 529 1229L529 1116M1103 641L816 641L816 754L1103 754L1103 1647L1235 1647L1235 527L1103 527L1103 641M1429 527L1429 1666L1563 1666L1563 527L1429 527M1051 891Q852 853 599 840L599 503L465 503L465 834Q442 833 427 833Q427 833 30 833L30 954L331 954Q761 954 1051 1003L1051 891M902-48Q724-101 452-101L317-101L317 453L459 453L459 24L536 24Q750 24 902 75L902 17Q1082 69 1226 172Q1349 254 1382 315Q1308 311 1127 311L975 311L975 438L1201 438Q1408 438 1556 443Q1548 283 1407 159Q1515 78 1721 4L1619-104Q1430-29 1310 77Q1171-27 949-106L902-50L902-48Z"  horiz-adv-x="1738" vert-adv-y="2048"  />

      
      <glyph glyph-name="uniB6DA" unicode="&#xB6DA;" d="M552 1119L552 1602L958 1602L958 1485L689 1485L689 1236L978 1236L978 1119L552 1119M530 1148Q395 1114 234 1114L121 1114L121 1602L522 1602L522 1485L256 1485L256 1232L311 1232Q385 1232 530 1261L530 1148M1104 693L816 693L816 801L1104 801L1104 1647L1235 1647L1235 611L1104 611L1104 693M1430 611L1430 1666L1563 1666L1563 611L1430 611M465 872L396 870Q396 870 30 870L30 993L331 993Q796 993 1052 1042L1052 927Q830 890 599 877L599 572L465 572L465 872M933-48Q754-101 483-101L348-101L348 496L489 496L489 26L567 26Q782 26 933 77L933-48M1631 276L893 276L893 393L1631 393L1631 276M948 53.50Q948 53.50 948 98.25Q948 143 1033.50 196Q1119 249 1260.50 249Q1402 249 1490.50 196Q1579 143 1579 53.50Q1579-36 1488.50-88Q1398-140 1261.50-140Q1125-140 1036.50-88Q948-36 948 53.50M1438 56Q1438 88 1395 113Q1352 138 1261 138Q1170 138 1129.50 113Q1089 88 1089 56Q1089 24 1133.50-1.50Q1178-27 1263.50-27Q1349-27 1393.50-1.50Q1438 24 1438 56M1473 440L1051 440L1051 560L1473 560L1473 440Z"  horiz-adv-x="1743" vert-adv-y="2048"  />

      
      <glyph glyph-name="uniB6DB" unicode="&#xB6DB;" d="M552 1085L552 1602L958 1602L958 1485L689 1485L689 1202L978 1202L978 1085L552 1085M529 1116Q395 1082 233 1082L121 1082L121 1602L522 1602L522 1485L256 1485L256 1199L311 1199Q384 1199 529 1229L529 1116M1104 641L816 641L816 754L1104 754L1104 1647L1235 1647L1235 527L1104 527L1104 641M1430 527L1430 1666L1563 1666L1563 527L1430 527M1052 891Q852 853 599 840L599 503L465 503L465 834Q442 833 427 833Q427 833 30 833L30 954L331 954Q761 954 1052 1003L1052 891M1600-101L422-101L422 436L1567 436L1567 309L563 309L563 24L1600 24L1600-101Z"  horiz-adv-x="1744" vert-adv-y="2048"  />

      
      <glyph glyph-name="uniB6DC" unicode="&#xB6DC;" d="M553 1130L553 1602L959 1602L959 1485L690 1485L690 1247L979 1247L979 1130L553 1130M530 1161Q396 1126 234 1126L122 1126L122 1602L523 1602L523 1485L257 1485L257 1243L312 1243Q385 1243 530 1274L530 1161M1105 740L817 740L817 845L1105 845L1105 1647L1236 1647L1236 650L1105 650L1105 740M1431 650L1431 1666L1564 1666L1564 650L1431 650M1053 958Q840 921 600 909L600 630L466 630L466 902Q443 901 428 901Q428 901 31 901L31 1017L333 1017Q797 1017 1053 1068L1053 958M1605 19L1605-109L419-109L419 309L1427 309L1427 459L419 459L419 586L1564 586L1564 187L557 187L557 19L1605 19Z"  horiz-adv-x="1745" vert-adv-y="2048"  />

      
      <glyph glyph-name="uniB6DD" unicode="&#xB6DD;" d="M553 1130L553 1602L959 1602L959 1485L690 1485L690 1247L979 1247L979 1130L553 1130M530 1161Q396 1126 234 1126L122 1126L122 1602L523 1602L523 1485L257 1485L257 1243L312 1243Q385 1243 530 1274L530 1161M1105 740L817 740L817 845L1105 845L1105 1647L1236 1647L1236 650L1105 650L1105 740M1431 650L1431 1666L1565 1666L1565 650L1431 650M1053 958Q841 921 600 909L600 630L466 630L466 902Q443 901 428 901Q428 901 31 901L31 1017L333 1017Q797 1017 1053 1068L1053 958M1565-133L1427-133L1427 462L981 462L981 590L1565 590L1565-133M1076-59Q951-109 722-109L367-109L367 311L799 311L799 462L367 462L367 590L938 590L938 190L505 190L505 19L781 19Q957 19 1076 67L1076-59Z"  horiz-adv-x="1748" vert-adv-y="2048"  />

      
      <glyph glyph-name="uniB6DE" unicode="&#xB6DE;" d="M553 1130L553 1602L959 1602L959 1485L690 1485L690 1247L979 1247L979 1130L553 1130M530 1161Q396 1126 234 1126L122 1126L122 1602L523 1602L523 1485L257 1485L257 1243L312 1243Q385 1243 530 1274L530 1161M1105 740L817 740L817 845L1105 845L1105 1647L1236 1647L1236 650L1105 650L1105 740M1431 650L1431 1666L1565 1666L1565 650L1431 650M1053 958Q841 921 600 909L600 630L466 630L466 902Q443 901 428 901Q428 901 31 901L31 1017L333 1017Q797 1017 1053 1068L1053 958M961-65Q841-112 601-112L348-112L348 311L782 311L782 462L348 462L348 590L916 590L916 190L486 190L486 14L661 14Q842 14 961 63L961-65M990-109L990 590L1565 590L1565-109L990-109M1429 464L1122 464L1122 17L1429 17L1429 464Z"  horiz-adv-x="1748" vert-adv-y="2048"  />

      
      <glyph glyph-name="uniB6DF" unicode="&#xB6DF;" d="M553 1130L553 1602L959 1602L959 1485L690 1485L690 1247L979 1247L979 1130L553 1130M530 1161Q396 1126 234 1126L122 1126L122 1602L523 1602L523 1485L257 1485L257 1243L312 1243Q385 1243 530 1274L530 1161M1105 740L817 740L817 845L1105 845L1105 1647L1236 1647L1236 650L1105 650L1105 740M1431 650L1431 1666L1565 1666L1565 650L1431 650M1053 958Q841 921 600 909L600 630L466 630L466 902Q443 901 428 901Q428 901 31 901L31 1017L333 1017Q797 1017 1053 1068L1053 958M979-109L979 590L1113 590L1113 380L1429 380L1429 599L1565 599L1565-109L979-109M1429 258L1113 258L1113 14L1429 14L1429 258M953-65Q832-112 597-112L348-112L348 311L767 311L767 462L348 462L348 590L901 590L901 190L486 190L486 14L657 14Q835 14 953 63L953-65Z"  horiz-adv-x="1748" vert-adv-y="2048"  />

      
      <glyph glyph-name="uniB6E0" unicode="&#xB6E0;" d="M552 1130L552 1602L958 1602L958 1485L688 1485L688 1247L978 1247L978 1130L552 1130M529 1161Q395 1126 233 1126L121 1126L121 1602L522 1602L522 1485L255 1485L255 1243L310 1243Q384 1243 529 1274L529 1161M1103 740L816 740L816 845L1103 845L1103 1647L1235 1647L1235 650L1103 650L1103 740M1430 650L1430 1666L1563 1666L1563 650L1430 650M1051 958Q840 921 599 909L599 630L465 630L465 902Q442 901 427 901Q427 901 30 901L30 1017L331 1017Q796 1017 1051 1068L1051 958M931-63Q786-109 565-109L313-109L313 298L759 298L759 453L313 453L313 579L898 579L898 177L450 177L450 17L625 17Q814 17 931 63L931 10Q1076 86 1152.50 238.50Q1229 391 1212 588L1354 588Q1358 478 1342 397Q1360 273 1452 163Q1544 53 1684-8L1586-115Q1476-61 1397 29.50Q1318 120 1279 198Q1189-3 971-124L931-80L931-63Z"  horiz-adv-x="1740" vert-adv-y="2048"  />

      
      <glyph glyph-name="uniB6E1" unicode="&#xB6E1;" d="M552 1130L552 1602L958 1602L958 1485L689 1485L689 1247L978 1247L978 1130L552 1130M529 1161Q395 1126 234 1126L121 1126L121 1602L522 1602L522 1485L256 1485L256 1243L311 1243Q385 1243 529 1274L529 1161M1104 740L816 740L816 845L1104 845L1104 1647L1235 1647L1235 650L1104 650L1104 740M1430 650L1430 1666L1563 1666L1563 650L1430 650M1052 958Q840 921 599 909L599 630L465 630L465 902Q443 901 428 901Q428 901 30 901L30 1017L332 1017Q796 1017 1052 1068L1052 958M968-67Q853-112 610-112L346-112L346 311L789 311L789 462L346 462L346 590L927 590L927 190L485 190L485 14L671 14Q862 14 968 61L968-67M1002-109L1002 590L1567 590L1567 462L1140 462L1140 311L1563 311L1563 190L1140 190L1140 19L1596 19L1596-109L1002-109Z"  horiz-adv-x="1744" vert-adv-y="2048"  />

      
      <glyph glyph-name="uniB6E2" unicode="&#xB6E2;" d="M553 1130L553 1602L958 1602L958 1485L689 1485L689 1247L978 1247L978 1130L553 1130M530 1161Q395 1126 234 1126L121 1126L121 1602L522 1602L522 1485L256 1485L256 1243L311 1243Q385 1243 530 1274L530 1161M1104 740L817 740L817 845L1104 845L1104 1647L1236 1647L1236 650L1104 650L1104 740M1430 650L1430 1666L1563 1666L1563 650L1430 650M1052 958Q840 921 599 909L599 630L465 630L465 902Q443 901 428 901Q428 901 30 901L30 1017L332 1017Q796 1017 1052 1068L1052 958M956 590L1608 590L1608 464L1504 464L1497 17L1622 17L1622-109L956-109L956 17L1073 17L1069 464L956 464L956 590M1204 17L1364 17L1371 464L1200 464L1204 17M945-65Q824-112 595-112L343-112L343 311L795 311L795 462L343 462L343 590L930 590L930 190L481 190L481 14L655 14Q823 14 945 61L945-65Z"  horiz-adv-x="1743" vert-adv-y="2048"  />

      
      <glyph glyph-name="uniB6E3" unicode="&#xB6E3;" d="M552 1130L552 1602L958 1602L958 1485L689 1485L689 1247L978 1247L978 1130L552 1130M530 1161Q395 1126 234 1126L121 1126L121 1602L522 1602L522 1485L256 1485L256 1243L311 1243Q385 1243 530 1274L530 1161M1104 740L816 740L816 845L1104 845L1104 1647L1235 1647L1235 650L1104 650L1104 740M1430 650L1430 1666L1563 1666L1563 650L1430 650M1052 958Q840 921 599 909L599 630L465 630L465 902Q443 901 428 901Q428 901 30 901L30 1017L332 1017Q796 1017 1052 1068L1052 958M968-66Q823-110 602-110L341-110L341 295L763 295L763 451L341 451L341 575L902 575L902 177L476 177L476 10L662 10Q851 10 968 57L968-66M1630 311L929 311L929 424L1630 424L1630 311M1484 477L1075 477L1075 595L1484 595L1484 477M991 65Q991 65 991 112Q991 159 1070.50 217.50Q1150 276 1282 276Q1414 276 1494.50 217.50Q1575 159 1575 65Q1575-29 1493.50-86.50Q1412-144 1282-144Q1152-144 1071.50-86.50Q991-29 991 65M1445 63.50Q1445 63.50 1445 84.25Q1445 105 1402.50 138.50Q1360 172 1282 172Q1204 172 1162 138.50Q1120 105 1120 63.50Q1120 22 1161-8Q1202-38 1282-38Q1362-38 1403.50-8Q1445 22 1445 63.50Z"  horiz-adv-x="1743" vert-adv-y="2048"  />

      
      <glyph glyph-name="uniB6E4" unicode="&#xB6E4;" d="M553 1095L553 1602L959 1602L959 1485L690 1485L690 1212L979 1212L979 1095L553 1095M530 1125Q396 1091 234 1091L122 1091L122 1602L523 1602L523 1485L257 1485L257 1208L312 1208Q385 1208 530 1239L530 1125M1105 654L817 654L817 765L1105 765L1105 1647L1236 1647L1236 536L1105 536L1105 654M1431 536L1431 1666L1565 1666L1565 536L1431 536M1053 900Q855 862 600 849L600 514L466 514L466 845L394 843Q394 843 31 843L31 964L333 964Q787 964 1053 1014L1053 900M1565-101L419-101L419 449L1565 449L1565-101M559 325L559 24L1427 24L1427 325L559 325Z"  horiz-adv-x="1748" vert-adv-y="2048"  />

      
      <glyph glyph-name="uniB6E5" unicode="&#xB6E5;" d="M553 1119L553 1602L959 1602L959 1485L690 1485L690 1236L979 1236L979 1119L553 1119M530 1148Q396 1114 234 1114L122 1114L122 1602L523 1602L523 1485L257 1485L257 1232L312 1232Q385 1232 530 1261L530 1148M1105 693L817 693L817 801L1105 801L1105 1647L1236 1647L1236 611L1105 611L1105 693M1431 611L1431 1666L1565 1666L1565 611L1431 611M466 872L396 870Q396 870 31 870L31 993L333 993Q797 993 1053 1042L1053 927Q831 890 600 877L600 572L466 572L466 872M1565 536L1565-101L419-101L419 527L559 527L559 367L1427 367L1427 536L1565 536M557 24L1429 24L1429 245L557 245L557 24Z"  horiz-adv-x="1748" vert-adv-y="2048"  />

      
      <glyph glyph-name="uniB6E6" unicode="&#xB6E6;" d="M552 1119L552 1602L958 1602L958 1485L688 1485L688 1236L978 1236L978 1119L552 1119M529 1148Q395 1114 232 1114L121 1114L121 1602L522 1602L522 1485L255 1485L255 1232L310 1232Q384 1232 529 1261L529 1148M1103 693L816 693L816 801L1103 801L1103 1647L1235 1647L1235 611L1103 611L1103 693M1429 611L1429 1666L1563 1666L1563 611L1429 611M465 872L395 870Q395 870 30 870L30 993L331 993Q796 993 1051 1042L1051 927Q830 890 599 877L599 572L465 572L465 872M961 533L961-101L324-101L324 525L463 525L463 343L826 343L826 533L961 533M463 24L826 24L826 217L463 217L463 24M1381 353Q1448 130 1725-9L1623-115Q1518-57 1439 24Q1360 105 1328 177Q1258 15 1032-123L925-28Q1280 156 1251 535L1395 535Q1395 435 1381 353Z"  horiz-adv-x="1738" vert-adv-y="2048"  />

      
      <glyph glyph-name="uniB6E7" unicode="&#xB6E7;" d="M553 1073L553 1588L959 1588L959 1471L690 1471L690 1191L979 1191L979 1073L553 1073M530 1104Q396 1069 234 1069L122 1069L122 1588L523 1588L523 1471L257 1471L257 1186L312 1186Q385 1186 530 1217L530 1104M1105 617L817 617L817 728L1105 728L1105 1647L1236 1647L1236 550L1105 550L1105 617M1431 453L1431 1666L1564 1666L1564 453L1431 453M466 814L396 812Q396 812 31 812L31 933L332 933Q762 933 1053 982L1053 869Q833 827 600 818L600 429L466 429L466 814M1008 486Q1008 391 982 329Q1046 215 1211 122.50Q1376 30 1610-9L1537-126Q1316-85 1152 8Q988 101 917 207Q842 101 678.50 9.50Q515-82 299-126L223-9Q540 46 701 172Q862 298 862 486L1008 486Z"  horiz-adv-x="1744" vert-adv-y="2048"  />

      
      <glyph glyph-name="uniB6E8" unicode="&#xB6E8;" d="M552 1095L552 1602L958 1602L958 1485L688 1485L688 1212L978 1212L978 1095L552 1095M530 1125Q395 1091 234 1091L121 1091L121 1602L522 1602L522 1485L256 1485L256 1208L311 1208Q385 1208 530 1239L530 1125M1103 654L817 654L817 765L1103 765L1103 1647L1235 1647L1235 536L1103 536L1103 654M1430 536L1430 1666L1563 1666L1563 536L1430 536M1052 900Q854 862 599 849L599 514L465 514L465 845L394 843Q394 843 30 843L30 964L332 964Q787 964 1052 1014L1052 900M1304 303Q1362 108 1671-16L1564-123Q1330-28 1243 135Q1163-24 943-130Q700-24 619 138Q531-20 266-131L173-23Q376 55 473.50 168.50Q571 282 559 461L696 461Q696 369 685 309Q710 226 780 146Q850 66 947 22Q1060 81 1127.50 197Q1195 313 1181 469L1315 469Q1315 371 1304 303Z"  horiz-adv-x="1741" vert-adv-y="2048"  />

      
      <glyph glyph-name="uniB6E9" unicode="&#xB6E9;" d="M553 1085L553 1602L959 1602L959 1485L690 1485L690 1202L979 1202L979 1085L553 1085M530 1116Q396 1082 234 1082L122 1082L122 1602L523 1602L523 1485L257 1485L257 1199L312 1199Q385 1199 530 1229L530 1116M1105 635L817 635L817 750L1105 750L1105 1647L1236 1647L1236 540L1105 540L1105 635M1431 440L1431 1666L1565 1666L1565 440L1431 440M1053 889Q837 851 600 839L600 497L466 497L466 832Q443 831 428 831Q428 831 31 831L31 953L333 953Q787 953 1053 1003L1053 889M1563 176.50Q1563 176.50 1563 107.25Q1563 38 1400.50-51Q1238-140 960.50-140Q683-140 522-51Q361 38 361 176.50Q361 315 522 403.50Q683 492 959.50 492Q1236 492 1399.50 403.50Q1563 315 1563 176.50M509 174.50Q509 174.50 509 138.25Q509 102 621.50 42Q734-18 959.50-18Q1185-18 1300 42Q1415 102 1415 174.50Q1415 247 1301.50 308Q1188 369 959.50 369Q731 369 620 308Q509 247 509 174.50Z"  horiz-adv-x="1748" vert-adv-y="2048"  />

      
      <glyph glyph-name="uniB6EA" unicode="&#xB6EA;" d="M553 1095L553 1602L959 1602L959 1485L689 1485L689 1212L979 1212L979 1095L553 1095M530 1125Q396 1091 234 1091L122 1091L122 1602L523 1602L523 1485L256 1485L256 1208L311 1208Q385 1208 530 1239L530 1125M1104 654L817 654L817 765L1104 765L1104 1647L1236 1647L1236 536L1104 536L1104 654M1431 536L1431 1666L1564 1666L1564 536L1431 536M1052 900Q855 862 600 849L600 514L466 514L466 845L394 843Q394 843 30 843L30 964L332 964Q787 964 1052 1014L1052 900M1231 330Q1120 325 806 325L481 325L481 443Q481 453 887 453Q1293 453 1414 459Q1438 459 1448 439.50Q1458 420 1448 395Q1379 243 1145 129Q1355 53 1691 2L1621-126Q1305-73 991 60Q717-59 352-130L285-2Q647 57 915 167Q1168 265 1231 330Z"  horiz-adv-x="1740" vert-adv-y="2048"  />

      
      <glyph glyph-name="uniB6EB" unicode="&#xB6EB;" d="M553 1134L553 1602L958 1602L958 1485L689 1485L689 1251L978 1251L978 1134L553 1134M530 1164Q396 1130 234 1130L122 1130L122 1602L522 1602L522 1485L257 1485L257 1247L311 1247Q385 1247 530 1277L530 1164M1104 754L817 754L817 862L1104 862L1104 1647L1236 1647L1236 650L1104 650L1104 754M1431 573L1431 1666L1564 1666L1564 573L1431 573M1053 969Q844 927 599 917L599 652L465 652L465 912Q443 911 404 911L30 911L30 1028L332 1028Q761 1028 1053 1077L1053 969M642 490L642 611L1206 611L1206 490L642 490M1194 290Q1100 284 952 284L432 284L432 394Q432 404 848 404Q1264 404 1384 410Q1409 410 1420 390.50Q1431 371 1419 346Q1331 213 1124 114Q1339 38 1655 0L1593-124Q1277-83 967 44Q685-68 325-126L259-8Q584 40 847.50 129Q1111 218 1194 290Z"  horiz-adv-x="1742" vert-adv-y="2048"  />

      
      <glyph glyph-name="uniB6EC" unicode="&#xB6EC;" d="M553 1085L553 1602L959 1602L959 1485L690 1485L690 1202L979 1202L979 1085L553 1085M530 1116Q396 1082 234 1082L122 1082L122 1602L523 1602L523 1485L257 1485L257 1199L312 1199Q385 1199 530 1229L530 1116M1105 641L817 641L817 754L1105 754L1105 1647L1236 1647L1236 527L1105 527L1105 641M1431 527L1431 1666L1565 1666L1565 527L1431 527M1053 891Q853 853 600 840L600 503L466 503L466 834Q443 833 428 833Q428 833 31 833L31 954L333 954Q763 954 1053 1003L1053 891M907 166Q1245 166 1427 194L1427 313L374 313L374 440L1565 440L1565-128L1427-128L1427 74Q1239 42 873 42L359 42L359 166L907 166Z"  horiz-adv-x="1748" vert-adv-y="2048"  />

      
      <glyph glyph-name="uniB6ED" unicode="&#xB6ED;" d="M553 1130L553 1602L959 1602L959 1485L690 1485L690 1247L979 1247L979 1130L553 1130M530 1161Q396 1126 234 1126L122 1126L122 1602L523 1602L523 1485L257 1485L257 1243L312 1243Q385 1243 530 1274L530 1161M1105 740L817 740L817 845L1105 845L1105 1647L1236 1647L1236 650L1105 650L1105 740M1431 650L1431 1666L1564 1666L1564 650L1431 650M1053 958Q840 921 600 909L600 630L466 630L466 902Q443 901 428 901Q428 901 31 901L31 1017L333 1017Q797 1017 1053 1068L1053 958M1564 192L569 192L569 26L1605 26L1605-101L432-101L432 586L1568 586L1568 459L569 459L569 313L1564 313L1564 192Z"  horiz-adv-x="1745" vert-adv-y="2048"  />

      
      <glyph glyph-name="uniB6EE" unicode="&#xB6EE;" d="M552 1104L552 1602L958 1602L958 1485L689 1485L689 1221L978 1221L978 1104L552 1104M529 1135Q395 1101 233 1101L121 1101L121 1602L522 1602L522 1485L256 1485L256 1218L310 1218Q384 1218 529 1248L529 1135M1103 674L816 674L816 785L1103 785L1103 1647L1235 1647L1235 575L1103 575L1103 674M1430 575L1430 1666L1563 1666L1563 575L1430 575M1052 910Q850 872 599 859L599 553L465 553L465 854Q442 853 427 853Q427 853 30 853L30 973L331 973Q786 973 1052 1024L1052 910M1643 24L1643-101L346-101L346 24L587 24L576 360L367 360L367 484L1614 484L1614 360L1404 360L1393 24L1643 24M724 24L1255 24L1266 360L713 360L724 24Z"  horiz-adv-x="1742" vert-adv-y="2048"  />

      
      <glyph glyph-name="uniB6EF" unicode="&#xB6EF;" d="M552 1134L552 1602L958 1602L958 1485L689 1485L689 1251L978 1251L978 1134L552 1134M530 1164Q395 1130 234 1130L121 1130L121 1602L522 1602L522 1485L256 1485L256 1247L312 1247Q385 1247 530 1277L530 1164M1104 754L816 754L816 862L1104 862L1104 1647L1235 1647L1235 650L1104 650L1104 754M1430 573L1430 1666L1563 1666L1563 573L1430 573M1052 969Q843 927 599 917L599 652L465 652L465 912Q443 911 404 911L30 911L30 1028L332 1028Q761 1028 1052 1077L1052 969M1594 313L340 313L340 432L1594 432L1594 313M1259 496L654 496L654 617L1259 617L1259 496M443 62Q443 269 966.50 269Q1490 269 1490 60Q1490-149 967-149Q731-149 587-99.50Q443-50 443 62M593 59.50Q593 59.50 593 39.75Q593 20 690-6.50Q787-33 965.50-33Q1144-33 1242.50-6.50Q1341 20 1341 60Q1341 153 967 153Q776 153 684.50 126Q593 99 593 59.50Z"  horiz-adv-x="1744" vert-adv-y="2048"  />

      
      <glyph glyph-name="uniB6F1" unicode="&#xB6F1;" d="M713 1069L713 1612L1172 1612L1172 1485L853 1485L853 1197L1192 1197L1192 1069L713 1069M667 1100Q517 1065 332 1065L204 1065L204 1612L657 1612L657 1485L345 1485L345 1193L419 1193Q518 1193 667 1222L667 1100M1566 517L1428 517L1428 1666L1566 1666L1566 517M1363 840Q1092 797 733 782L733 514L591 514L591 779Q557 777 511 777L61 777L61 903L417 903Q1004 903 1363 965L1363 840M1566-133L1428-133L1428 311L390 311L390 436L1566 436L1566-133Z"  horiz-adv-x="1748" vert-adv-y="2048"  />

      
      <glyph glyph-name="uniB6F2" unicode="&#xB6F2;" d="M713 1069L713 1612L1172 1612L1172 1485L853 1485L853 1197L1192 1197L1192 1069L713 1069M667 1100Q517 1065 332 1065L204 1065L204 1612L657 1612L657 1485L345 1485L345 1193L419 1193Q518 1193 667 1222L667 1100M1566 546L1428 546L1428 1666L1566 1666L1566 546M1363 840Q1092 797 733 782L733 523L591 523L591 779Q557 777 511 777L61 777L61 903L417 903Q1004 903 1363 965L1363 840M1566-133L1428-133L1428 332L983 332L983 457L1566 457L1566-133M927-133L791-133L791 332L339 332L339 457L927 457L927-133Z"  horiz-adv-x="1748" vert-adv-y="2048"  />

      
      <glyph glyph-name="uniB6F3" unicode="&#xB6F3;" d="M713 1069L713 1612L1172 1612L1172 1485L854 1485L854 1197L1193 1197L1193 1069L713 1069M666 1100Q518 1065 332 1065L205 1065L205 1612L657 1612L657 1485L344 1485L344 1193L419 1193Q519 1193 666 1222L666 1100M1565 546L1427 546L1427 1666L1565 1666L1565 546M1364 840Q1092 797 733 782L733 523L591 523L591 779Q558 777 511 777L61 777L61 903L417 903Q1004 903 1364 965L1364 840M791-126L791 332L311 332L311 457L930 457L930-126L791-126M1637-136Q1435-49 1336 136Q1243-39 1026-143L923-40Q1297 134 1272 477L1415 477Q1415 389 1401 304Q1427 203 1517.50 113Q1608 23 1744-32L1637-136Z"  horiz-adv-x="1739" vert-adv-y="2048"  />

      
      <glyph glyph-name="uniB6F5" unicode="&#xB6F5;" d="M713 1069L713 1612L1171 1612L1171 1485L853 1485L853 1197L1192 1197L1192 1069L713 1069M666 1100Q517 1065 331 1065L204 1065L204 1612L657 1612L657 1485L344 1485L344 1193L419 1193Q518 1193 666 1222L666 1100M1565 546L1428 546L1428 1666L1565 1666L1565 546M1363 840Q1091 797 733 782L733 523L591 523L591 779Q557 777 511 777L61 777L61 903L417 903Q1004 903 1363 965L1363 840M903-54Q744-101 474-101L338-101L338 473L480 473L480 24L557 24Q771 24 923 75L923 24Q1097 80 1235 185Q1359 273 1386 335Q1310 330 1129 330L977 330L977 457L1203 457Q1409 457 1558 463Q1549 295 1408 167Q1517 81 1723 3L1619-104Q1437-27 1311 84Q1167-25 952-106L903-49L903-54Z"  horiz-adv-x="1740" vert-adv-y="2048"  />

      
      <glyph glyph-name="uniB6F6" unicode="&#xB6F6;" d="M714 1099L714 1612L1172 1612L1172 1487L853 1487L853 1223L1192 1223L1192 1099L714 1099M667 1129Q518 1095 332 1095L205 1095L205 1612L658 1612L658 1487L344 1487L344 1219L419 1219Q518 1219 667 1250L667 1129M1565 630L1428 630L1428 1666L1565 1666L1565 630M1363 891Q1079 843 733 830L733 591L591 591L591 825Q557 823 511 823L61 823L61 953L417 953Q1016 953 1363 1011L1363 891M945-48Q766-101 495-101L359-101L359 516L500 516L500 26L578 26Q793 26 945 77L945-48M1633 289L895 289L895 408L1633 408L1633 289M950 60Q950 60 950 106Q950 152 1036 206.50Q1122 261 1263 261Q1404 261 1492.50 207Q1581 153 1581 60.50Q1581-32 1490.50-86Q1400-140 1265-140Q1130-140 1040-86Q950-32 950 60M1439 64Q1439 64 1439 81Q1439 98 1396.50 123.50Q1354 149 1264 149Q1174 149 1132.50 123.50Q1091 98 1091 64Q1091 30 1136.50 3Q1182-24 1266-24Q1350-24 1394.50 3Q1439 30 1439 64M1475 459L1053 459L1053 579L1475 579L1475 459Z"  horiz-adv-x="1744" vert-adv-y="2048"  />

      
      <glyph glyph-name="uniB6F7" unicode="&#xB6F7;" d="M714 1069L714 1612L1171 1612L1171 1485L853 1485L853 1197L1192 1197L1192 1069L714 1069M667 1100Q517 1065 332 1065L204 1065L204 1612L658 1612L658 1485L345 1485L345 1193L419 1193Q518 1193 667 1222L667 1100M1565 546L1428 546L1428 1666L1565 1666L1565 546M1363 840Q1092 797 734 782L734 523L591 523L591 779Q557 777 511 777L61 777L61 903L417 903Q1004 903 1363 965L1363 840M1602-101L433-101L433 455L1568 455L1568 328L574 328L574 24L1602 24L1602-101Z"  horiz-adv-x="1746" vert-adv-y="2048"  />

      
      <glyph glyph-name="uniB6F9" unicode="&#xB6F9;" d="M713 1106L713 1612L1172 1612L1172 1489L853 1489L853 1230L1192 1230L1192 1106L713 1106M667 1137Q517 1103 332 1103L204 1103L204 1612L657 1612L657 1489L345 1489L345 1225L419 1225Q518 1225 667 1256L667 1137M1566 669L1428 669L1428 1666L1566 1666L1566 669M1363 932Q1064 880 733 869L733 652L591 652L591 864Q557 862 511 862L61 862L61 990L417 990Q1004 990 1363 1049L1363 932M1566-133L1428-133L1428 482L991 482L991 608L1566 608L1566-133M1086-59Q962-109 734-109L380-109L380 317L809 317L809 482L380 482L380 608L948 608L948 195L517 195L517 19L793 19Q967 19 1086 67L1086-59Z"  horiz-adv-x="1748" vert-adv-y="2048"  />

      
      <glyph glyph-name="uniB6FA" unicode="&#xB6FA;" d="M713 1106L713 1612L1172 1612L1172 1489L853 1489L853 1230L1192 1230L1192 1106L713 1106M667 1137Q517 1103 332 1103L204 1103L204 1612L657 1612L657 1489L345 1489L345 1225L419 1225Q518 1225 667 1256L667 1137M1566 669L1428 669L1428 1666L1566 1666L1566 669M1363 932Q1064 880 733 869L733 652L591 652L591 864Q557 862 511 862L61 862L61 990L417 990Q1004 990 1363 1049L1363 932M968-65Q847-112 609-112L358-112L358 317L789 317L789 482L358 482L358 608L922 608L922 195L496 195L496 14L667 14Q849 14 968 63L968-65M997-109L997 608L1566 608L1566-109L997-109M1430 484L1130 484L1130 17L1430 17L1430 484Z"  horiz-adv-x="1748" vert-adv-y="2048"  />

      
      <glyph glyph-name="uniB6FB" unicode="&#xB6FB;" d="M713 1106L713 1612L1172 1612L1172 1489L853 1489L853 1230L1192 1230L1192 1106L713 1106M667 1137Q517 1103 332 1103L204 1103L204 1612L657 1612L657 1489L345 1489L345 1225L419 1225Q518 1225 667 1256L667 1137M1566 669L1428 669L1428 1666L1566 1666L1566 669M1363 932Q1064 880 733 869L733 652L591 652L591 864Q557 862 511 862L61 862L61 990L417 990Q1004 990 1363 1049L1363 932M985-109L985 608L1119 608L1119 389L1430 389L1430 617L1566 617L1566-109L985-109M1430 269L1119 269L1119 14L1430 14L1430 269M960-65Q839-112 604-112L358-112L358 317L773 317L773 482L358 482L358 608L907 608L907 195L496 195L496 14L664 14Q841 14 960 63L960-65Z"  horiz-adv-x="1748" vert-adv-y="2048"  />

      
      </font>
</defs>
</svg>
