<?xml version="1.0" standalone="no"?>
  <!DOCTYPE svg PUBLIC "-//W3C//DTD SVG 1.1//EN" "http://www.w3.org/Graphics/SVG/1.1/DTD/svg11.dtd" >
  <svg>
  <metadata>
  Created by font-carrier
  </metadata>
  <defs>
  <font id="NanumBarunRoboto" horiz-adv-x="2109" vert-adv-y="2109" >
    <font-face
      
      font-family="NanumBarunRoboto"
      
      font-weight="400"
      
      font-stretch="normal"
      
      units-per-em="2048"
      
      ascent="2146"
      
      descent="-555"
      
    />
      <missing-glyph />

      
      <glyph glyph-name="x" unicode="&#x78;" horiz-adv-x="100"
        d="M20 20 L50 20 L50 -20 Z" />
      

      
      <glyph glyph-name="uniAC00" unicode="&#xAC00;" d="M781 1360Q610 1354 318 1354L114 1354L114 1507Q114 1507 618 1507Q830 1507 974 1511Q946 1104 751.50 787.50Q557 471 159 258L39 388Q532 634 708 1082Q762 1220 781 1360M1733 818L1427 818L1427-121L1251-121L1251 1660L1427 1660L1427 975L1733 975L1733 818Z"  horiz-adv-x="1738" vert-adv-y="2048"  />

      
      <glyph glyph-name="uniAC01" unicode="&#xAC01;" d="M790 1435Q621 1429 333 1429L162 1429L162 1583Q162 1583 650 1583Q856 1583 999 1587Q975 1258 758.50 1003.50Q542 749 163 630L58 769Q374 864 560.50 1032Q747 1200 790 1435M1718 1053L1439 1053L1439 621L1262 621L1262 1660L1439 1660L1439 1209L1718 1209L1718 1053M1262-128L1262 375L304 375L304 531L1439 531L1439-128L1262-128Z"  horiz-adv-x="1740" vert-adv-y="2048"  />

      
      <glyph glyph-name="uniAC04" unicode="&#xAC04;" d="M788 1407Q619 1401 329 1401L162 1401L162 1555Q162 1555 650 1555Q856 1555 999 1559Q961 1012 513 708Q361 604 163 534L56 668Q376 769 565 958Q754 1147 788 1407M1718 933L1439 933L1439 362L1262 362L1262 1660L1439 1660L1439 1089L1718 1089L1718 933M1477-87L362-87L362 461L540 461L540 69L1477 69L1477-87Z"  horiz-adv-x="1740" vert-adv-y="2048"  />

      
      <glyph glyph-name="uniAC07" unicode="&#xAC07;" d="M785 1431Q617 1425 329 1425L159 1425L159 1578Q159 1578 647 1578Q852 1578 995 1583Q972 1256 752.50 1007Q533 758 159 642L56 783Q702 978 785 1431M1718 1027L1439 1027L1439 635L1262 635L1262 1660L1439 1660L1439 1185L1718 1185L1718 1027M343-95L343 545L1444 545L1444 391L519 391L519 61L1473 61L1473-95L343-95Z"  horiz-adv-x="1740" vert-adv-y="2048"  />

      
      <glyph glyph-name="uniAC08" unicode="&#xAC08;" d="M795 1433Q628 1427 339 1427L157 1427L157 1578Q157 1578 653 1578Q862 1578 1005 1583Q982 1292 760 1070Q541 844 171 734L73 876Q687 1047 795 1433M1717 1118L1438 1118L1438 753L1261 753L1261 1660L1438 1660L1438 1276L1717 1276L1717 1118M1475-102L327-102L327 359L1263 359L1263 511L327 511L327 662L1438 662L1438 216L502 216L502 50L1475 50L1475-102Z"  horiz-adv-x="1740" vert-adv-y="2048"  />

      
      <glyph glyph-name="uniAC09" unicode="&#xAC09;" d="M795 1435Q628 1429 339 1429L157 1429L157 1580Q157 1580 653 1580Q862 1580 1005 1585Q982 1294 761.50 1070Q541 846 171 735L73 878Q687 1049 795 1435M1717 1118L1438 1118L1438 764L1261 764L1261 1660L1438 1660L1438 1276L1717 1276L1717 1118M1261-121L1261 522L918 522L918 672L1438 672L1438-121L1261-121M985-62Q848-102 636-102L286-102L286 363L677 363L677 522L286 522L286 672L855 672L855 216L457 216L457 52L689 52Q855 52 985 88L985-62Z"  horiz-adv-x="1740" vert-adv-y="2048"  />

      
      <glyph glyph-name="uniAC0A" unicode="&#xAC0A;" d="M900 672L1438 672L1438-102L900-102L900 672M1057 531L1057 41L1268 41L1268 531L1057 531M851-64Q721-102 501-102L271-102L271 357L644 357L644 522L271 522L271 672L807 672L807 222L436 222L436 50L556 50Q721 50 851 86L851-64M795 1436Q628 1431 339 1431L157 1431L157 1583Q157 1583 653 1583Q862 1583 1005 1587Q982 1296 760 1074Q541 848 171 737L73 880Q687 1051 795 1436M1717 1118L1438 1118L1438 764L1261 764L1261 1660L1438 1660L1438 1276L1717 1276L1717 1118Z"  horiz-adv-x="1740" vert-adv-y="2048"  />

      
      <glyph glyph-name="uniAC10" unicode="&#xAC10;" d="M787 1435Q619 1429 331 1429L159 1429L159 1583Q159 1583 648 1583Q854 1583 997 1587Q974 1265 755.50 1019Q537 773 161 656L58 796Q698 988 787 1435M1718 1094L1439 1094L1439 670L1262 670L1262 1660L1439 1660L1439 1250L1718 1250L1718 1094M1439-95L343-95L343 580L1439 580L1439-95M1262 422L520 422L520 61L1262 61L1262 422Z"  horiz-adv-x="1740" vert-adv-y="2048"  />

      
      <glyph glyph-name="uniAC11" unicode="&#xAC11;" d="M790 1435Q622 1429 334 1429L158 1429L158 1583Q158 1583 650 1583Q857 1583 1000 1587Q977 1283 759.50 1050.50Q542 818 164 704L64 845Q364 934 552 1076.50Q740 1219 790 1435M1718 1111L1438 1111L1438 742L1262 742L1262 1660L1438 1660L1438 1268L1718 1268L1718 1111M1438-95L337-95L337 640L515 640L515 431L1263 431L1263 650L1438 650L1438-95M1263 61L1263 284L513 284L513 61L1263 61Z"  horiz-adv-x="1740" vert-adv-y="2048"  />

      
      <glyph glyph-name="uniAC12" unicode="&#xAC12;" d="M794 1435Q627 1429 338 1429L162 1429L162 1583Q162 1583 654 1583Q861 1583 1004 1587Q981 1281 761.50 1046.50Q542 812 168 700L68 841Q370 930 557 1074.50Q744 1219 794 1435M1718 1111L1438 1111L1438 746L1262 746L1262 1660L1438 1660L1438 1268L1718 1268L1718 1111M1345 670Q1349 555 1332 441Q1360 314 1441 202Q1522 90 1649 11L1521-118Q1335 24 1259 200Q1177 20 985-125L901-53L901-99L278-99L278 629L445 629L445 422L735 422L735 648L901 648L901 26Q1209 233 1174 670L1345 670M735 53L735 280L443 280L443 53L735 53Z"  horiz-adv-x="1740" vert-adv-y="2048"  />

      
      <glyph glyph-name="uniAC13" unicode="&#xAC13;" d="M783 1435Q614 1429 325 1429L157 1429L157 1583Q157 1583 646 1583Q851 1583 994 1587Q971 1228 752.50 959Q534 690 158 575L51 709Q371 810 560 992Q749 1174 783 1435M1717 999L1438 999L1438 446L1261 446L1261 1660L1438 1660L1438 1155L1717 1155L1717 999M1013 635Q1010 523 971 427Q1056 277 1213 171Q1370 65 1575 22L1474-122Q1203-61 1001 136Q934 201 888 270Q744 58 477-61Q392-100 301-122L195 20Q476 90 642.50 245Q809 400 821 635L1013 635Z"  horiz-adv-x="1740" vert-adv-y="2048"  />

      
      <glyph glyph-name="uniAC14" unicode="&#xAC14;" d="M787 1435Q619 1429 331 1429L159 1429L159 1583Q159 1583 648 1583Q854 1583 997 1587Q974 1262 754.50 1006.50Q535 751 163 635L60 774Q370 867 556.50 1037.50Q743 1208 787 1435M1718 1051L1439 1051L1439 658L1262 658L1262 1660L1439 1660L1439 1208L1718 1208L1718 1051M711 569Q707 467 690 396Q757 212 906 88Q1010 187 1046 265Q1113 414 1099 578L1279 578Q1279 483 1259 393Q1324 178 1639 14L1526-113Q1307 0 1188 203Q1089 6 893-120Q728 4 616 207Q504 4 269-121L145 7Q548 199 527 569L711 569Z"  horiz-adv-x="1740" vert-adv-y="2048"  />

      
      <glyph glyph-name="uniAC15" unicode="&#xAC15;" d="M784 1435Q616 1429 328 1429L158 1429L158 1583Q158 1583 646 1583Q851 1583 994 1587Q971 1258 754 1003.50Q537 749 158 630L53 769Q369 864 555.50 1032Q742 1200 784 1435M1717 1047L1438 1047L1438 606L1261 606L1261 1660L1438 1660L1438 1204L1717 1204L1717 1047M449.50 492Q449.50 492 525.25 542.50Q601 593 878 593Q1155 593 1306 492Q1457 391 1457 226Q1457 61 1305-38.50Q1153-138 877-138Q601-138 449.50-36Q298 66 298 228.50Q298 391 449.50 492M1274 226Q1274 369 1055 424Q983 442 879 442Q683 442 578 374Q481 317 481 228Q481 139 582 77.50Q683 16 877.50 16Q1072 16 1173 77.50Q1274 139 1274 226Z"  horiz-adv-x="1740" vert-adv-y="2048"  />

      
      <glyph glyph-name="uniAC16" unicode="&#xAC16;" d="M787 1435Q619 1429 331 1429L159 1429L159 1583Q159 1583 648 1583Q854 1583 997 1587Q974 1269 758 1032Q542 795 161 676L58 815Q367 906 555 1057.50Q743 1209 787 1435M1718 1085L1439 1085L1439 670L1262 670L1262 1660L1439 1660L1439 1243L1718 1243L1718 1085M1151 435Q1015 428 747 428L366 428L366 580L1016 580Q1269 580 1397 583Q1447 583 1428 534Q1343 359 1088 197Q1356 90 1622 22L1525-119Q1250-43 920 104Q633-40 302-122L210 18Q552 98 802 213Q1052 328 1151 435Z"  horiz-adv-x="1740" vert-adv-y="2048"  />

      
      <glyph glyph-name="uniAC17" unicode="&#xAC17;" d="M1439 709L1262 709L1262 1660L1439 1660L1439 1254L1718 1254L1718 1097L1439 1097L1439 709M616 738L1173 738L1173 591L616 591L616 738M1143 348Q945 340 751 340L391 340L391 486Q391 486 1016 486Q1265 486 1388 489Q1406 489 1416.50 475Q1427 461 1418 439Q1354 272 1120 141Q1356 63 1630 27L1545-119Q1190-45 945 57Q708-45 328-122L237 25Q579 82 813.50 168Q1048 254 1143 348M787 1435Q619 1429 331 1429L159 1429L159 1583L648 1583Q854 1583 997 1587Q974 1269 758 1032Q542 795 161 676L58 815Q367 906 555 1057.50Q743 1209 787 1435Z"  horiz-adv-x="1740" vert-adv-y="2048"  />

      
      <glyph glyph-name="uniAC19" unicode="&#xAC19;" d="M1718 1107L1438 1107L1438 740L1262 740L1262 1660L1438 1660L1438 1265L1718 1265L1718 1107M517 208L517 48L1476 48L1476-102L342-102L342 648L1443 648L1443 500L517 500L517 352L1438 352L1438 208L517 208M790 1435Q622 1429 334 1429L158 1429L158 1583Q158 1583 650 1583Q857 1583 1000 1587Q977 1281 757.50 1046.50Q538 812 164 700L64 841Q366 930 553 1074.50Q740 1219 790 1435Z"  horiz-adv-x="1740" vert-adv-y="2048"  />

      
      <glyph glyph-name="uniAC1A" unicode="&#xAC1A;" d="M790 1435Q622 1429 334 1429L158 1429L158 1583Q158 1583 650 1583Q857 1583 1000 1587Q977 1279 756.50 1040Q536 801 164 689L64 829Q692 1014 790 1435M1718 1051L1438 1051L1438 666L1262 666L1262 1660L1438 1660L1438 1208L1718 1208L1718 1051M1513-95L272-95L272 55L503 55L497 424L291 424L291 576L1487 576L1487 424L1275 424L1269 55L1513 55L1513-95M1092 55L1098 424L674 424L679 55L1092 55Z"  horiz-adv-x="1740" vert-adv-y="2048"  />

      
      <glyph glyph-name="uniAC1B" unicode="&#xAC1B;" d="M795 1436Q628 1431 339 1431L157 1431L157 1583Q157 1583 653 1583Q862 1583 1005 1587Q982 1296 760 1066Q541 832 171 722L73 865Q365 947 552 1092Q739 1237 795 1436M1717 1099L1438 1099L1438 734L1261 734L1261 1660L1438 1660L1438 1256L1717 1256L1717 1099M237 398L237 537L1520 537L1520 398L237 398M576 623L576 763L1181 763L1181 623L576 623M1403 103.50Q1403 103.50 1403 49.25Q1403-5 1271.50-71.50Q1140-138 879.50-138Q619-138 488-71.50Q357-5 357 103.50Q357 212 488 276Q619 340 879.50 340Q1140 340 1271.50 276Q1403 212 1403 103.50M543 105Q543-4 879.50-4Q1216-4 1216 105Q1216 175 1040 203Q977 214 842 214Q707 214 625 182Q543 150 543 105Z"  horiz-adv-x="1740" vert-adv-y="2048"  />

      
      <glyph glyph-name="uniAC1C" unicode="&#xAC1C;" d="M646 1361Q500 1356 256 1356L125 1356L125 1505Q125 1505 536 1505Q710 1505 832 1509Q808 688 165 261L37 381Q335 568 483 820Q631 1072 646 1361M1550-121L1373-121L1373 843L1161 843L1161-77L988-77L988 1641L1161 1641L1161 997L1373 997L1373 1660L1550 1660L1550-121Z"  horiz-adv-x="1748" vert-adv-y="2048"  />

      
      <glyph glyph-name="uniAC1D" unicode="&#xAC1D;" d="M1567 610L1396 610L1396 1044L1183 1044L1183 610L1015 610L1015 1641L1183 1641L1183 1194L1396 1194L1396 1660L1567 1660L1567 610M1389-128L1389 366L375 366L375 519L1567 519L1567-128L1389-128M669 1421Q521 1416 296 1416L161 1416L161 1565Q161 1565 566 1565Q735 1565 857 1568Q853 1250 663 1004Q473 758 151 630L39 769Q305 856 472 1033.50Q639 1211 669 1421Z"  horiz-adv-x="1748" vert-adv-y="2048"  />

      
      <glyph glyph-name="uniAC20" unicode="&#xAC20;" d="M656 1405Q514 1399 292 1399L161 1399L161 1549Q161 1549 557 1549Q722 1549 842 1553Q839 1209 653.50 943Q468 677 151 542L44 677Q306 774 471.50 975Q637 1176 656 1405M1566 333L1396 333L1396 974L1183 974L1183 372L1015 372L1015 1641L1183 1641L1183 1126L1396 1126L1396 1660L1566 1660L1566 333M1595-87L442-87L442 472L621 472L621 69L1595 69L1595-87Z"  horiz-adv-x="1746" vert-adv-y="2048"  />

      
      <glyph glyph-name="uniAC24" unicode="&#xAC24;" d="M677 1429Q527 1423 302 1423L161 1423L161 1572Q161 1572 571 1572Q742 1572 867 1577Q863 1273 668 1035Q483 805 154 683L38 821Q305 903 474 1065Q643 1227 677 1429M1566 744L1396 744L1396 1099L1183 1099L1183 744L1015 744L1015 1641L1183 1641L1183 1250L1396 1250L1396 1660L1566 1660L1566 744M1605-102L413-102L413 352L1392 352L1392 502L405 502L405 653L1566 653L1566 204L587 204L587 50L1605 50L1605-102Z"  horiz-adv-x="1745" vert-adv-y="2048"  />

      
      <glyph glyph-name="uniAC2C" unicode="&#xAC2C;" d="M660 1435Q515 1429 294 1429L161 1429L161 1578Q161 1578 559 1578Q725 1578 848 1583Q844 1254 658 1002.50Q472 751 149 617L41 755Q309 847 471 1031Q633 1215 660 1435M1567 651L1396 651L1396 1070L1183 1070L1183 651L1015 651L1015 1641L1183 1641L1183 1224L1396 1224L1396 1660L1567 1660L1567 651M1567-95L421-95L421 560L1567 560L1567-95M1389 405L598 405L598 59L1389 59L1389 405Z"  horiz-adv-x="1748" vert-adv-y="2048"  />

      
      <glyph glyph-name="uniAC2D" unicode="&#xAC2D;" d="M669 1435Q521 1429 296 1429L161 1429L161 1578Q161 1578 566 1578Q735 1578 857 1583Q853 1262 663 1022Q473 782 151 654L39 792Q309 882 474 1054.50Q639 1227 669 1435M1567 722L1396 722L1396 1113L1183 1113L1183 722L1015 722L1015 1641L1183 1641L1183 1266L1396 1266L1396 1660L1567 1660L1567 722M1567-95L416-95L416 621L594 621L594 422L1392 422L1392 631L1567 631L1567-95M1392 59L1392 274L591 274L591 59L1392 59Z"  horiz-adv-x="1748" vert-adv-y="2048"  />

      
      <glyph glyph-name="uniAC2F" unicode="&#xAC2F;" d="M656 1435Q514 1429 292 1429L161 1429L161 1578Q161 1578 557 1578Q721 1578 842 1583Q838 1239 653 972.50Q468 706 151 571L43 706Q306 803 471.50 1004Q637 1205 656 1435M1566 461L1396 461L1396 1053L1183 1053L1183 660L1015 660L1015 1641L1183 1641L1183 1206L1396 1206L1396 1660L1566 1660L1566 461M1046 599Q1046 511 1013 417Q1096 273 1261.50 168Q1427 63 1639 22L1537-122Q1256-59 1050 134Q979 199 932 269Q784 58 503-61Q416-100 319-122L211 20Q660 123 799 388Q848 479 854 599L1046 599Z"  horiz-adv-x="1743" vert-adv-y="2048"  />

      
      <glyph glyph-name="uniAC30" unicode="&#xAC30;" d="M658 1435Q515 1429 293 1429L161 1429L161 1578Q161 1578 559 1578Q724 1578 847 1583Q844 1254 657.50 1002.50Q471 751 148 617L41 755Q308 847 470 1031Q632 1215 658 1435M1566 643L1396 643L1396 1083L1183 1083L1183 643L1015 643L1015 1641L1183 1641L1183 1237L1396 1237L1396 1660L1566 1660L1566 643M188 7Q608 203 585 558L766 558Q766 465 745 384Q819 200 975 88Q1205 289 1179 565L1356 565Q1356 473 1335 384Q1404 172 1730 14L1616-115Q1385-2 1266 200Q1167 6 961-120Q781 8 672 202Q555-2 314-120L188 7Z"  horiz-adv-x="1739" vert-adv-y="2048"  />

      
      <glyph glyph-name="uniAC31" unicode="&#xAC31;" d="M656 1435Q513 1429 292 1429L161 1429L161 1578Q161 1578 557 1578Q721 1578 842 1583Q838 1245 654.50 999Q471 753 148 613L43 751Q317 852 474 1029.50Q631 1207 656 1435M1567 589L1396 589L1396 1081L1183 1081L1183 662L1015 662L1015 1641L1183 1641L1183 1235L1396 1235L1396 1660L1567 1660L1567 589M1422-33Q1258-138 968.50-138Q679-138 521-36.50Q363 65 363 228Q363 391 521 492Q679 593 969.50 593Q1260 593 1417.50 492Q1575 391 1575 226Q1575 61 1422-33M1290 378Q1175 442 967 442Q759 442 652.50 380.50Q546 319 546 229Q546 139 652.50 77.50Q759 16 967 16Q1175 16 1291 80Q1392 139 1392 228Q1392 317 1290 378Z"  horiz-adv-x="1746" vert-adv-y="2048"  />

      
      <glyph glyph-name="uniAC38" unicode="&#xAC38;" d="M1427 519L1427-121L1251-121L1251 1660L1427 1660L1427 1224L1712 1224L1712 1068L1427 1068L1427 674L1712 674L1712 519L1427 519M780 1360Q609 1354 318 1354L114 1354L114 1507Q114 1507 619 1507Q830 1507 973 1511Q946 1104 751 787.50Q556 471 158 258L38 388Q531 634 707 1082Q761 1220 780 1360Z"  horiz-adv-x="1739" vert-adv-y="2048"  />

      
      <glyph glyph-name="uniAC39" unicode="&#xAC39;" d="M1439 1389L1711 1389L1711 1235L1437 1235L1437 1025L1711 1025L1711 872L1439 872L1439 621L1263 621L1263 1660L1439 1660L1439 1389M790 1435Q621 1429 334 1429L163 1429L163 1583Q163 1583 651 1583Q856 1583 999 1587Q976 1258 759.50 1003.50Q543 749 164 630L58 769Q374 864 560.50 1032Q747 1200 790 1435M1263-128L1263 375L304 375L304 531L1439 531L1439-128L1263-128Z"  horiz-adv-x="1740" vert-adv-y="2048"  />

      
      <glyph glyph-name="uniAC3C" unicode="&#xAC3C;" d="M1439 1326L1711 1326L1711 1173L1437 1173L1437 913L1711 913L1711 759L1439 759L1439 364L1262 364L1262 1660L1439 1660L1439 1326M788 1407Q619 1401 330 1401L163 1401L163 1555Q163 1555 651 1555Q856 1555 999 1559Q961 1012 513 708Q361 604 163 534L56 668Q376 769 565 958Q754 1147 788 1407M1477-87L362-87L362 461L541 461L541 69L1477 69L1477-87Z"  horiz-adv-x="1740" vert-adv-y="2048"  />

      
      <glyph glyph-name="uniAC40" unicode="&#xAC40;" d="M800 1438Q633 1433 345 1433L162 1433L162 1585Q162 1585 658 1585Q867 1585 1010 1588Q987 1298 766.50 1073.50Q546 849 176 739L78 882Q692 1054 800 1438M1439 1452L1710 1452L1710 1300L1437 1300L1437 1120L1710 1120L1710 968L1439 968L1439 764L1262 764L1262 1660L1439 1660L1439 1452M1477-102L328-102L328 370L1264 370L1264 522L328 522L328 672L1439 672L1439 222L503 222L503 50L1477 50L1477-102Z"  horiz-adv-x="1741" vert-adv-y="2048"  />

      
      <glyph glyph-name="uniAC4B" unicode="&#xAC4B;" d="M788 1435Q618 1429 329 1429L162 1429L162 1583Q162 1583 650 1583Q855 1583 998 1587Q960 1039 512 735Q364 634 173 575L55 708Q375 810 564 992Q753 1174 788 1435M1438 1403L1710 1403L1710 1251L1436 1251L1436 995L1710 995L1710 841L1438 841L1438 442L1262 442L1262 1660L1438 1660L1438 1403M1014 639Q1010 529 971 429Q1054 279 1212 172Q1370 65 1575 22L1474-122Q1300-82 1143 22.50Q986 127 888 275Q740 56 477-61Q392-100 301-122L195 20Q474 90 641.50 246Q809 402 822 639L1014 639Z"  horiz-adv-x="1740" vert-adv-y="2048"  />

      
      <glyph glyph-name="uniAC4D" unicode="&#xAC4D;" d="M790 1435Q621 1429 334 1429L163 1429L163 1583Q163 1583 651 1583Q856 1583 999 1587Q976 1258 759.50 1003.50Q543 749 164 630L58 769Q374 864 560.50 1032Q747 1200 790 1435M1439 1423L1711 1423L1711 1270L1437 1270L1437 1052L1711 1052L1711 900L1439 900L1439 582L1263 582L1263 1660L1439 1660L1439 1423M1313 491Q1458 393 1458 229.50Q1458 66 1307-36Q1156-138 879-138Q602-138 450.50-36Q299 66 299 230Q299 394 450.50 495.50Q602 597 877 597Q1152 597 1313 491M1275 228.50Q1275 228.50 1275 274.75Q1275 321 1174 384.50Q1073 448 878.50 448Q684 448 583.50 383.50Q483 319 483 230Q483 85 701 30Q777 13 881 13Q1073 13 1174 74.50Q1275 136 1275 228.50Z"  horiz-adv-x="1740" vert-adv-y="2048"  />

      
      <glyph glyph-name="uniAC54" unicode="&#xAC54;" d="M1153 566L1153-77L982-77L982 1641L1153 1641L1153 1261L1378 1261L1378 1660L1553 1660L1553-121L1378-121L1378 566L1153 566M1380 1113L1151 1113L1151 713L1380 713L1380 1113M651 1361Q508 1356 261 1356L130 1356L130 1505Q130 1505 541 1505Q716 1505 837 1509Q813 688 170 261L42 381Q340 568 487.50 820Q635 1072 651 1361Z"  horiz-adv-x="1749" vert-adv-y="2048"  />

      
      <glyph glyph-name="uniAC58" unicode="&#xAC58;" d="M656 1403Q514 1398 292 1398L161 1398L161 1548Q161 1548 557 1548Q722 1548 842 1551Q839 1208 653.50 941.50Q468 675 151 540L44 675Q306 772 471.50 972.50Q637 1173 656 1403M1400 761L1172 761L1172 372L1006 372L1006 1641L1172 1641L1172 1293L1400 1293L1400 1660L1568 1660L1568 333L1400 333L1400 761M1402 1151L1170 1151L1170 904L1402 904L1402 1151M1595-87L442-87L442 472L621 472L621 69L1595 69L1595-87Z"  horiz-adv-x="1746" vert-adv-y="2048"  />

      
      <glyph glyph-name="uniAC5C" unicode="&#xAC5C;" d="M677 1435Q527 1429 302 1429L161 1429L161 1578Q161 1578 571 1578Q742 1578 867 1583Q863 1279 673 1044.50Q483 810 154 689L38 827Q305 908 474 1070Q643 1232 677 1435M1400 952L1172 952L1172 744L1005 744L1005 1641L1172 1641L1172 1433L1400 1433L1400 1660L1568 1660L1568 744L1400 744L1400 952M1401 1292L1170 1292L1170 1093L1401 1093L1401 1292M1605-102L413-102L413 350L1392 350L1392 502L405 502L405 653L1566 653L1566 206L587 206L587 50L1605 50L1605-102Z"  horiz-adv-x="1745" vert-adv-y="2048"  />

      
      <glyph glyph-name="uniAC70" unicode="&#xAC70;" d="M949 826L949 981L1346 981L1346 1660L1523 1660L1523-121L1346-121L1346 826L949 826M803 1360Q630 1354 340 1354L135 1354L135 1507Q135 1507 641 1507Q852 1507 996 1511Q968 1104 773.50 787.50Q579 471 180 258L60 388Q554 634 730 1082Q785 1220 803 1360Z"  horiz-adv-x="1750" vert-adv-y="2048"  />

      
      <glyph glyph-name="uniAC71" unicode="&#xAC71;" d="M971 1003L971 1161L1345 1161L1345 1660L1522 1660L1522 621L1345 621L1345 1003L971 1003M821 1435Q652 1429 365 1429L193 1429L193 1583Q193 1583 680 1583Q886 1583 1030 1587Q1006 1258 789.50 1003.50Q573 749 194 630L88 769Q405 864 591.50 1032Q778 1200 821 1435M1347-128L1347 375L370 375L370 531L1524 531L1524-128L1347-128Z"  horiz-adv-x="1752" vert-adv-y="2048"  />

      
      <glyph glyph-name="uniAC74" unicode="&#xAC74;" d="M988 965L988 1122L1347 1122L1347 1660L1524 1660L1524 362L1347 362L1347 965L988 965M1563-87L408-87L408 461L586 461L586 69L1563 69L1563-87M820 1407Q650 1401 361 1401L193 1401L193 1555Q193 1555 680 1555Q886 1555 1030 1559Q992 1012 541 708Q392 604 194 534L86 668Q407 769 596.50 958Q786 1147 820 1407Z"  horiz-adv-x="1750" vert-adv-y="2048"  />

      
      <glyph glyph-name="uniAC77" unicode="&#xAC77;" d="M817 1435Q648 1429 365 1429L193 1429L193 1583Q193 1583 678 1583Q883 1583 1026 1587Q1001 1258 785 1008Q569 758 194 642L90 783Q732 978 817 1435M980 1018L980 1174L1347 1174L1347 1660L1524 1660L1524 655L1347 655L1347 1018L980 1018M414-95L414 564L1529 564L1529 411L590 411L590 61L1559 61L1559-95L414-95Z"  horiz-adv-x="1751" vert-adv-y="2048"  />

      
      <glyph glyph-name="uniAC78" unicode="&#xAC78;" d="M829 1436Q660 1431 377 1431L193 1431L193 1583Q193 1583 687 1583Q894 1583 1038 1587Q1014 1294 794.50 1071Q575 848 208 737L109 880Q721 1054 829 1436M988 1047L988 1204L1347 1204L1347 1660L1524 1660L1524 753L1347 753L1347 1047L988 1047M1563-102L401-102L401 363L1349 363L1349 509L401 509L401 662L1524 662L1524 212L575 212L575 52L1563 52L1563-102Z"  horiz-adv-x="1751" vert-adv-y="2048"  />

      
      <glyph glyph-name="uniAC7A" unicode="&#xAC7A;" d="M829 1436Q660 1431 377 1431L193 1431L193 1583Q193 1583 687 1583Q894 1583 1038 1587Q1014 1294 794.50 1071Q575 848 208 737L109 880Q722 1054 829 1436M988 1053L988 1209L1347 1209L1347 1660L1524 1660L1524 757L1347 757L1347 1053L988 1053M979 666L1524 666L1524-102L979-102L979 666M1137 526L1137 41L1356 41L1356 526L1137 526M942-64Q813-102 592-102L337-102L337 357L714 357L714 515L337 515L337 666L879 666L879 210L503 210L503 52L646 52Q813 52 942 88L942-64Z"  horiz-adv-x="1753" vert-adv-y="2048"  />

      
      <glyph glyph-name="uniAC80" unicode="&#xAC80;" d="M819 1435Q650 1429 367 1429L193 1429L193 1583Q193 1583 679 1583Q884 1583 1028 1587Q1003 1267 787 1020Q571 773 196 656L92 796Q730 988 819 1435M991 1008L991 1163L1347 1163L1347 1660L1524 1660L1524 657L1347 657L1347 1008L991 1008M1524-95L409-95L409 565L1524 565L1524-95M1347 411L584 411L584 59L1347 59L1347 411Z"  horiz-adv-x="1752" vert-adv-y="2048"  />

      
      <glyph glyph-name="uniAC81" unicode="&#xAC81;" d="M824 1435Q655 1429 372 1429L194 1429L194 1583Q194 1583 684 1583Q889 1583 1033 1587Q1009 1277 789.50 1042Q570 807 201 695L99 835Q727 1018 824 1435M1001 1035L1001 1192L1348 1192L1348 1660L1525 1660L1525 738L1348 738L1348 1035L1001 1035M1525-95L406-95L406 629L580 629L580 439L1350 439L1350 646L1525 646L1525-95M1350 59L1350 292L580 292L580 59L1350 59Z"  horiz-adv-x="1752" vert-adv-y="2048"  />

      
      <glyph glyph-name="uniAC83" unicode="&#xAC83;" d="M814 1435Q646 1429 361 1429L193 1429L193 1583Q193 1583 678 1583Q882 1583 1026 1587Q1001 1225 784 957.50Q567 690 194 575L86 709Q406 810 593.50 992Q781 1174 814 1435M993 1003L993 1161L1347 1161L1347 1660L1524 1660L1524 504L1347 504L1347 1003L993 1003M1020 431Q1106 280 1266 172.50Q1426 65 1636 22L1535-122Q1257-59 1052 140Q983 205 937 277Q841 136 684 28.50Q527-79 343-122L236 20Q670 127 814 415Q862 513 868 637L1060 637Q1056 525 1020 431Z"  horiz-adv-x="1746" vert-adv-y="2048"  />

      
      <glyph glyph-name="uniAC84" unicode="&#xAC84;" d="M998 1018L998 1174L1346 1174L1346 1660L1522 1660L1522 666L1346 666L1346 1018L998 1018M1340 585Q1340 496 1320 398Q1384 180 1706 14L1592-113Q1479-55 1390.50 31Q1302 117 1250 206Q1150 6 951-120Q772 14 668 212Q557 6 317-121L195 7Q487 147 561 388Q588 472 581 578L762 578Q762 487 740 402Q813 206 964 88Q1070 189 1108 269Q1177 422 1163 585L1340 585M815 1435Q647 1429 363 1429L192 1429L192 1583Q192 1583 677 1583Q882 1583 1025 1587Q1000 1258 784 1008Q568 758 193 642L89 783Q730 978 815 1435Z"  horiz-adv-x="1742" vert-adv-y="2048"  />

      
      <glyph glyph-name="uniAC85" unicode="&#xAC85;" d="M817 1435Q647 1429 364 1429L192 1429L192 1583Q192 1583 678 1583Q882 1583 1025 1587Q1001 1254 785.50 1000.50Q570 747 193 630L88 769Q404 864 589 1032Q774 1200 817 1435M987 1016L987 1172L1347 1172L1347 1660L1523 1660L1523 608L1347 608L1347 1016L987 1016M1394.50 494.50Q1394.50 494.50 1466.75 444.25Q1539 394 1539 229.50Q1539 65 1385.50-36.50Q1232-138 948-138Q664-138 510-36.50Q356 65 356 228Q356 391 518.50 493Q681 595 965.50 595Q1250 595 1394.50 494.50M1252 76.50Q1252 76.50 1303.50 107.75Q1355 139 1355 230.50Q1355 322 1250 384Q1145 446 946.50 446Q748 446 642.50 383.50Q537 321 537 230Q537 139 640.50 76.50Q744 14 946.50 14Q1149 14 1252 76.50Z"  horiz-adv-x="1751" vert-adv-y="2048"  />

      
      <glyph glyph-name="uniAC86" unicode="&#xAC86;" d="M987 1021L987 1179L1346 1179L1346 1660L1523 1660L1523 670L1346 670L1346 1021L987 1021M821 1435Q653 1429 365 1429L192 1429L192 1583Q192 1583 681 1583Q888 1583 1031 1587Q1007 1269 791.50 1032Q576 795 195 676L92 815Q400 906 588 1057.50Q776 1209 821 1435M1191 435Q1055 428 786 428L405 428L405 580Q405 580 1056 580Q1308 580 1437 583Q1487 583 1467 534Q1382 359 1127 197Q1396 90 1662 22L1565-119Q1289-43 960 104Q672-40 341-122L249 18Q591 98 842 213Q1093 328 1191 435Z"  horiz-adv-x="1744" vert-adv-y="2048"  />

      
      <glyph glyph-name="uniAC89" unicode="&#xAC89;" d="M996 1047L996 1204L1348 1204L1348 1660L1525 1660L1525 740L1348 740L1348 1047L996 1047M593 208L593 48L1564 48L1564-102L419-102L419 648L1530 648L1530 500L593 500L593 352L1525 352L1525 208L593 208M828 1435Q659 1429 372 1429L194 1429L194 1583Q194 1583 686 1583Q893 1583 1037 1587Q1013 1281 793.50 1046.50Q574 812 201 700L99 841Q403 930 590 1074.50Q777 1219 828 1435Z"  horiz-adv-x="1750" vert-adv-y="2048"  />

      
      <glyph glyph-name="uniAC8A" unicode="&#xAC8A;" d="M824 1435Q654 1429 371 1429L194 1429L194 1583Q194 1583 684 1583Q889 1583 1033 1587Q1009 1275 789.50 1038Q570 801 200 689L99 829Q725 1012 824 1435M989 1023L989 1181L1348 1181L1348 1660L1525 1660L1525 666L1348 666L1348 1023L989 1023M1572-95L330-95L330 55L553 55L543 424L350 424L350 576L1545 576L1545 424L1350 424L1344 55L1572 55L1572-95M1168 55L1174 424L720 424L730 55L1168 55Z"  horiz-adv-x="1750" vert-adv-y="2048"  />

      
      <glyph glyph-name="uniAC8B" unicode="&#xAC8B;" d="M1004 1058L1004 1215L1348 1215L1348 1660L1525 1660L1525 734L1348 734L1348 1058L1004 1058M301 398L301 537L1593 537L1593 398L301 398M641 623L641 763L1253 763L1253 623L641 623M1475 103.50Q1475 103.50 1475 49.25Q1475-5 1342.50-71.50Q1210-138 948.50-138Q687-138 553.50-71.50Q420-5 420 103.50Q420 212 553.50 276Q687 340 948.50 340Q1210 340 1342.50 276Q1475 212 1475 103.50M607 103.50Q607 103.50 607 80.25Q607 57 685 26.50Q763-4 948.50-4Q1134-4 1211 26.50Q1288 57 1288 105Q1288 175 1111 203Q1044 214 910.50 214Q777 214 692 182Q607 150 607 103.50M827 1435Q659 1429 372 1429L194 1429L194 1583L686 1583Q893 1583 1037 1587Q1013 1281 793.50 1046.50Q574 812 201 700L99 841Q403 930 590 1074.50Q777 1219 827 1435Z"  horiz-adv-x="1749" vert-adv-y="2048"  />

      
      <glyph glyph-name="uniAC8C" unicode="&#xAC8C;" d="M1550-121L1373-121L1373 1660L1550 1660L1550-121M650 1361Q507 1356 260 1356L129 1356L129 1505Q129 1505 540 1505Q715 1505 836 1509Q825 1216 743 983L1029 983L1029 1641L1204 1641L1204-77L1029-77L1029 828L679 828Q510 489 169 261L41 381Q339 568 486.50 820Q634 1072 650 1361Z"  horiz-adv-x="1748" vert-adv-y="2048"  />

      
      <glyph glyph-name="uniAC90" unicode="&#xAC90;" d="M693 1405Q549 1399 333 1399L202 1399L202 1549Q202 1549 596 1549Q759 1549 880 1553Q877 1322 797 1133L1068 1133L1068 1641L1236 1641L1236 372L1068 372L1068 980L716 980Q537 689 192 542L84 677Q342 772 508 971.50Q674 1171 693 1405M1569 333L1398 333L1398 1660L1569 1660L1569 333M1598-87L444-87L444 469L623 469L623 69L1598 69L1598-87Z"  horiz-adv-x="1749" vert-adv-y="2048"  />

      
      <glyph glyph-name="uniAC94" unicode="&#xAC94;" d="M714 1435Q564 1429 342 1429L202 1429L202 1578Q202 1578 610 1578Q779 1578 904 1583Q900 1369 812 1200L1067 1200L1067 1641L1235 1641L1235 744L1067 744L1067 1051L716 1051Q531 817 195 689L79 828Q344 906 512 1070Q680 1234 714 1435M1569 744L1398 744L1398 1660L1569 1660L1569 744M1607-102L415-102L415 352L1394 352L1394 502L407 502L407 653L1569 653L1569 204L589 204L589 50L1607 50L1607-102Z"  horiz-adv-x="1747" vert-adv-y="2048"  />

      
      <glyph glyph-name="uniAC9C" unicode="&#xAC9C;" d="M885 1583Q881 1367 800 1181L1067 1181L1067 1641L1235 1641L1235 651L1067 651L1067 1029L716 1029Q528 753 190 617L82 755Q346 845 508 1029Q670 1213 697 1435Q554 1429 335 1429L202 1429L202 1578L598 1578Q762 1578 885 1583M1569 651L1398 651L1398 1660L1569 1660L1569 651M1569-95L424-95L424 560L1569 560L1569-95M1391 405L600 405L600 59L1391 59L1391 405Z"  horiz-adv-x="1750" vert-adv-y="2048"  />

      
      <glyph glyph-name="uniAC9D" unicode="&#xAC9D;" d="M706 1435Q558 1429 337 1429L202 1429L202 1578Q202 1578 605 1578Q772 1578 894 1583Q892 1377 815 1209L1067 1209L1067 1641L1235 1641L1235 722L1067 722L1067 1060L730 1060Q548 793 191 654L80 792Q346 880 511 1052.50Q676 1225 706 1435M1569 722L1398 722L1398 1660L1569 1660L1569 722M1569-95L419-95L419 621L596 621L596 422L1394 422L1394 631L1569 631L1569-95M1394 59L1394 274L593 274L593 59L1394 59Z"  horiz-adv-x="1750" vert-adv-y="2048"  />

      
      <glyph glyph-name="uniAC9F" unicode="&#xAC9F;" d="M692 1435Q548 1429 331 1429L201 1429L201 1578Q201 1578 594 1578Q757 1578 878 1583Q876 1352 795 1163L1067 1163L1067 1641L1235 1641L1235 660L1067 660L1067 1012L716 1012Q539 721 191 571L83 706Q340 801 506.50 1001Q673 1201 692 1435M1567 461L1397 461L1397 1660L1567 1660L1567 461M1083 599Q1083 511 1049 417Q1131 273 1297.50 168Q1464 63 1675 22L1574-122Q1293-59 1086 134Q1015 199 969 269Q820 58 539-61Q452-100 355-122L247 20Q696 123 836 388Q884 479 890 599L1083 599Z"  horiz-adv-x="1743" vert-adv-y="2048"  />

      
      <glyph glyph-name="uniACA0" unicode="&#xACA0;" d="M696 1435Q554 1429 334 1429L202 1429L202 1578Q202 1578 598 1578Q761 1578 885 1583Q883 1356 796 1172L1067 1172L1067 1641L1235 1641L1235 657L1067 657L1067 1023L711 1023Q530 756 190 617L82 755Q345 845 507 1029Q669 1213 696 1435M1568 657L1398 657L1398 1660L1568 1660L1568 657M969 88Q1199 289 1174 567L1350 567Q1350 475 1329 384Q1399 172 1724 14L1611-115Q1378 0 1260 202Q1164 12 955-120Q771 10 664 204Q548-4 308-120L183 7Q482 147 559 384Q586 465 580 565L760 565Q760 469 737 386Q814 198 969 88Z"  horiz-adv-x="1741" vert-adv-y="2048"  />

      
      <glyph glyph-name="uniACA1" unicode="&#xACA1;" d="M693 1435Q548 1429 333 1429L202 1429L202 1578Q202 1578 595 1578Q758 1578 879 1583Q876 1360 798 1174L1067 1174L1067 1641L1235 1641L1235 643L1067 643L1067 1023L719 1023Q533 730 189 586L84 724Q348 819 509 1012Q670 1205 693 1435M1569 585L1398 585L1398 1660L1569 1660L1569 585M1430 475Q1584 381 1584 221Q1584 61 1430-38Q1269-138 980-138Q691-138 531-39.50Q371 59 371 220Q371 381 527.50 480.50Q684 580 974.50 580Q1265 580 1430 475M555 220Q555 220 555 175.50Q555 131 662 72Q769 13 975.50 13Q1182 13 1290.50 72Q1399 131 1399 220Q1399 309 1291.50 370Q1184 431 975.50 431Q767 431 661 370Q555 309 555 220Z"  horiz-adv-x="1749" vert-adv-y="2048"  />

      
      <glyph glyph-name="uniACA8" unicode="&#xACA8;" d="M1346 599L974 599L974 752L1348 752L1348 1058L1013 1058L1013 1211L1346 1211L1346 1660L1523 1660L1523-121L1346-121L1346 599M803 1360Q630 1354 340 1354L135 1354L135 1507Q135 1507 641 1507Q852 1507 996 1511Q968 1104 773.50 787.50Q579 471 180 258L60 388Q554 634 730 1082Q785 1220 803 1360Z"  horiz-adv-x="1750" vert-adv-y="2048"  />

      
      <glyph glyph-name="uniACA9" unicode="&#xACA9;" d="M1347 1342L1347 1660L1524 1660L1524 621L1347 621L1347 835L975 835L975 987L1349 987L1349 1192L1023 1192L1023 1342L1347 1342M823 1435Q654 1429 367 1429L195 1429L195 1583Q195 1583 683 1583Q888 1583 1032 1587Q1008 1258 791.50 1003.50Q575 749 196 630L90 769Q408 864 594 1032Q780 1200 823 1435M1347-128L1347 375L370 375L370 531L1524 531L1524-128L1347-128Z"  horiz-adv-x="1752" vert-adv-y="2048"  />

      
      <glyph glyph-name="uniACAA" unicode="&#xACAA;" d="M1347-128L1347 381L963 381L963 541L1524 541L1524-128L1347-128M713-128L713 381L319 381L319 541L889 541L889-128L713-128M1347 1342L1347 1660L1524 1660L1524 631L1347 631L1347 841L975 841L975 993L1349 993L1349 1192L1023 1192L1023 1342L1347 1342M823 1435Q654 1429 367 1429L195 1429L195 1583Q195 1583 683 1583Q888 1583 1032 1587Q1008 1258 791.50 1003.50Q575 749 196 630L90 769Q408 864 594 1032Q780 1200 823 1435Z"  horiz-adv-x="1752" vert-adv-y="2048"  />

      
      <glyph glyph-name="uniACAC" unicode="&#xACAC;" d="M1043 1148L1043 1297L1347 1297L1347 1660L1524 1660L1524 362L1347 362L1347 746L975 746L975 898L1349 898L1349 1148L1043 1148M1563-87L408-87L408 461L586 461L586 69L1563 69L1563-87M820 1407Q650 1401 361 1401L193 1401L193 1555Q193 1555 680 1555Q886 1555 1030 1559Q992 1012 541 708Q392 604 194 534L86 668Q407 769 596.50 958Q786 1147 820 1407Z"  horiz-adv-x="1750" vert-adv-y="2048"  />

      
      <glyph glyph-name="uniACAF" unicode="&#xACAF;" d="M815 1435Q646 1429 367 1429L191 1429L191 1583Q191 1583 674 1583Q877 1583 1019 1587Q996 1260 781.50 1009Q567 758 192 642L88 783Q730 978 815 1435M1347 1344L1347 1660L1524 1660L1524 655L1347 655L1347 851L956 851L956 1001L1349 1001L1349 1194L1023 1194L1023 1344L1347 1344M414-95L414 564L1528 564L1528 411L590 411L590 61L1559 61L1559-95L414-95Z"  horiz-adv-x="1751" vert-adv-y="2048"  />

      
      <glyph glyph-name="uniACB0" unicode="&#xACB0;" d="M823 1436Q654 1431 375 1431L191 1431L191 1583Q191 1583 683 1583Q889 1583 1032 1587Q1008 1292 788.50 1069Q569 846 206 737L107 880Q716 1053 823 1436M1347 1399L1347 1660L1524 1660L1524 744L1347 744L1347 935L1012 935L1012 1085L1349 1085L1349 1251L1061 1251L1061 1399L1347 1399M1563-102L401-102L401 352L1349 352L1349 504L401 504L401 653L1524 653L1524 206L575 206L575 52L1563 52L1563-102Z"  horiz-adv-x="1751" vert-adv-y="2048"  />

      
      <glyph glyph-name="uniACB8" unicode="&#xACB8;" d="M815 1435Q646 1429 365 1429L191 1429L191 1583Q191 1583 676 1583Q881 1583 1023 1587Q999 1264 784 1018.50Q569 773 194 656L90 796Q726 986 815 1435M1347 1401L1347 1660L1524 1660L1524 651L1347 651L1347 907L1014 907L1014 1058L1349 1058L1349 1253L1062 1253L1062 1401L1347 1401M1524-95L409-95L409 560L1524 560L1524-95M1347 403L584 403L584 61L1347 61L1347 403Z"  horiz-adv-x="1752" vert-adv-y="2048"  />

      
      <glyph glyph-name="uniACB9" unicode="&#xACB9;" d="M817 1435Q648 1429 369 1429L191 1429L191 1583Q191 1583 678 1583Q883 1583 1026 1587Q1001 1277 783 1039Q565 801 198 689L96 829Q718 1010 817 1435M1347 1393L1347 1660L1524 1660L1524 722L1347 722L1347 884L1014 884L1014 1035L1349 1035L1349 1243L1062 1243L1062 1393L1347 1393M1524-95L405-95L405 621L581 621L581 416L1349 416L1349 631L1524 631L1524-95M1349 61L1349 268L579 268L579 61L1349 61Z"  horiz-adv-x="1752" vert-adv-y="2048"  />

      
      <glyph glyph-name="uniACBB" unicode="&#xACBB;" d="M811 1435Q643 1429 361 1429L190 1429L190 1583Q190 1583 673 1583Q876 1583 1018 1587Q981 1038 531 735Q383 634 191 575L84 709Q403 810 590.50 992Q778 1174 811 1435M1346 1373L1346 1660L1523 1660L1523 465L1346 465L1346 846L1013 846L1013 997L1348 997L1348 1224L1061 1224L1061 1373L1346 1373M1019 406Q1105 263 1264 163Q1423 63 1626 22L1527-122Q1351-82 1192.50 16.50Q1034 115 934 257Q838 125 682 22Q526-81 347-122L239 20Q673 119 817 404Q865 498 871 618L1063 618Q1061 509 1019 406Z"  horiz-adv-x="1745" vert-adv-y="2048"  />

      
      <glyph glyph-name="uniACBC" unicode="&#xACBC;" d="M817 1435Q649 1429 367 1429L190 1429L190 1583Q190 1583 676 1583Q880 1583 1022 1587Q998 1264 783 1018.50Q568 773 193 656L89 796Q728 988 817 1435M1346 1373L1346 1660L1522 1660L1522 640L1346 640L1346 849L1013 849L1013 1000L1348 1000L1348 1224L1061 1224L1061 1373L1346 1373M195 7Q605 203 581 558L762 558Q762 469 740 388Q813 202 964 88Q1070 184 1123.50 296.50Q1177 409 1163 565L1340 565Q1340 473 1320 384Q1386 172 1706 14L1593-115Q1367 0 1250 198Q1150 4 951-120Q778 2 668 203Q555 0 317-120L195 7Z"  horiz-adv-x="1742" vert-adv-y="2048"  />

      
      <glyph glyph-name="uniACBD" unicode="&#xACBD;" d="M815 1435Q645 1429 366 1429L190 1429L190 1583Q190 1583 673 1583Q876 1583 1019 1587Q995 1252 780 999.50Q565 747 191 630L86 769Q402 864 586.50 1032Q771 1200 815 1435M1346 1383L1346 1660L1523 1660L1523 580L1346 580L1346 868L1013 868L1013 1019L1348 1019L1348 1233L1062 1233L1062 1383L1346 1383M1389 475Q1539 381 1539 221Q1539 61 1389-38Q1233-138 949-138Q665-138 510.50-39.50Q356 59 356 220Q356 381 509 480.50Q662 580 947 580Q1232 580 1389 475M1355 221Q1355 363 1128 412Q1050 430 945 430Q747 430 642 370.50Q537 311 537 221Q537 81 763 30Q840 13 945 13Q1146 13 1250.50 72Q1355 131 1355 221Z"  horiz-adv-x="1751" vert-adv-y="2048"  />

      
      <glyph glyph-name="uniACC1" unicode="&#xACC1;" d="M1347 1373L1347 1660L1524 1660L1524 740L1347 740L1347 892L1014 892L1014 1042L1349 1042L1349 1224L1062 1224L1062 1373L1347 1373M592 208L592 48L1563 48L1563-102L418-102L418 648L1529 648L1529 500L592 500L592 352L1524 352L1524 208L592 208M825 1435Q656 1429 369 1429L191 1429L191 1583Q191 1583 683 1583Q890 1583 1034 1587Q1010 1281 790.50 1046.50Q571 812 198 700L96 841Q400 930 587 1074.50Q774 1219 825 1435Z"  horiz-adv-x="1750" vert-adv-y="2048"  />

      
      <glyph glyph-name="uniACC4" unicode="&#xACC4;" d="M1550-121L1373-121L1373 1660L1550 1660L1550-121M836 1509Q825 1311 803 1204L1032 1204L1032 1641L1208 1641L1208-77L1032-77L1032 639L739 639L739 791L1034 791L1034 1053L767 1053Q615 558 169 261L41 381Q339 568 486.50 820Q634 1072 650 1361Q507 1356 260 1356L129 1356L129 1505Q129 1505 540 1505Q715 1505 836 1509Z"  horiz-adv-x="1748" vert-adv-y="2048"  />

      
      <glyph glyph-name="uniACC8" unicode="&#xACC8;" d="M1569 333L1398 333L1398 1660L1569 1660L1569 333M883 1551Q880 1385 845 1272L1070 1272L1070 1641L1238 1641L1238 372L1070 372L1070 753L793 753L793 905L1072 905L1072 1120L795 1120Q712 929 558 779.50Q404 630 192 540L84 675Q347 772 512.50 972.50Q678 1173 697 1403Q555 1398 333 1398L202 1398L202 1548L598 1548Q763 1548 883 1551M1598-87L444-87L444 472L623 472L623 69L1598 69L1598-87Z"  horiz-adv-x="1749" vert-adv-y="2048"  />

      
      <glyph glyph-name="uniACCC" unicode="&#xACCC;" d="M704 1435Q559 1429 340 1429L203 1429L203 1578Q203 1578 603 1578Q769 1578 890 1583Q886 1464 862 1369L1068 1369L1068 1641L1236 1641L1236 734L1068 734L1068 909L791 909L791 1056L1071 1056L1071 1222L808 1222Q728 1042 570 907Q412 772 196 689L85 827Q342 906 507.50 1069Q673 1232 704 1435M1568 734L1397 734L1397 1660L1568 1660L1568 734M1606-102L414-102L414 346L1393 346L1393 492L414 492L414 642L1568 642L1568 200L589 200L589 50L1606 50L1606-102Z"  horiz-adv-x="1747" vert-adv-y="2048"  />

      
      <glyph glyph-name="uniACD5" unicode="&#xACD5;" d="M881 1583Q876 1451 855 1371L1069 1371L1069 1641L1237 1641L1237 722L1069 722L1069 919L793 919L793 1070L1072 1070L1072 1220L806 1220Q641 835 194 654L86 792Q346 879 506.50 1051Q667 1223 696 1435Q554 1429 335 1429L204 1429L204 1578L597 1578Q761 1578 881 1583M1569 722L1398 722L1398 1660L1569 1660L1569 722M1569-95L420-95L420 621L596 621L596 416L1394 416L1394 631L1569 631L1569-95M1394 59L1394 268L593 268L593 59L1394 59Z"  horiz-adv-x="1750" vert-adv-y="2048"  />

      
      <glyph glyph-name="uniACD7" unicode="&#xACD7;" d="M684 1435Q552 1429 424 1429L204 1429L204 1578L587 1578Q747 1578 867 1583Q867 1438 832 1302L1070 1302L1070 1641L1238 1641L1238 651L1070 651L1070 816L792 816L792 967L1072 967L1072 1150L780 1150Q700 958 549 809.50Q398 661 194 571L88 706Q344 801 504.50 1000Q665 1199 684 1435M1568 451L1398 451L1398 1660L1568 1660L1568 451M209 20Q831 162 852 591L1045 591Q1045 496 1012 413Q1140 194 1435 80Q1528 43 1638 22L1537-122Q1251-57 1049 130Q979 195 931 265Q835 128 671 25.50Q507-77 318-122L209 20Z"  horiz-adv-x="1746" vert-adv-y="2048"  />

      
      <glyph glyph-name="uniACE0" unicode="&#xACE0;" d="M1442 1505Q1433 980 1328 507L1154 507Q1253 882 1266 1348L288 1348L288 1505L1442 1505M1695 143L36 143L36 294L669 294L669 928L847 928L847 294L1695 294L1695 143Z"  horiz-adv-x="1740" vert-adv-y="2048"  />

      
      <glyph glyph-name="uniACE1" unicode="&#xACE1;" d="M1433 1611Q1428 1271 1381 952L1206 952Q1252 1256 1256 1456L250 1456L250 1611L1433 1611M826 1220L826 845L1713 845L1713 692L16 692L16 845L644 845L644 1220L826 1220M1263-128L1263 331L260 331L260 482L1440 482L1440-128L1263-128Z"  horiz-adv-x="1738" vert-adv-y="2048"  />

      
      <glyph glyph-name="uniACE4" unicode="&#xACE4;" d="M1433 1611Q1428 1257 1381 917L1206 917Q1252 1241 1256 1456L250 1456L250 1611L1433 1611M826 1200L826 783L1713 783L1713 629L16 629L16 783L644 783L644 1200L826 1200M1474-95L291-95L291 482L467 482L467 61L1474 61L1474-95Z"  horiz-adv-x="1738" vert-adv-y="2048"  />

      
      <glyph glyph-name="uniACE7" unicode="&#xACE7;" d="M1433 1611Q1426 1281 1381 989L1206 989Q1248 1241 1256 1456L250 1456L250 1611L1433 1611M826 1235L826 878L1713 878L1713 725L16 725L16 878L644 878L644 1235L826 1235M289-95L289 535L1444 535L1444 381L465 381L465 61L1476 61L1476-95L289-95Z"  horiz-adv-x="1738" vert-adv-y="2048"  />

      
      <glyph glyph-name="uniACE8" unicode="&#xACE8;" d="M1433 1611Q1428 1329 1381 1058L1206 1058Q1250 1304 1256 1456L250 1456L250 1611L1433 1611M826 1284L826 965L1713 965L1713 818L16 818L16 965L644 965L644 1284L826 1284M287-121L287 348L1267 348L1267 524L287 524L287 670L1442 670L1442 206L462 206L462 26L1488 26L1488-121L287-121Z"  horiz-adv-x="1738" vert-adv-y="2048"  />

      
      <glyph glyph-name="uniACEA" unicode="&#xACEA;" d="M905 677L1461 677L1461-121L905-121L905 677M1061 537L1061 22L1293 22L1293 537L1061 537M871-85Q746-121 521-121L255-121L255 354L642 354L642 531L255 531L255 677L811 677L811 210L426 210L426 28L576 28Q747 28 871 62L871-85M1433 1611Q1428 1329 1381 1058L1206 1058Q1250 1304 1256 1456L250 1456L250 1611L1433 1611M826 1284L826 965L1713 965L1713 818L16 818L16 965L644 965L644 1284L826 1284Z"  horiz-adv-x="1738" vert-adv-y="2048"  />

      
      <glyph glyph-name="uniACEC" unicode="&#xACEC;" d="M1314 450Q1379 160 1640-15L1515-145Q1323 9 1241 198Q1158 5 956-153L869-79L869-85Q745-121 519-121L252-121L252 354L677 354L677 535L252 535L252 681L850 681L850 210L423 210L423 28L574 28Q746 28 869 62L869-1Q1198 227 1158 699L1330 699Q1334 563 1314 450M1433 1611Q1428 1329 1381 1058L1206 1058Q1250 1304 1256 1456L250 1456L250 1611L1433 1611M826 1284L826 965L1713 965L1713 818L16 818L16 965L644 965L644 1284L826 1284Z"  horiz-adv-x="1738" vert-adv-y="2048"  />

      
      <glyph glyph-name="uniACEF" unicode="&#xACEF;" d="M854 354L854 484L1585 484L1585 354L854 354M1027 548L1027 683L1426 683L1426 548L1027 548M1214 318Q1361 318 1442 254.50Q1523 191 1522.50 80.50Q1522-30 1438.50-93.50Q1355-157 1214.50-157Q1074-157 991.50-93.50Q909-30 909 80.50Q909 191 988 254.50Q1067 318 1214 318M1214 185Q1072 185 1072 82Q1072-21 1216.50-21Q1361-21 1361 84Q1361 135 1327.50 160Q1294 185 1214 185M854-85Q729-121 503-121L236-121L236 354L632 354L632 531L236 531L236 676L805 676L805 218L407 218L407 28L558 28Q729 28 854 62L854-85M1433 1611Q1428 1329 1381 1058L1206 1058Q1250 1304 1256 1456L250 1456L250 1611L1433 1611M826 1284L826 965L1713 965L1713 818L16 818L16 965L644 965L644 1284L826 1284Z"  horiz-adv-x="1738" vert-adv-y="2048"  />

      
      <glyph glyph-name="uniACF0" unicode="&#xACF0;" d="M1433 1611Q1428 1292 1381 999L1206 999Q1248 1252 1256 1456L250 1456L250 1611L1433 1611M826 1245L826 882L1713 882L1713 729L16 729L16 882L644 882L644 1245L826 1245M289-95L289 539L1440 539L1440-95L289-95M1263 385L465 385L465 61L1263 61L1263 385Z"  horiz-adv-x="1738" vert-adv-y="2048"  />

      
      <glyph glyph-name="uniACF1" unicode="&#xACF1;" d="M1433 1611Q1428 1300 1381 1021L1206 1021Q1248 1264 1256 1456L250 1456L250 1611L1433 1611M826 1250L826 909L1713 909L1713 755L16 755L16 909L644 909L644 1250L826 1250M289-95L289 639L465 639L465 441L1263 441L1263 639L1440 639L1440-95L289-95M1265 292L463 292L463 59L1265 59L1265 292Z"  horiz-adv-x="1738" vert-adv-y="2048"  />

      
      <glyph glyph-name="uniACF3" unicode="&#xACF3;" d="M1433 1611Q1428 1271 1381 952L1206 952Q1252 1256 1256 1456L250 1456L250 1611L1433 1611M826 1220L826 845L1713 845L1713 692L16 692L16 845L644 845L644 1220L826 1220M940 398Q1102 144 1592 26L1495-122Q1312-84 1131.50 23Q951 130 853 248Q694 43 420-67Q330-102 235-122L139 27Q418 76 604 226Q790 376 798 589L982 589Q978 486 940 398Z"  horiz-adv-x="1738" vert-adv-y="2048"  />

      
      <glyph glyph-name="uniACF5" unicode="&#xACF5;" d="M1433 1611Q1426 1265 1381 963L1206 963Q1248 1227 1256 1456L250 1456L250 1611L1433 1611M826 1224L826 863L1713 863L1713 709L16 709L16 863L644 863L644 1224L826 1224M1459 223.50Q1459 223.50 1459 143.75Q1459 64 1301.50-37Q1144-138 854.50-138Q565-138 405.50-35Q246 68 246 224.50Q246 381 405.50 479.50Q565 578 854.50 578Q1144 578 1301.50 480.50Q1459 383 1459 223.50M1270 225Q1270 225 1270 268Q1270 311 1170 369.50Q1070 428 853 428Q636 428 525 362Q439 311 439 222Q439 88 655 35Q735 16 854 16Q1070 16 1182 85Q1270 139 1270 225Z"  horiz-adv-x="1738" vert-adv-y="2048"  />

      
      <glyph glyph-name="uniACF6" unicode="&#xACF6;" d="M1433 1611Q1428 1279 1381 976L1206 976Q1248 1243 1256 1456L250 1456L250 1611L1433 1611M826 1246L826 898L1713 898L1713 744L16 744L16 898L644 898L644 1246L826 1246M1125 420Q958 414 691 414L301 414L301 567Q301 567 987 567Q1253 567 1387 572Q1414 572 1422 551.50Q1430 531 1415 508Q1333 343 1055 185Q1277 100 1637 22L1530-119Q1199-47 877 93Q572-47 232-126L125 16Q649 127 985 320Q1081 376 1125 420Z"  horiz-adv-x="1738" vert-adv-y="2048"  />

      
      <glyph glyph-name="uniACFC" unicode="&#xACFC;" d="M1032 1496Q1020 868 951 612L776 612Q825 794 838 984Q851 1174 855 1344L131 1344L131 1496L1032 1496M1731 807L1449 807L1449-121L1279-121L1279 1660L1449 1660L1449 960L1731 960L1731 807M1201 327Q837 274 385 274L16 274L16 428L423 428L423 1007L595 1007L595 430Q959 439 1201 471L1201 327Z"  horiz-adv-x="1737" vert-adv-y="2048"  />

      
      <glyph glyph-name="uniACFD" unicode="&#xACFD;" d="M1052 1572Q1042 1189 987 931L814 931Q868 1176 876 1421L165 1421L165 1572L1052 1572M1283 563L1283 1660L1459 1660L1459 1113L1716 1113L1716 956L1459 956L1459 563L1283 563M604 809Q958 818 1207 851L1207 704Q953 666 535 653Q418 649 315 649L24 649L24 802L426 802L426 1183L604 1183L604 809M1283-128L1283 313L305 313L305 470L1459 470L1459-128L1283-128Z"  horiz-adv-x="1738" vert-adv-y="2048"  />

      
      <glyph glyph-name="uniAD00" unicode="&#xAD00;" d="M1052 1568Q1042 1183 987 907L814 907Q868 1165 876 1417L165 1417L165 1568L1052 1568M1283 294L1283 1660L1459 1660L1459 1054L1716 1054L1716 898L1459 898L1459 294L1283 294M593 763Q979 777 1207 809L1207 661Q953 623 535 610Q418 606 315 606L24 606L24 759L413 759L413 1150L593 1150L593 763M1488-87L324-87L324 422L503 422L503 69L1488 69L1488-87Z"  horiz-adv-x="1738" vert-adv-y="2048"  />

      
      <glyph glyph-name="uniAD04" unicode="&#xAD04;" d="M1052 1588Q1042 1284 987 1044L814 1044Q868 1264 876 1440L165 1440L165 1588L1052 1588M1283 736L1283 1660L1459 1660L1459 1266L1716 1266L1716 1109L1459 1109L1459 736L1283 736M604 937Q958 946 1207 980L1207 834Q953 796 535 783Q418 779 315 779L24 779L24 930L426 930L426 1239L604 1239L604 937M1498-102L335-102L335 350L1285 350L1285 488L335 488L335 642L1459 642L1459 200L511 200L511 53L1498 53L1498-102Z"  horiz-adv-x="1738" vert-adv-y="2048"  />

      
      <glyph glyph-name="uniAD06" unicode="&#xAD06;" d="M915 648L1459 648L1459-102L915-102L915 648M1071 507L1071 41L1291 41L1291 507L1071 507M882-64Q750-102 531-102L274-102L274 352L648 352L648 498L274 498L274 648L817 648L817 204L445 204L445 52L585 52Q751 52 882 88L882-64M1052 1588Q1042 1284 987 1044L814 1044Q868 1264 876 1440L165 1440L165 1588L1052 1588M1283 742L1283 1660L1459 1660L1459 1250L1716 1250L1716 1094L1459 1094L1459 742L1283 742M604 937Q958 946 1207 980L1207 834Q953 796 535 783Q418 779 315 779L24 779L24 930L426 930L426 1239L604 1239L604 937Z"  horiz-adv-x="1738" vert-adv-y="2048"  />

      
      <glyph glyph-name="uniAD0C" unicode="&#xAD0C;" d="M1033 1576Q1022 1203 968 962L795 962Q848 1194 856 1427L146 1427L146 1576L1033 1576M1283 606L1283 1660L1459 1660L1459 1151L1716 1151L1716 995L1459 995L1459 606L1283 606M584 841Q976 855 1207 886L1207 739Q953 701 535 688Q418 684 315 684L24 684L24 837L406 837L406 1192L584 1192L584 841M344-95L344 517L1459 517L1459-95L344-95M521 59L1283 59L1283 362L521 362L521 59Z"  horiz-adv-x="1738" vert-adv-y="2048"  />

      
      <glyph glyph-name="uniAD0D" unicode="&#xAD0D;" d="M1033 1594Q1022 1231 968 989L794 989Q848 1213 856 1444L146 1444L146 1594L1033 1594M1283 674L1283 1660L1459 1660L1459 1204L1716 1204L1716 1047L1459 1047L1459 674L1283 674M1207 768Q829 713 315 713L24 713L24 865L406 865L406 1211L584 1211L584 868Q976 882 1207 914L1207 768M1459-95L340-95L340 569L517 569L517 398L1285 398L1285 589L1459 589L1459-95M1285 59L1285 251L515 251L515 59L1285 59Z"  horiz-adv-x="1738" vert-adv-y="2048"  />

      
      <glyph glyph-name="uniAD0F" unicode="&#xAD0F;" d="M1033 1587Q1022 1212 968 972L795 972Q848 1204 856 1436L146 1436L146 1587L1033 1587M1283 502L1283 1660L1459 1660L1459 1167L1716 1167L1716 1010L1459 1010L1459 502L1283 502M584 841Q976 855 1207 886L1207 739Q953 701 535 688Q418 684 315 684L24 684L24 837L406 837L406 1202L584 1202L584 841M1023 562Q1014 482 998 431Q1131 147 1623 38L1526-111Q1083 7 911 259Q726-3 286-120L188 28Q477 91 652 231Q827 371 839 562L1023 562Z"  horiz-adv-x="1738" vert-adv-y="2048"  />

      
      <glyph glyph-name="uniAD11" unicode="&#xAD11;" d="M1033 1587Q1022 1224 968 963L795 963Q848 1213 856 1435L146 1435L146 1587L1033 1587M1283 546L1283 1660L1459 1660L1459 1185L1716 1185L1716 1027L1459 1027L1459 546L1283 546M584 828Q976 841 1207 873L1207 725Q953 688 535 674Q418 670 315 670L24 670L24 824L406 824L406 1198L584 1198L584 828M1472 204.50Q1472 204.50 1472 128.25Q1472 52 1323-43Q1174-138 886-138Q598-138 443.50-44Q289 50 289 204.50Q289 359 443.50 452.50Q598 546 882 546Q1166 546 1319 451.50Q1472 357 1472 204.50M576.50 338Q576.50 338 524.25 310Q472 282 472 203.50Q472 125 571 70.50Q670 16 882 16Q1094 16 1191.50 70.50Q1289 125 1289 204.50Q1289 284 1185 339Q1081 394 881 394Q681 394 576.50 338Z"  horiz-adv-x="1738" vert-adv-y="2048"  />

      
      <glyph glyph-name="uniAD18" unicode="&#xAD18;" d="M835 1477Q824 949 770 601L605 601Q656 908 669 1326L120 1326L120 1477L835 1477M926 334Q652 284 273 284L37 284L37 435L313 435L313 939L477 939L477 439Q717 447 926 481L926 334M1560-121L1389-121L1389 798L1178 798L1178-77L1011-77L1011 1641L1178 1641L1178 950L1389 950L1389 1660L1560 1660L1560-121Z"  horiz-adv-x="1748" vert-adv-y="2048"  />

      
      <glyph glyph-name="uniAD1C" unicode="&#xAD1C;" d="M879 1526Q879 1310 859 1119.50Q839 929 826 857L664 857Q703 1089 713 1376L158 1376L158 1526L879 1526M1568 311L1396 311L1396 950L1209 950L1209 350L1039 350L1039 1641L1209 1641L1209 1103L1396 1103L1396 1660L1568 1660L1568 311M959 630Q666 585 273 585L48 585L48 736L356 736L356 1132L520 1132L520 742Q773 750 959 777L959 630M1597-87L388-87L388 406L567 406L567 69L1597 69L1597-87Z"  horiz-adv-x="1746" vert-adv-y="2048"  />

      
      <glyph glyph-name="uniAD20" unicode="&#xAD20;" d="M891 1588Q879 1233 837 1055L673 1055Q713 1233 723 1444L154 1444L154 1588L891 1588M1568 742L1396 742L1396 1105L1218 1105L1218 742L1048 742L1048 1641L1218 1641L1218 1256L1396 1256L1396 1660L1568 1660L1568 742M969 829Q675 783 283 783L48 783L48 932L343 932L343 1248L514 1248L514 937Q762 944 969 974L969 829M1607-102L400-102L400 348L1394 348L1394 502L400 502L400 648L1568 648L1568 204L574 204L574 46L1607 46L1607-102Z"  horiz-adv-x="1745" vert-adv-y="2048"  />

      
      <glyph glyph-name="uniAD29" unicode="&#xAD29;" d="M891 1587Q879 1201 837 993L675 993Q715 1192 724 1438L154 1438L154 1587L891 1587M969 768Q675 722 283 722L48 722L48 870L338 870L338 1222L510 1222L510 874Q763 882 969 912L969 768M1218 1237L1396 1237L1396 1660L1569 1660L1569 674L1396 674L1396 1085L1218 1085L1218 674L1048 674L1048 1641L1218 1641L1218 1237M1569-95L403-95L403 569L580 569L580 398L1394 398L1394 589L1569 589L1569-95M1394 59L1394 251L578 251L578 59L1394 59Z"  horiz-adv-x="1748" vert-adv-y="2048"  />

      
      <glyph glyph-name="uniAD2C" unicode="&#xAD2C;" d="M888 1588Q877 1192 835 976L672 976Q712 1186 721 1438L153 1438L153 1588L888 1588M1568 621L1396 621L1396 1066L1218 1066L1218 621L1047 621L1047 1641L1218 1641L1218 1220L1396 1220L1396 1660L1568 1660L1568 621M968 739Q674 694 283 694L48 694L48 845L337 845L337 1198L509 1198L509 849Q756 857 968 886L968 739M969 84Q1205 271 1177 546L1354 546Q1354 453 1333 363Q1397 168 1732 11L1618-115Q1376-2 1262 186Q1158-4 955-120Q777-7 659 187Q538-12 299-120L175 5Q476 140 555 364Q584 443 578 539L758 539Q758 444 735 363Q804 191 969 84Z"  horiz-adv-x="1739" vert-adv-y="2048"  />

      
      <glyph glyph-name="uniAD2D" unicode="&#xAD2D;" d="M1572 200Q1572-35 1224-112Q1110-138 956-138Q663-138 503.50-43Q344 52 344 202Q344 352 502 443.50Q660 535 955 535Q1250 535 1411 443.50Q1572 352 1572 200M1385 198Q1385 326 1149 372Q1068 387 956 387Q744 387 637 333Q530 279 530 202Q530 125 632 69.50Q734 14 955.50 14Q1177 14 1281 70Q1385 126 1385 198M889 1588Q877 1158 835 946L673 946Q713 1170 722 1438L153 1438L153 1588L889 1588M1569 545L1396 545L1396 1049L1218 1049L1218 602L1048 602L1048 1641L1218 1641L1218 1202L1396 1202L1396 1660L1569 1660L1569 545M968 710Q675 664 285 664L48 664L48 816L338 816L338 1187L510 1187L510 820Q758 828 968 857L968 710Z"  horiz-adv-x="1746" vert-adv-y="2048"  />

      
      <glyph glyph-name="uniAD34" unicode="&#xAD34;" d="M1570-121L1394-121L1394 1660L1570 1660L1570-121M646 430Q999 439 1305 475L1305 329Q956 274 433 274L68 274L68 428L473 428L473 1007L646 1007L646 430M1112 1496Q1100 868 1031 612L856 612Q904 794 917.50 984Q931 1174 935 1344L178 1344L178 1496L1112 1496Z"  horiz-adv-x="1749" vert-adv-y="2048"  />

      
      <glyph glyph-name="uniAD35" unicode="&#xAD35;" d="M1151 1572Q1141 1189 1086 931L912 931Q966 1176 974 1421L226 1421L226 1572L1151 1572M1394 563L1394 1660L1571 1660L1571 563L1394 563M663 808Q1066 818 1317 853L1317 704Q1063 666 645 653Q529 649 425 649L77 649L77 804L485 804L485 1206L663 1206L663 808M1394-128L1394 313L385 313L385 470L1571 470L1571-128L1394-128Z"  horiz-adv-x="1749" vert-adv-y="2048"  />

      
      <glyph glyph-name="uniAD38" unicode="&#xAD38;" d="M1151 1568Q1142 1183 1087 907L914 907Q967 1165 975 1417L226 1417L226 1568L1151 1568M1394 294L1394 1660L1571 1660L1571 294L1394 294M664 763Q1059 772 1318 809L1318 661Q1064 623 646 610Q529 606 426 606L87 606L87 759L485 759L485 1150L664 1150L664 763M1598-87L417-87L417 422L597 422L597 69L1598 69L1598-87Z"  horiz-adv-x="1749" vert-adv-y="2048"  />

      
      <glyph glyph-name="uniAD3C" unicode="&#xAD3C;" d="M1151 1588Q1141 1278 1086 1038L912 1038Q966 1256 974 1440L226 1440L226 1588L1151 1588M1317 825Q893 772 425 772L77 772L77 923L485 923L485 1243L663 1243L663 926Q1083 937 1317 970L1317 825M1394 1660L1571 1660L1571 725L1394 725L1394 1660M1607-102L415-102L415 346L1394 346L1394 483L415 483L415 633L1569 633L1569 200L589 200L589 50L1607 50L1607-102Z"  horiz-adv-x="1747" vert-adv-y="2048"  />

      
      <glyph glyph-name="uniAD44" unicode="&#xAD44;" d="M1151 1576Q1141 1203 1086 962L912 962Q966 1194 974 1427L226 1427L226 1576L1151 1576M663 841Q1066 850 1317 886L1317 737Q1063 699 645 686Q529 681 425 681L77 681L77 837L485 837L485 1181L663 1181L663 841M1394 606L1394 1660L1571 1660L1571 606L1394 606M425-95L425 517L1571 517L1571-95L425-95M602 59L1394 59L1394 362L602 362L602 59Z"  horiz-adv-x="1749" vert-adv-y="2048"  />

      
      <glyph glyph-name="uniAD45" unicode="&#xAD45;" d="M1151 1594Q1141 1231 1086 989L912 989Q966 1213 974 1444L226 1444L226 1594L1151 1594M1317 766Q893 713 425 713L77 713L77 865L485 865L485 1211L663 1211L663 868Q1083 878 1317 912L1317 766M1394 1660L1571 1660L1571 674L1394 674L1394 1660M1569-95L418-95L418 569L596 569L596 398L1394 398L1394 589L1569 589L1569-95M1394 59L1394 251L593 251L593 59L1394 59Z"  horiz-adv-x="1749" vert-adv-y="2048"  />

      
      <glyph glyph-name="uniAD47" unicode="&#xAD47;" d="M1150 1576Q1140 1203 1085 962L912 962Q966 1194 974 1427L225 1427L225 1576L1150 1576M663 831Q1065 841 1317 877L1317 727Q1063 690 645 676Q528 672 425 672L77 672L77 828L485 828L485 1172L663 1172L663 831M1394 490L1394 1660L1569 1660L1569 490L1394 490M1090 421Q1228 137 1728 36L1630-111Q1179-1 1004 251Q824-3 365-122L268 26Q564 88 742 223.50Q920 359 931 545L1115 545Q1105 465 1090 421Z"  horiz-adv-x="1741" vert-adv-y="2048"  />

      
      <glyph glyph-name="uniAD49" unicode="&#xAD49;" d="M518 460Q678 556 968.50 556Q1259 556 1418.50 460.50Q1578 365 1578 209Q1578 53 1424-42Q1264-138 973-138Q682-138 523.50-42.50Q365 53 365 209Q365 365 518 460M1394 206Q1394 206 1394 246Q1394 286 1292 346.50Q1190 407 976.50 407Q763 407 655.50 349.50Q548 292 548 209Q548 126 656.50 70Q765 14 970.50 14Q1176 14 1285 70Q1394 126 1394 206M1151 1576Q1141 1203 1086 962L912 962Q966 1194 974 1427L225 1427L225 1576L1151 1576M663 841Q1066 850 1317 886L1317 737Q1063 699 645 686Q528 681 425 681L77 681L77 837L485 837L485 1181L663 1181L663 841M1394 568L1394 1660L1570 1660L1570 568L1394 568Z"  horiz-adv-x="1749" vert-adv-y="2048"  />

      
      <glyph glyph-name="uniAD50" unicode="&#xAD50;" d="M1042 905L1042 303L1695 303L1695 152L36 152L36 303L488 303L488 905L654 905L654 301L875 301L875 905L1042 905M1448 1518Q1442 993 1335 522L1162 522Q1260 895 1274 1361L286 1361L286 1518L1448 1518Z"  horiz-adv-x="1740" vert-adv-y="2048"  />

      
      <glyph glyph-name="uniAD54" unicode="&#xAD54;" d="M1433 1607Q1428 1253 1381 913L1206 913Q1252 1236 1256 1453L250 1453L250 1607L1433 1607M1061 1183L1061 769L1713 769L1713 618L16 618L16 769L476 769L476 1183L653 1183L653 767L883 767L883 1183L1061 1183M1474-95L291-95L291 476L467 476L467 61L1474 61L1474-95Z"  horiz-adv-x="1738" vert-adv-y="2048"  />

      
      <glyph glyph-name="uniAD58" unicode="&#xAD58;" d="M1433 1611Q1428 1323 1381 1053L1206 1053Q1250 1297 1256 1456L250 1456L250 1611L1433 1611M1049 1265L1049 943L1713 943L1713 796L16 796L16 943L476 943L476 1265L653 1265L653 941L872 941L872 1265L1049 1265M287-121L287 336L1267 336L1267 504L287 504L287 650L1442 650L1442 195L462 195L462 26L1488 26L1488-121L287-121Z"  horiz-adv-x="1738" vert-adv-y="2048"  />

      
      <glyph glyph-name="uniAD61" unicode="&#xAD61;" d="M1433 1611Q1428 1300 1381 1021L1206 1021Q1248 1264 1256 1456L250 1456L250 1611L1433 1611M1063 1233L1063 896L1713 896L1713 744L16 744L16 896L476 896L476 1233L653 1233L653 893L885 893L885 1233L1063 1233M289-95L289 625L465 625L465 435L1263 435L1263 625L1440 625L1440-95L289-95M1265 286L463 286L463 61L1265 61L1265 286Z"  horiz-adv-x="1738" vert-adv-y="2048"  />

      
      <glyph glyph-name="uniAD63" unicode="&#xAD63;" d="M1433 1611Q1428 1271 1381 952L1206 952Q1252 1256 1256 1456L250 1456L250 1611L1433 1611M1081 1196L1081 831L1713 831L1713 679L16 679L16 831L491 831L491 1196L669 1196L669 829L902 829L902 1196L1081 1196M952 387Q1109 146 1599 28L1503-120Q1319-82 1141 22.50Q963 127 867 241Q765 109 599 14Q433-81 243-120L146 25Q426 71 612 214Q798 357 805 565L990 565Q988 472 952 387Z"  horiz-adv-x="1738" vert-adv-y="2048"  />

      
      <glyph glyph-name="uniAD6C" unicode="&#xAD6C;" d="M1452 1583Q1452 1236 1386 798L1695 798L1695 647L974 647L974-112L793-112L793 647L36 647L36 798L1215 798Q1275 1186 1275 1429L288 1429L288 1583L1452 1583Z"  horiz-adv-x="1740" vert-adv-y="2048"  />

      
      <glyph glyph-name="uniAD6D" unicode="&#xAD6D;" d="M1433 1609Q1428 1305 1389 995L1713 995L1713 841L963 841L963 492L1440 492L1440-128L1263-128L1263 340L260 340L260 492L780 492L780 841L16 841L16 995L1216 995Q1254 1285 1256 1454L270 1454L270 1609L1433 1609Z"  horiz-adv-x="1738" vert-adv-y="2048"  />

      
      <glyph glyph-name="uniAD70" unicode="&#xAD70;" d="M1433 1609Q1426 1240 1385 905L1713 905L1713 752L993 752L993 274L811 274L811 752L16 752L16 905L1210 905Q1252 1217 1256 1454L270 1454L270 1609L1433 1609M1494-95L291-95L291 478L467 478L467 61L1494 61L1494-95Z"  horiz-adv-x="1738" vert-adv-y="2048"  />

      
      <glyph glyph-name="uniAD73" unicode="&#xAD73;" d="M1433 1609Q1426 1275 1385 991L1713 991L1713 837L963 837L963 539L1444 539L1444 385L465 385L465 61L1476 61L1476-95L289-95L289 539L780 539L780 837L16 837L16 991L1210 991Q1248 1228 1256 1454L270 1454L270 1609L1433 1609Z"  horiz-adv-x="1738" vert-adv-y="2048"  />

      
      <glyph glyph-name="uniAD74" unicode="&#xAD74;" d="M1433 1615Q1428 1333 1387 1054L1713 1054L1713 907L963 907L963 683L1442 683L1442 212L462 212L462 26L1488 26L1488-121L287-121L287 354L1267 354L1267 537L287 537L287 683L780 683L780 907L16 907L16 1054L1212 1054Q1248 1278 1256 1460L270 1460L270 1615L1433 1615Z"  horiz-adv-x="1738" vert-adv-y="2048"  />

      
      <glyph glyph-name="uniAD75" unicode="&#xAD75;" d="M971-85Q846-121 619-121L258-121L258 359L668 359L668 539L258 539L258 685L780 685L780 909L16 909L16 1056L1212 1056Q1248 1280 1256 1460L270 1460L270 1615L1434 1615Q1426 1298 1387 1056L1713 1056L1713 909L963 909L963 685L1457 685L1457-160L1281-160L1281 535L911 535L911 602L846 602L846 216L429 216L429 30L674 30Q846 30 971 65L971-85Z"  horiz-adv-x="1738" vert-adv-y="2048"  />

      
      <glyph glyph-name="uniAD76" unicode="&#xAD76;" d="M871-85Q746-121 521-121L255-121L255 354L642 354L642 539L255 539L255 685L780 685L780 909L16 909L16 1056L1212 1056Q1248 1280 1256 1460L270 1460L270 1615L1434 1615Q1426 1298 1387 1056L1713 1056L1713 909L963 909L963 685L1461 685L1461-121L905-121L905 602L811 602L811 210L426 210L426 28L576 28Q747 28 871 62L871-85M1061 545L1061 22L1293 22L1293 545L1061 545Z"  horiz-adv-x="1738" vert-adv-y="2048"  />

      
      <glyph glyph-name="uniAD7B" unicode="&#xAD7B;" d="M861-85Q737-121 512-121L244-121L244 348L640 348L640 541L244 541L244 685L768 685L768 909L16 909L16 1056L1212 1056Q1248 1280 1256 1460L270 1460L270 1615L1434 1615Q1426 1298 1387 1056L1713 1056L1713 909L951 909L951 621L813 621L813 212L415 212L415 28L566 28Q738 28 861 62L861-85M861 364L861 494L1593 494L1593 364L861 364M1034 558L1034 694L1433 694L1433 558L1034 558M917 80.50Q917 80.50 917 135.75Q917 191 995.50 254.50Q1074 318 1222 318Q1370 318 1450.50 254.50Q1531 191 1530 80.50Q1529-30 1446-93.50Q1363-157 1222.50-157Q1082-157 999.50-93.50Q917-30 917 80.50M1221 185Q1081 185 1081 82Q1081-21 1225-21Q1369-21 1369 84Q1369 135 1335.50 160Q1302 185 1221 185Z"  horiz-adv-x="1738" vert-adv-y="2048"  />

      
      <glyph glyph-name="uniAD7C" unicode="&#xAD7C;" d="M1433 1609Q1426 1275 1385 991L1713 991L1713 837L963 837L963 539L1440 539L1440-95L289-95L289 539L780 539L780 837L16 837L16 991L1210 991Q1248 1228 1256 1454L270 1454L270 1609L1433 1609M1263 385L465 385L465 61L1263 61L1263 385Z"  horiz-adv-x="1738" vert-adv-y="2048"  />

      
      <glyph glyph-name="uniAD7D" unicode="&#xAD7D;" d="M1433 1613Q1428 1300 1387 1001L1713 1001L1713 849L963 849L963 548L780 548L780 849L16 849L16 1001L1212 1001Q1248 1248 1256 1458L270 1458L270 1613L1433 1613M289-95L289 644L465 644L465 441L1263 441L1263 646L1440 646L1440-95L289-95M1265 292L463 292L463 59L1265 59L1265 292Z"  horiz-adv-x="1738" vert-adv-y="2048"  />

      
      <glyph glyph-name="uniAD7F" unicode="&#xAD7F;" d="M1433 1609Q1426 1279 1389 962L1713 962L1713 809L963 809L963 583L780 583L780 809L16 809L16 962L1214 962Q1252 1230 1256 1454L270 1454L270 1609L1433 1609M946 359Q1107 132 1592 26L1495-120Q1308-81 1131.50 13Q955 107 857 217Q757 93 591 5.50Q425-82 235-120L139 27Q426 74 608 203Q790 332 798 526L982 526Q978 441 946 359Z"  horiz-adv-x="1738" vert-adv-y="2048"  />

      
      <glyph glyph-name="uniAD81" unicode="&#xAD81;" d="M1433 1609Q1426 1253 1385 962L1713 962L1713 809L963 809L963 567Q1210 552 1339 456.50Q1468 361 1468 211Q1468 61 1315-33Q1151-138 863.50-138Q576-138 412-33Q255 63 255 213Q255 363 389 458.50Q523 554 780 567L780 809L16 809L16 962L1210 962Q1252 1232 1256 1454L270 1454L270 1609L1433 1609M1279 221Q1279 356 1061 405Q983 424 863 424Q646 424 538 358Q448 307 448 221Q448 83 664 33Q745 16 863 16Q1084 16 1181.50 76.50Q1279 137 1279 221Z"  horiz-adv-x="1738" vert-adv-y="2048"  />

      
      <glyph glyph-name="uniAD82" unicode="&#xAD82;" d="M1433 1609Q1428 1325 1389 1027L1713 1027L1713 874L963 874L963 625L780 625L780 874L16 874L16 1027L1214 1027Q1254 1284 1256 1454L270 1454L270 1609L1433 1609M1123 420Q956 414 689 414L299 414L299 567Q299 567 985 567Q1251 567 1385 572Q1412 572 1420 551.50Q1428 531 1413 508Q1331 343 1053 185Q1276 100 1636 22L1528-119Q1197-47 875 93Q570-47 230-126L123 16Q647 127 983 320Q1079 376 1123 420Z"  horiz-adv-x="1738" vert-adv-y="2048"  />

      
      <glyph glyph-name="uniAD88" unicode="&#xAD88;" d="M1397 319L994 319L994 474L1397 474L1397 1660L1570 1660L1570-121L1397-121L1397 319M1311 731Q1123 701 754 682L754-82L574-82L574 677Q542 676 506 676L68 676L68 831L466 831Q643 831 829 839Q867 987 879.50 1101Q892 1215 896 1372L205 1372L205 1524L1073 1524Q1069 1341 1056.50 1172.50Q1044 1004 1006 849Q1185 865 1311 879L1311 731Z"  horiz-adv-x="1749" vert-adv-y="2048"  />

      
      <glyph glyph-name="uniAD89" unicode="&#xAD89;" d="M1298 920Q1075 890 755 872L755 500L574 500L574 867Q534 865 492 865L79 865L79 1016L405 1016Q614 1016 851 1027Q889 1194 896 1421L194 1421L194 1570L1073 1570Q1063 1210 1025 1037Q1183 1050 1298 1064L1298 920M1394 519L1394 627L982 627L982 777L1394 777L1394 1660L1571 1660L1571 519L1394 519M1394-128L1394 272L365 272L365 430L1571 430L1571-128L1394-128Z"  horiz-adv-x="1749" vert-adv-y="2048"  />

      
      <glyph glyph-name="uniAD8C" unicode="&#xAD8C;" d="M1298 860Q1106 831 788 814L788 362L610 362L610 808Q560 805 507 805L80 805L80 956L404 956Q667 956 888 969Q926 1151 935 1412L233 1412L233 1561L1112 1561Q1103 1210 1063 981Q1190 989 1298 1004L1298 860M1394 294L1394 513L988 513L988 664L1394 664L1394 1660L1571 1660L1571 294L1394 294M1598-87L358-87L358 449L532 449L532 67L1598 67L1598-87Z"  horiz-adv-x="1747" vert-adv-y="2048"  />

      
      <glyph glyph-name="uniAD90" unicode="&#xAD90;" d="M1298 1037Q1024 1000 685 989L685 666L505 666L505 983L70 983L70 1128L404 1128Q618 1128 858 1139Q886 1258 896 1444L194 1444L194 1594L1074 1594Q1061 1296 1033 1151Q1155 1159 1298 1177L1298 1037M1394 686L1394 777L920 777L920 913L1394 913L1394 1660L1569 1660L1569 686L1394 686M1608-102L414-102L414 329L1396 329L1396 453L414 453L414 603L1571 603L1571 182L589 182L589 50L1608 50L1608-102Z"  horiz-adv-x="1746" vert-adv-y="2048"  />

      
      <glyph glyph-name="uniAD9C" unicode="&#xAD9C;" d="M1297 982Q1024 944 682 933L682 563L501 563L501 927L69 927L69 1077L403 1077Q613 1077 850 1089Q888 1245 895 1442L193 1442L193 1592L1072 1592Q1062 1268 1026 1099Q1181 1113 1297 1127L1297 982M1393 558L1393 679L919 679L919 829L1393 829L1393 1660L1569 1660L1569 558L1393 558M988 87Q1218 245 1192 489L1369 489Q1369 401 1349 324Q1386 233 1486 159.50Q1586 86 1743 15L1630-117Q1386-14 1279 154Q1179-20 974-120Q784-9 683 156Q568-22 326-120L201 5Q619 182 599 484L779 484Q779 397 758 322Q828 180 988 87Z"  horiz-adv-x="1739" vert-adv-y="2048"  />

      
      <glyph glyph-name="uniAD9D" unicode="&#xAD9D;" d="M1298 982Q1024 944 685 933L685 570L504 570L504 927L69 927L69 1077L404 1077Q614 1077 854 1089Q890 1262 896 1442L194 1442L194 1592L1073 1592Q1063 1290 1029 1099Q1177 1111 1298 1127L1298 982M1394 524L1394 670L920 670L920 820L1394 820L1394 1660L1570 1660L1570 524L1394 524M1578 196Q1578 196 1578 121Q1578 46 1424.50-46Q1271-138 971-138Q671-138 518-46Q365 46 365 193Q365 340 517 433Q669 526 966 526Q1263 526 1424 432Q1578 346 1578 196M970 16Q970 16 1079.50 16Q1189 16 1291.50 66.50Q1394 117 1394 190.50Q1394 264 1291.50 319.50Q1189 375 970 375Q751 375 649.50 319.50Q548 264 548 190.50Q548 117 649.50 66.50Q751 16 970 16Z"  horiz-adv-x="1749" vert-adv-y="2048"  />

      
      <glyph glyph-name="uniADA4" unicode="&#xADA4;" d="M978 743Q787 707 561 699L561-54L392-54L392 694L8 694L8 839L346 839Q466 839 599 847Q641 1100 649 1363L124 1363L124 1512L817 1512Q809 1125 766 857Q919 874 978 885L978 743M1378 1660L1549 1660L1549-121L1378-121L1378 1660M730 355L730 506L1049 506L1049 1641L1217 1641L1217-63L1049-63L1049 355L730 355Z"  horiz-adv-x="1747" vert-adv-y="2048"  />

      
      <glyph glyph-name="uniADB7" unicode="&#xADB7;" d="M993 901Q837 876 607 863L607 469L434 469L434 857Q404 855 373 855L40 855L40 1000L307 1000Q495 1000 643 1009Q675 1180 682 1395L153 1395L153 1542L849 1542Q840 1266 808 1019Q903 1027 993 1039L993 901M1398 1660L1568 1660L1568 412L1398 412L1398 1660M779 653L779 789L1061 789L1061 1641L1229 1641L1229 546L1061 546L1061 653L779 653M1050 380Q1182 120 1687 36L1596-111Q1136-16 965 221Q781-24 318-122L228 25Q678 106 831 326Q881 399 891 492L1075 492Q1064 420 1050 380Z"  horiz-adv-x="1741" vert-adv-y="2048"  />

      
      <glyph glyph-name="uniADC0" unicode="&#xADC0;" d="M1307 669Q1065 633 772 621L772-82L592-82L592 616Q554 614 515 614L68 614L68 769L462 769Q639 769 825 776Q863 930 875.50 1069Q888 1208 892 1372L202 1372L202 1524L1069 1524Q1061 1164 1040.50 1014.50Q1020 865 1002 787Q1181 802 1307 816L1307 669M1570-121L1394-121L1394 1660L1570 1660L1570-121Z"  horiz-adv-x="1749" vert-adv-y="2048"  />

      
      <glyph glyph-name="uniADC1" unicode="&#xADC1;" d="M1298 890Q1078 861 763 844L763 526L582 526L582 837Q540 835 495 835L68 835L68 991L405 991Q610 991 847 1001Q888 1182 896 1425L194 1425L194 1574L1073 1574Q1063 1214 1021 1012Q1219 1027 1298 1039L1298 890M1394 545L1394 1660L1570 1660L1570 545L1394 545M1394-128L1394 298L374 298L374 455L1570 455L1570-128L1394-128Z"  horiz-adv-x="1749" vert-adv-y="2048"  />

      
      <glyph glyph-name="uniADC4" unicode="&#xADC4;" d="M622 772Q510 768 405 768L67 768L67 923L403 923Q658 923 879 936Q925 1128 934 1407L232 1407L232 1557L1111 1557Q1099 1144 1056 946Q1222 962 1297 972L1297 823Q1113 796 798 777L798 379L622 379L622 772M1393 313L1393 1660L1569 1660L1569 313L1393 313M1597-87L337-87L337 406L515 406L515 67L1597 67L1597-87Z"  horiz-adv-x="1746" vert-adv-y="2048"  />

      
      <glyph glyph-name="uniADC8" unicode="&#xADC8;" d="M1297 978Q1079 948 709 929L709 715L528 715L528 924Q500 923 467 923L67 923L67 1074L403 1074Q609 1074 838 1085Q887 1252 895 1444L193 1444L193 1594L1073 1594Q1062 1274 1016 1095Q1218 1111 1297 1123L1297 978M1393 734L1393 1660L1568 1660L1568 734L1393 734M1607-102L413-102L413 344L1393 344L1393 492L413 492L413 642L1568 642L1568 202L588 202L588 50L1607 50L1607-102Z"  horiz-adv-x="1745" vert-adv-y="2048"  />

      
      <glyph glyph-name="uniADD0" unicode="&#xADD0;" d="M1298 925Q1075 896 754 879L754 566L574 566L574 872Q534 870 491 870L68 870L68 1025L405 1025Q657 1025 870 1038Q905 1196 915 1425L223 1425L223 1574L1093 1574Q1081 1218 1045 1049Q1219 1064 1298 1075L1298 925M1394 585L1394 1660L1570 1660L1570 585L1394 585M423-95L423 496L1570 496L1570-95L423-95M600 59L1394 59L1394 340L600 340L600 59Z"  horiz-adv-x="1749" vert-adv-y="2048"  />

      
      <glyph glyph-name="uniADD1" unicode="&#xADD1;" d="M1394 666L1394 1660L1570 1660L1570 666L1394 666M1570-95L400-95L400 580L576 580L576 416L1396 416L1396 589L1570 589L1570-95M1396 59L1396 268L574 268L574 59L1396 59M633 894Q513 890 407 890L68 890L68 1044L405 1044Q666 1044 889 1057Q925 1215 935 1444L242 1444L242 1594L1112 1594Q1100 1238 1064 1070Q1190 1079 1298 1094L1298 945Q1090 915 809 902L809 576L633 576L633 894Z"  horiz-adv-x="1749" vert-adv-y="2048"  />

      
      <glyph glyph-name="uniADD3" unicode="&#xADD3;" d="M1114 562Q1104 480 1088 433Q1229 147 1727 38L1629-111Q1180 5 1003 260Q819-3 366-120L267 28Q564 93 741 233Q918 373 930 562L1114 562M1392 450L1392 1660L1568 1660L1568 450L1392 450M1297 864Q1074 833 743 816L743 411L563 411L563 810Q525 809 484 809L66 809L66 963L403 963Q658 963 877 977Q915 1145 924 1407L236 1407L236 1563L1100 1563Q1088 1185 1052 987Q1225 1001 1297 1012L1297 864Z"  horiz-adv-x="1739" vert-adv-y="2048"  />

      
      <glyph glyph-name="uniADDC" unicode="&#xADDC;" d="M1452 1583Q1452 1240 1386 802L1695 802L1695 651L1280 651L1280-112L1101-112L1101 651L674 651L674-112L496-112L496 651L36 651L36 802L1215 802Q1275 1189 1275 1429L288 1429L288 1583L1452 1583Z"  horiz-adv-x="1740" vert-adv-y="2048"  />

      
      <glyph glyph-name="uniADE0" unicode="&#xADE0;" d="M1433 1609Q1428 1283 1387 917L1713 917L1713 766L1254 766L1254 280L1075 280L1075 768L778 768L778 280L600 280L600 766L16 766L16 917L1212 917Q1252 1246 1256 1454L270 1454L270 1609L1433 1609M1513-95L272-95L272 482L448 482L448 61L1513 61L1513-95Z"  horiz-adv-x="1738" vert-adv-y="2048"  />

      
      <glyph glyph-name="uniADE4" unicode="&#xADE4;" d="M1433 1613Q1428 1339 1387 1064L1713 1064L1713 921L1256 921L1256 685L1442 685L1442 212L462 212L462 26L1488 26L1488-121L287-121L287 354L1267 354L1267 539L287 539L287 685L472 685L472 921L16 921L16 1064L1212 1064Q1250 1289 1256 1458L270 1458L270 1613L1433 1613M1077 685L1077 923L650 923L650 685L1077 685Z"  horiz-adv-x="1738" vert-adv-y="2048"  />

      
      <glyph glyph-name="uniADF8" unicode="&#xADF8;" d="M1438 1498Q1422 941 1316 301L1695 301L1695 150L36 150L36 301L1135 301Q1243 835 1255 1342L288 1342L288 1498L1438 1498Z"  horiz-adv-x="1740" vert-adv-y="2048"  />

      
      <glyph glyph-name="uniADF9" unicode="&#xADF9;" d="M1433 1602Q1426 1265 1389 943L1713 943L1713 789L16 789L16 943L1214 943Q1252 1225 1256 1446L270 1446L270 1602L1433 1602M1263-128L1263 385L260 385L260 539L1440 539L1440-128L1263-128Z"  horiz-adv-x="1738" vert-adv-y="2048"  />

      
      <glyph glyph-name="uniADFC" unicode="&#xADFC;" d="M1433 1602Q1426 1228 1387 859L1713 859L1713 705L16 705L16 859L1212 859Q1256 1227 1256 1446L270 1446L270 1602L1433 1602M1474-95L291-95L291 506L467 506L467 61L1474 61L1474-95Z"  horiz-adv-x="1738" vert-adv-y="2048"  />

      
      <glyph glyph-name="uniADFF" unicode="&#xADFF;" d="M1433 1602Q1426 1255 1387 941L1713 941L1713 787L16 787L16 941L1212 941Q1252 1228 1256 1446L270 1446L270 1602L1433 1602M289-95L289 562L1444 562L1444 409L465 409L465 61L1476 61L1476-95L289-95Z"  horiz-adv-x="1738" vert-adv-y="2048"  />

      
      <glyph glyph-name="uniAE00" unicode="&#xAE00;" d="M1434 1602Q1426 1288 1387 1035L1713 1035L1713 888L16 888L16 1035L1212 1035Q1250 1267 1256 1446L270 1446L270 1602L1434 1602M287-121L287 372L1267 372L1267 563L287 563L287 709L1442 709L1442 229L462 229L462 26L1488 26L1488-121L287-121Z"  horiz-adv-x="1738" vert-adv-y="2048"  />

      
      <glyph glyph-name="uniAE01" unicode="&#xAE01;" d="M1433 1602Q1428 1314 1389 1038L1713 1038L1713 892L16 892L16 1038L1214 1038Q1248 1246 1256 1446L270 1446L270 1602L1433 1602M1281-160L1281 554L911 554L911 705L1457 705L1457-160L1281-160M971-85Q846-121 619-121L258-121L258 367L668 367L668 558L258 558L258 705L846 705L846 223L429 223L429 28L674 28Q846 28 971 62L971-85Z"  horiz-adv-x="1738" vert-adv-y="2048"  />

      
      <glyph glyph-name="uniAE08" unicode="&#xAE08;" d="M1433 1602Q1428 1286 1387 967L1713 967L1713 814L16 814L16 967L1212 967Q1252 1254 1256 1446L270 1446L270 1602L1433 1602M289-95L289 562L1440 562L1440-95L289-95M1263 409L465 409L465 61L1263 61L1263 409Z"  horiz-adv-x="1738" vert-adv-y="2048"  />

      
      <glyph glyph-name="uniAE09" unicode="&#xAE09;" d="M1433 1602Q1426 1253 1387 985L1713 985L1713 831L16 831L16 985L1212 985Q1248 1234 1256 1446L270 1446L270 1602L1433 1602M289-95L289 650L465 650L465 433L1263 433L1263 650L1440 650L1440-95L289-95M1265 284L463 284L463 57L1265 57L1265 284Z"  horiz-adv-x="1738" vert-adv-y="2048"  />

      
      <glyph glyph-name="uniAE0B" unicode="&#xAE0B;" d="M1433 1602Q1428 1308 1383 909L1713 909L1713 755L16 755L16 909L1208 909Q1215 969 1235.50 1129.50Q1256 1290 1256 1446L270 1446L270 1602L1433 1602M231-120L139 27Q420 76 605 227Q790 378 798 597L982 597Q978 494 942 406Q1098 146 1592 26L1497-120Q1317-84 1133 27Q949 138 853 256Q698 51 416-65Q327-100 231-120Z"  horiz-adv-x="1738" vert-adv-y="2048"  />

      
      <glyph glyph-name="uniAE0D" unicode="&#xAE0D;" d="M1433 1602Q1428 1271 1387 937L1713 937L1713 783L16 783L16 937L1212 937Q1252 1234 1256 1446L270 1446L270 1602L1433 1602M1319-31Q1155-138 867.50-138Q580-138 420-34Q260 70 260 231.50Q260 393 419 491Q578 589 867.50 589Q1157 589 1314.50 491.50Q1472 394 1472 230Q1472 66 1319-31M1196 374Q1082 444 867 444Q652 444 541 374Q452 321 452 228Q452 88 668 35Q748 16 867 16Q1084 16 1195 85Q1283 142 1283 232Q1283 322 1196 374Z"  horiz-adv-x="1738" vert-adv-y="2048"  />

      
      <glyph glyph-name="uniAE14" unicode="&#xAE14;" d="M1570-122L1399-112L1399 1660L1570 1660L1570-122M1094 1481Q1085 886 1000 461Q1144 470 1311 490L1311 345Q961 290 439 290L68 290L68 443L466 443Q641 443 823 450Q910 850 918 1328L184 1328L184 1481L1094 1481Z"  horiz-adv-x="1749" vert-adv-y="2048"  />

      
      <glyph glyph-name="uniAE30" unicode="&#xAE30;" d="M1345 1660L1522 1660L1522-121L1345-121L1345 1660M813 1360Q642 1354 352 1354L141 1354L141 1507Q141 1507 650 1507Q863 1507 1006 1511Q949 668 186 258L66 388Q563 636 739 1082Q795 1220 813 1360Z"  horiz-adv-x="1751" vert-adv-y="2048"  />

      
      <glyph glyph-name="uniAE31" unicode="&#xAE31;" d="M1347 1660L1524 1660L1524 621L1347 621L1347 1660M823 1435Q654 1429 367 1429L195 1429L195 1583Q195 1583 683 1583Q888 1583 1032 1587Q1008 1258 791.50 1003.50Q575 749 196 630L90 769Q408 864 594 1032Q780 1200 823 1435M1347-128L1347 375L370 375L370 531L1524 531L1524-128L1347-128Z"  horiz-adv-x="1752" vert-adv-y="2048"  />

      
      <glyph glyph-name="uniAE34" unicode="&#xAE34;" d="M1347 1660L1524 1660L1524 362L1347 362L1347 1660M1563-87L408-87L408 461L586 461L586 69L1563 69L1563-87M820 1407Q650 1401 361 1401L193 1401L193 1555Q193 1555 680 1555Q886 1555 1030 1559Q992 1012 541 708Q392 604 194 534L86 668Q407 769 596.50 958Q786 1147 820 1407Z"  horiz-adv-x="1750" vert-adv-y="2048"  />

      
      <glyph glyph-name="uniAE37" unicode="&#xAE37;" d="M816 1435Q648 1429 361 1429L170 1429L170 1583Q170 1583 671 1583Q883 1583 1026 1587Q1002 1262 775 1010Q548 758 171 642L68 783Q553 930 734 1223Q796 1323 816 1435M1346 1660L1522 1660L1522 655L1346 655L1346 1660M412-95L412 564L1527 564L1527 411L588 411L588 61L1557 61L1557-95L412-95Z"  horiz-adv-x="1749" vert-adv-y="2048"  />

      
      <glyph glyph-name="uniAE38" unicode="&#xAE38;" d="M829 1435Q661 1429 374 1429L171 1429L171 1578Q171 1578 683 1578Q896 1578 1039 1583Q1015 1294 786 1069Q557 844 186 734L86 876Q724 1059 829 1435M1347 1660L1524 1660L1524 773L1347 773L1347 1660M1563-102L401-102L401 367L1349 367L1349 529L401 529L401 681L1524 681L1524 216L575 216L575 52L1563 52L1563-102Z"  horiz-adv-x="1750" vert-adv-y="2048"  />

      
      <glyph glyph-name="uniAE3A" unicode="&#xAE3A;" d="M830 1438Q661 1433 374 1433L171 1433L171 1583Q171 1583 683 1583Q896 1583 1039 1587Q1015 1298 786 1073Q557 848 186 737L86 880Q724 1063 830 1438M1347 1660L1524 1660L1524 779L1347 779L1347 1660M980 687L1524 687L1524-102L980-102L980 687M1138 546L1138 41L1355 41L1355 546L1138 546M943-64Q814-102 594-102L338-102L338 372L711 372L711 537L338 537L338 687L880 687L880 222L508 222L508 52L648 52Q814 52 943 88L943-64Z"  horiz-adv-x="1752" vert-adv-y="2048"  />

      
      <glyph glyph-name="uniAE40" unicode="&#xAE40;" d="M819 1435Q650 1429 363 1429L170 1429L170 1583Q170 1583 673 1583Q885 1583 1028 1587Q1004 1267 778 1023Q551 773 172 656L70 796Q549 938 736 1227Q797 1325 819 1435M1345 1660L1522 1660L1522 657L1345 657L1345 1660M1522-95L407-95L407 565L1522 565L1522-95M1345 409L583 409L583 61L1345 61L1345 409Z"  horiz-adv-x="1751" vert-adv-y="2048"  />

      
      <glyph glyph-name="uniAE41" unicode="&#xAE41;" d="M824 1435Q655 1429 368 1429L171 1429L171 1583Q171 1583 678 1583Q890 1583 1033 1587Q1009 1281 780 1041Q551 801 177 689L77 829Q549 967 735 1239Q799 1331 824 1435M1347 1660L1523 1660L1523 742L1347 742L1347 1660M1523-95L404-95L404 640L578 640L578 433L1349 433L1349 650L1523 650L1523-95M1349 61L1349 286L578 286L578 61L1349 61Z"  horiz-adv-x="1752" vert-adv-y="2048"  />

      
      <glyph glyph-name="uniAE43" unicode="&#xAE43;" d="M815 1435Q646 1429 357 1429L169 1429L169 1583Q169 1583 671 1583Q883 1583 1026 1587Q1003 1230 775.50 960Q548 690 170 575L63 709Q385 808 583 994Q781 1180 815 1435M1345 1660L1522 1660L1522 465L1345 465L1345 1660M1019 423Q1104 275 1263 171Q1422 67 1630 24L1530-120Q1355-81 1196 22Q1037 125 937 271Q841 132 682.50 28.50Q524-75 338-120L230 22Q670 128 809 400Q856 494 863 618L1055 618Q1051 509 1019 423Z"  horiz-adv-x="1745" vert-adv-y="2048"  />

      
      <glyph glyph-name="uniAE45" unicode="&#xAE45;" d="M819 1435Q650 1429 363 1429L171 1429L171 1583Q171 1583 673 1583Q884 1583 1028 1587Q1003 1260 780 1003Q553 749 172 630L66 769Q555 916 737 1219Q799 1322 819 1435M1347 1660L1524 1660L1524 608L1347 608L1347 1660M947.50 595Q947.50 595 1089.25 595Q1231 595 1385.50 494Q1540 393 1540 229Q1540 65 1385.50-36.50Q1231-138 947.50-138Q664-138 510-36.50Q356 65 356 229Q356 393 510 494Q664 595 947.50 595M1259 382Q1144 451 947 451Q750 451 634 382Q538 323 538 229Q538 135 642.50 72Q747 9 947 9Q1147 9 1251 72Q1355 135 1355 228.50Q1355 322 1259 382Z"  horiz-adv-x="1750" vert-adv-y="2048"  />

      
      <glyph glyph-name="uniAE46" unicode="&#xAE46;" d="M1347 1660L1522 1660L1522 670L1347 670L1347 1660M1191 435Q1055 428 786 428L405 428L405 580Q405 580 1056 580Q1309 580 1437 583Q1487 583 1467 534Q1383 359 1126 197Q1396 90 1662 22L1565-119Q1290-43 960 104Q672-40 342-122L250 18Q591 98 842 213Q1093 328 1191 435M818 1435Q649 1429 362 1429L171 1429L171 1583Q171 1583 673 1583Q884 1583 1027 1587Q1003 1260 779 1003Q553 749 172 630L66 769Q554 916 736 1219Q798 1322 818 1435Z"  horiz-adv-x="1743" vert-adv-y="2048"  />

      
      <glyph glyph-name="uniAE4A" unicode="&#xAE4A;" d="M823 1435Q655 1429 368 1429L170 1429L170 1583Q170 1583 678 1583Q889 1583 1033 1587Q1009 1281 779.50 1041Q550 801 177 689L76 829Q548 967 735 1239Q798 1331 823 1435M1346 1660L1523 1660L1523 666L1346 666L1346 1660M1571-95L328-95L328 55L551 55L542 426L348 426L348 576L1543 576L1543 426L1348 426L1343 55L1571 55L1571-95M1167 55L1173 426L719 426L728 55L1167 55Z"  horiz-adv-x="1749" vert-adv-y="2048"  />

      
      <glyph glyph-name="uniAE4C" unicode="&#xAE4C;" d="M495 307Q802 675 866 1074Q889 1211 887 1360Q847 1356 846 1356Q846 1356 616 1356L616 1507Q616 1507 876 1507Q984 1507 1063 1511L1063 1422Q1071 727 644 226L495 307M145 407L1 494Q400 836 385 1360Q332 1356 255 1356L78 1356L78 1507L350 1507Q466 1507 554 1511L554 1430Q554 1109 458 860.50Q362 612 145 407M1730 785L1444 785L1444-121L1272-121L1272 1660L1444 1660L1444 943L1730 943L1730 785Z"  horiz-adv-x="1737" vert-adv-y="2048"  />

      
      <glyph glyph-name="uniAE4D" unicode="&#xAE4D;" d="M1090 1581Q1087 998 612 622L476 724Q669 857 788 1054Q905 1240 917 1428Q877 1425 832 1425L642 1425L642 1576Q642 1576 899 1576Q1008 1576 1090 1581M588 1581Q570 1048 116 734L-17 839Q177 953 281.50 1106Q386 1259 413 1429Q360 1425 304 1425L117 1425L117 1576L384 1576Q500 1576 588 1581M1713 1058L1453 1058L1453 621L1281 621L1281 1660L1453 1660L1453 1215L1713 1215L1713 1058M1277-128L1277 375L299 375L299 531L1453 531L1453-128L1277-128Z"  horiz-adv-x="1736" vert-adv-y="2048"  />

      
      <glyph glyph-name="uniAE4E" unicode="&#xAE4E;" d="M1090 1581Q1086 1006 612 645L478 747Q672 879 788.50 1065Q905 1251 916 1428Q877 1425 852 1425L642 1425L642 1576L899 1576Q1008 1576 1090 1581M588 1581Q579 1319 455.50 1111Q332 903 112 754L-19 860Q174 970 279.50 1117.50Q385 1265 412 1429Q360 1425 304 1425L117 1425L117 1576L384 1576Q499 1576 588 1581M1713 1070L1453 1070L1453 631L1281 631L1281 1660L1453 1660L1453 1227L1713 1227L1713 1070M1277-128L1277 379L905 379L905 541L1453 541L1453-128L1277-128M653-128L653 379L248 379L248 541L830 541L830-128L653-128Z"  horiz-adv-x="1736" vert-adv-y="2048"  />

      
      <glyph glyph-name="uniAE50" unicode="&#xAE50;" d="M1090 1557Q1086 943 624 557L488 656Q683 801 796 1003Q909 1205 916 1405Q876 1401 832 1401L642 1401L642 1553L900 1553Q1007 1553 1090 1557M588 1557Q572 985 136 671L4 774Q200 900 296 1059Q392 1218 415 1405Q361 1401 307 1401L116 1401L116 1553L384 1553Q499 1553 588 1557M1713 963L1453 963L1453 354L1281 354L1281 1660L1453 1660L1453 1120L1713 1120L1713 963M1492-87L327-87L327 451L506 451L506 65L1492 65L1492-87Z"  horiz-adv-x="1737" vert-adv-y="2048"  />

      
      <glyph glyph-name="uniAE54" unicode="&#xAE54;" d="M1090 1581Q1082 1061 615 743L481 845Q670 955 783.50 1113Q897 1271 915 1428Q876 1425 852 1425L642 1425L642 1576L899 1576Q1007 1576 1090 1581M588 1581Q579 1345 449.50 1160Q320 975 99 844L-29 954Q159 1045 268 1169Q377 1293 408 1429Q356 1425 299 1425L116 1425L116 1576L383 1576Q499 1576 588 1581M1713 1113L1453 1113L1453 753L1281 753L1281 1660L1453 1660L1453 1270L1713 1270L1713 1113M1492-102L323-102L323 363L1279 363L1279 511L323 511L323 662L1453 662L1453 216L498 216L498 50L1492 50L1492-102Z"  horiz-adv-x="1736" vert-adv-y="2048"  />

      
      <glyph glyph-name="uniAE56" unicode="&#xAE56;" d="M1090 1581Q1082 1064 615 745L481 847Q668 957 782.50 1114Q897 1271 915 1428Q876 1425 832 1425L642 1425L642 1576L899 1576Q1007 1576 1090 1581M588 1581Q579 1345 449.50 1161Q320 977 99 846L-29 956Q159 1047 268 1170Q377 1293 408 1429Q356 1425 299 1425L116 1425L116 1576L383 1576Q499 1576 588 1581M1713 1118L1453 1118L1453 764L1281 764L1281 1660L1453 1660L1453 1276L1713 1276L1713 1118M907 672L1453 672L1453-102L907-102L907 672M1062 531L1062 41L1285 41L1285 531L1062 531M857-64Q727-102 508-102L267-102L267 359L644 359L644 522L267 522L267 672L813 672L813 216L438 216L438 52L562 52Q727 52 857 88L857-64Z"  horiz-adv-x="1736" vert-adv-y="2048"  />

      
      <glyph glyph-name="uniAE5C" unicode="&#xAE5C;" d="M1090 1581Q1083 1018 611 667L478 769Q667 892 784 1072.50Q901 1253 915 1428Q876 1425 852 1425L642 1425L642 1576L899 1576Q1008 1576 1090 1581M588 1581Q579 1326 453.50 1122.50Q328 919 107 776L-23 882Q347 1088 408 1429Q356 1425 299 1425L117 1425L117 1576L383 1576Q499 1576 588 1581M1713 1081L1453 1081L1453 660L1281 660L1281 1660L1453 1660L1453 1239L1713 1239L1713 1081M1453-95L338-95L338 569L1453 569L1453-95M1277 412L515 412L515 61L1277 61L1277 412Z"  horiz-adv-x="1736" vert-adv-y="2048"  />

      
      <glyph glyph-name="uniAE5D" unicode="&#xAE5D;" d="M1090 1581Q1083 1025 611 678L478 780Q667 900 784 1079.50Q901 1259 915 1428Q876 1425 852 1425L642 1425L642 1576L899 1576Q1008 1576 1090 1581M588 1581Q579 1328 452.50 1128Q326 928 105 786L-23 893Q169 998 275 1136.50Q381 1275 408 1429Q356 1425 299 1425L117 1425L117 1576L383 1576Q499 1576 588 1581M1713 1105L1453 1105L1453 742L1281 742L1281 1660L1453 1660L1453 1263L1713 1263L1713 1105M1453-95L333-95L333 640L511 640L511 424L1279 424L1279 650L1453 650L1453-95M1279 61L1279 276L509 276L509 61L1279 61Z"  horiz-adv-x="1736" vert-adv-y="2048"  />

      
      <glyph glyph-name="uniAE5F" unicode="&#xAE5F;" d="M1090 1581Q1087 981 624 602L488 702Q680 842 794.50 1037.50Q909 1233 917 1428Q877 1425 832 1425L642 1425L642 1576L900 1576Q1008 1576 1090 1581M588 1581Q573 1034 120 710L-13 815Q361 1042 413 1429Q360 1425 304 1425L117 1425L117 1576L384 1576Q500 1576 588 1581M1714 1018L1453 1018L1453 465L1281 465L1281 1660L1453 1660L1453 1174L1714 1174L1714 1018M1036 591Q1032 484 994 393Q1077 253 1238 157Q1399 61 1610 22L1508-120Q1225-57 1026 123Q958 184 912 249Q768 52 500-65Q414-100 321-120L212 20Q496 82 664.50 228Q833 374 844 591L1036 591Z"  horiz-adv-x="1736" vert-adv-y="2048"  />

      
      <glyph glyph-name="uniAE60" unicode="&#xAE60;" d="M1090 1581Q1083 1018 611 667L478 769Q667 892 784 1072.50Q901 1253 915 1428Q876 1425 852 1425L642 1425L642 1576L899 1576Q1008 1576 1090 1581M588 1581Q579 1326 453.50 1122.50Q328 919 107 776L-23 882Q347 1088 408 1429Q356 1425 299 1425L117 1425L117 1576L383 1576Q499 1576 588 1581M1713 1075L1453 1075L1453 643L1281 643L1281 1660L1453 1660L1453 1233L1713 1233L1713 1075M1271 578Q1271 481 1252 395Q1317 176 1636 14L1523-113Q1300 2 1181 204Q1080 6 882-120Q709 6 600 210Q490 4 248-120L125 7Q418 147 494 381Q518 465 513 569L692 569Q692 479 673 398Q746 208 895 88Q1002 189 1038 267Q1108 414 1094 578L1271 578Z"  horiz-adv-x="1736" vert-adv-y="2048"  />

      
      <glyph glyph-name="uniAE61" unicode="&#xAE61;" d="M1090 1581Q1087 998 612 622L476 724Q669 857 788 1054Q905 1240 917 1428Q877 1425 832 1425L642 1425L642 1576Q642 1576 899 1576Q1008 1576 1090 1581M588 1581Q570 1048 116 734L-17 839Q177 953 281.50 1106Q386 1259 413 1429Q360 1425 304 1425L117 1425L117 1576L384 1576Q500 1576 588 1581M1713 1035L1453 1035L1453 574L1281 574L1281 1660L1453 1660L1453 1192L1713 1192L1713 1035M435-38Q285 61 285 218.50Q285 376 438 476Q591 576 875 576Q1159 576 1313.50 477.50Q1468 379 1468 218Q1468 57 1314.50-40.50Q1161-138 876-138Q591-138 435-38M1186 71Q1285 131 1285 219Q1285 307 1180.50 368.50Q1076 430 875.50 430Q675 430 571.50 368.50Q468 307 468 219Q468 131 567 71Q675 9 875.50 9Q1076 9 1186 71Z"  horiz-adv-x="1736" vert-adv-y="2048"  />

      
      <glyph glyph-name="uniAE65" unicode="&#xAE65;" d="M1694 1107L1452 1107L1452 740L1280 740L1280 1660L1452 1660L1452 1265L1694 1265L1694 1107M1090 1581Q1082 1061 615 743L481 845Q670 955 783.50 1113Q897 1271 915 1428Q876 1425 851 1425L641 1425L641 1576L899 1576Q1007 1576 1090 1581M587 1581Q578 1345 448.50 1160Q319 975 99 844L-29 954Q159 1045 267.50 1169Q376 1293 408 1429Q355 1425 298 1425L116 1425L116 1576L383 1576Q499 1576 587 1581M531 210L531 46L1491 46L1491-102L356-102L356 648L1456 648L1456 502L531 502L531 352L1452 352L1452 210L531 210Z"  horiz-adv-x="1736" vert-adv-y="2048"  />

      
      <glyph glyph-name="uniAE68" unicode="&#xAE68;" d="M390 319Q777 706 777 1354Q744 1350 713 1350L579 1350L579 1505Q579 1505 779 1505Q865 1505 938 1509L938 1420Q925 1056 853 804Q757 477 533 224L390 319M138 411L6 518Q312 780 356 1139Q369 1248 369 1354Q325 1350 289 1350L118 1350L118 1505L351 1505Q452 1505 529 1509L529 1428Q525 1099 449 878Q355 606 138 411M1557-121L1389-121L1389 829L1219 829L1219-77L1055-77L1055 1641L1219 1641L1219 983L1389 983L1389 1660L1557 1660L1557-121Z"  horiz-adv-x="1745" vert-adv-y="2048"  />

      
      <glyph glyph-name="uniAE69" unicode="&#xAE69;" d="M1568 610L1402 610L1402 1064L1238 1064L1238 610L1074 610L1074 1641L1238 1641L1238 1208L1402 1208L1402 1660L1568 1660L1568 610M1387-128L1387 366L370 366L370 519L1564 519L1564-128L1387-128M578 1561Q578 1561 787 1561Q876 1561 949 1565L949 1502Q952 1026 584 649L441 738Q770 1036 785 1411Q752 1407 725 1407L578 1407L578 1561M128 1561L353 1561Q451 1561 528 1565L528 1508Q528 1176 326 930Q257 845 155 771L16 862Q182 972 269.50 1116.50Q357 1261 363 1411Q318 1407 283 1407L128 1407L128 1561Z"  horiz-adv-x="1745" vert-adv-y="2048"  />

      
      <glyph glyph-name="uniAE6C" unicode="&#xAE6C;" d="M532 1551L532 1488Q532 1130 334 865Q267 772 164 693L24 788Q194 907 278.50 1067Q363 1227 367 1397Q322 1393 321 1393Q321 1393 132 1393L132 1548Q132 1548 357 1548Q455 1548 532 1551M786 1397Q752 1393 726 1393L583 1393L583 1548L789 1548Q877 1548 949 1551L949 1482Q953 961 590 564L446 655Q620 829 700 1011.50Q780 1194 786 1397M1568 333L1402 333L1402 1006L1239 1006L1239 372L1074 372L1074 1641L1239 1641L1239 1153L1402 1153L1402 1660L1568 1660L1568 333M1597-87L441-87L441 449L619 449L619 69L1597 69L1597-87Z"  horiz-adv-x="1744" vert-adv-y="2048"  />

      
      <glyph glyph-name="uniAE70" unicode="&#xAE70;" d="M1569 744L1403 744L1403 1124L1239 1124L1239 744L1075 744L1075 1641L1239 1641L1239 1268L1403 1268L1403 1660L1569 1660L1569 744M1608-100L422-100L422 352L1395 352L1395 502L414 502L414 653L1569 653L1569 204L597 204L597 52L1608 52L1608-100M953 1579L953 1521Q958 1076 583 721L439 807Q771 1083 790 1424Q757 1421 729 1421L584 1421L584 1574Q584 1574 793 1574Q881 1574 953 1579M532 1579L532 1527Q532 1221 325 985Q256 905 153 836L14 925Q179 1028 268.50 1157Q358 1286 367 1424Q322 1421 287 1421L133 1421L133 1574L359 1574Q456 1574 532 1579Z"  horiz-adv-x="1743" vert-adv-y="2048"  />

      
      <glyph glyph-name="uniAE78" unicode="&#xAE78;" d="M583 1574Q583 1574 791 1574Q880 1574 953 1579L953 1515Q957 1039 588 663L445 752Q774 1050 789 1424Q756 1421 729 1421L583 1421L583 1574M132 1574L357 1574Q455 1574 532 1579L532 1521Q532 1189 329 943Q261 858 158 784L20 875Q186 985 273.50 1129.50Q361 1274 366 1424Q322 1421 287 1421L132 1421L132 1574M1568 645L1402 645L1402 1097L1238 1097L1238 645L1074 645L1074 1641L1238 1641L1238 1243L1402 1243L1402 1660L1568 1660L1568 645M1564-95L420-95L420 554L1564 554L1564-95M1388 398L596 398L596 59L1388 59L1388 398Z"  horiz-adv-x="1745" vert-adv-y="2048"  />

      
      <glyph glyph-name="uniAE79" unicode="&#xAE79;" d="M584 1574Q584 1574 793 1574Q881 1574 953 1579L953 1517Q958 1056 587 688L444 775Q771 1065 790 1424Q757 1421 730 1421L584 1421L584 1574M133 1574L359 1574Q456 1574 533 1579L533 1523Q533 1072 157 808L18 897Q185 1004 272.50 1142.50Q360 1281 367 1424Q323 1421 288 1421L133 1421L133 1574M1569 722L1403 722L1403 1132L1239 1132L1239 722L1075 722L1075 1641L1239 1641L1239 1278L1403 1278L1403 1660L1569 1660L1569 722M1569-95L416-95L416 621L593 621L593 424L1395 424L1395 631L1569 631L1569-95M1395 59L1395 276L591 276L591 59L1395 59Z"  horiz-adv-x="1745" vert-adv-y="2048"  />

      
      <glyph glyph-name="uniAE7B" unicode="&#xAE7B;" d="M583 1574Q583 1574 791 1574Q881 1574 953 1579L953 1510Q958 988 595 592L449 681Q779 1011 790 1422Q756 1419 729 1419L583 1419L583 1574M132 1574Q132 1574 357 1574Q455 1574 532 1579L532 1515Q532 1156 334 892Q266 800 164 719L24 815Q194 935 278.50 1095Q363 1255 367 1422Q321 1419 286 1419L132 1419L132 1574M1568 461L1402 461L1402 1058L1239 1058L1239 660L1073 660L1073 1641L1239 1641L1239 1206L1402 1206L1402 1660L1568 1660L1568 461M1043 412Q1129 265 1293.50 165Q1458 65 1673 25L1571-120Q1285-57 1078 134Q1009 197 962 265Q808 52 537-62Q448-99 353-120L244 22Q693 125 833 388Q882 481 887 597L1079 597Q1079 502 1043 412Z"  horiz-adv-x="1740" vert-adv-y="2048"  />

      
      <glyph glyph-name="uniAE7C" unicode="&#xAE7C;" d="M583 1574Q583 1574 791 1574Q880 1574 952 1579L952 1515Q957 1039 587 663L445 752Q774 1050 789 1424Q756 1421 728 1421L583 1421L583 1574M131 1574L357 1574Q454 1574 531 1579L531 1521Q531 1189 328 943Q260 858 158 784L19 875Q186 985 273 1129.50Q360 1274 366 1424Q320 1421 285 1421L131 1421L131 1574M1568 643L1400 643L1400 1092L1238 1092L1238 643L1073 643L1073 1641L1238 1641L1238 1237L1400 1237L1400 1660L1568 1660L1568 643M192 7Q610 203 589 562L770 562Q770 469 749 384Q823 200 979 88Q1209 289 1183 569L1361 569Q1361 475 1339 386Q1405 176 1734 14L1620-115Q1387 0 1270 202Q1173 6 965-120Q787 6 674 203Q555-4 318-120L192 7Z"  horiz-adv-x="1737" vert-adv-y="2048"  />

      
      <glyph glyph-name="uniAE7D" unicode="&#xAE7D;" d="M584 1574Q584 1574 792 1574Q881 1574 954 1579L954 1510Q958 1007 593 614L450 705Q625 874 705 1050.50Q785 1227 791 1422Q758 1419 730 1419L584 1419L584 1574M133 1574L359 1574Q456 1574 533 1579L533 1515Q533 1023 163 741L25 834Q195 952 279.50 1105.50Q364 1259 367 1422Q323 1419 288 1419L133 1419L133 1574M1569 604L1403 604L1403 1101L1239 1101L1239 662L1075 662L1075 1641L1239 1641L1239 1248L1403 1248L1403 1660L1569 1660L1569 604M1573 226Q1573 226 1573 143.50Q1573 61 1420-33Q1255-138 965.50-138Q676-138 518.50-36.50Q361 65 361 228Q361 391 518.50 492Q676 593 966.50 593Q1257 593 1415 492Q1573 391 1573 226M1389 228.50Q1389 228.50 1389 273.25Q1389 318 1281 380Q1173 442 965 442Q757 442 650.50 380.50Q544 319 544 229Q544 139 650.50 77.50Q757 16 965 16Q1173 16 1281 77.50Q1389 139 1389 228.50Z"  horiz-adv-x="1746" vert-adv-y="2048"  />

      
      <glyph glyph-name="uniAE84" unicode="&#xAE84;" d="M1443 558L1443-121L1271-121L1271 1660L1443 1660L1443 1265L1709 1265L1709 1109L1443 1109L1443 713L1709 713L1709 558L1443 558M494 307Q801 675 866 1074Q889 1211 887 1360Q847 1356 846 1356Q846 1356 616 1356L616 1507Q616 1507 875 1507Q985 1507 1062 1511L1062 1422Q1070 728 644 226L494 307M145 407L0 494Q399 836 384 1360Q332 1356 255 1356L77 1356L77 1507L350 1507Q466 1507 553 1511L553 1430Q553 1109 457 860.50Q361 612 145 407Z"  horiz-adv-x="1737" vert-adv-y="2048"  />

      
      <glyph glyph-name="uniAE85" unicode="&#xAE85;" d="M1455 1379L1708 1379L1708 1226L1453 1226L1453 1031L1708 1031L1708 878L1455 878L1455 621L1283 621L1283 1660L1455 1660L1455 1379M1122 1581Q1118 998 643 622L507 724Q700 857 818 1048.50Q936 1240 947 1428Q908 1425 864 1425L673 1425L673 1576L931 1576Q1039 1576 1122 1581M619 1581Q612 1313 490 1099.50Q368 886 146 734L14 839Q210 953 314 1106Q418 1259 444 1429Q391 1425 336 1425L148 1425L148 1576L415 1576Q531 1576 619 1581M1279-128L1279 375L301 375L301 531L1455 531L1455-128L1279-128Z"  horiz-adv-x="1739" vert-adv-y="2048"  />

      
      <glyph glyph-name="uniAE8C" unicode="&#xAE8C;" d="M1122 1581Q1116 1056 647 737L514 839Q701 949 815 1110Q929 1271 948 1428Q909 1425 883 1425L674 1425L674 1576L931 1576Q1040 1576 1122 1581M619 1581Q611 1345 481.50 1157Q352 969 132 838L2 948Q192 1039 300.50 1166Q409 1293 440 1429Q388 1425 331 1425L149 1425L149 1576L416 1576Q532 1576 619 1581M1454 1454L1707 1454L1707 1302L1452 1302L1452 1113L1707 1113L1707 960L1454 960L1454 744L1282 744L1282 1660L1454 1660L1454 1454M1493-102L324-102L324 355L1280 355L1280 502L324 502L324 653L1454 653L1454 208L499 208L499 50L1493 50L1493-102Z"  horiz-adv-x="1737" vert-adv-y="2048"  />

      
      <glyph glyph-name="uniAEBC" unicode="&#xAEBC;" d="M1088 839L1088 995L1364 995L1364 1660L1540 1660L1540-121L1364-121L1364 839L1088 839M516 307Q824 675 888 1074Q912 1211 910 1360Q870 1356 868 1356Q868 1356 640 1356L640 1507Q640 1507 898 1507Q1008 1507 1086 1511L1086 1422Q1094 731 667 226L516 307M168 407L22 494Q421 836 406 1360Q356 1356 279 1356L100 1356L100 1507L373 1507Q489 1507 575 1511L575 1430Q575 1109 480 860.50Q385 612 168 407Z"  horiz-adv-x="1748" vert-adv-y="2048"  />

      
      <glyph glyph-name="uniAEBD" unicode="&#xAEBD;" d="M1108 1019L1108 1176L1365 1176L1365 1660L1540 1660L1540 621L1365 621L1365 1019L1108 1019M1364-128L1364 375L366 375L366 531L1540 531L1540-128L1364-128M1125 1581Q1121 998 646 622L510 724Q703 857 820.50 1048.50Q938 1240 949 1428Q910 1425 865 1425L677 1425L677 1576L933 1576Q1043 1576 1125 1581M622 1581Q606 1047 149 734L17 839Q212 953 316 1106Q420 1259 446 1429Q394 1425 338 1425L151 1425L151 1576L417 1576Q533 1576 622 1581Z"  horiz-adv-x="1748" vert-adv-y="2048"  />

      
      <glyph glyph-name="uniAEBE" unicode="&#xAEBE;" d="M1108 1033L1108 1187L1365 1187L1365 1660L1540 1660L1540 631L1365 631L1365 1033L1108 1033M1364-128L1364 381L960 381L960 541L1540 541L1540-128L1364-128M710-128L710 381L316 381L316 541L886 541L886-128L710-128M1125 1581Q1121 998 646 622L510 724Q703 857 820.50 1048.50Q938 1240 949 1428Q910 1425 865 1425L677 1425L677 1576L933 1576Q1043 1576 1125 1581M622 1581Q606 1047 149 734L17 839Q212 953 316 1106Q420 1259 446 1429Q394 1425 338 1425L151 1425L151 1576L417 1576Q533 1576 622 1581Z"  horiz-adv-x="1748" vert-adv-y="2048"  />

      
      <glyph glyph-name="uniAEC0" unicode="&#xAEC0;" d="M1124 960L1124 1109L1366 1109L1366 1660L1541 1660L1541 354L1366 354L1366 960L1124 960M1147 1557Q1143 951 671 557L534 656Q732 803 846 1005Q960 1207 968 1405Q928 1401 885 1401L685 1401L685 1553L952 1553Q1064 1553 1147 1557M627 1557Q611 989 171 671L38 774Q236 900 331.50 1059Q427 1218 449 1405Q396 1401 342 1401L151 1401L151 1553L421 1553Q538 1553 627 1557M1579-87L418-87L418 451L598 451L598 67L1579 67L1579-87Z"  horiz-adv-x="1746" vert-adv-y="2048"  />

      
      <glyph glyph-name="uniAEC4" unicode="&#xAEC4;" d="M1135 1581Q1127 1041 671 737L536 839Q722 947 830.50 1107Q939 1267 959 1428Q920 1425 896 1425L686 1425L686 1576L944 1576Q1052 1576 1135 1581M632 1581Q624 1345 497 1157Q370 969 149 838L20 944Q209 1036 314.50 1164.50Q420 1293 452 1429Q399 1425 346 1425L164 1425L164 1576L428 1576Q543 1576 632 1581M1120 1090L1120 1237L1366 1237L1366 1660L1540 1660L1540 744L1366 744L1366 1090L1120 1090M1578-102L397-102L397 354L1366 354L1366 500L397 500L397 653L1540 653L1540 203L571 203L571 52L1578 52L1578-102Z"  horiz-adv-x="1745" vert-adv-y="2048"  />

      
      <glyph glyph-name="uniAECC" unicode="&#xAECC;" d="M1125 1581Q1118 1018 647 667L512 769Q702 892 818 1072.50Q934 1253 950 1428Q911 1425 885 1425L686 1425L686 1576L936 1576Q1043 1576 1125 1581M632 1581Q624 1326 498.50 1122.50Q373 919 151 776L21 882Q391 1088 452 1429Q400 1425 346 1425L164 1425L164 1576L428 1576Q543 1576 632 1581M1105 1033L1105 1189L1364 1189L1364 1660L1540 1660L1540 651L1364 651L1364 1033L1105 1033M1540-95L404-95L404 560L1540 560L1540-95M1364 403L581 403L581 61L1364 61L1364 403Z"  horiz-adv-x="1748" vert-adv-y="2048"  />

      
      </font>
</defs>
</svg>
